<svg width="48" height="48" xmlns="http://www.w3.org/2000/svg" xmlns:svg="http://www.w3.org/2000/svg">
 <g>
  <path id="svg_2" d="m0.301468,23.987488c0,-13.210336 10.516322,-23.910708 23.499435,-23.910708c12.983113,0 23.499435,10.700372 23.499435,23.910708c0,13.210336 -10.516322,23.910708 -23.499435,23.910708c-12.983113,0 -23.499435,-10.700372 -23.499435,-23.910708z" stroke-linecap="null" stroke-linejoin="null" stroke-dasharray="null" stroke-width="null" fill="#191919"/>
  <ellipse id="svg_4" cy="-3.5" cx="4" stroke-linecap="null" stroke-linejoin="null" stroke-dasharray="null" stroke-width="null" fill="white"/>
  <path stroke-linejoin="null" stroke-linecap="null" stroke-dasharray="null" stroke-width="null" d="m28.689205,9.573299l-4.646038,0c-0.257836,-0.778462 -0.749121,-1.485764 -1.42517,-2.051745c-0.676077,-0.565981 -1.513401,-0.970978 -2.428937,-1.17483c-0.915546,-0.203852 -1.877499,-0.199464 -2.790442,0.012723c-0.912953,0.212179 -1.745182,0.62479 -2.414151,1.196896c-0.668969,0.572114 -1.151424,1.283851 -1.399532,2.064623c-0.2481,0.780773 -0.253231,1.603444 -0.014869,2.386434c0.238353,0.78299 0.711924,1.499084 1.373721,2.077268c0.661798,0.578169 1.488832,0.998325 2.399092,1.21883l0,6.255577c-1.134589,0.276718 -2.132852,0.86202 -2.843579,1.667363c-0.710736,0.805343 -1.095215,1.78692 -1.095215,2.795867c0,1.009024 0.384479,1.990524 1.095215,2.795867c0.710727,0.805343 1.70899,1.390722 2.843579,1.667363l0,3.727047c-1.26046,0.30525 -2.349293,0.990028 -3.065531,1.928109c-0.716248,0.938003 -1.011554,2.065964 -0.831413,3.175704c0.180132,1.109663 0.823553,2.12613 1.811499,2.861848c0.987946,0.735718 2.253728,1.140987 3.563734,1.140987c1.309996,0 2.575778,-0.405269 3.563725,-1.140987c0.987937,-0.735718 1.631349,-1.752185 1.81149,-2.861848c0.180141,-1.10974 -0.115138,-2.237701 -0.83144,-3.175704c-0.716212,-0.938081 -1.805035,-1.622859 -3.065495,-1.928109l0,-3.727047c0.889562,-0.216707 1.699715,-0.623914 2.353726,-1.183243c0.654019,-0.559328 1.130255,-1.252247 1.383558,-2.013008l4.646038,0c2.746174,0 5.379838,-0.932964 7.321679,-2.593659c1.941841,-1.660617 3.032749,-3.91305 3.032749,-6.261625c0,-2.348497 -1.090908,-4.600899 -3.032749,-6.261579c-1.941841,-1.660687 -4.575505,-2.593651 -7.321679,-2.593651l0.006437,-0.005474l-0.000001,0zm-12.331852,1.269731c0,-0.416744 0.144502,-0.824129 0.415231,-1.170635c0.270719,-0.346514 0.655515,-0.616587 1.105722,-0.776066c0.450198,-0.159479 0.94559,-0.201208 1.423521,-0.119906c0.47794,0.081302 0.916942,0.281983 1.261512,0.576665c0.34457,0.294683 0.579225,0.670132 0.67429,1.078867c0.095074,0.408734 0.046282,0.832402 -0.140206,1.217427c-0.186478,0.385017 -0.502264,0.714101 -0.90744,0.945632c-0.405168,0.231531 -0.881521,0.355112 -1.368817,0.355112c-0.653448,0 -1.280124,-0.222003 -1.742181,-0.617153c-0.462057,-0.395158 -0.721633,-0.93111 -0.721633,-1.489943l0,0.000001zm4.93402,27.835496c0,0.416744 -0.144493,0.824184 -0.415222,1.170682c-0.270728,0.346498 -0.655524,0.616548 -1.105731,0.776035c-0.450198,0.159487 -0.94559,0.2012 -1.423521,0.119945c-0.477931,-0.081333 -0.916942,-0.28199 -1.261512,-0.576696c-0.34457,-0.294706 -0.579225,-0.670124 -0.67429,-1.078882c-0.095066,-0.408681 -0.046282,-0.832402 0.140206,-1.217435c0.186478,-0.385033 0.502273,-0.714086 0.90744,-0.945601c0.405177,-0.231516 0.881521,-0.355105 1.368817,-0.355105c0.652342,0 1.278058,0.221204 1.739923,0.61523c0.461875,0.393949 0.722195,0.928467 0.723891,1.4864l0,0.005427l0,0.000001zm-2.463814,-10.546372c-0.487296,0 -0.96364,-0.123589 -1.368817,-0.355105c-0.405168,-0.231516 -0.720963,-0.560647 -0.90744,-0.945679c-0.186487,-0.385033 -0.235271,-0.808677 -0.140206,-1.217435c0.095066,-0.408681 0.32972,-0.784176 0.67429,-1.078804c0.34457,-0.294706 0.783581,-0.495363 1.261512,-0.576696c0.477931,-0.081333 0.973323,-0.039542 1.423521,0.119945c0.450207,0.15941 0.835003,0.429537 1.105731,0.776035c0.270728,0.346498 0.415222,0.753861 0.415222,1.170605c0,0.558863 -0.259577,1.094777 -0.721633,1.489966c-0.462057,0.395189 -1.088733,0.617169 -1.742181,0.617169zm9.861647,-3.376827l-4.646038,0c-0.253303,-0.760761 -0.729538,-1.453602 -1.383558,-2.012931c-0.654047,-0.559328 -1.4642,-0.966613 -2.353762,-1.18332l0,-6.255577c0.889562,-0.216629 1.699715,-0.623914 2.353762,-1.183243c0.654019,-0.559351 1.130255,-1.252209 1.383558,-2.01297l4.646038,0c1.962058,0 3.8437,0.666566 5.231066,1.853095c1.387365,1.186499 2.166767,2.795711 2.166767,4.473619c0,1.677985 -0.779401,3.287198 -2.166767,4.473697c-1.387365,1.186499 -3.269008,1.853056 -5.231066,1.853056l0,-0.005427l0,0.000001z" fill="white" id="svg_1"/>
 </g>
</svg>