<svg width="0" height="0">
    <symbol viewBox="0 0 16 20" fill="none" xmlns="http://www.w3.org/2000/svg"
            id="scripts">
        <path fillRule="evenodd" clipRule="evenodd" d="M2 0a2 2 0 0 0-2 2v2a2 2 0 0 0 2 2h.073c.216 1.423.895 2.504 1.82 3.337 1.083.975 2.485 1.591 3.736 2.091.251.101.496.197.732.29 1.006.393 1.865.73 2.541 1.158.567.359.89.71 1.024 1.125A2 2 0 0 0 10 16v2a2 2 0 0 0 2 2h2a2 2 0 0 0 2-2v-2a2 2 0 0 0-2-2h-.032c-.172-1.316-1.018-2.195-1.995-2.814-.856-.541-1.946-.967-2.96-1.362l-.004-.002-.034-.013-.604-.237c-1.249-.5-2.347-1.009-3.14-1.722-.537-.483-.941-1.068-1.124-1.853A2 2 0 0 0 6 4V2a2 2 0 0 0-2-2H2zm2 2H2v2h2V2zM2 14a2 2 0 0 0-2 2v2a2 2 0 0 0 2 2h2a2 2 0 0 0 2-2v-2a2 2 0 0 0-2-2v-2c0-.359-.226-.49-.57-.689-.38-.22-.905-.524-1.43-1.311v4zm2 2H2v2h2v-2zm8 0h2v2h-2v-2z"
              fill="#535374" />
    </symbol>
    <symbol viewBox="0 0 12 5" fill="none" xmlns="http://www.w3.org/2000/svg"
            id="showPassword">
        <path d="M.334 3.038L0 2.346l1.36-.685A25.032 25.032 0 0 1 .168.385L.51 0C1.724 1 3.692 3 6 3v2h-.462V4c-.659-.058-1.34-.06-1.881-.446l-.943.946-.532-.539.836-.846-1.163-.846-1.52.77zm11.331 0L12 2.346l-1.36-.685C11.345.954 11.832.385 11.832.385L11.49 0C10.276 1 8.308 3 6 3v2h.462V4c.659-.058 1.34-.06 1.881-.446l.943.946.532-.539-.836-.846 1.163-.846 1.52.77z"
              fill="#6879BB" />
    </symbol>
    <symbol viewBox="0 0 16 19" fill="none" xmlns="http://www.w3.org/2000/svg"
            id="time">
        <path fillRule="evenodd" clipRule="evenodd" d="M6 0a1 1 0 0 0 0 2h1v1.062A8.001 8.001 0 0 0 8 19 8 8 0 0 0 9 3.062V2h1a1 1 0 0 0 0-2H6zm1 16.917zm2-8.812a1 1 0 1 0-2 0v3.191c0 .569.32 1.088.83 1.342l1.723.862a1 1 0 0 0 .894-1.79L9 10.988V8.106z"
              fill="#535374" />
    </symbol>
    <symbol viewBox="0 0 16 20" fill="none" xmlns="http://www.w3.org/2000/svg"
            id="update">
        <path fillRule="evenodd" clipRule="evenodd" d="M11 3L6.5 5.598V4.189a6.002 6.002 0 0 0-1.422 11.052l-1.943 1.11A8.002 8.002 0 0 1 6.5 2.14V.402L11 3zm-.078 1.759A6.002 6.002 0 0 1 9.5 15.81V14.4L5 17l4.5 2.598V17.86a8.003 8.003 0 0 0 3.365-14.211l-1.943 1.11z"
              fill="#535374" />
    </symbol>
    <symbol viewBox="0 0 16 20" fill="none" xmlns="http://www.w3.org/2000/svg"
            id="user">
        <path fillRule="evenodd" clipRule="evenodd" d="M12.837 6C12.745 3.863 11.624 2.64 9 1c-.379-.175-.501.031-.686.34C8.038 1.804 7.623 2.5 6 2.5c-2.741 0-2.765 1.316-2.795 3.011-.003.16-.006.323-.011.489C2.5 6 2.5 7.25 2.5 8c0 .663.5 2 .755 2 .378 1.512 1.155 2.604 2.164 3.261l-.378 1.512a.816.816 0 0 0-.059.102 5.827 5.827 0 0 0-2.622.705C1.317 16.167.375 17.23.375 19v.625h15.25V19c0-1.843-1.25-2.886-2.345-3.434a7.447 7.447 0 0 0-2.142-.678l-.042-.006-.012-.001h-.004l-.001-.001h-.002l-.038-.005h-.055l-.403-1.614c1.009-.657 1.786-1.749 2.164-3.261.255 0 .755-1.337.755-2 0-.729 0-2-.663-2zM9.162 16.89c.476-.1.854-.27 1.145-.495.054-.043.105-.086.152-.13a9.15 9.15 0 0 0 .227-.14h.27l.106.018a6.2 6.2 0 0 1 1.659.541c.728.364 1.357.894 1.573 1.691H1.684c.17-.848.69-1.368 1.289-1.705A4.583 4.583 0 0 1 5 16.125h.314c.03.02.065.04.103.064.163.1.393.234.66.369.504.255 1.242.567 1.923.567.386 0 .791-.1 1.162-.234zm.834-1.808a.715.715 0 0 0 .002-.027l-.334-1.338A4.88 4.88 0 0 1 8 14a4.881 4.881 0 0 1-1.664-.283l-.34 1.36.075.047c.142.087.341.203.57.318.483.245.995.433 1.359.433s.876-.188 1.36-.433a8.107 8.107 0 0 0 .636-.36zm-.92-12.24a3.271 3.271 0 0 1-.904.692C7.572 3.847 6.854 4 6 4c-.639 0-.952.087-1.085.146-.076.034-.078.048-.08.054v.002c-.028.056-.077.202-.103.553-.018.234-.022.452-.026.72v.003c-.003.166-.006.35-.013.57L4.647 7.5h-.64C4 7.662 4 7.827 4 7.999v.004a2.164 2.164 0 0 0 .043.25c.019.079.042.163.068.247h.314l.285 1.136C5.215 11.653 6.524 12.5 8 12.5s2.785-.847 3.29-2.864l.285-1.136h.314a3.573 3.573 0 0 0 .104-.434.935.935 0 0 0 .007-.067c0-.169 0-.334-.007-.499H11.4l-.061-1.435c-.034-.777-.237-1.306-.644-1.817-.34-.427-.85-.873-1.62-1.406zM4.308 8.998L4.31 9v-.002zM11.69 9c-.002.005-.002.004.002-.002L11.69 9z"
              fill="#6879BB" />
    </symbol>
    <symbol viewBox="0 0 47 42" fill="none" xmlns="http://www.w3.org/2000/svg"
            id="warning">
        <path fillRule="evenodd" clipRule="evenodd" d="M44.71 36.75L25.223 3c-.77-1.334-2.695-1.334-3.465 0L2.274 36.75c-.77 1.333.192 3 1.732 3h38.971c1.54 0 2.502-1.667 1.732-3zM26.955 2c-1.54-2.667-5.389-2.667-6.929 0L.542 35.75c-1.54 2.666.385 6 3.464 6h38.971c3.08 0 5.004-3.334 3.464-6L26.956 2zm-.965 31.16c0 1.016-.895 1.84-2 1.84-1.104 0-2-.824-2-1.84s.896-1.84 2-1.84c1.105 0 2 .824 2 1.84zm-2-21.16a2 2 0 0 0-2 2v13.48a2 2 0 0 0 4 0V14a2 2 0 0 0-2-2z"
              fill="#EE4141" />
    </symbol>
    <symbol viewBox="0 0 16 19" fill="none" xmlns="http://www.w3.org/2000/svg"
            id="averageTime">
        <path fillRule="evenodd" clipRule="evenodd" d="M5 1a1 1 0 0 1 1-1h4a1 1 0 0 1 0 2H9v1.062a8.001 8.001 0 0 1-2 15.876v-2.02A6 6 0 1 0 7 5.083V1.999H6a1 1 0 0 1-1-1zM4 5a1 1 0 0 0 0 2h1a1 1 0 0 0 0-2H4zM3 17a1 1 0 0 1 1-1h1a1 1 0 0 1 0 2H4a1 1 0 0 1-1-1zM1 8a1 1 0 0 0 0 2h2a1 1 0 0 0 0-2H1zm-1 5a1 1 0 0 1 1-1h2a1 1 0 0 1 0 2H1a1 1 0 0 1-1-1z"
              fill="#535374" />
        <path d="M8 7.105a1 1 0 0 1 1 1v2.883l1.447.723a1 1 0 0 1-.894 1.789l-1.723-.862A1.498 1.498 0 0 1 7 11.296v-3.19a1 1 0 0 1 1-1z"
              fill="#535374" />
    </symbol>
    <symbol viewBox="0 0 20 20" fill="none" xmlns="http://www.w3.org/2000/svg"
            id="data">
        <path fillRule="evenodd" clipRule="evenodd" d="M10 2a8 8 0 1 0 5.292 14H15v-1h1v.292c.084-.096.166-.193.245-.292H16v-1h.93l.07-.124V13h.419a7.95 7.95 0 0 0 .329-1H17v-1h.938A8.05 8.05 0 0 0 18 10h-1V9h.938a7.963 7.963 0 0 0-.136-.779l1.95-.442C19.915 8.494 20 9.238 20 10c0 5.523-4.477 10-10 10S0 15.523 0 10 4.477 0 10 0c.762 0 1.506.085 2.221.248l-.442 1.95A8.03 8.03 0 0 0 10 2zm6 9v-1h1v1h-1zm0 1v-1h-1v-1h-1v1h-1v1h-1v-1h-1v1h1v1h1v1h1v1h1v-1h1v-1h1v-1h-1zm-1 0v-1h-1v1h-1v1h1v1h1v-1h1v-1h-1zm0 0v1h-1v-1h1zm-.555-10.96l-.87-.432-.457.857.882.47-.883-.47v.002l-.002.003-.008.015-.03.057-.112.212A90.87 90.87 0 0 0 11.41 4.85c-.41.858-.815 1.757-1.088 2.483a7.323 7.323 0 0 0-.315 1.014c-.031.147-.06.33-.055.515.003.142.027.532.341.845.313.314.703.338.845.341a2.24 2.24 0 0 0 .515-.055c.302-.063.656-.18 1.014-.315.726-.273 1.625-.678 2.483-1.088a90.32 90.32 0 0 0 3.309-1.667l.056-.03.015-.008.003-.002h.002L18.065 6l.47.882.858-.457-.433-.87a10.039 10.039 0 0 0-4.515-4.515zm-.095 2.386l.055-.105a8.047 8.047 0 0 1 2.274 2.274l-.105.055a91.78 91.78 0 0 1-2.285 1.135c-.687.328-1.369.637-1.946.872.235-.577.544-1.259.872-1.946.4-.84.818-1.667 1.136-2.285z"
              fill="#6879BB" />
    </symbol>
    <symbol viewBox="0 0 16 16" fill="none" xmlns="http://www.w3.org/2000/svg"
            id="menu">
        <path fillRule="evenodd" clipRule="evenodd" d="M0 0h4v4H0V0zm6 6h4v4H6V6zm4-6H6v4h4V0zm2 0h4v4h-4V0zM4 6H0v4h4V6zm8 0h4v4h-4V6zm-8 6H0v4h4v-4zm2 0h4v4H6v-4zm10 0h-4v4h4v-4z"
              fill="#fff" />
    </symbol>
</svg>