<svg xmlns="http://www.w3.org/2000/svg" xmlns:xlink="http://www.w3.org/1999/xlink" xmlns:fi="http://pattern.flaticon.com/" x="0" y="0" width="420" height="350" viewBox="0 0 420 350"><rect x="0px" y="0px" width="100%" height="100%" opacity="0" fill="#282a2e"/><defs><g transform="matrix(-0.6091123223304749 0 0 0.6091123223304749 352.9999981912688 71)" id="L1_21"><path d="M71.007,81.408l0.229-0.273l-0.334-0.123c-1.267-0.466-2.452-1.18-3.524-2.115l-0.22-0.19l-0.155,0.245    c-1.634,2.537-4.042,4.335-6.944,4.744l0,0c-0.418,0.062-0.834,0.09-1.246,0.09c-2.455-0.002-4.787-1.016-6.734-2.706l-0.219-0.19    l-0.157,0.242c-1.631,2.532-4.037,4.324-6.936,4.734c-0.415,0.06-0.836,0.087-1.25,0.087c-2.46,0-4.796-1.019-6.742-2.718    l-0.217-0.189l-0.158,0.243c-0.784,1.214-1.748,2.247-2.857,3.051l-0.292,0.213l0.298,0.199c3.761,2.508,8.588,4.235,14.74,4.235    c1.547,0,3.178-0.11,4.899-0.344l0,0h0.002C61.755,89.378,67.361,85.75,71.007,81.408z" fill="#ffffff"/><path d="M74.543,74.355c-0.097,0.056-0.171,0.08-0.198,0.078c-0.432,0-0.847-0.031-1.285-0.031    c-2.451-0.002-4.783-1.073-6.73-2.771l-0.217-0.19l-0.157,0.244c-1.636,2.532-4.038,4.293-6.938,4.702    c-0.412,0.06-0.828,0.072-1.248,0.072c-2.453-0.002-4.785-1.022-6.731-2.715l-0.218-0.19l-0.157,0.242    c-1.634,2.532-4.038,4.319-6.935,4.729c-0.419,0.061-0.835,0.086-1.251,0.086c-2.454-0.002-4.786-1.03-6.73-2.725l-0.219-0.191    l-0.156,0.244c-0.822,1.275-1.815,2.471-2.957,3.338c-1.146,0.869-2.429,1.414-3.854,1.414h-0.006h-0.005    c0,0-0.196,0.008-0.451,0.017c-0.255,0.009-0.569,0.017-0.795,0.017h-0.521l0.323,0.406c1.229,1.545,2.957,3.258,3.958,4.367    v0.288l0.35-0.151c2.061-0.891,3.015-2.173,4.027-3.729l0.004-0.006l0.607-1.08l0.752,0.697l0,0    c1.898,1.965,4.273,3.098,6.655,3.1l0,0h0.002h0.003c0.352,0,0.729-0.023,1.09-0.075c2.761-0.392,5.08-2.269,6.547-5.047    l0.437-0.816l0.649,0.668l-0.004-0.004c1.903,1.97,4.231,3.104,6.623,3.104l0,0h0.002h0.002c0.353,0,0.705-0.023,1.061-0.073    c2.765-0.392,5.068-2.267,6.538-5.046l0.431-0.818l0.643,0.666c1.312,1.365,2.838,2.328,4.438,2.795l0.17,0.051l0.104-0.145    c1.268-1.771,2.252-3.502,3.011-5.342l0.182-0.44l-0.465,0.101C74.759,74.23,74.644,74.305,74.543,74.355z" fill="#ffffff"/><path d="M73.273,66.85l0.033,0.248l-0.035-0.248c-0.42,0.061-0.834,0.09-1.252,0.09c-2.453-0.002-4.785-1.016-6.729-2.707    l-0.221-0.189l-0.155,0.242c-1.634,2.529-4.039,4.322-6.938,4.732c-0.416,0.06-0.83,0.088-1.242,0.088    c-2.457,0-4.787-1.016-6.736-2.711l-0.22-0.188l-0.154,0.243c-1.635,2.535-4.039,4.324-6.934,4.73    c-0.422,0.061-0.841,0.09-1.257,0.09c-2.454,0-4.784-1.014-6.728-2.705l-0.218-0.188l-0.158,0.243    c-1.633,2.529-4.037,4.32-6.935,4.732c-0.414,0.062-0.831,0.09-1.244,0.09c-1.009,0-1.997-0.192-2.953-0.514l-0.525-0.178    l0.215,0.511c0.78,1.851,1.766,3.817,3.238,5.964l0.029,0.041l0.143,0.094l0.052,0.033l0.061,0.006    c0.261,0.027,0.521,0.041,0.782,0.041c0.35,0,0.705-0.023,1.059-0.071h0.001l0,0c2.761-0.392,5.063-2.271,6.531-5.048l0.434-0.816    l0.639,0.665c1.899,1.968,4.227,3.104,6.614,3.104l0,0h0.005h0.002c0.352,0,0.708-0.024,1.064-0.074    c2.762-0.389,5.066-2.268,6.535-5.045l0.431-0.815l0.642,0.665c1.901,1.969,4.229,3.105,6.617,3.105l0,0h0.002h0.002    c0.353,0,0.705-0.024,1.061-0.074c2.765-0.391,5.072-2.27,6.54-5.047l0.431-0.817l0.641,0.665c1.91,1.984,4.25,2.836,6.609,2.93    c0.204,0.01,0.403,0.012,0.594,0.012c1.258,0,2.071-0.164,2.084-0.166l0.142-0.029l0.048-0.137    c0.843-2.504,1.302-4.851,1.545-6.877l0.066-0.539l-0.455,0.304C75.931,66.092,74.652,66.654,73.273,66.85z" fill="#ffffff"/><path d="M77.668,59.786L69.365,0l-9.807,14.805l-16.755,2.532l-16.798,2.22L12.469,8.058l8.628,59.737L21.1,67.8    c0,0.002,0.098,0.601,0.257,1.282c0.078,0.342,0.174,0.704,0.279,1.027c0.107,0.324,0.22,0.604,0.365,0.809l0.032,0.045    l0.048,0.025c1.288,0.72,2.665,1.113,4.069,1.113c0.352,0,0.704-0.022,1.056-0.072l-0.035-0.25l0.035,0.248    c2.763-0.394,5.067-2.271,6.538-5.047l0.431-0.816l0.642,0.665c1.896,1.965,4.225,3.103,6.609,3.103l0,0h0.002l0,0h0.003    c0.354,0,0.71-0.025,1.07-0.074c2.76-0.389,5.065-2.265,6.533-5.045l-0.002,0.004l0.433-0.823l0.643,0.667    c1.902,1.972,4.232,3.107,6.623,3.107l0,0l0,0h0.002h0.002c0.349,0,0.703-0.022,1.057-0.074c2.763-0.39,5.068-2.271,6.537-5.045    l0.433-0.817l0.642,0.664c1.9,1.972,4.229,3.106,6.615,3.106l0,0h0.004c0.342,0,0.705-0.002,1.078-0.076    c2.98-0.598,4.481-2.162,4.506-2.187l0.054-0.053l0.012-0.075c0.079-0.436,0.104-0.951,0.104-1.453    c0-1.014-0.104-1.963-0.104-1.968v-0.004H77.668z M21.578,39.851c0-5.596,4.116-10.483,9.815-11.29    c0.542-0.075,1.083-0.114,1.615-0.114c5.594,0,10.48,4.117,11.287,9.815c0.077,0.545,0.114,1.084,0.114,1.617    c0,5.594-4.116,10.48-9.813,11.288c-0.542,0.074-1.082,0.114-1.614,0.114c-5.594,0-10.483-4.116-11.291-9.816    C21.613,40.921,21.578,40.383,21.578,39.851z M21.672,20.081l-4.238,0.6l-0.715-5.049L21.672,20.081z M46.841,45.713    c0.109-0.017,0.217-0.022,0.325-0.022c1.118,0,2.098,0.821,2.257,1.961l0.002,0.011l0.348,2.459    c0.009,0.052,0.011,0.11,0.011,0.177c0.002,0.34-0.104,0.846-0.271,1.391c-0.248,0.826-0.628,1.754-0.942,2.473    c-0.157,0.359-0.3,0.668-0.401,0.886c-0.003,0.004-0.005,0.006-0.005,0.011c-0.33-0.371-0.941-1.074-1.521-1.846    c-0.331-0.439-0.654-0.902-0.904-1.333c-0.254-0.431-0.436-0.835-0.491-1.127l0,0c-0.151-0.778-0.238-1.39-0.286-1.804    c-0.024-0.209-0.039-0.366-0.048-0.475c-0.008-0.104-0.009-0.154-0.009-0.154v-0.013l-0.004-0.011    c-0.016-0.109-0.021-0.218-0.021-0.322C44.878,46.855,45.703,45.873,46.841,45.713l-0.035-0.248L46.841,45.713z M56.882,24.949    c0.543-0.077,1.083-0.114,1.615-0.114c5.596,0,10.482,4.117,11.288,9.817c0.075,0.543,0.112,1.084,0.112,1.616    c0,5.591-4.113,10.479-9.814,11.285c-0.543,0.076-1.082,0.114-1.617,0.114c-5.593,0-10.479-4.114-11.284-9.814    c-0.076-0.544-0.115-1.084-0.115-1.616C47.066,30.644,51.185,25.756,56.882,24.949L56.882,24.949z M67.206,8.482l0.714,5.046    l-4.238,0.601L67.206,8.482z" fill="#ffffff"/><path d="M42.667,93.749c-0.003-0.021-0.144-0.743-0.651-1.483c-0.253-0.369-0.601-0.744-1.071-1.027    c-0.469-0.283-1.062-0.471-1.782-0.471c-0.196,0-0.404,0.015-0.619,0.045h-0.003h-0.003l0.038,0.244l-0.038-0.244    c-1.439,0.207-2.261,0.975-2.679,1.771c-0.423,0.795-0.473,1.604-0.475,1.979c0,0.133,0.009,0.209,0.009,0.215v0.008l0.503,3.719    l1.673-2.042l1.977,1.429l1.498-1.922l2.175,1.502l-0.552-3.715V93.749z" fill="#ffffff"/><path d="M71.433,89.674c-0.008-0.02-0.147-0.74-0.65-1.482c-0.256-0.367-0.602-0.744-1.069-1.026    c-0.47-0.283-1.06-0.47-1.778-0.47c-0.197,0-0.406,0.015-0.627,0.045h-0.002l0,0c-1.441,0.207-2.264,0.972-2.682,1.767    c-0.423,0.796-0.473,1.606-0.475,1.981c0,0.131,0.008,0.209,0.008,0.216v0.006l0.502,3.722l1.675-2.041l1.974,1.428l1.502-1.922    l2.174,1.496l-0.551-3.711V89.674L71.433,89.674z" fill="#ffffff"/><path d="M28.523,40.496c0.319,2.256,2.25,3.881,4.462,3.881c0.211,0,0.426-0.014,0.642-0.046c2.253-0.318,3.88-2.25,3.88-4.462    c0-0.211-0.014-0.424-0.045-0.639c-0.319-2.255-2.251-3.883-4.465-3.883c-0.211,0-0.424,0.015-0.639,0.047    c-2.252,0.32-3.88,2.25-3.88,4.46C28.479,40.068,28.494,40.281,28.523,40.496L28.523,40.496z" fill="#ffffff"/><path d="M58.478,40.768c0.211,0,0.424-0.015,0.64-0.046c2.256-0.32,3.881-2.25,3.881-4.464c0-0.211-0.015-0.425-0.044-0.639    c-0.321-2.252-2.251-3.881-4.465-3.881c-0.211,0-0.424,0.016-0.639,0.046c-2.254,0.319-3.883,2.252-3.883,4.463    c0,0.212,0.016,0.425,0.047,0.638C54.333,39.139,56.263,40.768,58.478,40.768z" fill="#ffffff"/><path d="M87.294,58.012c-0.002-0.013-0.477-3.354-2.111-7.445c-1.639-4.089-4.438-8.938-9.127-11.941l-0.468-0.3l0.087,0.551    l1.379,8.688l0.016,0.032c0.013,0.021,3.175,6.689,9.849,10.667l0.449,0.269L87.294,58.012z" fill="#ffffff"/><path d="M16.771,47.023c-4.823,5.504-5.633,13.168-5.635,17.772c0,2.396,0.222,3.967,0.224,3.979l0.072,0.516l0.358-0.381    c5.307-5.682,6.492-12.967,6.498-12.988l0.007-0.037l-1.157-9.277L16.771,47.023z" fill="#ffffff"/></g><g transform="matrix(0.12629345059394836 0 0 0.12629345059394836 86 66.00000215833529)" id="L1_22"><path d="M436.244,146.752c5.14-15.422,7.713-31.409,7.713-47.967c0-22.08-4.859-42.828-14.564-62.242    c-20.362,0-38.349,3.715-53.961,11.136c-15.604,7.423-33.4,18.938-53.379,34.545c-25.122-6.09-51.777-9.135-79.941-9.135    c-30.837,0-60.245,3.333-88.223,9.994c-20.364-15.99-38.351-27.74-53.959-35.26c-15.608-7.52-33.689-11.279-54.247-11.279    c-9.707,19.414-14.56,40.163-14.56,62.242c0,16.751,2.568,32.93,7.708,48.535C12.942,177.587,0,215.272,0,260.383    c0,39.595,5.898,71.092,17.701,94.507c6.283,12.367,14.465,23.312,24.554,32.832c10.085,9.514,21.601,17.228,34.545,23.13    c12.946,5.896,25.981,10.801,39.116,14.699c13.134,3.9,27.646,6.758,43.54,8.559c15.893,1.816,29.93,3.004,42.111,3.579    c12.181,0.564,25.693,0.853,40.544,0.853c17.508,0,33.396-0.432,47.678-1.283c14.277-0.855,30.594-2.953,48.964-6.276    c18.367-3.333,34.547-7.857,48.54-13.565c13.99-5.708,27.412-13.895,40.259-24.551c12.847-10.663,22.884-23.318,30.121-37.976    c11.604-23.603,17.412-55.107,17.412-94.507C475.078,215.082,462.135,177.206,436.244,146.752z M401.995,354.455    c-6.092,12.471-13.802,22.265-23.127,29.41c-9.329,7.139-20.938,12.847-34.831,17.135c-13.9,4.281-27.217,7.087-39.971,8.415    c-12.758,1.334-26.933,1.998-42.545,1.998h-47.966c-15.607,0-29.79-0.664-42.541-1.998c-12.752-1.328-26.075-4.134-39.971-8.415    c-13.891-4.288-25.5-9.996-34.829-17.135c-9.329-7.146-17.037-16.939-23.128-29.41c-6.09-12.471-9.136-27.076-9.136-43.824    c0-22.847,6.567-42.264,19.702-58.245c13.134-15.99,30.929-23.982,53.387-23.982c8.188,0,26.746,1.997,55.677,5.995    c13.513,2.093,28.456,3.14,44.823,3.14c16.372,0,31.313-1.044,44.824-3.14c29.317-3.999,47.869-5.995,55.678-5.995    c22.457,0,40.252,7.996,53.386,23.982c13.135,15.988,19.698,35.398,19.698,58.245    C411.125,327.382,408.079,341.995,401.995,354.455z" fill="#ffffff"/><path d="M166.875,265.52c-5.806-6.475-12.703-9.712-20.699-9.712c-7.998,0-14.896,3.241-20.701,9.712    c-5.802,6.468-9.897,13.703-12.275,21.689c-2.383,8.002-3.571,15.804-3.571,23.422c0,7.61,1.191,15.413,3.571,23.414    c2.375,7.991,6.468,15.222,12.275,21.689c5.808,6.475,12.703,9.713,20.701,9.713c7.996,0,14.896-3.244,20.699-9.713    c5.804-6.468,9.897-13.698,12.275-21.689c2.38-8.001,3.571-15.804,3.571-23.414c0-7.611-1.188-15.42-3.571-23.422    C176.771,279.226,172.682,271.994,166.875,265.52z" fill="#ffffff"/><path d="M349.601,265.52c-5.804-6.475-12.703-9.712-20.697-9.712c-7.991,0-14.894,3.241-20.701,9.712    c-5.804,6.468-9.896,13.703-12.271,21.689c-2.385,8.002-3.576,15.804-3.576,23.422c0,7.61,1.191,15.413,3.576,23.414    c2.375,7.991,6.468,15.222,12.271,21.689c5.808,6.475,12.71,9.713,20.701,9.713c7.994,0,14.894-3.244,20.697-9.713    c5.801-6.468,9.896-13.698,12.278-21.689c2.379-8.001,3.569-15.804,3.569-23.414c0-7.611-1.19-15.42-3.569-23.422    C359.498,279.226,355.402,271.994,349.601,265.52z" fill="#ffffff"/></g><path d="M545.451,400.298c-0.664-1.431-1.283-2.618-1.858-3.569c-9.514-17.135-27.695-38.167-54.532-63.102l-0.567-0.571   l-0.284-0.28l-0.287-0.287h-0.288c-12.18-11.611-19.893-19.418-23.123-23.415c-5.91-7.614-7.234-15.321-4.004-23.13   c2.282-5.9,10.854-18.36,25.696-37.397c7.807-10.089,13.99-18.175,18.556-24.267c32.931-43.78,47.208-71.756,42.828-83.939   l-1.701-2.847c-1.143-1.714-4.093-3.282-8.846-4.712c-4.764-1.427-10.853-1.663-18.278-0.712l-82.224,0.568   c-1.332-0.472-3.234-0.428-5.712,0.144c-2.475,0.572-3.713,0.859-3.713,0.859l-1.431,0.715l-1.136,0.859   c-0.952,0.568-1.999,1.567-3.142,2.995c-1.137,1.423-2.088,3.093-2.848,4.996c-8.952,23.031-19.13,44.444-30.553,64.238   c-7.043,11.803-13.511,22.032-19.418,30.693c-5.899,8.658-10.848,15.037-14.842,19.126c-4,4.093-7.61,7.372-10.852,9.849   c-3.237,2.478-5.708,3.525-7.419,3.142c-1.715-0.383-3.33-0.763-4.859-1.143c-2.663-1.714-4.805-4.045-6.42-6.995   c-1.622-2.95-2.714-6.663-3.285-11.136c-0.568-4.476-0.904-8.326-1-11.563c-0.089-3.233-0.048-7.806,0.145-13.706   c0.198-5.903,0.287-9.897,0.287-11.991c0-7.234,0.141-15.085,0.424-23.555c0.288-8.47,0.521-15.181,0.716-20.125   c0.194-4.949,0.284-10.185,0.284-15.705s-0.336-9.849-1-12.991c-0.656-3.138-1.663-6.184-2.99-9.137   c-1.335-2.95-3.289-5.232-5.853-6.852c-2.569-1.618-5.763-2.902-9.564-3.856c-10.089-2.283-22.936-3.518-38.547-3.71   c-35.401-0.38-58.148,1.906-68.236,6.855c-3.997,2.091-7.614,4.948-10.848,8.562c-3.427,4.189-3.905,6.475-1.431,6.851   c11.422,1.711,19.508,5.804,24.267,12.275l1.715,3.429c1.334,2.474,2.666,6.854,3.999,13.134c1.331,6.28,2.19,13.227,2.568,20.837   c0.95,13.897,0.95,25.793,0,35.689c-0.953,9.9-1.853,17.607-2.712,23.127c-0.859,5.52-2.143,9.993-3.855,13.418   c-1.715,3.426-2.856,5.52-3.428,6.28c-0.571,0.76-1.047,1.239-1.425,1.427c-2.474,0.948-5.047,1.431-7.71,1.431   c-2.667,0-5.901-1.334-9.707-4c-3.805-2.666-7.754-6.328-11.847-10.992c-4.093-4.665-8.709-11.184-13.85-19.558   c-5.137-8.374-10.467-18.271-15.987-29.691l-4.567-8.282c-2.855-5.328-6.755-13.086-11.704-23.267   c-4.952-10.185-9.329-20.037-13.134-29.554c-1.521-3.997-3.806-7.04-6.851-9.134l-1.429-0.859c-0.95-0.76-2.475-1.567-4.567-2.427   c-2.095-0.859-4.281-1.475-6.567-1.854l-78.229,0.568c-7.994,0-13.418,1.811-16.274,5.428l-1.143,1.711   C0.288,140.146,0,141.668,0,143.763c0,2.094,0.571,4.664,1.714,7.707c11.42,26.84,23.839,52.725,37.257,77.659   c13.418,24.934,25.078,45.019,34.973,60.237c9.897,15.229,19.985,29.602,30.264,43.112c10.279,13.515,17.083,22.176,20.412,25.981   c3.333,3.812,5.951,6.662,7.854,8.565l7.139,6.851c4.568,4.569,11.276,10.041,20.127,16.416   c8.853,6.379,18.654,12.659,29.408,18.85c10.756,6.181,23.269,11.225,37.546,15.126c14.275,3.905,28.169,5.472,41.684,4.716h32.834   c6.659-0.575,11.704-2.669,15.133-6.283l1.136-1.431c0.764-1.136,1.479-2.901,2.139-5.276c0.668-2.379,1-5,1-7.851   c-0.195-8.183,0.428-15.558,1.852-22.124c1.423-6.564,3.045-11.513,4.859-14.846c1.813-3.33,3.859-6.14,6.136-8.418   c2.282-2.283,3.908-3.666,4.862-4.142c0.948-0.479,1.705-0.804,2.276-0.999c4.568-1.522,9.944-0.048,16.136,4.429   c6.187,4.473,11.99,9.996,17.418,16.56c5.425,6.57,11.943,13.941,19.555,22.124c7.617,8.186,14.277,14.271,19.985,18.274   l5.708,3.426c3.812,2.286,8.761,4.38,14.853,6.283c6.081,1.902,11.409,2.378,15.984,1.427l73.087-1.14   c7.229,0,12.854-1.197,16.844-3.572c3.998-2.379,6.373-5,7.139-7.851c0.764-2.854,0.805-6.092,0.145-9.712   C546.782,404.25,546.115,401.725,545.451,400.298z" transform="matrix(0.10941757261753082 0 0 0.10941757261753082 85 253.00000929621956)" id="L1_23" fill="#ffffff"/><path d="M512,97.248c-19.04,8.352-39.328,13.888-60.48,16.576c21.76-12.992,38.368-33.408,46.176-58.016    c-20.288,12.096-42.688,20.64-66.56,25.408C411.872,60.704,384.416,48,354.464,48c-58.112,0-104.896,47.168-104.896,104.992    c0,8.32,0.704,16.32,2.432,23.936c-87.264-4.256-164.48-46.08-216.352-109.792c-9.056,15.712-14.368,33.696-14.368,53.056    c0,36.352,18.72,68.576,46.624,87.232c-16.864-0.32-33.408-5.216-47.424-12.928c0,0.32,0,0.736,0,1.152    c0,51.008,36.384,93.376,84.096,103.136c-8.544,2.336-17.856,3.456-27.52,3.456c-6.72,0-13.504-0.384-19.872-1.792    c13.6,41.568,52.192,72.128,98.08,73.12c-35.712,27.936-81.056,44.768-130.144,44.768c-8.608,0-16.864-0.384-25.12-1.44    C46.496,446.88,101.6,464,161.024,464c193.152,0,298.752-160,298.752-298.688c0-4.64-0.16-9.12-0.384-13.568    C480.224,136.96,497.728,118.496,512,97.248z" transform="matrix(0.1171875 0 0 0.1171875 299 250)" id="L1_24" fill="#ffffff"/><path d="M271.521,154.17v-40.541c0-6.086,0.28-10.8,0.849-14.13c0.567-3.335,1.857-6.615,3.859-9.853   c1.999-3.236,5.236-5.47,9.706-6.708c4.476-1.24,10.424-1.858,17.85-1.858h40.539V0h-64.809c-37.5,0-64.433,8.897-80.803,26.691   c-16.368,17.798-24.551,44.014-24.551,78.658v48.82h-48.542v81.086h48.539v235.256h97.362V235.256h64.805l8.566-81.086H271.521z" transform="matrix(0.1275203824043274 0 0 0.1275203824043274 194.99999688670925 66)" id="L1_25" fill="#ffffff"/><path d="M90,45.004C90,56.047,80.973,65,69.83,65c-11.139,0-20.169-8.953-20.169-19.996   C49.661,33.955,58.691,25,69.83,25C80.973,25,90,33.955,90,45.004z M20.169,25C9.03,25,0,33.955,0,45.004   C0,56.047,9.03,65,20.169,65s20.169-8.953,20.169-19.996C40.338,33.955,31.308,25,20.169,25z" transform="matrix(0.6666666865348816 0 0 0.6666666865348816 193 254)" id="L1_26" fill="#ffffff"/><path d="m123.195312 260.738281 63.679688 159.1875 82.902344-82.902343 142.140625 112.976562 100.082031-450-512 213.265625zm242.5-131.628906-156.714843 142.941406-19.519531 73.566407-36.058594-90.164063zm0 0" transform="matrix(0.1171875 0 0 0.1171875 82 170)" id="L1_27" fill="#ffffff"/><g transform="matrix(0.11031317710876465 0 0 0.11031317710876465 197 163.00000678684603)" id="L1_28"><path d="M91.654,13.758h40.793l5.249,21l4.444,15.507l3.633,15.186l3.633,15.833l2.828,13.25h1.615   l2.828-13.25l3.231-15.833l4.036-15.186l4.041-15.507l5.651-21h39.58l-42,126.007v89.489H133.66v-89.494L91.654,13.758z" fill="#ffffff"/><path d="M263.697,66.74c31.906,0,48.06,15.186,48.06,45.231v74.314c0,30.045-16.159,45.231-48.06,45.231   s-48.06-15.186-48.06-45.231v-74.314C215.637,81.931,231.791,66.74,263.697,66.74z M263.697,92.592   c-8.485,0-12.923,5.167-12.923,14.86v83.354c0,9.372,4.846,14.865,12.923,14.865c8.077,0,12.918-5.493,12.918-14.865v-83.354   C276.614,97.759,271.774,92.592,263.697,92.592z" fill="#ffffff"/><path d="M411.911,229.254l-2.834-13.891c-14.544,11.955-23.024,16.154-33.124,16.154   c-8.485,0-17.361-3.878-21.403-9.051c-4.444-5.493-5.662-11.308-5.662-27.783V68.682h35.142v125.033   c0,8.077,2.834,11.955,9.284,11.955c4.438,0,8.49-1.615,15.752-6.462V68.682h35.131v160.572H411.911z" fill="#ffffff"/><path d="M94.618,258.521C42.381,258.521,0,300.903,0,353.145v82.462c0,52.237,42.381,94.542,94.618,94.542   h354.671c52.237,0,94.618-42.3,94.618-94.542v-82.462c0-52.237-42.381-94.618-94.618-94.618L94.618,258.521L94.618,258.521z    M50.893,294.931h99.535v25.493h-33.401V490.84H82.875V320.413H50.893C50.893,320.413,50.893,294.931,50.893,294.931z    M277.458,294.931h31.895v63.719c12.483-11.166,20.946-15.572,30.481-15.572c7.348,0,15.403,3.535,19.08,8.246   c4.036,5.292,5.162,10.584,5.162,26.156v81.048c0,15.273-1.126,20.532-5.162,25.814c-3.677,4.998-11.694,8.496-19.407,8.496   c-9.551,0-17.672-4.368-30.154-15.822v13.832h-31.895V294.931z M441.957,343.066c26.434,0,42.898,13.783,42.898,36.398v42.898   h-55.391v31.982c0,10.574,3.291,14.996,11.743,14.996c4.041,0,7.653-1.773,9.491-4.417c1.838-2.638,2.252-5.831,2.252-16.41v-8.822   h31.9v5.325c0.359,3.824,0.408,6.451,0.408,7.914c0,25.846-15.8,39.901-44.802,39.901c-27.533,0-42.979-14.626-42.979-41.07   v-67.879C397.476,356.272,412.221,343.066,441.957,343.066L441.957,343.066z M156.259,344.812h31.982V458.51   c0,7.348,2.54,10.824,8.414,10.824c4.036,0,7.718-1.43,14.326-5.831V344.812h31.987v146.017h-29.404l-2.584-12.662   c-13.217,10.867-20.891,14.658-30.067,14.658c-7.707,0-15.822-3.465-19.488-8.169c-4.036-4.982-5.162-10.329-5.162-25.313   L156.259,344.812L156.259,344.812z M323.679,366.563c-4.036,0-7.718,1.501-14.327,5.907v91.039   c6.614,4.411,10.291,5.831,14.327,5.831c5.874,0,8.496-3.486,8.496-10.824v-81.058   C332.175,369.832,329.553,366.563,323.679,366.563z M441.206,366.563c-7.348,0-11.743,3.824-11.743,10.568v24.655h23.486v-24.655   C452.949,370.387,448.549,366.563,441.206,366.563z" fill="#ffffff"/></g></defs><g fi:class="KUsePattern" opacity="1"><pattern id="pattern_L1_21" width="350" height="350" patternUnits="userSpaceOnUse"><use xlink:href="#L1_21" x="-350" y="-350"/><use xlink:href="#L1_21" x="0" y="-350"/><use xlink:href="#L1_21" x="350" y="-350"/><use xlink:href="#L1_21" x="-350" y="0"/><use xlink:href="#L1_21" x="0" y="0"/><use xlink:href="#L1_21" x="350" y="0"/><use xlink:href="#L1_21" x="-350" y="350"/><use xlink:href="#L1_21" x="0" y="350"/><use xlink:href="#L1_21" x="350" y="350"/></pattern><rect x="0" y="0" width="100%" height="100%" fill="url(#pattern_L1_21)"/></g><g fi:class="KUsePattern"><pattern id="pattern_L1_22" width="350" height="350" patternUnits="userSpaceOnUse"><use xlink:href="#L1_22" x="-350" y="-350"/><use xlink:href="#L1_22" x="0" y="-350"/><use xlink:href="#L1_22" x="350" y="-350"/><use xlink:href="#L1_22" x="-350" y="0"/><use xlink:href="#L1_22" x="0" y="0"/><use xlink:href="#L1_22" x="350" y="0"/><use xlink:href="#L1_22" x="-350" y="350"/><use xlink:href="#L1_22" x="0" y="350"/><use xlink:href="#L1_22" x="350" y="350"/></pattern><rect x="0" y="0" width="100%" height="100%" fill="url(#pattern_L1_22)"/></g><g fi:class="KUsePattern"><pattern id="pattern_L1_23" width="350" height="350" patternUnits="userSpaceOnUse"><use xlink:href="#L1_23" x="-350" y="-350"/><use xlink:href="#L1_23" x="0" y="-350"/><use xlink:href="#L1_23" x="350" y="-350"/><use xlink:href="#L1_23" x="-350" y="0"/><use xlink:href="#L1_23" x="0" y="0"/><use xlink:href="#L1_23" x="350" y="0"/><use xlink:href="#L1_23" x="-350" y="350"/><use xlink:href="#L1_23" x="0" y="350"/><use xlink:href="#L1_23" x="350" y="350"/></pattern><rect x="0" y="0" width="100%" height="100%" fill="url(#pattern_L1_23)"/></g><g fi:class="KUsePattern"><pattern id="pattern_L1_24" width="350" height="350" patternUnits="userSpaceOnUse"><use xlink:href="#L1_24" x="-350" y="-350"/><use xlink:href="#L1_24" x="0" y="-350"/><use xlink:href="#L1_24" x="350" y="-350"/><use xlink:href="#L1_24" x="-350" y="0"/><use xlink:href="#L1_24" x="0" y="0"/><use xlink:href="#L1_24" x="350" y="0"/><use xlink:href="#L1_24" x="-350" y="350"/><use xlink:href="#L1_24" x="0" y="350"/><use xlink:href="#L1_24" x="350" y="350"/></pattern><rect x="0" y="0" width="100%" height="100%" fill="url(#pattern_L1_24)"/></g><g fi:class="KUsePattern"><pattern id="pattern_L1_25" width="350" height="350" patternUnits="userSpaceOnUse"><use xlink:href="#L1_25" x="-350" y="-350"/><use xlink:href="#L1_25" x="0" y="-350"/><use xlink:href="#L1_25" x="350" y="-350"/><use xlink:href="#L1_25" x="-350" y="0"/><use xlink:href="#L1_25" x="0" y="0"/><use xlink:href="#L1_25" x="350" y="0"/><use xlink:href="#L1_25" x="-350" y="350"/><use xlink:href="#L1_25" x="0" y="350"/><use xlink:href="#L1_25" x="350" y="350"/></pattern><rect x="0" y="0" width="100%" height="100%" fill="url(#pattern_L1_25)"/></g><g fi:class="KUsePattern"><pattern id="pattern_L1_26" width="350" height="350" patternUnits="userSpaceOnUse"><use xlink:href="#L1_26" x="-350" y="-350"/><use xlink:href="#L1_26" x="0" y="-350"/><use xlink:href="#L1_26" x="350" y="-350"/><use xlink:href="#L1_26" x="-350" y="0"/><use xlink:href="#L1_26" x="0" y="0"/><use xlink:href="#L1_26" x="350" y="0"/><use xlink:href="#L1_26" x="-350" y="350"/><use xlink:href="#L1_26" x="0" y="350"/><use xlink:href="#L1_26" x="350" y="350"/></pattern><rect x="0" y="0" width="100%" height="100%" fill="url(#pattern_L1_26)"/></g><g fi:class="KUsePattern"><pattern id="pattern_L1_27" width="350" height="350" patternUnits="userSpaceOnUse"><use xlink:href="#L1_27" x="-350" y="-350"/><use xlink:href="#L1_27" x="0" y="-350"/><use xlink:href="#L1_27" x="350" y="-350"/><use xlink:href="#L1_27" x="-350" y="0"/><use xlink:href="#L1_27" x="0" y="0"/><use xlink:href="#L1_27" x="350" y="0"/><use xlink:href="#L1_27" x="-350" y="350"/><use xlink:href="#L1_27" x="0" y="350"/><use xlink:href="#L1_27" x="350" y="350"/></pattern><rect x="0" y="0" width="100%" height="100%" fill="url(#pattern_L1_27)"/></g><g fi:class="KUsePattern"><pattern id="pattern_L1_28" width="350" height="350" patternUnits="userSpaceOnUse"><use xlink:href="#L1_28" x="-350" y="-350"/><use xlink:href="#L1_28" x="0" y="-350"/><use xlink:href="#L1_28" x="350" y="-350"/><use xlink:href="#L1_28" x="-350" y="0"/><use xlink:href="#L1_28" x="0" y="0"/><use xlink:href="#L1_28" x="350" y="0"/><use xlink:href="#L1_28" x="-350" y="350"/><use xlink:href="#L1_28" x="0" y="350"/><use xlink:href="#L1_28" x="350" y="350"/></pattern><rect x="0" y="0" width="100%" height="100%" fill="url(#pattern_L1_28)"/></g></svg>