<svg width="156" height="65" viewBox="0 0 156 65" fill="none" xmlns="http://www.w3.org/2000/svg">
<path d="M17.5244 40.9883L17.498 41.0176C17.0645 41.0059 16.8027 41 16.7129 41C16.3535 41 16.0195 41.0059 15.7109 41.0176L15.6846 40.9883V40.8037L15.7139 40.7715L15.9688 40.7568C16.0762 40.751 16.1299 40.7129 16.1299 40.6426C16.1299 40.6016 16.1025 40.5098 16.0479 40.3672L15.8105 39.749C15.541 39.7451 15.2656 39.7432 14.9844 39.7432C14.832 39.7432 14.6055 39.7451 14.3047 39.749L14.1758 40.1064C14.0781 40.3779 14.0293 40.5479 14.0293 40.6162C14.0293 40.6904 14.0752 40.7344 14.167 40.748C14.2178 40.7559 14.3174 40.7637 14.4658 40.7715L14.4951 40.8008V40.9883L14.4658 41.0176C14.1045 41.0059 13.8721 41 13.7686 41C13.6885 41 13.4902 41.0059 13.1738 41.0176L13.1445 40.9912V40.8008L13.1768 40.7715C13.3779 40.7598 13.501 40.7197 13.5459 40.6514C13.5928 40.583 13.7656 40.1758 14.0645 39.4297L14.8291 37.5166C14.8857 37.3682 14.9717 37.1445 15.0869 36.8457H15.5029L17.0557 40.499C17.1162 40.6377 17.1709 40.7158 17.2197 40.7334C17.2842 40.7568 17.377 40.7686 17.498 40.7686L17.5244 40.8008V40.9883ZM15.667 39.4121L15.04 37.877L14.4395 39.4121C14.5996 39.418 14.8076 39.4209 15.0635 39.4209C15.3115 39.4209 15.5127 39.418 15.667 39.4121Z" fill="#E7E7E9"/>
<path d="M21.8164 40.4873L21.6816 40.7861C21.2695 41.0127 20.8086 41.126 20.2988 41.126C19.2793 41.126 18.582 40.7588 18.207 40.0244C18.0332 39.6846 17.9463 39.3164 17.9463 38.9199C17.9463 38.2793 18.1592 37.7686 18.585 37.3877C19.0205 36.9951 19.6152 36.7988 20.3691 36.7988C20.8477 36.7988 21.3154 36.8857 21.7725 37.0596L21.8105 37.1035C21.7441 37.373 21.7031 37.6885 21.6875 38.0498L21.6611 38.0791H21.4883L21.459 38.0469C21.4531 37.8105 21.4424 37.6465 21.4268 37.5547C21.1826 37.2793 20.8301 37.1416 20.3691 37.1416C19.8945 37.1416 19.5225 37.292 19.2529 37.5928C18.9834 37.8936 18.8486 38.3018 18.8486 38.8174C18.8486 39.5146 19.0889 40.0498 19.5693 40.4229C19.8252 40.6221 20.168 40.7217 20.5977 40.7217C20.9883 40.7217 21.3701 40.6211 21.7432 40.4199L21.8164 40.4873Z" fill="#E7E7E9"/>
<path d="M26.1523 40.4873L26.0176 40.7861C25.6055 41.0127 25.1445 41.126 24.6348 41.126C23.6152 41.126 22.918 40.7588 22.543 40.0244C22.3691 39.6846 22.2822 39.3164 22.2822 38.9199C22.2822 38.2793 22.4951 37.7686 22.9209 37.3877C23.3564 36.9951 23.9512 36.7988 24.7051 36.7988C25.1836 36.7988 25.6514 36.8857 26.1084 37.0596L26.1465 37.1035C26.0801 37.373 26.0391 37.6885 26.0234 38.0498L25.9971 38.0791H25.8242L25.7949 38.0469C25.7891 37.8105 25.7783 37.6465 25.7627 37.5547C25.5186 37.2793 25.166 37.1416 24.7051 37.1416C24.2305 37.1416 23.8584 37.292 23.5889 37.5928C23.3193 37.8936 23.1846 38.3018 23.1846 38.8174C23.1846 39.5146 23.4248 40.0498 23.9053 40.4229C24.1611 40.6221 24.5039 40.7217 24.9336 40.7217C25.3242 40.7217 25.7061 40.6211 26.0791 40.4199L26.1523 40.4873Z" fill="#E7E7E9"/>
<path d="M31.0654 38.835C31.0654 39.5557 30.8555 40.1211 30.4355 40.5312C30.0273 40.9297 29.4697 41.1289 28.7627 41.1289C28.0947 41.1289 27.5703 40.9414 27.1895 40.5664C26.8086 40.1895 26.6182 39.666 26.6182 38.9961C26.6182 38.0566 26.9766 37.4062 27.6934 37.0449C28.0195 36.8809 28.4209 36.7988 28.8975 36.7988C29.5791 36.7988 30.1094 36.9775 30.4883 37.335C30.873 37.6982 31.0654 38.1982 31.0654 38.835ZM30.1631 38.9873C30.1631 38.4209 30.0488 37.9717 29.8203 37.6396C29.5938 37.3057 29.2607 37.1387 28.8213 37.1387C28.2412 37.1387 27.8564 37.3994 27.667 37.9209C27.5693 38.1885 27.5205 38.4883 27.5205 38.8203C27.5205 39.4238 27.6318 39.9004 27.8545 40.25C28.085 40.6113 28.4297 40.792 28.8887 40.792C29.4453 40.792 29.8193 40.5176 30.0107 39.9688C30.1123 39.6777 30.1631 39.3506 30.1631 38.9873Z" fill="#E7E7E9"/>
<path d="M36.3447 40.7656C36.2744 41.0527 36.1797 41.5264 36.0605 42.1865L36.0312 42.207H35.8467L35.8174 42.1865L35.7998 41.5947C35.792 41.3271 35.7598 41.1641 35.7031 41.1055C35.668 41.0703 35.6279 41.0479 35.583 41.0381C35.5146 41.0225 35.3457 41.0127 35.0762 41.0088L34.5723 41H33.7549C33.5713 41.002 33.168 41.0049 32.5449 41.0088L31.5576 41.0176L31.5283 40.9971V40.792L31.5576 40.7627C31.7568 40.751 31.8711 40.7412 31.9004 40.7334C31.957 40.7178 31.9902 40.6816 32 40.625C32.0254 40.4844 32.0381 40.1816 32.0381 39.7168V38.167C32.0381 37.7021 32.0254 37.3994 32 37.2588C31.9902 37.2021 31.957 37.166 31.9004 37.1504C31.8711 37.1426 31.7568 37.1328 31.5576 37.1211L31.5283 37.0918V36.8926L31.5576 36.8662C31.7744 36.8779 32.0752 36.8838 32.46 36.8838C32.8428 36.8838 33.1445 36.8779 33.3652 36.8662L33.3916 36.8926L33.3887 37.0918L33.3594 37.1211C33.1602 37.1328 33.0459 37.1426 33.0166 37.1504C32.96 37.166 32.9268 37.2021 32.917 37.2588C32.8916 37.3994 32.8789 37.7021 32.8789 38.167V39.7402C32.8789 40.1367 32.8877 40.457 32.9053 40.7012H34.6836C34.7012 40.457 34.71 40.1367 34.71 39.7402V38.167C34.71 37.7021 34.6973 37.3994 34.6719 37.2588C34.6621 37.2021 34.6289 37.166 34.5723 37.1504C34.543 37.1426 34.4287 37.1328 34.2295 37.1211L34.1973 37.0918V36.8926L34.2236 36.8662C34.3857 36.8779 34.6748 36.8838 35.0908 36.8838C35.5049 36.8838 35.8193 36.8779 36.0342 36.8662L36.0635 36.8926V37.0918L36.0342 37.1211C35.8311 37.1328 35.7158 37.1426 35.6885 37.1504C35.6318 37.166 35.5986 37.2021 35.5889 37.2588C35.5635 37.3994 35.5508 37.7021 35.5508 38.167V39.7285C35.5508 40.2559 35.5596 40.5566 35.5771 40.6309C35.585 40.6621 35.5967 40.6807 35.6123 40.6865C35.6436 40.6982 35.7217 40.7041 35.8467 40.7041C36.0186 40.7041 36.1777 40.6953 36.3242 40.6777L36.3447 40.7656Z" fill="#E7E7E9"/>
<path d="M41.2549 40.9971L41.2256 41.0176C40.8213 41.0059 40.5166 41 40.3115 41C39.8936 41 39.5947 41.0059 39.415 41.0176L39.3887 40.9912V40.792L39.418 40.7627C39.6211 40.751 39.7363 40.7412 39.7637 40.7334C39.8203 40.7178 39.8535 40.6816 39.8633 40.625C39.8887 40.4844 39.9014 40.1816 39.9014 39.7168V37.5547L38.0703 41.0176C37.8691 41.0098 37.6816 41.0059 37.5078 41.0059C37.3984 41.0059 37.1455 41.0098 36.749 41.0176L36.7197 40.9912V40.792L36.749 40.7627C36.9482 40.751 37.0625 40.7412 37.0918 40.7334C37.1484 40.7178 37.1816 40.6816 37.1914 40.625C37.2168 40.4844 37.2295 40.1816 37.2295 39.7168V38.167C37.2295 37.7021 37.2168 37.3994 37.1914 37.2588C37.1816 37.2021 37.1484 37.166 37.0918 37.1504C37.0625 37.1426 36.9482 37.1328 36.749 37.1211L36.7197 37.0918V36.8926L36.7461 36.8662C37.0488 36.8779 37.3506 36.8838 37.6514 36.8838C37.8506 36.8838 38.1514 36.8779 38.5537 36.8662L38.5801 36.8926V37.0918L38.5508 37.1211C38.3516 37.1328 38.2373 37.1426 38.208 37.1504C38.1514 37.166 38.1182 37.2021 38.1084 37.2588C38.083 37.3994 38.0703 37.7021 38.0703 38.167V40.373L39.9014 36.8662C40.1572 36.8779 40.3311 36.8838 40.4229 36.8838C40.4893 36.8838 40.7568 36.8779 41.2256 36.8662L41.2549 36.8926V37.0918L41.2227 37.1211C41.0234 37.1328 40.9092 37.1426 40.8799 37.1504C40.8232 37.166 40.79 37.2021 40.7803 37.2588C40.7549 37.3994 40.7422 37.7021 40.7422 38.167V39.7168C40.7422 40.1816 40.7549 40.4844 40.7803 40.625C40.79 40.6816 40.8232 40.7178 40.8799 40.7334C40.9072 40.7412 41.0225 40.751 41.2256 40.7627L41.2549 40.792V40.9971Z" fill="#E7E7E9"/>
<path d="M45.9658 40.9883L45.9395 41.0176C45.5059 41.0059 45.2441 41 45.1543 41C44.7949 41 44.4609 41.0059 44.1523 41.0176L44.126 40.9883V40.8037L44.1553 40.7715L44.4102 40.7568C44.5176 40.751 44.5713 40.7129 44.5713 40.6426C44.5713 40.6016 44.5439 40.5098 44.4893 40.3672L44.252 39.749C43.9824 39.7451 43.707 39.7432 43.4258 39.7432C43.2734 39.7432 43.0469 39.7451 42.7461 39.749L42.6172 40.1064C42.5195 40.3779 42.4707 40.5479 42.4707 40.6162C42.4707 40.6904 42.5166 40.7344 42.6084 40.748C42.6592 40.7559 42.7588 40.7637 42.9072 40.7715L42.9365 40.8008V40.9883L42.9072 41.0176C42.5459 41.0059 42.3135 41 42.21 41C42.1299 41 41.9316 41.0059 41.6152 41.0176L41.5859 40.9912V40.8008L41.6182 40.7715C41.8193 40.7598 41.9424 40.7197 41.9873 40.6514C42.0342 40.583 42.207 40.1758 42.5059 39.4297L43.2705 37.5166C43.3271 37.3682 43.4131 37.1445 43.5283 36.8457H43.9443L45.4971 40.499C45.5576 40.6377 45.6123 40.7158 45.6611 40.7334C45.7256 40.7568 45.8184 40.7686 45.9395 40.7686L45.9658 40.8008V40.9883ZM44.1084 39.4121L43.4814 37.877L42.8809 39.4121C43.041 39.418 43.249 39.4209 43.5049 39.4209C43.7529 39.4209 43.9541 39.418 44.1084 39.4121Z" fill="#E7E7E9"/>
<path d="M51.1162 40.7656C51.0459 41.0527 50.9512 41.5264 50.832 42.1865L50.8027 42.207H50.6182L50.5889 42.1865L50.5713 41.5947C50.5635 41.3271 50.5312 41.1641 50.4746 41.1055C50.4395 41.0703 50.3994 41.0479 50.3545 41.0381C50.2861 41.0225 50.1172 41.0127 49.8477 41.0088L49.3438 41H48.5264C48.3428 41.002 47.9395 41.0049 47.3164 41.0088L46.3291 41.0176L46.2998 40.9971V40.792L46.3291 40.7627C46.5283 40.751 46.6426 40.7412 46.6719 40.7334C46.7285 40.7178 46.7617 40.6816 46.7715 40.625C46.7969 40.4844 46.8096 40.1816 46.8096 39.7168V38.167C46.8096 37.7021 46.7969 37.3994 46.7715 37.2588C46.7617 37.2021 46.7285 37.166 46.6719 37.1504C46.6426 37.1426 46.5283 37.1328 46.3291 37.1211L46.2998 37.0918V36.8926L46.3291 36.8662C46.5459 36.8779 46.8467 36.8838 47.2314 36.8838C47.6143 36.8838 47.916 36.8779 48.1367 36.8662L48.1631 36.8926L48.1602 37.0918L48.1309 37.1211C47.9316 37.1328 47.8174 37.1426 47.7881 37.1504C47.7314 37.166 47.6982 37.2021 47.6885 37.2588C47.6631 37.3994 47.6504 37.7021 47.6504 38.167V39.7402C47.6504 40.1367 47.6592 40.457 47.6768 40.7012H49.4551C49.4727 40.457 49.4814 40.1367 49.4814 39.7402V38.167C49.4814 37.7021 49.4688 37.3994 49.4434 37.2588C49.4336 37.2021 49.4004 37.166 49.3438 37.1504C49.3145 37.1426 49.2002 37.1328 49.001 37.1211L48.9688 37.0918V36.8926L48.9951 36.8662C49.1572 36.8779 49.4463 36.8838 49.8623 36.8838C50.2764 36.8838 50.5908 36.8779 50.8057 36.8662L50.835 36.8926V37.0918L50.8057 37.1211C50.6025 37.1328 50.4873 37.1426 50.46 37.1504C50.4033 37.166 50.3701 37.2021 50.3604 37.2588C50.335 37.3994 50.3223 37.7021 50.3223 38.167V39.7285C50.3223 40.2559 50.3311 40.5566 50.3486 40.6309C50.3564 40.6621 50.3682 40.6807 50.3838 40.6865C50.415 40.6982 50.4932 40.7041 50.6182 40.7041C50.79 40.7041 50.9492 40.6953 51.0957 40.6777L51.1162 40.7656Z" fill="#E7E7E9"/>
<path d="M56.0264 40.9971L55.9971 41.0176C55.5928 41.0059 55.2881 41 55.083 41C54.665 41 54.3662 41.0059 54.1865 41.0176L54.1602 40.9912V40.792L54.1895 40.7627C54.3926 40.751 54.5078 40.7412 54.5352 40.7334C54.5918 40.7178 54.625 40.6816 54.6348 40.625C54.6602 40.4844 54.6729 40.1816 54.6729 39.7168V37.5547L52.8418 41.0176C52.6406 41.0098 52.4531 41.0059 52.2793 41.0059C52.1699 41.0059 51.917 41.0098 51.5205 41.0176L51.4912 40.9912V40.792L51.5205 40.7627C51.7197 40.751 51.834 40.7412 51.8633 40.7334C51.9199 40.7178 51.9531 40.6816 51.9629 40.625C51.9883 40.4844 52.001 40.1816 52.001 39.7168V38.167C52.001 37.7021 51.9883 37.3994 51.9629 37.2588C51.9531 37.2021 51.9199 37.166 51.8633 37.1504C51.834 37.1426 51.7197 37.1328 51.5205 37.1211L51.4912 37.0918V36.8926L51.5176 36.8662C51.8203 36.8779 52.1221 36.8838 52.4229 36.8838C52.6221 36.8838 52.9229 36.8779 53.3252 36.8662L53.3516 36.8926V37.0918L53.3223 37.1211C53.123 37.1328 53.0088 37.1426 52.9795 37.1504C52.9229 37.166 52.8896 37.2021 52.8799 37.2588C52.8545 37.3994 52.8418 37.7021 52.8418 38.167V40.373L54.6729 36.8662C54.9287 36.8779 55.1025 36.8838 55.1943 36.8838C55.2607 36.8838 55.5283 36.8779 55.9971 36.8662L56.0264 36.8926V37.0918L55.9941 37.1211C55.7949 37.1328 55.6807 37.1426 55.6514 37.1504C55.5947 37.166 55.5615 37.2021 55.5518 37.2588C55.5264 37.3994 55.5137 37.7021 55.5137 38.167V39.7168C55.5137 40.1816 55.5264 40.4844 55.5518 40.625C55.5615 40.6816 55.5947 40.7178 55.6514 40.7334C55.6787 40.7412 55.7939 40.751 55.9971 40.7627L56.0264 40.792V40.9971Z" fill="#E7E7E9"/>
<path d="M60.418 40.9971L60.3887 41.0176C60.0918 41.0059 59.7949 41 59.498 41C59.1953 41 58.8906 41.0059 58.584 41.0176L58.5576 40.9971L58.5547 40.792L58.584 40.7627C58.7832 40.751 58.8975 40.7412 58.9268 40.7334C58.9834 40.7178 59.0166 40.6816 59.0264 40.625C59.0518 40.4844 59.0645 40.1816 59.0645 39.7168V38.1377C59.0645 37.5635 59.0557 37.2529 59.0381 37.2061C58.8447 37.1885 58.6992 37.1797 58.6016 37.1797C57.957 37.1797 57.6348 37.4307 57.6348 37.9326C57.6348 38.2178 57.7598 38.4453 58.0098 38.6152C58.1211 38.6895 58.2373 38.7402 58.3584 38.7676C58.458 38.7891 58.6318 38.8057 58.8799 38.8174L58.8828 38.8994C58.6992 39.1572 58.4443 39.5449 58.1182 40.0625C57.8096 40.5547 57.6172 40.873 57.541 41.0176C57.3516 41.0059 57.1719 41 57.002 41C56.8711 41 56.6465 41.0059 56.3281 41.0176L56.2988 40.9971V40.792L56.3223 40.7627C56.5566 40.7393 56.7764 40.5996 56.9814 40.3438C57.1338 40.1152 57.2871 39.8857 57.4414 39.6553C57.6367 39.3721 57.7979 39.1348 57.9248 38.9434L57.9043 38.9111C57.5879 38.8721 57.3262 38.7676 57.1191 38.5977C56.8848 38.4043 56.7676 38.1572 56.7676 37.8564C56.7676 37.4971 56.918 37.2324 57.2188 37.0625C57.457 36.9297 57.7715 36.8633 58.1621 36.8633C58.2617 36.8633 58.3838 36.8662 58.5283 36.8721C58.7217 36.8799 58.96 36.8838 59.2432 36.8838C59.7275 36.8838 60.1094 36.8779 60.3887 36.8662L60.418 36.8926V37.0918L60.3857 37.1211C60.1865 37.1328 60.0723 37.1426 60.043 37.1504C59.9863 37.166 59.9531 37.2021 59.9434 37.2588C59.918 37.3994 59.9053 37.7021 59.9053 38.167V39.7168C59.9053 40.1816 59.918 40.4844 59.9434 40.625C59.9531 40.6816 59.9863 40.7178 60.043 40.7334C60.0703 40.7412 60.1855 40.751 60.3887 40.7627L60.418 40.792V40.9971Z" fill="#E7E7E9"/>
<path d="M65.9844 36.8838C65.9609 37.0283 65.9482 37.1777 65.9463 37.332L65.9404 37.8213L65.9111 37.8506H65.7266L65.6943 37.8242C65.6846 37.5742 65.6738 37.4277 65.6621 37.3848C65.6387 37.3066 65.5762 37.2607 65.4746 37.2471C65.4355 37.2412 65.252 37.2383 64.9238 37.2383H64.5312C64.5273 37.3066 64.5254 37.5781 64.5254 38.0527V39.7168C64.5254 40.1816 64.5381 40.4844 64.5635 40.625C64.5732 40.6816 64.6064 40.7178 64.6631 40.7334C64.6924 40.7412 64.8066 40.751 65.0059 40.7627L65.0352 40.792V40.9883L65.0059 41.0176C64.8125 41.0059 64.5117 41 64.1035 41C63.6855 41 63.3848 41.0059 63.2012 41.0176L63.1748 40.9912V40.792L63.2041 40.7627C63.4033 40.751 63.5176 40.7412 63.5469 40.7334C63.6035 40.7178 63.6367 40.6816 63.6465 40.625C63.6719 40.4844 63.6846 40.1816 63.6846 39.7168V38.0527C63.6846 37.5703 63.6816 37.2988 63.6758 37.2383H63.2568C62.9072 37.2383 62.7031 37.249 62.6445 37.2705C62.6133 37.2822 62.5918 37.2969 62.5801 37.3145C62.5625 37.3457 62.5479 37.4082 62.5361 37.502C62.5225 37.6055 62.5137 37.7119 62.5098 37.8213L62.4805 37.8506H62.2959L62.2637 37.8213L62.2578 37.3203C62.2559 37.1797 62.2441 37.0342 62.2227 36.8838L62.249 36.8545C62.3643 36.874 62.7842 36.8838 63.5088 36.8838H64.6953C65.3633 36.8838 65.7832 36.874 65.9551 36.8545L65.9844 36.8838Z" fill="#E7E7E9"/>
<path d="M70.8271 38.835C70.8271 39.5557 70.6172 40.1211 70.1973 40.5312C69.7891 40.9297 69.2314 41.1289 68.5244 41.1289C67.8564 41.1289 67.332 40.9414 66.9512 40.5664C66.5703 40.1895 66.3799 39.666 66.3799 38.9961C66.3799 38.0566 66.7383 37.4062 67.4551 37.0449C67.7812 36.8809 68.1826 36.7988 68.6592 36.7988C69.3408 36.7988 69.8711 36.9775 70.25 37.335C70.6348 37.6982 70.8271 38.1982 70.8271 38.835ZM69.9248 38.9873C69.9248 38.4209 69.8105 37.9717 69.582 37.6396C69.3555 37.3057 69.0225 37.1387 68.583 37.1387C68.0029 37.1387 67.6182 37.3994 67.4287 37.9209C67.3311 38.1885 67.2822 38.4883 67.2822 38.8203C67.2822 39.4238 67.3936 39.9004 67.6162 40.25C67.8467 40.6113 68.1914 40.792 68.6504 40.792C69.207 40.792 69.5811 40.5176 69.7725 39.9688C69.874 39.6777 69.9248 39.3506 69.9248 38.9873Z" fill="#E7E7E9"/>
<path d="M74.8115 39.7402C74.8115 40.1699 74.6387 40.499 74.293 40.7275C73.998 40.9248 73.623 41.0234 73.168 41.0234C73.0762 41.0234 72.8975 41.0186 72.6318 41.0088C72.4717 41.0029 72.3369 41 72.2275 41C72.1318 41 71.8281 41.0059 71.3164 41.0176L71.29 40.9971V40.792L71.3193 40.7627C71.5186 40.751 71.6328 40.7412 71.6621 40.7334C71.7188 40.7178 71.752 40.6816 71.7617 40.625C71.7871 40.4844 71.7998 40.1816 71.7998 39.7168V38.167C71.7998 37.7021 71.7871 37.3994 71.7617 37.2588C71.752 37.2021 71.7188 37.166 71.6621 37.1504C71.6328 37.1426 71.5186 37.1328 71.3193 37.1211L71.29 37.0918V36.8926L71.3193 36.8662L72.9043 36.8838L74.1143 36.8779C74.2529 36.874 74.3701 36.8662 74.4658 36.8545L74.498 36.8838C74.4746 37.0186 74.4619 37.1641 74.46 37.3203L74.4541 37.8213L74.4248 37.8506H74.2373L74.208 37.8242C74.2021 37.7109 74.1963 37.5977 74.1904 37.4844C74.1689 37.334 74.1162 37.2441 74.0322 37.2148C73.9717 37.1934 73.7725 37.1826 73.4346 37.1826H72.667C72.6494 37.667 72.6406 37.9658 72.6406 38.0791V38.6387C73.1738 38.6387 73.5566 38.6592 73.7891 38.7002C74.4707 38.8213 74.8115 39.168 74.8115 39.7402ZM73.9268 39.7959C73.9268 39.5166 73.8447 39.3018 73.6807 39.1514C73.5342 39.0186 73.3428 38.9473 73.1064 38.9375C73.0088 38.9336 72.8535 38.9316 72.6406 38.9316V40.6865C72.7324 40.7002 72.8438 40.707 72.9746 40.707C73.1973 40.707 73.3594 40.6895 73.4609 40.6543C73.6074 40.6016 73.7246 40.4961 73.8125 40.3379C73.8887 40.1992 73.9268 40.0186 73.9268 39.7959Z" fill="#E7E7E9"/>
<path d="M79.6748 40.9883L79.6484 41.0176C79.2148 41.0059 78.9531 41 78.8633 41C78.5039 41 78.1699 41.0059 77.8613 41.0176L77.835 40.9883V40.8037L77.8643 40.7715L78.1191 40.7568C78.2266 40.751 78.2803 40.7129 78.2803 40.6426C78.2803 40.6016 78.2529 40.5098 78.1982 40.3672L77.9609 39.749C77.6914 39.7451 77.416 39.7432 77.1348 39.7432C76.9824 39.7432 76.7559 39.7451 76.4551 39.749L76.3262 40.1064C76.2285 40.3779 76.1797 40.5479 76.1797 40.6162C76.1797 40.6904 76.2256 40.7344 76.3174 40.748C76.3682 40.7559 76.4678 40.7637 76.6162 40.7715L76.6455 40.8008V40.9883L76.6162 41.0176C76.2549 41.0059 76.0225 41 75.9189 41C75.8389 41 75.6406 41.0059 75.3242 41.0176L75.2949 40.9912V40.8008L75.3271 40.7715C75.5283 40.7598 75.6514 40.7197 75.6963 40.6514C75.7432 40.583 75.916 40.1758 76.2148 39.4297L76.9795 37.5166C77.0361 37.3682 77.1221 37.1445 77.2373 36.8457H77.6533L79.2061 40.499C79.2666 40.6377 79.3213 40.7158 79.3701 40.7334C79.4346 40.7568 79.5273 40.7686 79.6484 40.7686L79.6748 40.8008V40.9883ZM77.8174 39.4121L77.1904 37.877L76.5898 39.4121C76.75 39.418 76.958 39.4209 77.2139 39.4209C77.4619 39.4209 77.6631 39.418 77.8174 39.4121Z" fill="#E7E7E9"/>
<path d="M84.2275 40.9912L84.2012 41.0176C83.7754 41.0059 83.4775 41 83.3076 41C82.9287 41 82.624 41.0059 82.3936 41.0176L82.3643 40.9912V40.792L82.3936 40.7627C82.5928 40.751 82.707 40.7412 82.7363 40.7334C82.793 40.7178 82.8262 40.6816 82.8359 40.625C82.8613 40.4844 82.874 40.1816 82.874 39.7168V39.1221C82.5967 39.4619 82.1943 39.6318 81.667 39.6318C81.3232 39.6318 81.0469 39.5547 80.8379 39.4004C80.6094 39.2305 80.4834 38.9814 80.46 38.6533C80.4482 38.4854 80.4424 38.2285 80.4424 37.8828C80.4424 37.543 80.4258 37.3389 80.3926 37.2705C80.3633 37.21 80.2715 37.167 80.1172 37.1416L79.9707 37.1182L79.9414 37.0918V36.8926L79.9707 36.8662L80.8496 36.8838C81.0684 36.8838 81.374 36.8779 81.7666 36.8662L81.7959 36.8926V37.0918L81.7666 37.1182C81.5869 37.1357 81.4697 37.1592 81.415 37.1885C81.376 37.21 81.3447 37.252 81.3213 37.3145C81.2959 37.3828 81.2832 37.584 81.2832 37.918C81.2832 38.2539 81.3037 38.5039 81.3447 38.668C81.3877 38.8418 81.4785 38.9834 81.6172 39.0928C81.7559 39.2021 81.9141 39.2568 82.0918 39.2568C82.377 39.2568 82.6377 39.1152 82.874 38.832V38.167C82.874 37.7021 82.8613 37.3994 82.8359 37.2588C82.8262 37.2021 82.793 37.166 82.7363 37.1504C82.707 37.1426 82.5928 37.1328 82.3936 37.1211L82.3643 37.0918V36.8926L82.3936 36.8662L83.2783 36.8838C83.4971 36.8838 83.8027 36.8779 84.1953 36.8662L84.2246 36.8926V37.0918L84.1953 37.1211C83.9961 37.1328 83.8818 37.1426 83.8525 37.1504C83.7959 37.166 83.7627 37.2021 83.7529 37.2588C83.7275 37.3994 83.7148 37.7021 83.7148 38.167V39.7168C83.7148 40.1816 83.7275 40.4844 83.7529 40.625C83.7627 40.6816 83.7959 40.7178 83.8525 40.7334C83.8818 40.7412 83.9961 40.751 84.1953 40.7627L84.2246 40.792L84.2275 40.9912Z" fill="#E7E7E9"/>
<path d="M89.2256 40.9883L89.1963 41.0176C89.0029 41.0059 88.7021 41 88.2939 41C87.876 41 87.5752 41.0059 87.3916 41.0176L87.3623 40.9912V40.792L87.3945 40.7627C87.5938 40.751 87.708 40.7412 87.7373 40.7334C87.7939 40.7178 87.8271 40.6816 87.8369 40.625C87.8623 40.4844 87.875 40.1816 87.875 39.7168V39.0107C87.7754 39.001 87.459 38.9961 86.9258 38.9961C86.4336 38.9961 86.1094 39.001 85.9531 39.0107V39.7168C85.9531 40.1816 85.9658 40.4844 85.9912 40.625C86.001 40.6816 86.0342 40.7178 86.0908 40.7334C86.1201 40.7412 86.2344 40.751 86.4336 40.7627L86.4629 40.792V40.9883L86.4365 41.0176C86.2412 41.0059 85.9404 41 85.5342 41C85.1143 41 84.8135 41.0059 84.6318 41.0176L84.6025 40.9912V40.792L84.6318 40.7627C84.8311 40.751 84.9453 40.7412 84.9746 40.7334C85.0312 40.7178 85.0645 40.6816 85.0742 40.625C85.0996 40.4844 85.1123 40.1816 85.1123 39.7168V38.167C85.1123 37.7021 85.0996 37.3994 85.0742 37.2588C85.0645 37.2021 85.0312 37.166 84.9746 37.1504C84.9453 37.1426 84.8311 37.1328 84.6318 37.1211L84.6025 37.0918V36.8926L84.6318 36.8662C84.8193 36.8779 85.1201 36.8838 85.5342 36.8838C85.958 36.8838 86.2588 36.8779 86.4365 36.8662L86.4629 36.8926V37.0947L86.4336 37.1211C86.2344 37.1328 86.1201 37.1426 86.0908 37.1504C86.0342 37.166 86.001 37.2021 85.9912 37.2588C85.9658 37.3994 85.9531 37.7021 85.9531 38.167V38.6504C86.1602 38.6602 86.4453 38.665 86.8086 38.665C87.3789 38.665 87.7344 38.6602 87.875 38.6504V38.167C87.875 37.7021 87.8623 37.3994 87.8369 37.2588C87.8271 37.2021 87.7939 37.166 87.7373 37.1504C87.708 37.1426 87.5938 37.1328 87.3945 37.1211L87.3623 37.0918V36.8926L87.3916 36.8662C87.5811 36.8779 87.8818 36.8838 88.2939 36.8838C88.7197 36.8838 89.0205 36.8779 89.1963 36.8662L89.2256 36.8926V37.0947L89.1992 37.1211C88.9961 37.1328 88.8809 37.1426 88.8535 37.1504C88.7969 37.166 88.7637 37.2021 88.7539 37.2588C88.7285 37.3994 88.7158 37.7021 88.7158 38.167V39.7168C88.7158 40.1816 88.7285 40.4844 88.7539 40.625C88.7637 40.6816 88.7969 40.7178 88.8535 40.7334C88.8828 40.7412 88.9971 40.751 89.1963 40.7627L89.2256 40.792V40.9883Z" fill="#E7E7E9"/>
<path d="M94.8535 40.9883L94.8271 41.0176C94.6318 41.0059 94.3301 41 93.9219 41C93.5156 41 93.2148 41.0059 93.0195 41.0176L92.9932 40.9883V40.792L93.0225 40.7627C93.2217 40.751 93.3359 40.7412 93.3652 40.7334C93.4219 40.7178 93.4551 40.6816 93.4648 40.625C93.4902 40.4844 93.5029 40.1816 93.5029 39.7168V38.167C93.5029 37.7021 93.4902 37.3994 93.4648 37.2588C93.4551 37.2021 93.4219 37.166 93.3652 37.1504C93.3359 37.1426 93.2217 37.1328 93.0225 37.1211L92.9932 37.0918V36.8926L93.0225 36.8662C93.21 36.8779 93.5107 36.8838 93.9248 36.8838C94.3369 36.8838 94.6367 36.8779 94.8242 36.8662L94.8535 36.8926V37.0918L94.8242 37.1211C94.625 37.1328 94.5107 37.1426 94.4814 37.1504C94.4248 37.166 94.3916 37.2021 94.3818 37.2588C94.3564 37.3994 94.3438 37.7021 94.3438 38.167V39.7168C94.3438 40.1816 94.3564 40.4844 94.3818 40.625C94.3916 40.6816 94.4248 40.7178 94.4814 40.7334C94.5107 40.7412 94.625 40.751 94.8242 40.7627L94.8535 40.792V40.9883ZM93.0957 39.7402C93.0957 40.1699 92.9229 40.499 92.5771 40.7275C92.2822 40.9248 91.9072 41.0234 91.4521 41.0234C91.3604 41.0234 91.1816 41.0186 90.916 41.0088C90.7559 41.0029 90.6211 41 90.5117 41C90.4355 41 90.1416 41.0059 89.6299 41.0176L89.6006 40.9971V40.792L89.6328 40.7627C89.8066 40.7529 89.9111 40.7432 89.9463 40.7334C90.0029 40.7178 90.0361 40.6816 90.0459 40.625C90.0713 40.4844 90.084 40.1816 90.084 39.7168V38.167C90.084 37.7021 90.0713 37.3994 90.0459 37.2588C90.0361 37.2021 90.0029 37.166 89.9463 37.1504C89.9131 37.1406 89.8076 37.1309 89.6299 37.1211L89.6006 37.0918V36.8926L89.6299 36.8662C89.7979 36.8779 90.0869 36.8838 90.4971 36.8838C90.71 36.8838 91.0127 36.8779 91.4053 36.8662L91.4346 36.8926V37.0918L91.4053 37.1211C91.2061 37.1328 91.0918 37.1426 91.0625 37.1504C91.0059 37.166 90.9727 37.2021 90.9629 37.2588C90.9375 37.3994 90.9248 37.7021 90.9248 38.167V38.6387C91.458 38.6387 91.8408 38.6592 92.0732 38.7002C92.7549 38.8213 93.0957 39.168 93.0957 39.7402ZM92.2109 39.7959C92.2109 39.5166 92.1289 39.3018 91.9648 39.1514C91.8184 39.0186 91.627 38.9473 91.3906 38.9375C91.293 38.9336 91.1377 38.9316 90.9248 38.9316V40.6865C91.0166 40.7002 91.1279 40.707 91.2588 40.707C91.4814 40.707 91.6436 40.6895 91.7451 40.6543C91.8916 40.6016 92.0088 40.4961 92.0967 40.3379C92.1729 40.1992 92.2109 40.0186 92.2109 39.7959Z" fill="#E7E7E9"/>
<path d="M98.9375 40.9795L98.9082 41.0088L98.3105 41C98.2129 40.998 98.042 41.001 97.7979 41.0088C97.7393 40.9365 97.6436 40.7773 97.5107 40.5312L96.9014 39.4033L96.6699 39.7344C96.377 40.1543 96.1055 40.5791 95.8555 41.0088C95.7656 41.0029 95.6758 41 95.5859 41C95.4043 41 95.2715 41.0029 95.1875 41.0088L95.1582 40.9795V40.792L95.1875 40.7598C95.3477 40.748 95.4443 40.7314 95.4775 40.71C95.5361 40.6729 95.6689 40.5137 95.876 40.2324L96.2598 39.7139C96.2754 39.6943 96.4316 39.4834 96.7285 39.0811L96.5059 38.6885L96.1484 38.0703C95.8945 37.6328 95.7012 37.374 95.5684 37.2939C95.5234 37.2666 95.4766 37.2529 95.4277 37.2529C95.3887 37.2529 95.3281 37.2559 95.2461 37.2617L95.208 37.2324L95.1846 37.0771L95.2109 37.0332C95.4863 36.9766 95.8408 36.8984 96.2744 36.7988C96.3975 36.8789 96.5244 37.0234 96.6553 37.2324C96.7178 37.334 96.8154 37.5078 96.9482 37.7539L97.2793 38.3691L97.6602 37.8125C97.9746 37.3516 98.1787 37.0381 98.2725 36.8721C98.3525 36.8799 98.4316 36.8838 98.5098 36.8838C98.6406 36.8838 98.7734 36.8799 98.9082 36.8721L98.9375 36.9014V37.0947L98.9082 37.124C98.7734 37.126 98.6836 37.1406 98.6387 37.168C98.5957 37.1953 98.5107 37.2881 98.3838 37.4463C98.2568 37.6045 98.0898 37.8242 97.8828 38.1055C97.7676 38.2617 97.627 38.4561 97.4609 38.6885C97.5586 38.8682 97.6982 39.1211 97.8799 39.4473L98.2549 40.0918C98.4619 40.4473 98.5918 40.6484 98.6445 40.6953C98.6992 40.7402 98.7871 40.7627 98.9082 40.7627L98.9375 40.792V40.9795Z" fill="#E7E7E9"/>
<path d="M106.335 40.9883L106.306 41.0176C106.112 41.0059 105.812 41 105.403 41C104.985 41 104.685 41.0059 104.501 41.0176L104.475 40.9912V40.792L104.504 40.7627C104.703 40.751 104.817 40.7412 104.847 40.7334C104.903 40.7178 104.937 40.6816 104.946 40.625C104.972 40.4844 104.984 40.1816 104.984 39.7168V37.7363L104.331 39.0752C104.294 39.1494 104.167 39.4229 103.95 39.8955L103.414 41.0674H103.218C103.116 40.8252 102.979 40.5195 102.805 40.1504L102.395 39.2803L101.627 37.6836V39.7168C101.627 40.1816 101.64 40.4844 101.665 40.625C101.675 40.6816 101.708 40.7178 101.765 40.7334C101.794 40.7412 101.908 40.751 102.107 40.7627L102.137 40.792V40.9912L102.107 41.0176C101.883 41.0059 101.674 41 101.48 41C101.256 41 101.03 41.0059 100.804 41.0176L100.774 40.9912V40.792L100.804 40.7627C101.003 40.751 101.117 40.7412 101.146 40.7334C101.203 40.7178 101.236 40.6816 101.246 40.625C101.271 40.4844 101.284 40.1816 101.284 39.7168V38.167C101.284 37.7021 101.271 37.3994 101.246 37.2588C101.236 37.2021 101.203 37.166 101.146 37.1504C101.117 37.1426 101.003 37.1328 100.804 37.1211L100.774 37.0918V36.8926L100.804 36.8662C101.007 36.8779 101.264 36.8838 101.574 36.8838C101.812 36.8838 102.021 36.8779 102.198 36.8662C102.263 37.0146 102.354 37.2236 102.474 37.4932L102.661 37.8975L103.593 39.8457L104.041 38.9375L104.741 37.4404C104.823 37.2627 104.903 37.0713 104.981 36.8662C105.202 36.8779 105.351 36.8838 105.427 36.8838C105.81 36.8838 106.103 36.8779 106.306 36.8662L106.335 36.8926V37.0947L106.306 37.1211C106.106 37.1328 105.992 37.1426 105.963 37.1504C105.906 37.166 105.873 37.2021 105.863 37.2588C105.838 37.3994 105.825 37.7021 105.825 38.167V39.7168C105.825 40.1816 105.838 40.4844 105.863 40.625C105.873 40.6816 105.906 40.7178 105.963 40.7334C105.992 40.7412 106.106 40.751 106.306 40.7627L106.335 40.792V40.9883Z" fill="#E7E7E9"/>
<path d="M111.069 40.9883L111.043 41.0176C110.609 41.0059 110.348 41 110.258 41C109.898 41 109.564 41.0059 109.256 41.0176L109.229 40.9883V40.8037L109.259 40.7715L109.514 40.7568C109.621 40.751 109.675 40.7129 109.675 40.6426C109.675 40.6016 109.647 40.5098 109.593 40.3672L109.355 39.749C109.086 39.7451 108.811 39.7432 108.529 39.7432C108.377 39.7432 108.15 39.7451 107.85 39.749L107.721 40.1064C107.623 40.3779 107.574 40.5479 107.574 40.6162C107.574 40.6904 107.62 40.7344 107.712 40.748C107.763 40.7559 107.862 40.7637 108.011 40.7715L108.04 40.8008V40.9883L108.011 41.0176C107.649 41.0059 107.417 41 107.313 41C107.233 41 107.035 41.0059 106.719 41.0176L106.689 40.9912V40.8008L106.722 40.7715C106.923 40.7598 107.046 40.7197 107.091 40.6514C107.138 40.583 107.311 40.1758 107.609 39.4297L108.374 37.5166C108.431 37.3682 108.517 37.1445 108.632 36.8457H109.048L110.601 40.499C110.661 40.6377 110.716 40.7158 110.765 40.7334C110.829 40.7568 110.922 40.7686 111.043 40.7686L111.069 40.8008V40.9883ZM109.212 39.4121L108.585 37.877L107.984 39.4121C108.145 39.418 108.353 39.4209 108.608 39.4209C108.856 39.4209 109.058 39.418 109.212 39.4121Z" fill="#E7E7E9"/>
<path d="M114.582 36.8809C114.555 37.0625 114.541 37.3789 114.541 37.8301L114.509 37.8594H114.324L114.295 37.8301C114.293 37.8184 114.29 37.7793 114.286 37.7129C114.278 37.5703 114.273 37.4893 114.271 37.4697C114.256 37.3506 114.229 37.2764 114.189 37.2471C114.131 37.2041 113.942 37.1826 113.624 37.1826H112.754V39.7168C112.754 40.1816 112.767 40.4844 112.792 40.625C112.802 40.6816 112.835 40.7178 112.892 40.7334C112.921 40.7412 113.035 40.751 113.234 40.7627L113.264 40.792L113.267 40.9912L113.24 41.0176C113.213 41.0176 113.139 41.0156 113.018 41.0117C112.707 41.0039 112.479 41 112.335 41C112.142 41 111.84 41.0059 111.43 41.0176L111.403 40.9912V40.792L111.433 40.7627C111.632 40.751 111.746 40.7412 111.775 40.7334C111.832 40.7178 111.865 40.6816 111.875 40.625C111.9 40.4844 111.913 40.1816 111.913 39.7168V38.167C111.913 37.7021 111.9 37.3994 111.875 37.2588C111.865 37.2021 111.832 37.166 111.775 37.1504C111.746 37.1426 111.632 37.1328 111.433 37.1211L111.403 37.0918V36.8926L111.433 36.8662L112.145 36.8838C113.404 36.8838 114.208 36.873 114.556 36.8516L114.582 36.8809Z" fill="#E7E7E9"/>
<path d="M119.226 40.9883L119.199 41.0176C118.766 41.0059 118.504 41 118.414 41C118.055 41 117.721 41.0059 117.412 41.0176L117.386 40.9883V40.8037L117.415 40.7715L117.67 40.7568C117.777 40.751 117.831 40.7129 117.831 40.6426C117.831 40.6016 117.804 40.5098 117.749 40.3672L117.512 39.749C117.242 39.7451 116.967 39.7432 116.686 39.7432C116.533 39.7432 116.307 39.7451 116.006 39.749L115.877 40.1064C115.779 40.3779 115.73 40.5479 115.73 40.6162C115.73 40.6904 115.776 40.7344 115.868 40.748C115.919 40.7559 116.019 40.7637 116.167 40.7715L116.196 40.8008V40.9883L116.167 41.0176C115.806 41.0059 115.573 41 115.47 41C115.39 41 115.191 41.0059 114.875 41.0176L114.846 40.9912V40.8008L114.878 40.7715C115.079 40.7598 115.202 40.7197 115.247 40.6514C115.294 40.583 115.467 40.1758 115.766 39.4297L116.53 37.5166C116.587 37.3682 116.673 37.1445 116.788 36.8457H117.204L118.757 40.499C118.817 40.6377 118.872 40.7158 118.921 40.7334C118.985 40.7568 119.078 40.7686 119.199 40.7686L119.226 40.8008V40.9883ZM117.368 39.4121L116.741 37.877L116.141 39.4121C116.301 39.418 116.509 39.4209 116.765 39.4209C117.013 39.4209 117.214 39.418 117.368 39.4121Z" fill="#E7E7E9"/>
<path d="M122.712 39.6582C122.712 40.1328 122.532 40.4961 122.173 40.748C121.86 40.9648 121.455 41.0732 120.957 41.0732C120.412 41.0732 119.979 40.96 119.656 40.7334L119.636 40.6836C119.647 40.5391 119.653 40.4082 119.653 40.291C119.653 40.1738 119.647 40.0059 119.636 39.7871L119.656 39.7666H119.823L119.841 39.7871C119.899 40.1074 120.006 40.3486 120.16 40.5107C120.334 40.6943 120.547 40.7861 120.799 40.7861C121.119 40.7861 121.371 40.6855 121.555 40.4844C121.727 40.2969 121.812 40.0479 121.812 39.7373C121.812 39.4346 121.712 39.2031 121.511 39.043C121.327 38.8965 121.08 38.8232 120.77 38.8232C120.639 38.8232 120.512 38.8311 120.389 38.8467L120.354 38.8174V38.5332L120.389 38.5098C120.492 38.5176 120.58 38.5215 120.652 38.5215C120.83 38.5215 120.969 38.502 121.068 38.4629C121.193 38.4141 121.299 38.3242 121.385 38.1934C121.465 38.0703 121.505 37.9248 121.505 37.7568C121.505 37.6377 121.477 37.5264 121.42 37.4229C121.299 37.2002 121.104 37.0889 120.834 37.0889C120.648 37.0889 120.483 37.1533 120.339 37.2822C120.212 37.3955 120.115 37.5684 120.049 37.8008L120.031 37.8213H119.899L119.882 37.8008C119.87 37.5195 119.849 37.3018 119.817 37.1475L119.844 37.1152C120.219 36.9043 120.616 36.7988 121.036 36.7988C121.382 36.7988 121.667 36.8564 121.892 36.9717C122.183 37.1201 122.328 37.3496 122.328 37.6602C122.328 37.9219 122.228 38.1377 122.026 38.3076C121.849 38.46 121.623 38.5547 121.35 38.5918V38.6445C121.977 38.6445 122.383 38.793 122.568 39.0898C122.664 39.2422 122.712 39.4316 122.712 39.6582Z" fill="#E7E7E9"/>
<path d="M127.563 40.9971L127.534 41.0176C127.13 41.0059 126.825 41 126.62 41C126.202 41 125.903 41.0059 125.724 41.0176L125.697 40.9912V40.792L125.727 40.7627C125.93 40.751 126.045 40.7412 126.072 40.7334C126.129 40.7178 126.162 40.6816 126.172 40.625C126.197 40.4844 126.21 40.1816 126.21 39.7168V37.5547L124.379 41.0176C124.178 41.0098 123.99 41.0059 123.816 41.0059C123.707 41.0059 123.454 41.0098 123.058 41.0176L123.028 40.9912V40.792L123.058 40.7627C123.257 40.751 123.371 40.7412 123.4 40.7334C123.457 40.7178 123.49 40.6816 123.5 40.625C123.525 40.4844 123.538 40.1816 123.538 39.7168V38.167C123.538 37.7021 123.525 37.3994 123.5 37.2588C123.49 37.2021 123.457 37.166 123.4 37.1504C123.371 37.1426 123.257 37.1328 123.058 37.1211L123.028 37.0918V36.8926L123.055 36.8662C123.357 36.8779 123.659 36.8838 123.96 36.8838C124.159 36.8838 124.46 36.8779 124.862 36.8662L124.889 36.8926V37.0918L124.859 37.1211C124.66 37.1328 124.546 37.1426 124.517 37.1504C124.46 37.166 124.427 37.2021 124.417 37.2588C124.392 37.3994 124.379 37.7021 124.379 38.167V40.373L126.21 36.8662C126.466 36.8779 126.64 36.8838 126.731 36.8838C126.798 36.8838 127.065 36.8779 127.534 36.8662L127.563 36.8926V37.0918L127.531 37.1211C127.332 37.1328 127.218 37.1426 127.188 37.1504C127.132 37.166 127.099 37.2021 127.089 37.2588C127.063 37.3994 127.051 37.7021 127.051 38.167V39.7168C127.051 40.1816 127.063 40.4844 127.089 40.625C127.099 40.6816 127.132 40.7178 127.188 40.7334C127.216 40.7412 127.331 40.751 127.534 40.7627L127.563 40.792V40.9971Z" fill="#E7E7E9"/>
<path d="M132.562 40.9883L132.532 41.0176C132.339 41.0059 132.038 41 131.63 41C131.212 41 130.911 41.0059 130.728 41.0176L130.698 40.9912V40.792L130.73 40.7627C130.93 40.751 131.044 40.7412 131.073 40.7334C131.13 40.7178 131.163 40.6816 131.173 40.625C131.198 40.4844 131.211 40.1816 131.211 39.7168V39.0107C131.111 39.001 130.795 38.9961 130.262 38.9961C129.77 38.9961 129.445 39.001 129.289 39.0107V39.7168C129.289 40.1816 129.302 40.4844 129.327 40.625C129.337 40.6816 129.37 40.7178 129.427 40.7334C129.456 40.7412 129.57 40.751 129.77 40.7627L129.799 40.792V40.9883L129.772 41.0176C129.577 41.0059 129.276 41 128.87 41C128.45 41 128.149 41.0059 127.968 41.0176L127.938 40.9912V40.792L127.968 40.7627C128.167 40.751 128.281 40.7412 128.311 40.7334C128.367 40.7178 128.4 40.6816 128.41 40.625C128.436 40.4844 128.448 40.1816 128.448 39.7168V38.167C128.448 37.7021 128.436 37.3994 128.41 37.2588C128.4 37.2021 128.367 37.166 128.311 37.1504C128.281 37.1426 128.167 37.1328 127.968 37.1211L127.938 37.0918V36.8926L127.968 36.8662C128.155 36.8779 128.456 36.8838 128.87 36.8838C129.294 36.8838 129.595 36.8779 129.772 36.8662L129.799 36.8926V37.0947L129.77 37.1211C129.57 37.1328 129.456 37.1426 129.427 37.1504C129.37 37.166 129.337 37.2021 129.327 37.2588C129.302 37.3994 129.289 37.7021 129.289 38.167V38.6504C129.496 38.6602 129.781 38.665 130.145 38.665C130.715 38.665 131.07 38.6602 131.211 38.6504V38.167C131.211 37.7021 131.198 37.3994 131.173 37.2588C131.163 37.2021 131.13 37.166 131.073 37.1504C131.044 37.1426 130.93 37.1328 130.73 37.1211L130.698 37.0918V36.8926L130.728 36.8662C130.917 36.8779 131.218 36.8838 131.63 36.8838C132.056 36.8838 132.356 36.8779 132.532 36.8662L132.562 36.8926V37.0947L132.535 37.1211C132.332 37.1328 132.217 37.1426 132.189 37.1504C132.133 37.166 132.1 37.2021 132.09 37.2588C132.064 37.3994 132.052 37.7021 132.052 38.167V39.7168C132.052 40.1816 132.064 40.4844 132.09 40.625C132.1 40.6816 132.133 40.7178 132.189 40.7334C132.219 40.7412 132.333 40.751 132.532 40.7627L132.562 40.792V40.9883Z" fill="#E7E7E9"/>
<path d="M137.472 38.835C137.472 39.5557 137.262 40.1211 136.842 40.5312C136.434 40.9297 135.876 41.1289 135.169 41.1289C134.501 41.1289 133.977 40.9414 133.596 40.5664C133.215 40.1895 133.024 39.666 133.024 38.9961C133.024 38.0566 133.383 37.4062 134.1 37.0449C134.426 36.8809 134.827 36.7988 135.304 36.7988C135.985 36.7988 136.516 36.9775 136.895 37.335C137.279 37.6982 137.472 38.1982 137.472 38.835ZM136.569 38.9873C136.569 38.4209 136.455 37.9717 136.227 37.6396C136 37.3057 135.667 37.1387 135.228 37.1387C134.647 37.1387 134.263 37.3994 134.073 37.9209C133.976 38.1885 133.927 38.4883 133.927 38.8203C133.927 39.4238 134.038 39.9004 134.261 40.25C134.491 40.6113 134.836 40.792 135.295 40.792C135.852 40.792 136.226 40.5176 136.417 39.9688C136.519 39.6777 136.569 39.3506 136.569 38.9873Z" fill="#E7E7E9"/>
<path d="M141.371 39.6787C141.371 40.1689 141.134 40.5488 140.659 40.8184C140.425 40.9512 140.123 41.0176 139.754 41.0176C139.637 41.0176 139.54 41.0166 139.464 41.0146L138.764 41C138.514 41 138.32 41.0059 138.184 41.0176L138.154 40.9883V40.9062L138.169 40.8711C138.313 40.7793 138.392 40.7217 138.403 40.6982C138.421 40.6631 138.432 40.5332 138.436 40.3086L138.444 39.6523V38.167C138.444 37.7021 138.432 37.3994 138.406 37.2588C138.396 37.2021 138.363 37.166 138.307 37.1504C138.277 37.1426 138.163 37.1328 137.964 37.1211L137.935 37.0918V36.8926L137.964 36.8662C138.138 36.8779 138.437 36.8838 138.86 36.8838C139.13 36.8838 139.373 36.8789 139.59 36.8691C139.762 36.8613 139.907 36.8574 140.026 36.8574C140.571 36.8574 140.929 36.9814 141.099 37.2295C141.188 37.3604 141.233 37.5107 141.233 37.6807C141.233 37.958 141.125 38.1895 140.908 38.375C140.805 38.4629 140.697 38.5283 140.586 38.5713C140.457 38.6201 140.316 38.6621 140.164 38.6973C140.969 38.7324 141.371 39.0596 141.371 39.6787ZM140.349 37.8242C140.349 37.3926 140.124 37.1768 139.675 37.1768C139.526 37.1768 139.4 37.1846 139.297 37.2002C139.289 37.4053 139.285 37.5947 139.285 37.7686V38.5771C139.33 38.5811 139.42 38.583 139.555 38.583C139.908 38.583 140.141 38.4697 140.252 38.2432C140.316 38.1123 140.349 37.9727 140.349 37.8242ZM140.475 39.7695C140.475 39.1836 140.167 38.8906 139.552 38.8906C139.474 38.8906 139.385 38.8936 139.285 38.8994V40.2559C139.285 40.4023 139.289 40.5459 139.297 40.6865C139.377 40.7002 139.489 40.707 139.634 40.707C139.907 40.707 140.118 40.6211 140.267 40.4492C140.405 40.2852 140.475 40.0586 140.475 39.7695Z" fill="#E7E7E9"/>
<path d="M32.3624 47.974H58.8646H60.5157H61.6255H62.9722H66.4235H66.6473H67.1426H68.0675H68.4419H69.7626H71.151H71.8909H72.2295H74.7326H76.4499H77.4597H77.9577H78.4571H79.4669H81.184H83.6876H84.026H85.1906H86.0216H87.4749H87.8494V47.0505H87.4746H86.0216H85.1906H84.026H83.6876H81.184H79.4669H78.4571H77.9577H77.4597H76.4499H74.7326H72.2292H71.8909H71.151H69.7626H68.4419H68.0675H67.1426H66.6473H66.4235H62.9722H61.6255H60.5157H58.8646H32.3624H26.6523L27.1154 47.974H32.3624Z" fill="#F6A65F"/>
<path d="M57.2396 50.0747H58.8646H60.5157H61.6255H62.9722H66.4235H66.6473H67.1426H68.0675H68.4419H69.7626H71.151H71.8909H72.2295H74.6085C73.9273 50.2766 73.4294 50.7756 73.3711 51.4456C73.2784 52.356 73.9957 52.9038 74.7326 52.9584C75.2125 52.995 75.6995 52.8229 75.9772 52.4059C76.2572 51.9842 76.1071 51.3733 75.6009 51.3004H75.5982L75.5876 51.2992L75.5292 51.2951C75.2785 51.2951 75.0745 51.4981 75.0745 51.7484C75.0745 51.9986 75.2785 52.202 75.5292 52.202C75.7803 52.202 75.9837 51.9986 75.9837 51.7484L75.981 51.7C76.1281 52.114 75.6776 52.5679 75.0772 52.5883C74.9623 52.5918 74.8448 52.5812 74.7326 52.5564C74.2551 52.4499 73.8554 52.0822 73.9608 51.4603C74.0526 50.9852 74.3536 50.7048 74.7326 50.5752C75.2492 50.399 75.9103 50.502 76.3824 50.7747L76.4499 50.8172C76.9118 51.1138 77.1377 51.5813 77.0426 52.1447C76.9722 52.5606 76.7593 52.8846 76.4499 53.121C76.021 53.4507 75.4064 53.613 74.7326 53.626C74.4315 53.6322 74.1189 53.608 73.8057 53.5554C73.2376 53.4607 72.6425 53.2807 72.2295 52.9852C72.0945 52.8896 71.9794 52.7816 71.8909 52.6603L71.8577 52.6143L71.8909 52.6125C72.0128 52.6054 72.1259 52.5862 72.2295 52.5564C72.7855 52.3965 73.0653 51.937 73.0733 51.5394C73.0824 51.0772 72.694 50.7972 72.2538 50.8237L72.2295 50.8264C72.1061 50.8385 71.9915 50.8804 71.8909 50.9468C71.4965 51.208 71.3148 51.8466 71.6673 52.5399C71.5371 52.552 71.4373 52.5405 71.313 52.5198L71.151 52.4779L71.1439 52.4756L71.151 52.4522C71.173 52.3717 71.1854 52.2876 71.1854 52.1996C71.1854 52.1123 71.173 52.027 71.151 51.947C71.04 51.5474 70.6732 51.2534 70.236 51.2534C70.0637 51.2534 69.902 51.2998 69.7626 51.3806C69.4784 51.5435 69.2874 51.8496 69.2874 52.1996C69.2874 52.5499 69.4784 52.8557 69.7626 53.0192C69.902 53.0998 70.0637 53.1455 70.236 53.1455C70.63 53.1455 70.9687 52.9056 71.1117 52.5647L71.151 52.5797L71.2979 52.6169C71.4379 52.6411 71.5806 52.6485 71.7192 52.6367C71.7701 52.7241 71.8266 52.8058 71.8909 52.8849C71.99 53.0091 72.1028 53.1231 72.2295 53.2281C72.8663 53.7591 73.8092 54.045 74.7326 54.0566C75.3466 54.0645 75.9511 53.9506 76.4499 53.7086C76.8916 53.494 77.2496 53.1797 77.4597 52.7583C77.5447 52.5877 77.6057 52.3991 77.6374 52.1931C77.7007 51.7805 77.6267 51.4146 77.4597 51.1065C77.2463 50.7122 76.8795 50.4106 76.4499 50.2187C76.32 50.1603 76.1841 50.1116 76.0452 50.0747H76.4499H77.4597H77.9577H78.4571H79.4669H79.8713C79.7328 50.1116 79.5972 50.1603 79.4669 50.2187C79.0377 50.4106 78.6715 50.7122 78.4571 51.1065C78.2902 51.4146 78.2161 51.7799 78.2795 52.1931C78.3106 52.4 78.3722 52.5877 78.4571 52.7589C78.6673 53.1797 79.0249 53.4949 79.4669 53.7086C79.9658 53.9506 80.5703 54.0645 81.184 54.0566C82.107 54.045 83.0505 53.7599 83.6876 53.2281C83.8131 53.1231 83.9268 53.0091 84.026 52.8849C84.09 52.8064 84.1471 52.7241 84.1977 52.6367C84.336 52.6485 84.479 52.6411 84.619 52.6169L84.8049 52.5647C84.8831 52.7509 85.0189 52.9064 85.1906 53.0097C85.3336 53.0959 85.5012 53.1455 85.6797 53.1455C85.8008 53.1455 85.916 53.1231 86.0216 53.0818C86.3775 52.9457 86.6291 52.6019 86.6291 52.1996C86.6291 51.7974 86.3775 51.4538 86.0216 51.3166C85.916 51.2762 85.8008 51.2534 85.6797 51.2534C85.5012 51.2534 85.3336 51.3033 85.1906 51.3889C84.9153 51.5545 84.7315 51.8561 84.7315 52.1996C84.7315 52.2961 84.7457 52.3879 84.7729 52.4756L84.6042 52.5198C84.4795 52.5405 84.3789 52.552 84.2495 52.5399C84.6021 51.8466 84.4203 51.208 84.026 50.9468C83.9254 50.8795 83.8108 50.8385 83.6876 50.8264L83.6625 50.8237C83.2228 50.7972 82.8344 51.0772 82.8436 51.5394C82.8516 51.937 83.1314 52.3965 83.6876 52.5564C83.7909 52.5862 83.9034 52.6054 84.026 52.6125L84.0592 52.6143L84.026 52.6603C83.9375 52.7816 83.8223 52.8896 83.6876 52.9852C83.2746 53.2807 82.6793 53.4607 82.1112 53.5554C81.7971 53.608 81.4845 53.6322 81.184 53.626C80.5102 53.613 79.8956 53.4507 79.4669 53.121C79.1576 52.8846 78.9441 52.5611 78.8742 52.1447C78.7789 51.5813 79.0051 51.1138 79.4669 50.8172L79.5344 50.7747C80.0066 50.502 80.668 50.399 81.184 50.5752C81.5632 50.7048 81.8643 50.9852 81.9569 51.4603C82.0612 52.0822 81.6612 52.4499 81.184 52.5564C81.0712 52.5812 80.9545 52.5918 80.8394 52.5883C80.2393 52.5679 79.7878 52.114 79.9353 51.7L79.9332 51.7484C79.9332 51.9986 80.136 52.202 80.3873 52.202C80.6387 52.202 80.8423 51.9986 80.8423 51.7484C80.8423 51.4981 80.6387 51.2951 80.3873 51.2951L80.3293 51.2992L80.3186 51.3004H80.3157C79.81 51.3733 79.6597 51.9842 79.9394 52.4059C80.2165 52.8223 80.7044 52.995 81.184 52.9584C81.9211 52.9038 82.6381 52.356 82.5455 51.4456C82.4875 50.7756 81.9895 50.2766 81.308 50.0747H83.6876H84.026H85.1906H86.0216H87.4749H87.8494V49.1513H87.4746H86.0216H85.1906H84.026L83.6876 49.151H81.184L79.4669 49.1513H78.4571H77.9577H77.4597L76.4499 49.151H74.7326L72.2295 49.1513H71.8909H71.151H69.7626H68.4419H68.0675H67.1426H66.6473H66.4235H62.9722H61.6255L60.5157 49.151H58.8646H56.7772L57.2396 50.0747Z" fill="#F6A65F"/>
<path d="M66.6882 52.1996C66.6882 52.4499 66.8916 52.6526 67.1426 52.6526C67.3934 52.6526 67.5973 52.4499 67.5973 52.1996C67.5973 51.9493 67.3934 51.746 67.1426 51.746C66.8916 51.746 66.6882 51.9493 66.6882 52.1996Z" fill="#F6A65F"/>
<path d="M67.7504 52.1996C67.7504 52.4431 67.8762 52.6562 68.0675 52.7792C68.1752 52.8489 68.3043 52.8896 68.4419 52.8896C68.8238 52.8896 69.1341 52.5806 69.1341 52.1996C69.1341 51.818 68.8238 51.5102 68.4419 51.5102C68.3043 51.5102 68.1752 51.55 68.0675 51.6203C67.8762 51.7425 67.7504 51.9567 67.7504 52.1996Z" fill="#F6A65F"/>
<path d="M76.1595 55.3672C76.2605 55.3678 76.3573 55.3454 76.4499 55.3038C76.8759 55.1119 77.217 54.5282 77.4597 54.0288C77.5622 53.8166 77.6477 53.6198 77.7143 53.4757C77.7143 53.4757 77.6631 53.5779 77.4597 53.736L77.3745 53.7989C77.116 53.9813 76.7919 54.123 76.4499 54.2248C76.0278 54.352 75.5784 54.4184 75.1864 54.4252C75.2714 54.8859 75.7362 55.3646 76.1595 55.3672Z" fill="#F6A65F"/>
<path d="M77.4597 54.7061C77.32 55.0901 77.2054 55.4608 77.2054 55.6464C77.2054 55.9091 77.2999 56.1083 77.4597 56.3205C77.5882 56.4916 77.7599 56.6714 77.9577 56.8989H77.9586C78.1566 56.6714 78.3286 56.4916 78.4571 56.3205C78.617 56.1083 78.712 55.9091 78.712 55.6464C78.712 55.4608 78.5972 55.0901 78.4571 54.7061C78.2437 54.12 77.9716 53.5047 77.9586 53.4763V53.4757L77.9577 53.4763C77.945 53.5047 77.6732 54.12 77.4597 54.7061Z" fill="#F6A65F"/>
<path d="M78.2028 53.4757C78.2685 53.6201 78.3544 53.8166 78.4571 54.0288C78.699 54.5282 79.0409 55.1128 79.4669 55.3038C79.5596 55.3454 79.6561 55.3678 79.7573 55.3672C80.1807 55.3646 80.6455 54.8859 80.7304 54.4252C80.3385 54.4184 79.8888 54.352 79.4669 54.2248C79.125 54.123 78.8008 53.9813 78.5424 53.7989L78.4571 53.736C78.2534 53.5779 78.2028 53.4757 78.2028 53.4757Z" fill="#F6A65F"/>
<path d="M86.7831 52.1996C86.7831 52.5806 87.0924 52.8896 87.4749 52.8896C87.6126 52.8896 87.7417 52.8489 87.8494 52.7792L87.9681 52.6824C88.0904 52.5585 88.1665 52.3879 88.1665 52.1996C88.1665 52.0116 88.0904 51.841 87.9681 51.7159L87.8494 51.6203C87.7417 51.55 87.6126 51.5102 87.4749 51.5102C87.0924 51.5102 86.7831 51.818 86.7831 52.1996Z" fill="#F6A65F"/>
<path d="M87.8494 50.0747H87.9681H88.7746H89.2636H89.6334H92.9446H94.2907H95.4012H98.6769L99.1396 49.151L95.4012 49.1513H94.2907H92.9446H89.6334H89.2636H88.7743H87.9681H87.8494V50.0747Z" fill="#F6A65F"/>
<path d="M87.8494 47.974H87.9681H88.7746H89.2636H89.6334H92.9446H94.2907H95.4012H121.769H128.801L129.265 47.0505H121.769H95.4012H94.2907H92.9446H89.6334H89.2636H88.7743H87.9681H87.8494V47.974Z" fill="#F6A65F"/>
<path d="M88.3195 52.1996C88.3195 52.4499 88.5223 52.6526 88.7746 52.6526C89.0253 52.6526 89.2287 52.4499 89.2287 52.1996C89.2287 51.9493 89.0253 51.746 88.7746 51.746C88.5223 51.746 88.3195 51.9493 88.3195 52.1996Z" fill="#F6A65F"/>
<path d="M137.879 8.92498L93.8823 8.92499L92.2313 8.92499H91.1214H89.7747H86.3234H86.0996H85.6044H84.6795H84.305L82.9844 8.92499H81.5959H80.8561H80.5174H78.0144H76.297H75.2872H74.7893H74.2898L73.28 8.92499H71.563H69.0593H68.721H67.5563H66.7253H65.272H64.8976V9.84844H65.2723L66.7253 9.84844H67.5563H68.721H69.0593H71.563H73.28H74.2898H74.7893H75.2872L76.297 9.84844H78.0144H80.5177H80.8561H81.5959H82.9844H84.305H84.6795H85.6044L86.0996 9.84844H86.3234H89.7747H91.1214H92.2313H93.8823L137.879 9.84844H143.589L143.126 8.92498L137.879 8.92498Z" fill="#F6A65F"/>
<path d="M98.6695 6.82428H97.0445L95.3935 6.82428H94.2836H92.9369H89.4856H89.2618H88.7665H87.8417H87.4672L86.1465 6.82428H84.7581H84.0183H83.6796L81.3006 6.82428C81.9818 6.62241 82.4797 6.12335 82.538 5.45341C82.6307 4.54295 81.9134 3.99519 81.1765 3.94059C80.6967 3.904 80.2097 4.07606 79.932 4.49307C79.6519 4.91481 79.802 5.52572 80.3082 5.59862H80.3109L80.3216 5.5998L80.3799 5.60393C80.6306 5.60393 80.8346 5.40088 80.8346 5.15061C80.8346 4.90035 80.6306 4.697 80.3799 4.697C80.1288 4.697 79.9255 4.90035 79.9255 5.15061L79.9281 5.19901C79.781 4.78495 80.2316 4.33105 80.8319 4.31068C80.9468 4.30714 81.0643 4.31777 81.1765 4.34256C81.6541 4.4491 82.0537 4.81682 81.9483 5.43866C81.8566 5.91381 81.5555 6.19418 81.1765 6.32374C80.6599 6.49993 79.9989 6.39693 79.5267 6.12424L79.4592 6.08174C78.9974 5.78514 78.7715 5.31766 78.8665 4.75426C78.937 4.33842 79.1498 4.01438 79.4592 3.77798C79.8882 3.44832 80.5027 3.286 81.1765 3.27302C81.4776 3.26682 81.7902 3.29102 82.1034 3.34355C82.6716 3.43829 83.2666 3.61831 83.6796 3.91374C83.8146 4.00936 83.9298 4.11737 84.0183 4.23867L84.0514 4.28471L84.0183 4.28648C83.8963 4.29357 83.7832 4.31275 83.6796 4.34256C83.1236 4.50251 82.8439 4.96203 82.8359 5.35956C82.8267 5.82173 83.2151 6.10181 83.6553 6.07524L83.6796 6.07259C83.803 6.06049 83.9176 6.01858 84.0183 5.95218C84.4126 5.69099 84.5944 5.05234 84.2418 4.35908C84.372 4.34698 84.4718 4.35849 84.5961 4.37915L84.7581 4.42106L84.7652 4.42342L84.7581 4.44674C84.7362 4.52731 84.7237 4.61142 84.7237 4.69936C84.7237 4.78672 84.7362 4.87201 84.7581 4.95199C84.8691 5.35159 85.2359 5.64554 85.6732 5.64554C85.8455 5.64554 86.0071 5.59921 86.1465 5.51834C86.4307 5.35543 86.6217 5.04938 86.6217 4.69936C86.6217 4.34905 86.4307 4.0433 86.1465 3.8798C86.0071 3.79923 85.8455 3.75348 85.6732 3.75348C85.2791 3.75348 84.9404 3.99342 84.7974 4.33429L84.7581 4.31924L84.6112 4.28205C84.4712 4.25785 84.3285 4.25048 84.19 4.26228C84.1391 4.17492 84.0825 4.09317 84.0183 4.01408C83.9191 3.88983 83.8063 3.77591 83.6796 3.67085C83.0428 3.13991 82.0999 2.85394 81.1765 2.84243C80.5625 2.83446 79.958 2.94838 79.4592 3.19038C79.0175 3.40494 78.6596 3.71925 78.4494 4.14069C78.3644 4.31127 78.3034 4.49986 78.2718 4.70586C78.2084 5.11844 78.2824 5.4844 78.4494 5.79251C78.6628 6.1868 79.0296 6.48842 79.4592 6.68026C79.5891 6.73869 79.725 6.78739 79.8639 6.82428H79.4592H78.4494H77.9514H77.452H76.4422H76.0378C76.1764 6.78739 76.3119 6.73869 76.4422 6.68026C76.8715 6.48842 77.2377 6.1868 77.452 5.79251C77.619 5.4844 77.693 5.11903 77.6296 4.70586C77.5986 4.49897 77.537 4.31127 77.452 4.1401C77.2418 3.71925 76.8842 3.40405 76.4422 3.19038C75.9434 2.94838 75.3388 2.83446 74.7251 2.84243C73.8021 2.85394 72.8586 3.13903 72.2215 3.67085C72.096 3.77591 71.9823 3.88983 71.8831 4.01408C71.8192 4.09258 71.762 4.17493 71.7114 4.26228C71.5732 4.25048 71.4302 4.25786 71.2901 4.28206L71.1042 4.33429C71.0261 4.14807 70.8902 3.99254 70.7185 3.88924C70.5755 3.80307 70.4079 3.75348 70.2294 3.75348C70.1083 3.75348 69.9932 3.77591 69.8875 3.81723C69.5316 3.95329 69.28 4.29711 69.28 4.69937C69.28 5.10162 69.5316 5.44515 69.8875 5.58238C69.9932 5.62282 70.1083 5.64554 70.2294 5.64554C70.4079 5.64554 70.5755 5.59567 70.7185 5.51008C70.9938 5.34451 71.1777 5.04289 71.1777 4.69937C71.1777 4.60286 71.1634 4.51107 71.1362 4.42342L71.3049 4.37915C71.4296 4.35849 71.5302 4.34698 71.6596 4.35908C71.307 5.05234 71.4888 5.69099 71.8831 5.95218C71.9838 6.01947 72.0983 6.06049 72.2215 6.07259L72.2467 6.07525C72.6863 6.10181 73.0747 5.82173 73.0655 5.35956C73.0575 4.96203 72.7778 4.50252 72.2215 4.34256C72.1182 4.31275 72.0057 4.29357 71.8831 4.28648L71.85 4.28471L71.8831 4.23867C71.9716 4.11737 72.0868 4.00936 72.2215 3.91374C72.6345 3.61832 73.2298 3.43829 73.7979 3.34355C74.112 3.29102 74.4247 3.26682 74.7251 3.27302C75.3989 3.286 76.0135 3.44832 76.4422 3.77798C76.7516 4.01438 76.965 4.33783 77.0349 4.75426C77.1302 5.31766 76.904 5.78514 76.4422 6.08174L76.3747 6.12424C75.9025 6.39693 75.2411 6.49993 74.7251 6.32374C74.3459 6.19418 74.0448 5.91381 73.9522 5.43866C73.848 4.81683 74.2479 4.4491 74.7251 4.34256C74.8379 4.31777 74.9546 4.30714 75.0697 4.31068C75.6698 4.33105 76.1213 4.78495 75.9739 5.19901L75.9759 5.15061C75.9759 4.90035 75.7731 4.697 75.5218 4.697C75.2705 4.697 75.0668 4.90035 75.0668 5.15061C75.0668 5.40088 75.2705 5.60393 75.5218 5.60393L75.5798 5.5998L75.5905 5.59862H75.5934C76.0991 5.52572 76.2495 4.91481 75.9697 4.49307C75.6926 4.07665 75.2047 3.904 74.7251 3.94059C73.988 3.99519 73.271 4.54295 73.3636 5.45341C73.4217 6.12335 73.9196 6.62241 74.6011 6.82428L72.2215 6.82428H71.8831H70.7185H69.8875H68.4342H68.0597V7.74773H68.4345H69.8875H70.7185H71.8831L72.2215 7.74802H74.7251L76.4422 7.74773H77.452H77.9514H78.4494L79.4592 7.74802L81.1765 7.74802L83.6796 7.74773L84.0183 7.74773H84.7581H86.1465H87.4672H87.8417H88.7665H89.2618H89.4856H92.9369L94.2836 7.74773L95.3935 7.74802H97.0445H99.1319L98.6695 6.82428Z" fill="#F6A65F"/>
<path d="M89.2209 4.69936C89.2209 4.4491 89.0176 4.24634 88.7665 4.24634C88.5158 4.24634 88.3118 4.4491 88.3118 4.69936C88.3118 4.94963 88.5158 5.15297 88.7665 5.15297C89.0176 5.15297 89.2209 4.94963 89.2209 4.69936Z" fill="#F6A65F"/>
<path d="M88.1587 4.69936C88.1587 4.45588 88.0329 4.2428 87.8417 4.11973C87.7339 4.05008 87.6048 4.00936 87.4672 4.00936C87.0853 4.00936 86.775 4.31836 86.775 4.69936C86.775 5.08096 87.0853 5.38878 87.4672 5.38878C87.6048 5.38878 87.7339 5.34894 87.8417 5.2787C88.0329 5.15652 88.1587 4.94225 88.1587 4.69936Z" fill="#F6A65F"/>
<path d="M79.7496 1.53177C79.6487 1.53118 79.5518 1.55361 79.4592 1.59522C79.0332 1.78705 78.6921 2.37081 78.4494 2.87017C78.347 3.08237 78.2614 3.27921 78.1948 3.42324C78.1948 3.42324 78.246 3.32112 78.4494 3.16293L78.5346 3.10007C78.7931 2.91768 79.1173 2.77602 79.4592 2.6742C79.8813 2.54701 80.3307 2.4806 80.7227 2.47381C80.6377 2.01312 80.1729 1.53443 79.7496 1.53177Z" fill="#F6A65F"/>
<path d="M78.4494 2.19285C78.5891 1.80889 78.7037 1.43821 78.7037 1.25258C78.7037 0.989916 78.6092 0.790705 78.4494 0.578509C78.3209 0.407336 78.1492 0.227604 77.9514 6.10352e-05L77.9505 6.10352e-05C77.7525 0.227604 77.5805 0.407336 77.452 0.578509C77.2921 0.790705 77.1971 0.989916 77.1971 1.25258C77.1971 1.43821 77.312 1.80889 77.452 2.19285C77.6655 2.77897 77.9375 3.39431 77.9505 3.42265V3.42324L77.9514 3.42265C77.9642 3.39431 78.2359 2.77897 78.4494 2.19285Z" fill="#F6A65F"/>
<path d="M77.7063 3.42324C77.6406 3.27892 77.5547 3.08237 77.452 2.87017C77.2101 2.37081 76.8682 1.78617 76.4422 1.59522C76.3495 1.55361 76.253 1.53118 76.1518 1.53177C75.7284 1.53443 75.2637 2.01312 75.1787 2.47381C75.5707 2.4806 76.0203 2.54701 76.4422 2.6742C76.7841 2.77602 77.1083 2.91768 77.3667 3.10007L77.452 3.16293C77.6557 3.32112 77.7063 3.42324 77.7063 3.42324Z" fill="#F6A65F"/>
<path d="M69.1261 4.69937C69.1261 4.31836 68.8167 4.00936 68.4342 4.00936C68.2965 4.00936 68.1675 4.05009 68.0597 4.11974L67.941 4.21654C67.8187 4.34049 67.7426 4.51107 67.7426 4.69937C67.7426 4.88736 67.8187 5.05794 67.941 5.18308L68.0597 5.2787C68.1675 5.34894 68.2965 5.38878 68.4342 5.38878C68.8167 5.38878 69.1261 5.08096 69.1261 4.69937Z" fill="#F6A65F"/>
<path d="M68.0597 6.82428H67.941L67.1346 6.82428H66.6455H66.2758H62.9645H61.6184H60.5079L57.2322 6.82428L56.7695 7.74803L60.5079 7.74773H61.6184H62.9645L66.2758 7.74773H66.6455H67.1349H67.941H68.0597V6.82428Z" fill="#F6A65F"/>
<path d="M64.8976 8.92499H64.7788H63.9724L63.4833 8.92499H63.1136H59.8023H58.4562H57.3458L20.1446 8.92499L13.1123 8.925L12.6484 9.84845L20.1446 9.84845L57.3458 9.84844H58.4562H59.8023H63.1136H63.4833H63.9727H64.7788H64.8976V8.92499Z" fill="#F6A65F"/>
<path d="M67.5896 4.69937C67.5896 4.4491 67.3868 4.24635 67.1346 4.24635C66.8838 4.24635 66.6804 4.4491 66.6804 4.69937C66.6804 4.94963 66.8838 5.15298 67.1346 5.15298C67.3868 5.15297 67.5896 4.94963 67.5896 4.69937Z" fill="#F6A65F"/>
<path d="M12.2083 26.5302C12.2083 28.2664 11.3653 29.6118 9.67925 30.5663C8.84663 31.0367 7.77463 31.2718 6.46324 31.2718C6.04693 31.2718 5.70347 31.2684 5.43287 31.2615L2.94541 31.2096C2.05727 31.2096 1.37036 31.2303 0.884663 31.2718L0.780585 31.1681V30.8776L0.832624 30.7531C1.34608 30.428 1.62362 30.2239 1.66525 30.1409C1.72769 30.0164 1.76586 29.5564 1.77973 28.761L1.81096 26.4368V21.1764C1.81096 19.5302 1.76586 18.458 1.67566 17.96C1.64096 17.7594 1.52301 17.6315 1.32179 17.5761C1.21771 17.5485 0.811808 17.5139 0.104078 17.4724L0 17.3686V16.6631L0.104078 16.5697C0.721607 16.6112 1.7832 16.6319 3.28886 16.6319C4.24638 16.6319 5.11023 16.6147 5.88041 16.5801C6.491 16.5524 7.00792 16.5386 7.43117 16.5386C9.36702 16.5386 10.6368 16.9778 11.2404 17.8563C11.5596 18.3197 11.7192 18.8523 11.7192 19.4541C11.7192 20.4363 11.3341 21.256 10.5639 21.9131C10.1962 22.2244 9.81455 22.4561 9.41906 22.6083C8.96112 22.7812 8.46154 22.9299 7.92034 23.0544C10.779 23.1789 12.2083 24.3375 12.2083 26.5302ZM8.57603 19.9625C8.57603 18.4338 7.7781 17.6695 6.18223 17.6695C5.6549 17.6695 5.20737 17.6972 4.83963 17.7525C4.81187 18.4788 4.798 19.1497 4.798 19.7654V22.629C4.95758 22.6428 5.27675 22.6498 5.75551 22.6498C7.01139 22.6498 7.83707 22.2486 8.23257 21.4462C8.46154 20.9828 8.57603 20.4882 8.57603 19.9625ZM9.02356 26.8519C9.02356 24.7768 7.93074 23.7392 5.74511 23.7392C5.46756 23.7392 5.15186 23.7496 4.798 23.7703V28.5742C4.798 29.093 4.81187 29.6014 4.83963 30.0994C5.12411 30.1478 5.52307 30.172 6.03652 30.172C7.00792 30.172 7.75728 29.8677 8.28461 29.259C8.77724 28.678 9.02356 27.8756 9.02356 26.8519Z" fill="white"/>
<path d="M25.5511 27.7442C25.3985 28.754 25.3222 29.8954 25.3222 31.1681L25.2181 31.2718L17.6516 31.2096C16.3888 31.2096 15.4972 31.2303 14.9768 31.2718L14.8727 31.1681V30.8776L14.9248 30.7531C15.4382 30.428 15.7158 30.2239 15.7574 30.1409C15.8199 30.0095 15.858 29.5495 15.8719 28.761L15.9031 26.4368V21.1764C15.9031 19.5302 15.858 18.458 15.7678 17.96C15.7331 17.7594 15.6152 17.6315 15.414 17.5761C15.3099 17.5485 14.904 17.5139 14.1962 17.4724L14.0922 17.3686V16.6631L14.1962 16.5697C14.897 16.6112 15.9794 16.6319 17.4435 16.6319C18.7479 16.6319 21.2284 16.6112 24.885 16.5697L24.9995 16.6527L24.8642 17.8044C24.8226 18.171 24.7914 18.4823 24.7706 18.7382L24.6977 19.7031L24.5936 19.8172H23.99L23.8859 19.7135C23.879 18.7728 23.8235 18.2367 23.7194 18.1053C23.6431 18.0084 23.2684 17.9323 22.5953 17.877C21.9292 17.8217 21.3429 17.794 20.8364 17.794C20.2328 17.794 19.6222 17.8182 19.0046 17.8666C18.9283 18.5929 18.8902 19.5994 18.8902 20.8859V23.0337C19.4383 23.0682 19.8824 23.0855 20.2224 23.0855L21.5858 23.0752C22.2241 23.0682 22.5849 23.0164 22.6682 22.9195C22.7792 22.795 22.8521 22.3281 22.8868 21.5188L22.9908 21.4151H23.6361L23.7402 21.5188C23.7124 22.2935 23.6986 23.0025 23.6986 23.6458C23.6986 24.3444 23.7124 25.1088 23.7402 25.9388L23.6361 26.0322H22.9388L22.8347 25.9284C22.8347 25.133 22.7792 24.6626 22.6682 24.5174C22.5572 24.3652 22.2206 24.2649 21.6586 24.2165C21.2354 24.1819 20.7844 24.1646 20.3056 24.1646C19.7991 24.1646 19.3273 24.1819 18.8902 24.2165V27.381C18.8902 28.2871 18.9075 29.1656 18.9422 30.0164H20.3577C22.3837 30.0164 23.6257 29.9369 24.0836 29.7778C24.16 29.7501 24.2155 29.7121 24.2502 29.6636C24.3196 29.5668 24.3855 29.3593 24.4479 29.0411L24.6977 27.7545L24.8018 27.6404H25.4367L25.5511 27.7442Z" fill="white"/>
<path d="M41.0796 29.3939L40.6008 30.4522C39.1368 31.2546 37.4993 31.6557 35.6883 31.6557C32.0664 31.6557 29.5894 30.3553 28.2572 27.7545C27.6396 26.551 27.3309 25.2471 27.3309 23.843C27.3309 21.5742 28.0872 19.7654 29.5998 18.4165C31.1471 17.0262 33.2599 16.3311 35.9381 16.3311C37.6381 16.3311 39.2999 16.6389 40.9235 17.2545L41.0588 17.4101C40.8229 18.3647 40.6771 19.4818 40.6216 20.7614L40.528 20.8652H39.9139L39.8098 20.751C39.789 19.9141 39.7509 19.333 39.6953 19.0079C38.828 18.0326 37.5756 17.545 35.9381 17.545C34.2521 17.545 32.9303 18.0776 31.9728 19.1428C31.0152 20.2081 30.5365 21.6537 30.5365 23.4798C30.5365 25.9492 31.3899 27.8445 33.0968 29.1656C34.0057 29.8711 35.2235 30.2239 36.7499 30.2239C38.1376 30.2239 39.4941 29.8677 40.8194 29.1552L41.0796 29.3939Z" fill="white"/>
<path d="M54.8387 26.7481C54.8387 28.2699 54.2246 29.4354 52.9965 30.2447C51.9488 30.9433 50.6166 31.2926 48.9999 31.2926C48.6738 31.2926 48.0389 31.2753 47.0953 31.2407C46.5263 31.22 46.0476 31.2096 45.659 31.2096C45.3884 31.2096 44.3442 31.2303 42.5263 31.2718L42.4222 31.1992V30.4729L42.5367 30.3692C43.1542 30.3346 43.5254 30.3 43.6503 30.2654C43.8515 30.2101 43.9695 30.0821 44.0042 29.8815C44.0944 29.3835 44.1395 28.3114 44.1395 26.6651V21.1764C44.1395 19.5302 44.0944 18.458 44.0042 17.96C43.9695 17.7594 43.8515 17.6315 43.6503 17.5761C43.5324 17.5415 43.1577 17.507 42.5263 17.4724L42.4222 17.3686V16.6631L42.5263 16.5697C43.123 16.6112 44.1499 16.6319 45.607 16.6319C46.3633 16.6319 47.4387 16.6112 48.8334 16.5697L48.9375 16.6631V17.3686L48.8334 17.4724C48.1257 17.5139 47.7198 17.5485 47.6157 17.5761C47.4145 17.6315 47.2965 17.7594 47.2618 17.96C47.1716 18.458 47.1265 19.5302 47.1265 21.1764V22.8469C49.0207 22.8469 50.3807 22.9195 51.2064 23.0648C53.6279 23.4936 54.8387 24.7214 54.8387 26.7481ZM51.6955 26.9452C51.6955 25.9561 51.4041 25.1952 50.8213 24.6626C50.3009 24.1923 49.6209 23.9398 48.7814 23.9052C48.4344 23.8914 47.8828 23.8845 47.1265 23.8845V30.0994C47.4526 30.1478 47.8481 30.172 48.313 30.172C49.104 30.172 49.6799 30.1098 50.0407 29.9853C50.5611 29.7985 50.9774 29.425 51.2896 28.8647C51.5602 28.3736 51.6955 27.7338 51.6955 26.9452Z" fill="white"/>
<path d="M75.1755 16.6319C75.0923 17.1438 75.0472 17.673 75.0402 18.2194L75.0194 19.9521L74.9153 20.0559H74.2596L74.1452 19.9625C74.1105 19.0771 74.0723 18.5583 74.0307 18.4062C73.9474 18.1295 73.7254 17.9669 73.3646 17.9185C73.2258 17.8978 72.5736 17.8874 71.4079 17.8874H70.0133C69.9994 18.1295 69.9925 19.091 69.9925 20.7718V26.6651C69.9925 28.3114 70.0376 29.3835 70.1278 29.8815C70.1624 30.0821 70.2804 30.2101 70.4816 30.2654C70.5857 30.2931 70.9916 30.3277 71.6993 30.3692L71.8034 30.4729V31.1681L71.6993 31.2718C71.0124 31.2303 69.9439 31.2096 68.4937 31.2096C67.0089 31.2096 65.9403 31.2303 65.2881 31.2718L65.1945 31.1785V30.4729L65.2985 30.3692C66.0063 30.3277 66.4122 30.2931 66.5162 30.2654C66.7175 30.2101 66.8354 30.0821 66.8701 29.8815C66.9603 29.3835 67.0054 28.3114 67.0054 26.6651V20.7718C67.0054 19.0633 66.995 18.1018 66.9742 17.8874H65.4859C64.2439 17.8874 63.5188 17.9254 63.3106 18.0015C63.1996 18.043 63.1233 18.0949 63.0817 18.1572C63.0192 18.2678 62.9672 18.4892 62.9255 18.8212C62.877 19.1878 62.8458 19.5648 62.8319 19.9521L62.7278 20.0559H62.0721L61.9576 19.9521L61.9368 18.1779C61.9299 17.6799 61.8882 17.1646 61.8119 16.6319L61.9056 16.5282C62.315 16.5974 63.8067 16.6319 66.3809 16.6319H70.5961C72.9691 16.6319 74.4609 16.5974 75.0715 16.5282L75.1755 16.6319Z" fill="white"/>
<path d="M91.6719 31.1681L91.5782 31.2718C90.0379 31.2303 89.1081 31.2096 88.7889 31.2096C87.5122 31.2096 86.3258 31.2303 85.2295 31.2718L85.1358 31.1681V30.5144L85.2399 30.4003L86.1453 30.3484C86.527 30.3277 86.7178 30.1928 86.7178 29.9438C86.7178 29.7985 86.6206 29.4734 86.4264 28.9685L85.5833 26.7792C84.6258 26.7654 83.6475 26.7585 82.6483 26.7585C82.1071 26.7585 81.3023 26.7654 80.2337 26.7792L79.7758 28.0451C79.4289 29.0065 79.2554 29.6083 79.2554 29.8504C79.2554 30.1132 79.4184 30.2689 79.7446 30.3173C79.925 30.345 80.2788 30.3726 80.8061 30.4003L80.9102 30.5041V31.1681L80.8061 31.2718C79.5225 31.2303 78.6968 31.2096 78.3291 31.2096C78.0446 31.2096 77.3404 31.2303 76.2163 31.2718L76.1122 31.1785V30.5041L76.2267 30.4003C76.9414 30.3588 77.3785 30.217 77.5381 29.9749C77.7046 29.7328 78.3187 28.2906 79.3803 25.6483L82.0967 18.8731C82.2979 18.3474 82.6032 17.5554 83.0126 16.4971H84.4905L90.0066 29.4354C90.2217 29.9265 90.416 30.2032 90.5895 30.2654C90.8185 30.3484 91.148 30.3899 91.5782 30.3899L91.6719 30.5041V31.1681ZM85.0733 25.586L82.8461 20.1493L80.7125 25.586C81.2814 25.6068 82.0204 25.6172 82.9293 25.6172C83.8105 25.6172 84.5252 25.6068 85.0733 25.586Z" fill="white"/>
<path d="M105.369 26.7481C105.369 28.2699 104.754 29.4354 103.526 30.2447C102.479 30.9433 101.146 31.2926 99.5298 31.2926C99.2037 31.2926 98.5688 31.2753 97.6252 31.2407C97.0562 31.22 96.5774 31.2096 96.1889 31.2096C95.8489 31.2096 94.7699 31.2303 92.952 31.2718L92.8584 31.1992V30.4729L92.9625 30.3692C93.6702 30.3277 94.0761 30.2931 94.1802 30.2654C94.3814 30.2101 94.4994 30.0821 94.534 29.8815C94.6242 29.3835 94.6693 28.3114 94.6693 26.6651V21.1764C94.6693 19.5302 94.6242 18.458 94.534 17.96C94.4994 17.7594 94.3814 17.6315 94.1802 17.5761C94.0761 17.5485 93.6702 17.5139 92.9625 17.4724L92.8584 17.3686V16.6631L92.9625 16.5697L98.5931 16.6319L102.891 16.6112C103.384 16.5974 103.8 16.5697 104.14 16.5282L104.255 16.6319C104.172 17.1092 104.127 17.6245 104.12 18.1779L104.099 19.9521L103.995 20.0559H103.329L103.225 19.9625C103.204 19.5613 103.183 19.1601 103.162 18.7589C103.086 18.2263 102.898 17.9081 102.6 17.8044C102.385 17.7283 101.677 17.6903 100.477 17.6903H97.75C97.6876 19.4057 97.6564 20.464 97.6564 20.8652V22.8469C99.5506 22.8469 100.911 22.9195 101.736 23.0648C104.158 23.4936 105.369 24.7214 105.369 26.7481ZM102.225 26.9452C102.225 25.9561 101.934 25.1952 101.351 24.6626C100.831 24.1923 100.151 23.9398 99.3112 23.9052C98.9643 23.8914 98.4127 23.8845 97.6564 23.8845V30.0994C97.9825 30.1478 98.378 30.172 98.8429 30.172C99.6339 30.172 100.21 30.1098 100.571 29.9853C101.091 29.7985 101.507 29.425 101.819 28.8647C102.09 28.3736 102.225 27.7338 102.225 26.9452Z" fill="white"/>
<path d="M122.646 31.1681L122.552 31.2718C121.011 31.2303 120.082 31.2096 119.763 31.2096C118.486 31.2096 117.299 31.2303 116.203 31.2718L116.109 31.1681V30.5144L116.213 30.4003L117.119 30.3484C117.501 30.3277 117.691 30.1928 117.691 29.9438C117.691 29.7985 117.594 29.4734 117.4 28.9685L116.557 26.7792C115.599 26.7654 114.621 26.7585 113.622 26.7585C113.081 26.7585 112.276 26.7654 111.207 26.7792L110.749 28.0451C110.402 29.0065 110.229 29.6083 110.229 29.8504C110.229 30.1132 110.392 30.2689 110.718 30.3173C110.899 30.345 111.252 30.3726 111.78 30.4003L111.884 30.5041V31.1681L111.78 31.2718C110.496 31.2303 109.67 31.2096 109.303 31.2096C109.018 31.2096 108.314 31.2303 107.19 31.2718L107.086 31.1785V30.5041L107.2 30.4003C107.915 30.3588 108.352 30.217 108.512 29.9749C108.678 29.7328 109.292 28.2906 110.354 25.6483L113.07 18.8731C113.272 18.3474 113.577 17.5554 113.986 16.4971H115.464L120.98 29.4354C121.195 29.9265 121.39 30.2032 121.563 30.2654C121.792 30.3484 122.122 30.3899 122.552 30.3899L122.646 30.5041V31.1681ZM116.047 25.586L113.82 20.1493L111.686 25.586C112.255 25.6068 112.994 25.6172 113.903 25.6172C114.784 25.6172 115.499 25.6068 116.047 25.586Z" fill="white"/>
<path d="M139.183 31.1577L139.069 31.2822C138.035 31.2338 137.432 31.2096 137.258 31.2096C136.918 31.2096 136.609 31.2165 136.332 31.2303C135.922 31.2511 135.662 31.2615 135.551 31.2615C135.322 31.2615 135.128 31.1992 134.968 31.0747C134.58 30.7773 134.084 30.2896 133.48 29.6118L128.63 24.2061V26.6651C128.63 28.3114 128.675 29.3835 128.765 29.8815C128.8 30.0821 128.918 30.2101 129.119 30.2654C129.223 30.2931 129.629 30.3277 130.337 30.3692L130.441 30.4729V31.1681L130.347 31.2718C129.653 31.2303 128.585 31.2096 127.142 31.2096C125.65 31.2096 124.581 31.2303 123.936 31.2718L123.832 31.1785V30.4729L123.936 30.3692C124.644 30.3277 125.05 30.2931 125.154 30.2654C125.355 30.2101 125.473 30.0821 125.508 29.8815C125.598 29.3835 125.643 28.3114 125.643 26.6651V21.1764C125.643 19.5302 125.598 18.458 125.508 17.96C125.473 17.7594 125.355 17.6315 125.154 17.5761C125.05 17.5485 124.644 17.5139 123.936 17.4724L123.832 17.3686V16.6631L123.936 16.5697C124.602 16.6112 125.671 16.6319 127.142 16.6319C128.647 16.6319 129.716 16.6112 130.347 16.5697L130.441 16.6631V17.3686L130.337 17.4724C129.629 17.5139 129.223 17.5485 129.119 17.5761C128.918 17.6315 128.8 17.7594 128.765 17.96C128.675 18.458 128.63 19.5302 128.63 21.1764V23.7496C128.97 23.3968 129.712 22.6394 130.857 21.4773C131.461 20.8617 131.888 20.4156 132.137 20.1389C132.817 19.3849 133.272 18.8592 133.501 18.5618C133.876 18.0776 134.063 17.7352 134.063 17.5346C134.063 17.4516 134.032 17.3928 133.969 17.3582L133.855 17.2649V16.6734L133.98 16.5697C134.743 16.6112 135.458 16.6319 136.124 16.6319C136.582 16.6319 137.262 16.6112 138.164 16.5697L138.278 16.6734V17.3686L138.174 17.462C137.425 17.4897 136.873 17.583 136.519 17.7421C136.228 17.8736 135.77 18.2056 135.145 18.7382C134.451 19.3261 133.556 20.1458 132.46 21.1972C132.051 21.5984 131.503 22.1241 130.816 22.7743L136.769 28.9373C137.588 29.7881 138.361 30.2793 139.09 30.4107L139.183 30.5144V31.1577Z" fill="white"/>
<path d="M155.649 26.7481C155.649 28.2699 155.035 29.4354 153.806 30.2447C152.759 30.9433 151.427 31.2926 149.81 31.2926C149.484 31.2926 148.849 31.2753 147.905 31.2407C147.336 31.22 146.858 31.2096 146.469 31.2096C145.803 31.2096 144.727 31.2303 143.243 31.2718L143.138 31.1992V30.4729L143.243 30.3692C143.95 30.3277 144.356 30.2931 144.46 30.2654C144.661 30.2101 144.779 30.0821 144.814 29.8815C144.904 29.3835 144.949 28.3114 144.949 26.6651V17.6903C142.805 17.6903 141.64 17.7318 141.452 17.8148C141.216 17.9185 141.071 18.2574 141.015 18.8316C140.974 19.2397 140.946 19.6132 140.932 19.9521L140.828 20.0559H140.172L140.058 19.9521L140.037 18.1779C140.03 17.6799 139.988 17.1646 139.912 16.6319L140.006 16.5282C140.436 16.5974 141.851 16.6319 144.252 16.6319C146.486 16.6319 148.283 16.6112 149.643 16.5697L149.747 16.6631V17.3686L149.643 17.4724C148.936 17.5139 148.53 17.5485 148.426 17.5761C148.224 17.6315 148.106 17.7594 148.072 17.96C147.982 18.458 147.936 19.5302 147.936 21.1764V22.8469C149.831 22.8469 151.191 22.9195 152.016 23.0648C154.438 23.4936 155.649 24.7214 155.649 26.7481ZM152.505 26.9452C152.505 25.9561 152.214 25.1952 151.631 24.6626C151.111 24.1923 150.431 23.9398 149.591 23.9052C149.244 23.8914 148.693 23.8845 147.936 23.8845V30.0994C148.263 30.1478 148.658 30.172 149.123 30.172C149.914 30.172 150.49 30.1098 150.851 29.9853C151.371 29.7985 151.787 29.425 152.1 28.8647C152.37 28.3736 152.505 27.7338 152.505 26.9452Z" fill="white"/>
<path d="M127.116 54.3282C126.784 55.8381 126.45 57.3658 126.49 58.911C126.529 60.4562 126.981 62.0451 128.038 63.176C129.236 64.4577 131.068 64.9953 132.825 65.0001C135.336 65.0069 137.835 64.0002 139.636 62.2563C141.438 60.5124 142.624 58.1812 142.691 55.6789C142.521 55.4989 142.292 55.3251 142.045 55.3483C142.283 54.6362 142.527 53.9132 142.957 53.2971C143.387 52.6812 143.902 52.1601 144.651 52.0824C144.154 49.5792 145.403 46.7634 147.289 45.0954C149.174 43.4282 151.862 42.7063 154.332 43.2033C154.359 43.5711 154.681 43.6751 155.05 43.6444C155.479 43.6087 155.869 43.278 155.972 42.8604C156.075 42.4428 155.885 41.9696 155.522 41.7384C155.158 41.5073 154.647 41.5355 154.311 41.8054C151.975 41.4033 149.422 41.7842 147.305 42.8483C145.188 43.9124 143.428 45.6686 142.363 47.7802C142.096 48.3093 141.867 48.8666 141.489 49.3231C141.111 49.7796 140.54 50.129 139.95 50.0624C140.266 51.3302 140.015 52.8726 139.217 53.9093C138.908 53.7843 138.637 53.9722 138.393 54.1995C138.148 54.4269 137.996 54.7328 137.836 55.0253C137.099 56.3716 136.087 57.5674 134.88 58.5188C134.61 56.9565 134.471 55.372 134.464 53.7868C132.764 53.147 131.033 52.8911 129.238 53.1693C128.469 53.2884 127.283 53.5705 127.116 54.3282Z" fill="white"/>
<path d="M142.212 50.2263C142.702 48.8952 143.622 47.6617 144.361 46.4576C144.374 46.4373 144.402 46.455 144.393 46.476C143.802 47.7479 143.287 49.1913 142.455 50.3285C142.373 50.441 142.156 50.3781 142.212 50.2263Z" fill="black"/>
<path d="M143.41 51.6575C142.889 51.5273 142.385 51.3101 141.88 51.1268C141.373 50.9424 140.834 50.7859 140.363 50.5184C140.327 50.4983 140.352 50.4488 140.389 50.4559C140.916 50.5566 141.423 50.7846 141.923 50.9711C142.432 51.1608 142.962 51.3243 143.449 51.5656C143.502 51.5917 143.464 51.671 143.41 51.6575Z" fill="black"/>
<path d="M140.36 54.5847C140.406 54.1506 140.563 53.7433 140.721 53.3385C140.876 52.9399 140.994 52.5272 141.177 52.1401C141.189 52.1151 141.222 52.1345 141.219 52.1574C141.157 52.5775 141.03 52.9841 140.936 53.3977C140.84 53.8207 140.749 54.2481 140.546 54.635C140.502 54.7191 140.349 54.6844 140.36 54.5847Z" fill="black"/>
<path d="M138.854 54.4894C139.425 54.5717 139.989 54.9336 140.506 55.1769C141.084 55.4491 141.704 55.7024 142.22 56.0818C142.255 56.1076 142.236 56.1657 142.19 56.1541C141.615 56.0102 141.07 55.7252 140.536 55.4739C139.975 55.2097 139.27 54.9887 138.808 54.5681C138.77 54.5328 138.812 54.4833 138.854 54.4894Z" fill="black"/>
<path d="M137.643 56.9404C138.191 57.4111 138.7 57.8434 139.355 58.1632C140.096 58.5248 140.853 58.6068 141.66 58.6951C141.689 58.6984 141.701 58.7431 141.667 58.7498C140.228 59.0386 138.326 58.2596 137.509 57.0441C137.451 56.9588 137.573 56.8802 137.643 56.9404Z" fill="black"/>
<path d="M138.623 55.3097C138.835 55.3781 139.025 55.5 139.22 55.6057C139.434 55.7218 139.696 55.8218 139.856 56.0105C139.884 56.0442 139.856 56.0862 139.815 56.0802C139.597 56.0487 139.402 55.9069 139.213 55.8003C138.995 55.677 138.759 55.568 138.567 55.4063C138.522 55.3687 138.569 55.2924 138.623 55.3097Z" fill="black"/>
<path d="M138.621 55.643C138.777 55.7393 138.919 55.8502 139.06 55.9679C139.147 56.0404 139.022 56.165 138.936 56.0919C138.801 55.9772 138.673 55.86 138.556 55.7269C138.517 55.6829 138.567 55.6096 138.621 55.643Z" fill="black"/>
<path d="M138.147 55.8083C138.266 55.8919 138.385 55.9766 138.503 56.0612C138.598 56.1292 138.744 56.2078 138.772 56.326C138.778 56.3508 138.76 56.3764 138.734 56.3761C138.62 56.3751 138.536 56.2743 138.452 56.2071C138.326 56.1062 138.207 55.9947 138.086 55.8873C138.044 55.8495 138.1 55.7753 138.147 55.8083Z" fill="black"/>
<path d="M138.03 56.1866C138.164 56.3135 138.295 56.4396 138.442 56.5522C138.58 56.6577 138.792 56.7091 138.903 56.8379C138.948 56.8903 138.916 56.9587 138.85 56.9659C138.673 56.9849 138.475 56.8219 138.343 56.7216C138.177 56.5966 138.037 56.4352 137.952 56.2462C137.93 56.1968 137.987 56.1461 138.03 56.1866Z" fill="black"/>
<path d="M137.956 56.6783C138.09 56.811 138.206 56.9513 138.361 57.0628C138.506 57.1681 138.682 57.2261 138.822 57.3389C138.854 57.365 138.825 57.4118 138.791 57.4138C138.436 57.4349 137.997 57.0612 137.854 56.7574C137.823 56.6926 137.901 56.6234 137.956 56.6783Z" fill="black"/>
<path d="M138.221 59.5076C138.219 59.4733 138.217 59.4389 138.215 59.4046H138.332C137.806 60.3129 137.097 61.2712 136.277 61.9345C136.234 61.9688 136.184 61.9178 136.218 61.8755C136.886 61.024 137.587 60.222 138.215 59.3363C138.252 59.2833 138.341 59.2992 138.341 59.3704C138.342 59.4859 138.352 59.4627 138.264 59.54C138.241 59.5594 138.205 59.5347 138.221 59.5076Z" fill="black"/>
<path d="M133.567 53.8561C133.784 54.0116 133.665 54.254 133.476 54.3728C133.284 54.4929 132.95 54.4733 132.732 54.4859C132.433 54.5033 132.1 54.5786 131.811 54.484C131.749 54.4639 131.757 54.389 131.811 54.3664C132.021 54.2791 132.248 54.2986 132.474 54.2938C132.603 54.291 132.732 54.2919 132.862 54.2891C132.948 54.2876 133.034 54.2906 133.12 54.2982C133.328 54.3251 133.459 54.2006 133.514 53.925C133.481 53.8899 133.525 53.8259 133.567 53.8561Z" fill="black"/>
<path d="M128.79 54.4545C128.489 54.5507 128.051 54.6081 127.844 54.3059C127.725 54.1308 127.779 53.8074 127.992 53.7339C128.002 53.7304 128.006 53.7442 127.999 53.7495C127.807 53.8878 127.929 54.0987 128.069 54.2174C128.247 54.3682 128.556 54.2928 128.766 54.2717C128.875 54.2607 128.886 54.4239 128.79 54.4545Z" fill="black"/>
<path d="M133.623 56.6672C133.301 56.8433 132.901 56.8265 132.542 56.8545C132.01 56.8961 131.476 56.9068 130.942 56.9038C129.987 56.8987 129.024 56.8375 128.097 56.5967C128.055 56.5857 128.064 56.5195 128.107 56.5208C129.053 56.5475 129.996 56.6417 130.942 56.6549C131.417 56.6615 131.891 56.6451 132.365 56.623C132.77 56.604 133.22 56.4896 133.614 56.6005C133.644 56.609 133.651 56.6518 133.623 56.6672Z" fill="black"/>
<path d="M131.23 55.2224C130.766 55.2991 130.277 55.2362 129.81 55.217C129.284 55.1955 128.748 55.193 128.225 55.1285C128.1 55.1131 128.092 54.9297 128.225 54.927C128.752 54.9163 129.285 54.9693 129.81 55.0018C130.278 55.031 130.776 55.0169 131.23 55.1418C131.267 55.1521 131.272 55.2154 131.23 55.2224Z" fill="black"/>
<path d="M130.668 55.6947C129.838 55.7187 128.991 55.6302 128.164 55.566C128.023 55.5551 128.021 55.3364 128.164 55.3452C129 55.3963 129.858 55.4269 130.685 55.5663C130.761 55.579 130.739 55.6927 130.668 55.6947Z" fill="black"/>
<path d="M130.617 56.0687C130.232 56.2173 129.783 56.1796 129.376 56.1649C128.984 56.1508 128.466 56.1484 128.132 55.9315C128.099 55.9099 128.098 55.8474 128.144 55.8394C128.544 55.77 128.971 55.9092 129.376 55.9411C129.787 55.9733 130.213 55.9078 130.617 55.9881C130.661 55.9969 130.651 56.0552 130.617 56.0687Z" fill="black"/>
<path d="M28.884 54.3281C29.2161 55.838 29.5501 57.3657 29.5103 58.9109C29.4706 60.4561 29.019 62.045 27.9621 63.1759C26.7642 64.4576 24.9321 64.9952 23.175 65C20.664 65.0068 18.1648 64.0001 16.3636 62.2562C14.5623 60.5123 13.3757 58.181 13.3091 55.6788C13.479 55.4988 13.7079 55.3249 13.9547 55.3481C13.7166 54.6361 13.4729 53.9131 13.0427 53.297C12.6126 52.681 12.0979 52.16 11.349 52.0823C11.8459 49.5791 10.5974 46.7632 8.71104 45.0953C6.82552 43.4281 4.13828 42.7062 1.66776 43.2032C1.64091 43.571 1.31912 43.675 0.950463 43.6443C0.520552 43.6086 0.131415 43.2778 0.0280461 42.8603C-0.0754126 42.4427 0.114622 41.9695 0.478434 41.7383C0.842336 41.5072 1.35289 41.5354 1.68877 41.8053C4.02522 41.4032 6.57783 41.784 8.69487 42.8482C10.8119 43.9123 12.5718 45.6685 13.6369 47.7801C13.9037 48.3091 14.1326 48.8665 14.5108 49.323C14.8891 49.7795 15.4602 50.1289 16.0503 50.0623C15.7343 51.33 15.9855 52.8725 16.7826 53.9092C17.0925 53.7841 17.3627 53.9721 17.607 54.1994C17.8515 54.4268 18.0037 54.7327 18.1639 55.0252C18.9012 56.3715 19.9131 57.5673 21.1201 58.5186C21.3897 56.9564 21.529 55.3719 21.5361 53.7867C23.2357 53.1469 24.9671 52.891 26.7622 53.1692C27.5312 53.2882 28.7173 53.5703 28.884 54.3281Z" fill="white"/>
<path d="M13.788 50.2261C13.2975 48.8951 12.3783 47.6616 11.639 46.4575C11.6265 46.4372 11.5977 46.4549 11.6074 46.4758C12.1979 47.7478 12.7127 49.1912 13.5448 50.3284C13.627 50.4408 13.8439 50.378 13.788 50.2261Z" fill="black"/>
<path d="M12.5896 51.6574C13.1107 51.5271 13.6151 51.3099 14.1196 51.1267C14.627 50.9422 15.1664 50.7858 15.6371 50.5183C15.6726 50.4982 15.6476 50.4487 15.6107 50.4557C15.0844 50.5565 14.5771 50.7845 14.0765 50.971C13.5675 51.1607 13.0377 51.3242 12.5507 51.5655C12.4981 51.5916 12.5356 51.6709 12.5896 51.6574Z" fill="black"/>
<path d="M15.6402 54.5849C15.5941 54.1507 15.437 53.7435 15.2795 53.3386C15.1243 52.94 15.0065 52.5273 14.8227 52.1402C14.8108 52.1152 14.7781 52.1346 14.7815 52.1575C14.843 52.5776 14.9705 52.9842 15.0642 53.3978C15.1601 53.8208 15.2513 54.2482 15.4542 54.6351C15.4984 54.7192 15.6508 54.6845 15.6402 54.5849Z" fill="black"/>
<path d="M17.1458 54.4891C16.5752 54.5713 16.0108 54.9332 15.494 55.1766C14.9159 55.4487 14.2961 55.702 13.7796 56.0814C13.7446 56.1072 13.7642 56.1653 13.8103 56.1538C14.385 56.0098 14.9303 55.7248 15.4641 55.4735C16.0254 55.2093 16.7304 54.9884 17.1918 54.5678C17.2304 54.5325 17.1882 54.483 17.1458 54.4891Z" fill="black"/>
<path d="M18.3565 56.9404C17.8086 57.4111 17.3 57.8434 16.6447 58.1631C15.9036 58.5248 15.1469 58.6068 14.3401 58.6951C14.3111 58.6984 14.2994 58.7431 14.3327 58.7498C15.7725 59.0386 17.6741 58.2596 18.4914 57.0441C18.5487 56.9588 18.4266 56.8802 18.3565 56.9404Z" fill="black"/>
<path d="M17.377 55.3095C17.1654 55.3779 16.9748 55.4999 16.7802 55.6056C16.5663 55.7216 16.3036 55.8216 16.1444 56.0104C16.1161 56.044 16.1435 56.0861 16.1852 56.0801C16.4032 56.0486 16.5978 55.9068 16.7866 55.8002C17.0051 55.6769 17.2407 55.5679 17.4334 55.4061C17.478 55.3685 17.4306 55.2923 17.377 55.3095Z" fill="black"/>
<path d="M17.3793 55.6425C17.2226 55.7388 17.0806 55.8497 16.9396 55.9675C16.8526 56.0399 16.9779 56.1645 17.0639 56.0915C17.199 55.9767 17.3272 55.8595 17.4444 55.7264C17.4833 55.6824 17.4335 55.6092 17.3793 55.6425Z" fill="black"/>
<path d="M17.8528 55.8082C17.7336 55.8918 17.6153 55.9765 17.4968 56.0611C17.4019 56.1291 17.2564 56.2077 17.2277 56.3258C17.2217 56.3506 17.2396 56.3762 17.266 56.376C17.3796 56.375 17.464 56.2742 17.5481 56.2069C17.6743 56.106 17.7933 55.9946 17.914 55.8871C17.9563 55.8494 17.8999 55.7751 17.8528 55.8082Z" fill="black"/>
<path d="M17.9701 56.1863C17.8359 56.3131 17.705 56.4393 17.5581 56.5518C17.4204 56.6574 17.2075 56.7087 17.0971 56.8376C17.0522 56.89 17.084 56.9584 17.1502 56.9655C17.3265 56.9845 17.5246 56.8216 17.6575 56.7213C17.8231 56.5962 17.9626 56.4348 18.0476 56.2459C18.0699 56.1965 18.013 56.1457 17.9701 56.1863Z" fill="black"/>
<path d="M18.0436 56.678C17.9097 56.8106 17.7936 56.9509 17.6393 57.0624C17.4935 57.1677 17.3178 57.2257 17.1781 57.3385C17.1458 57.3647 17.1749 57.4114 17.2093 57.4134C17.5643 57.4346 18.0027 57.0609 18.1464 56.757C18.1771 56.6922 18.0989 56.6231 18.0436 56.678Z" fill="black"/>
<path d="M17.7765 59.507C17.7789 59.4727 17.7811 59.4383 17.7835 59.404H17.6663C18.1919 60.3123 18.901 61.2706 19.7212 61.9339C19.7635 61.9682 19.8136 61.9172 19.7803 61.8749C19.1121 61.0234 18.4109 60.2214 17.7835 59.3357C17.7459 59.2827 17.6575 59.2986 17.657 59.3698C17.6562 59.4853 17.6459 59.4621 17.7344 59.5394C17.7567 59.5588 17.7928 59.5341 17.7765 59.507Z" fill="black"/>
<path d="M22.4328 53.8561C22.2157 54.0116 22.335 54.254 22.5244 54.3728C22.7159 54.4929 23.0499 54.4733 23.2676 54.4859C23.567 54.5033 23.8995 54.5786 24.189 54.484C24.2506 54.4639 24.2434 54.389 24.189 54.3664C23.9786 54.2791 23.7516 54.2986 23.5262 54.2938C23.3969 54.291 23.2675 54.2919 23.1383 54.2891C23.0519 54.2876 22.9657 54.2906 22.8797 54.2982C22.672 54.3251 22.5408 54.2006 22.4861 53.925C22.5187 53.8899 22.4749 53.8259 22.4328 53.8561Z" fill="black"/>
<path d="M27.2096 54.4542C27.5105 54.5503 27.9494 54.6077 28.1558 54.3055C28.2754 54.1304 28.2206 53.807 28.0081 53.7335C27.9982 53.7301 27.9942 53.7438 28.0014 53.7491C28.1928 53.8874 28.071 54.0984 27.9312 54.217C27.7533 54.3679 27.4437 54.2925 27.2344 54.2713C27.1253 54.2603 27.1138 54.4235 27.2096 54.4542Z" fill="black"/>
<path d="M22.3752 56.667C22.6967 56.8431 23.0968 56.8263 23.4561 56.8543C23.9884 56.8959 24.522 56.9066 25.0557 56.9036C26.0108 56.8985 26.9738 56.8372 27.9009 56.5964C27.943 56.5855 27.9345 56.5193 27.8906 56.5205C26.9446 56.5473 26.0025 56.6415 25.0557 56.6547C24.5815 56.6612 24.1072 56.6449 23.6335 56.6227C23.2284 56.6038 22.7777 56.4894 22.3839 56.6003C22.3541 56.6087 22.347 56.6515 22.3752 56.667Z" fill="black"/>
<path d="M24.7702 55.2223C25.2336 55.299 25.7226 55.2361 26.1899 55.2169C26.716 55.1954 27.252 55.1929 27.7746 55.1284C27.9002 55.1129 27.9081 54.9296 27.7746 54.9269C27.2484 54.9162 26.7152 54.9691 26.1899 55.0017C25.7218 55.0309 25.2243 55.0168 24.7702 55.1416C24.7328 55.152 24.7278 55.2153 24.7702 55.2223Z" fill="black"/>
<path d="M25.3322 55.6947C26.1622 55.7187 27.0088 55.6302 27.8361 55.566C27.9768 55.5551 27.9791 55.3364 27.8361 55.3452C26.9995 55.3963 26.1419 55.4269 25.3147 55.5663C25.2394 55.579 25.2611 55.6927 25.3322 55.6947Z" fill="black"/>
<path d="M25.3815 56.0685C25.7664 56.2171 26.2154 56.1793 26.6222 56.1646C27.0145 56.1505 27.5318 56.1481 27.8663 55.9312C27.8995 55.9097 27.9003 55.8472 27.8543 55.8392C27.454 55.7698 27.0267 55.909 26.6222 55.9408C26.2109 55.9731 25.7851 55.9075 25.3815 55.9878C25.3368 55.9967 25.3466 56.055 25.3815 56.0685Z" fill="black"/>
</svg>
