<svg width="157" height="65" viewBox="0 0 157 65" fill="none" xmlns="http://www.w3.org/2000/svg">
<path d="M35.8645 48.8254H59.4187H61.0687H62.1778H63.5236H66.9726H67.1963H67.6912H68.6155H68.9897H70.3095H71.697H72.4363H72.7748H75.2762H76.9924H78.0015H78.4991H78.9982H80.0074H81.7233H84.2253H84.5634H85.7273H86.5577H88.0101H88.3843V47.9103H88.0098H86.5577H85.7273H84.5634H84.2253H81.7233H80.0074H78.9982H78.4991H78.0015H76.9924H75.2762H72.7745H72.4363H71.697H70.3095H68.9897H68.6155H67.6912H67.1963H66.9726H63.5236H62.1778H61.0687H59.4187H35.8645H30.1582L30.6209 48.8254H35.8645Z" fill="#F6A65F"/>
<path d="M57.7948 50.9072H59.4187H61.0687H62.1778H63.5236H66.9726H67.1963H67.6912H68.6155H68.9897H70.3095H71.697H72.4363H72.7748H75.1522C74.4715 51.1072 73.9739 51.6018 73.9156 52.2657C73.823 53.1679 74.5398 53.7107 75.2762 53.7648C75.7557 53.8011 76.2424 53.6306 76.5199 53.2173C76.7998 52.7994 76.6498 52.194 76.1439 52.1218H76.1412L76.1306 52.1206L76.0723 52.1165C75.8217 52.1165 75.6179 52.3177 75.6179 52.5657C75.6179 52.8137 75.8217 53.0153 76.0723 53.0153C76.3232 53.0153 76.5264 52.8137 76.5264 52.5657L76.5238 52.5178C76.6708 52.9281 76.2205 53.3779 75.6205 53.3981C75.5057 53.4016 75.3883 53.3911 75.2762 53.3665C74.799 53.2609 74.3996 52.8965 74.5049 52.2803C74.5966 51.8094 74.8975 51.5316 75.2762 51.4032C75.7924 51.2286 76.4531 51.3307 76.9249 51.6009L76.9924 51.643C77.4539 51.9369 77.6796 52.4002 77.5847 52.9585C77.5143 53.3706 77.3016 53.6917 76.9924 53.926C76.5637 54.2527 75.9495 54.4135 75.2762 54.4264C74.9753 54.4325 74.6629 54.4085 74.3499 54.3565C73.7821 54.2626 73.1875 54.0842 72.7748 53.7915C72.6399 53.6967 72.5248 53.5897 72.4363 53.4695L72.4032 53.4238L72.4363 53.4221C72.5582 53.4151 72.6712 53.396 72.7748 53.3665C73.3304 53.208 73.61 52.7526 73.6179 52.3587C73.6271 51.9007 73.239 51.6231 72.799 51.6494L72.7748 51.6521C72.6514 51.6641 72.5369 51.7056 72.4363 51.7714C72.0423 52.0302 71.8606 52.6631 72.213 53.3501C72.0828 53.3621 71.9831 53.3507 71.8588 53.3302L71.697 53.2887L71.6899 53.2864L71.697 53.2633C71.7189 53.1834 71.7313 53.1001 71.7313 53.0129C71.7313 52.9263 71.7189 52.8418 71.697 52.7626C71.5861 52.3666 71.2195 52.0753 70.7825 52.0753C70.6104 52.0753 70.4488 52.1212 70.3095 52.2013C70.0255 52.3628 69.8346 52.666 69.8346 53.0129C69.8346 53.3601 70.0255 53.6631 70.3095 53.8251C70.4488 53.9049 70.6104 53.9503 70.7825 53.9503C71.1763 53.9503 71.5148 53.7125 71.6577 53.3747L71.697 53.3896L71.8438 53.4265C71.9837 53.4504 72.1263 53.4577 72.2647 53.446C72.3156 53.5326 72.3721 53.6136 72.4363 53.692C72.5354 53.8151 72.6482 53.928 72.7748 54.0321C73.4111 54.5583 74.3534 54.8417 75.2762 54.8531C75.8898 54.861 76.4939 54.7481 76.9924 54.5083C77.4338 54.2957 77.7915 53.9842 78.0015 53.5665C78.0864 53.3975 78.1474 53.2106 78.179 53.0065C78.2423 52.5976 78.1684 52.235 78.0015 51.9296C77.7882 51.5389 77.4217 51.24 76.9924 51.0499C76.8625 50.992 76.7267 50.9437 76.588 50.9072H76.9924H78.0015H78.4991H78.9982H80.0074H80.4115C80.273 50.9437 80.1375 50.992 80.0074 51.0499C79.5784 51.24 79.2124 51.5389 78.9982 51.9296C78.8314 52.235 78.7574 52.597 78.8207 53.0065C78.8518 53.2115 78.9133 53.3975 78.9982 53.5671C79.2083 53.9842 79.5657 54.2965 80.0074 54.5083C80.5059 54.7481 81.11 54.861 81.7233 54.8531C82.6457 54.8417 83.5886 54.5592 84.2253 54.0321C84.3507 53.928 84.4643 53.8151 84.5634 53.692C84.6273 53.6142 84.6844 53.5326 84.735 53.446C84.8732 53.4577 85.0161 53.4504 85.156 53.4265L85.3418 53.3747C85.4199 53.5592 85.5557 53.7134 85.7273 53.8157C85.8702 53.9011 86.0376 53.9503 86.216 53.9503C86.337 53.9503 86.4521 53.928 86.5577 53.8871C86.9133 53.7523 87.1648 53.4115 87.1648 53.0129C87.1648 52.6143 86.9133 52.2739 86.5577 52.1379C86.4521 52.0978 86.337 52.0753 86.216 52.0753C86.0376 52.0753 85.8702 52.1247 85.7273 52.2095C85.4522 52.3736 85.2684 52.6725 85.2684 53.0129C85.2684 53.1085 85.2826 53.1995 85.3099 53.2864L85.1412 53.3302C85.0167 53.3507 84.9161 53.3621 84.7868 53.3501C85.1391 52.6631 84.9575 52.0302 84.5634 51.7714C84.4628 51.7047 84.3483 51.6641 84.2253 51.6521L84.2001 51.6494C83.7608 51.6231 83.3726 51.9007 83.3818 52.3587C83.3898 52.7526 83.6694 53.208 84.2253 53.3665C84.3285 53.396 84.441 53.4151 84.5634 53.4221L84.5966 53.4238L84.5634 53.4695C84.475 53.5897 84.3599 53.6967 84.2253 53.7915C83.8126 54.0842 83.2176 54.2626 82.6499 54.3565C82.336 54.4085 82.0236 54.4325 81.7233 54.4264C81.0499 54.4135 80.4358 54.2527 80.0074 53.926C79.6982 53.6917 79.4849 53.3712 79.4151 52.9585C79.3198 52.4002 79.5459 51.9369 80.0074 51.643L80.0748 51.6009C80.5467 51.3307 81.2076 51.2286 81.7233 51.4032C82.1023 51.5316 82.4031 51.8094 82.4957 52.2803C82.5999 52.8965 82.2002 53.2609 81.7233 53.3665C81.6106 53.3911 81.494 53.4016 81.3789 53.3981C80.7792 53.3779 80.3281 52.9281 80.4754 52.5178L80.4733 52.5657C80.4733 52.8137 80.676 53.0153 80.9272 53.0153C81.1783 53.0153 81.3819 52.8137 81.3819 52.5657C81.3819 52.3177 81.1783 52.1165 80.9272 52.1165L80.8692 52.1206L80.8585 52.1218H80.8556C80.3503 52.194 80.2 52.7994 80.4796 53.2173C80.7565 53.63 81.244 53.8011 81.7233 53.7648C82.4599 53.7107 83.1765 53.1679 83.0839 52.2657C83.0259 51.6018 82.5283 51.1072 81.8473 50.9072H84.2253H84.5634H85.7273H86.5577H88.0101H88.3843V49.992H88.0098H86.5577H85.7273H84.5634L84.2253 49.9917H81.7233L80.0074 49.992H78.9982H78.4991H78.0015L76.9924 49.9917H75.2762L72.7748 49.992H72.4363H71.697H70.3095H68.9897H68.6155H67.6912H67.1963H66.9726H63.5236H62.1778L61.0687 49.9917H59.4187H57.3327L57.7948 50.9072Z" fill="#F6A65F"/>
<path d="M67.2371 53.0129C67.2371 53.2609 67.4403 53.4619 67.6912 53.4619C67.9418 53.4619 68.1457 53.2609 68.1457 53.0129C68.1457 52.7649 67.9418 52.5634 67.6912 52.5634C67.4403 52.5634 67.2371 52.7649 67.2371 53.0129Z" fill="#F6A65F"/>
<path d="M68.2986 53.0129C68.2986 53.2542 68.4243 53.4654 68.6155 53.5873C68.7231 53.6563 68.8521 53.6967 68.9897 53.6967C69.3713 53.6967 69.6814 53.3905 69.6814 53.0129C69.6814 52.6348 69.3713 52.3297 68.9897 52.3297C68.8521 52.3297 68.7231 52.3692 68.6155 52.4388C68.4243 52.5599 68.2986 52.7722 68.2986 53.0129Z" fill="#F6A65F"/>
<path d="M76.7022 56.1519C76.803 56.1525 76.8998 56.1303 76.9924 56.0891C77.4181 55.899 77.7589 55.3205 78.0015 54.8256C78.1039 54.6153 78.1894 54.4202 78.256 54.2775C78.256 54.2775 78.2048 54.3787 78.0015 54.5355L77.9163 54.5978C77.658 54.7785 77.3341 54.9189 76.9924 55.0198C76.5705 55.1459 76.1214 55.2117 75.7297 55.2184C75.8146 55.6749 76.2791 56.1493 76.7022 56.1519Z" fill="#F6A65F"/>
<path d="M78.0015 55.4968C77.8619 55.8773 77.7474 56.2446 77.7474 56.4286C77.7474 56.6889 77.8418 56.8863 78.0015 57.0966C78.1299 57.2662 78.3015 57.4443 78.4991 57.6698C78.6971 57.4443 78.8698 57.2662 78.9982 57.0966C79.158 56.8863 79.253 56.6889 79.253 56.4286C79.253 56.2446 79.1382 55.8773 78.9982 55.4968C78.7849 54.916 78.5122 54.3062 78.4991 54.2781C78.4864 54.3062 78.2148 54.916 78.0015 55.4968Z" fill="#F6A65F"/>
<path d="M78.7441 54.2775C78.8098 54.4205 78.8956 54.6153 78.9982 54.8256C79.2399 55.3205 79.5816 55.8998 80.0074 56.0891C80.1 56.1303 80.1964 56.1525 80.2976 56.1519C80.7207 56.1493 81.1851 55.6749 81.2701 55.2184C80.8783 55.2117 80.429 55.1459 80.0074 55.0198C79.6657 54.9189 79.3417 54.7785 79.0834 54.5978L78.9982 54.5355C78.7947 54.3787 78.7441 54.2775 78.7441 54.2775Z" fill="#F6A65F"/>
<path d="M87.3187 53.0129C87.3187 53.3905 87.6278 53.6967 88.0101 53.6967C88.1476 53.6967 88.2766 53.6563 88.3843 53.5873L88.5029 53.4914C88.6251 53.3685 88.7012 53.1995 88.7012 53.0129C88.7012 52.8266 88.6251 52.6576 88.5029 52.5336L88.3843 52.4388C88.2766 52.3692 88.1476 52.3297 88.0101 52.3297C87.6278 52.3297 87.3187 52.6348 87.3187 53.0129Z" fill="#F6A65F"/>
<path d="M88.3843 50.9072H88.5029H89.3088H89.7976H90.1671H93.4761H94.8214H95.9311H99.2046L99.667 49.9917L95.9311 49.992H94.8214H93.4761H90.1671H89.7976H89.3085H88.5029H88.3843V50.9072Z" fill="#F6A65F"/>
<path d="M88.3843 48.8254H88.5029H89.3088H89.7976H90.1671H93.4761H94.8214H95.9311H119.351H126.378L126.842 47.9103H119.351H95.9311H94.8214H93.4761H90.1671H89.7976H89.3085H88.5029H88.3843V48.8254Z" fill="#F6A65F"/>
<path d="M88.8541 53.0129C88.8541 53.2609 89.0568 53.4619 89.3088 53.4619C89.5594 53.4619 89.7627 53.2609 89.7627 53.0129C89.7627 52.7649 89.5594 52.5634 89.3088 52.5634C89.0568 52.5634 88.8541 52.7649 88.8541 53.0129Z" fill="#F6A65F"/>
<path d="M138.818 9.64843L94.4106 9.64844H92.7441H91.6239H90.2646H86.7811H86.5552H86.0553H85.1218H84.7438L83.4108 9.64844H82.0094H81.2627H80.9208H78.3944H76.661H75.6418H75.1392H74.6351L73.6159 9.64844H71.8828H69.3557H69.0142H67.8387H66.9999H65.5331H65.1551V10.6468H65.5334L66.9999 10.6468H67.8387H69.0142H69.3557H71.8828H73.6159H74.6351H75.1392H75.6418H76.661H78.3944H80.9212H81.2627H82.0094H83.4108H84.7438H85.1218H86.0553L86.5552 10.6468H86.7811H90.2646H91.6239H92.7441H94.4106L138.818 10.6467H144.582L144.115 9.64843L138.818 9.64843Z" fill="#F6A65F"/>
<path d="M99.2425 7.37743H97.6023L95.9358 7.37743H94.8156H93.4563H89.9728H89.7469H89.247H88.3135H87.9355L86.6025 7.37743H85.2011H84.4544H84.1125L81.7113 7.37743C82.3989 7.1592 82.9015 6.61968 82.9603 5.89543C83.0539 4.91116 82.3299 4.319 81.5861 4.25998C81.1018 4.22041 80.6102 4.40642 80.3299 4.85724C80.0472 5.31317 80.1987 5.9736 80.7097 6.05241H80.7124L80.7232 6.05368L80.782 6.05815C81.0351 6.05815 81.241 5.83864 81.241 5.56809C81.241 5.29753 81.0351 5.07771 80.782 5.07771C80.5286 5.07771 80.3234 5.29753 80.3234 5.56809L80.326 5.62041C80.1775 5.17278 80.6323 4.68208 81.2383 4.66007C81.3542 4.65624 81.4729 4.66772 81.5861 4.69452C82.0681 4.8097 82.4715 5.20724 82.3651 5.87948C82.2725 6.39316 81.9686 6.69626 81.5861 6.83632C81.0647 7.02679 80.3975 6.91544 79.9209 6.62064L79.8527 6.5747C79.3866 6.25405 79.1586 5.74867 79.2545 5.1396C79.3256 4.69006 79.5405 4.33974 79.8527 4.08418C80.2857 3.7278 80.906 3.55232 81.5861 3.53828C81.89 3.53158 82.2055 3.55774 82.5217 3.61454C83.0951 3.71695 83.6957 3.91157 84.1125 4.23094C84.2488 4.33432 84.3651 4.45109 84.4544 4.58222L84.4879 4.63199L84.4544 4.63391C84.3313 4.64156 84.2171 4.6623 84.1125 4.69452C83.5514 4.86745 83.269 5.36421 83.2609 5.79398C83.2517 6.29361 83.6437 6.59639 84.0881 6.56768L84.1125 6.56481C84.2371 6.55172 84.3528 6.50642 84.4544 6.43463C84.8524 6.15227 85.0359 5.46184 84.68 4.71239C84.8115 4.69931 84.9122 4.71175 85.0377 4.73409L85.2011 4.77939L85.2083 4.78194L85.2011 4.80715C85.179 4.89425 85.1665 4.98518 85.1665 5.08026C85.1665 5.1747 85.179 5.2669 85.2011 5.35337C85.3132 5.78536 85.6834 6.10314 86.1247 6.10314C86.2986 6.10314 86.4618 6.05305 86.6025 5.96563C86.8894 5.78951 87.0821 5.45865 87.0821 5.08026C87.0821 4.70154 86.8894 4.37101 86.6025 4.19425C86.4618 4.10715 86.2986 4.0577 86.1247 4.0577C85.727 4.0577 85.3852 4.31709 85.2408 4.68559L85.2011 4.66932L85.0529 4.62912C84.9116 4.60296 84.7675 4.59498 84.6277 4.60774C84.5763 4.5133 84.5192 4.42493 84.4544 4.33942C84.3543 4.2051 84.2404 4.08194 84.1125 3.96836C83.4698 3.39439 82.5181 3.08523 81.5861 3.07279C80.9664 3.06417 80.3562 3.18733 79.8527 3.44895C79.4069 3.6809 79.0456 4.02069 78.8335 4.47629C78.7477 4.66071 78.6862 4.86458 78.6542 5.08728C78.5903 5.53331 78.665 5.92894 78.8335 6.26203C79.0489 6.68828 79.4192 7.01435 79.8527 7.22173C79.9839 7.28491 80.1211 7.33755 80.2612 7.37743H79.8527H78.8335H78.3309H77.8268H76.8076H76.3994C76.5392 7.33755 76.6761 7.28491 76.8076 7.22173C77.2408 7.01435 77.6105 6.68828 77.8268 6.26203C77.9953 5.92894 78.07 5.53395 78.0061 5.08728C77.9747 4.86362 77.9126 4.66071 77.8268 4.47566C77.6146 4.02069 77.2537 3.67994 76.8076 3.44895C76.3041 3.18733 75.6939 3.06417 75.0745 3.07279C74.1428 3.08523 73.1905 3.39343 72.5474 3.96836C72.4207 4.08195 72.306 4.2051 72.2059 4.33942C72.1414 4.42429 72.0837 4.5133 72.0326 4.60774C71.8931 4.59498 71.7487 4.60296 71.6074 4.62912L71.4197 4.68559C71.3409 4.48427 71.2037 4.31613 71.0304 4.20446C70.8861 4.1113 70.7169 4.0577 70.5367 4.0577C70.4145 4.0577 70.2983 4.08195 70.1916 4.12661C69.8325 4.2737 69.5785 4.64539 69.5785 5.08026C69.5785 5.51513 69.8325 5.8865 70.1916 6.03486C70.2983 6.07857 70.4145 6.10314 70.5367 6.10314C70.7169 6.10314 70.8861 6.04922 71.0304 5.95669C71.3083 5.77771 71.4938 5.45164 71.4938 5.08026C71.4938 4.97593 71.4795 4.8767 71.452 4.78195L71.6223 4.73409C71.7481 4.71175 71.8497 4.69931 71.9803 4.71239C71.6244 5.46184 71.8079 6.15227 72.2059 6.43463C72.3075 6.50738 72.4231 6.55172 72.5474 6.56481L72.5728 6.56768C73.0166 6.59639 73.4086 6.29361 73.3993 5.79398C73.3913 5.36421 73.1089 4.86745 72.5474 4.69453C72.4432 4.6623 72.3296 4.64156 72.2059 4.63391L72.1724 4.63199L72.2059 4.58222C72.2952 4.45109 72.4115 4.33432 72.5474 4.23094C72.9643 3.91157 73.5652 3.71695 74.1386 3.61454C74.4556 3.55775 74.7712 3.53158 75.0745 3.53828C75.7546 3.55232 76.3749 3.7278 76.8076 4.08418C77.1198 4.33974 77.3353 4.68942 77.4058 5.1396C77.502 5.74867 77.2737 6.25405 76.8076 6.5747L76.7394 6.62064C76.2628 6.91544 75.5953 7.02679 75.0745 6.83632C74.6917 6.69626 74.3878 6.39316 74.2943 5.87948C74.1891 5.20724 74.5928 4.8097 75.0745 4.69453C75.1883 4.66773 75.306 4.65624 75.4223 4.66007C76.028 4.68208 76.4837 5.17278 76.3348 5.62041L76.3369 5.56809C76.3369 5.29753 76.1322 5.07771 75.8786 5.07771C75.6249 5.07771 75.4193 5.29753 75.4193 5.56809C75.4193 5.83864 75.6249 6.05815 75.8786 6.05815L75.9371 6.05368L75.9479 6.05241H75.9509C76.4612 5.9736 76.613 5.31317 76.3307 4.85724C76.051 4.40706 75.5585 4.22042 75.0745 4.25998C74.3304 4.319 73.6067 4.91116 73.7002 5.89544C73.7588 6.61968 74.2614 7.1592 74.9493 7.37743L72.5474 7.37743H72.2059H71.0304H70.1916H68.7248H68.3468V8.37574H68.7251H70.1916H71.0304H72.2059L72.5474 8.37606H75.0745L76.8076 8.37574H77.8268H78.3309H78.8335L79.8527 8.37606L81.5861 8.37606L84.1125 8.37574L84.4544 8.37574H85.2011H86.6025H87.9355H88.3135H89.247H89.7469H89.9728H93.4563L94.8156 8.37574L95.9358 8.37606H97.6023H99.7092L99.2425 7.37743Z" fill="#F6A65F"/>
<path d="M89.7057 5.08026C89.7057 4.8097 89.5004 4.59051 89.247 4.59051C88.9939 4.59051 88.788 4.8097 88.788 5.08026C88.788 5.35081 88.9939 5.57064 89.247 5.57064C89.5004 5.57064 89.7057 5.35081 89.7057 5.08026Z" fill="#F6A65F"/>
<path d="M88.6335 5.08026C88.6335 4.81704 88.5065 4.58668 88.3135 4.45364C88.2047 4.37834 88.0745 4.33431 87.9355 4.33431C87.5501 4.33431 87.2369 4.66836 87.2369 5.08026C87.2369 5.49279 87.5501 5.82556 87.9355 5.82556C88.0745 5.82556 88.2047 5.78249 88.3135 5.70656C88.5065 5.57447 88.6335 5.34284 88.6335 5.08026Z" fill="#F6A65F"/>
<path d="M80.1459 1.65588C80.044 1.65524 79.9463 1.67949 79.8527 1.72447C79.4227 1.93186 79.0785 2.56294 78.8335 3.10278C78.7301 3.33218 78.6437 3.54498 78.5765 3.70068C78.5765 3.70068 78.6282 3.59029 78.8335 3.41928L78.9195 3.35132C79.1804 3.15414 79.5076 3.001 79.8527 2.89093C80.2788 2.75342 80.7324 2.68163 81.128 2.67429C81.0423 2.17625 80.5731 1.65875 80.1459 1.65588Z" fill="#F6A65F"/>
<path d="M78.8335 2.37055C78.9745 1.95547 79.0902 1.55474 79.0902 1.35405C79.0902 1.0701 78.9948 0.854739 78.8335 0.625341C78.7038 0.440291 78.5305 0.245989 78.3309 0C78.131 0.245989 77.9565 0.440291 77.8268 0.625341C77.6654 0.854739 77.5695 1.0701 77.5695 1.35405C77.5695 1.55474 77.6855 1.95547 77.8268 2.37055C78.0422 3.00419 78.3177 3.66941 78.3309 3.70004C78.3437 3.66941 78.618 3.00419 78.8335 2.37055Z" fill="#F6A65F"/>
<path d="M78.0835 3.70068C78.0171 3.54466 77.9305 3.33218 77.8268 3.10278C77.5827 2.56294 77.2375 1.9309 76.8076 1.72447C76.714 1.67949 76.6166 1.65524 76.5144 1.65588C76.0871 1.65875 75.618 2.17625 75.5322 2.67429C75.9279 2.68163 76.3818 2.75342 76.8076 2.89093C77.1527 3.001 77.4799 3.15414 77.7407 3.35132L77.8268 3.41928C78.0324 3.59029 78.0835 3.70068 78.0835 3.70068Z" fill="#F6A65F"/>
<path d="M69.4231 5.08026C69.4231 4.66836 69.1108 4.33432 68.7248 4.33432C68.5858 4.33432 68.4556 4.37835 68.3468 4.45364L68.227 4.55829C68.1036 4.69229 68.0268 4.8767 68.0268 5.08026C68.0268 5.28349 68.1036 5.46791 68.227 5.60318L68.3468 5.70656C68.4556 5.78249 68.5858 5.82556 68.7248 5.82556C69.1108 5.82556 69.4231 5.49279 69.4231 5.08026Z" fill="#F6A65F"/>
<path d="M68.3468 7.37743H68.227L67.413 7.37743H66.9194H66.5462H63.204H61.8453H60.7245L57.4181 7.37743L56.9511 8.37606L60.7245 8.37574H61.8453H63.204L66.5462 8.37574H66.9194H67.4133H68.227H68.3468V7.37743Z" fill="#F6A65F"/>
<path d="M65.1551 9.64844H65.0353H64.2213H63.7277H63.3545H60.0123H58.6536H57.5328L19.9841 9.64844L12.8862 9.64845L12.418 10.6468L19.9841 10.6468L57.5328 10.6468H58.6536H60.0123H63.3545H63.7277H64.2216H65.0353H65.1551V9.64844Z" fill="#F6A65F"/>
<path d="M67.8723 5.08026C67.8723 4.8097 67.6676 4.59052 67.413 4.59052C67.1599 4.59052 66.9546 4.8097 66.9546 5.08026C66.9546 5.35082 67.1599 5.57064 67.413 5.57064C67.6676 5.57064 67.8723 5.35081 67.8723 5.08026Z" fill="#F6A65F"/>
<path d="M22.7383 40.3839L22.7148 40.3629V40.2267L22.7383 40.2058C22.8658 40.204 22.9478 40.1979 22.9845 40.1875C23.0212 40.1752 23.0535 40.1525 23.0814 40.1194C23.1111 40.0844 23.1695 39.9727 23.2568 39.7841L23.5318 39.1869L24.2441 37.5734C24.3785 37.2573 24.512 36.9413 24.6447 36.6252H24.8149L26.0823 39.606C26.126 39.7055 26.1757 39.8138 26.2316 39.9308C26.2892 40.0478 26.3285 40.1167 26.3494 40.1377C26.3721 40.1586 26.3992 40.1752 26.4306 40.1875C26.4638 40.1979 26.5362 40.204 26.648 40.2058L26.6689 40.2267V40.3629L26.648 40.3839C26.4629 40.3682 26.2962 40.3603 26.1478 40.3603C25.858 40.3691 25.5682 40.3769 25.2784 40.3839L25.2575 40.3629V40.2267L25.2784 40.2058C25.4739 40.2023 25.5961 40.1944 25.645 40.1822C25.6939 40.1683 25.7183 40.1377 25.7183 40.0905C25.7183 40.0521 25.7061 40.0015 25.6817 39.9386L25.3596 39.1397H23.8434L23.558 39.8103C23.5074 39.9308 23.482 40.019 23.482 40.0748C23.482 40.1185 23.5056 40.1508 23.5527 40.1717C23.5999 40.1927 23.7186 40.204 23.9089 40.2058L23.9324 40.2267V40.3629L23.9115 40.3839C23.6863 40.3699 23.489 40.3629 23.3197 40.3629C23.1277 40.3629 22.9339 40.3699 22.7383 40.3839ZM23.9324 38.9145H25.2575L24.6002 37.3351L23.9324 38.9145Z" fill="white"/>
<path d="M30.4502 39.9203L30.3507 40.1639C29.9631 40.3612 29.5494 40.4599 29.1095 40.4599C28.4793 40.4599 27.9669 40.2809 27.5723 39.9229C27.1795 39.5649 26.9831 39.097 26.9831 38.519C26.9831 38.1208 27.0809 37.7733 27.2764 37.4765C27.4737 37.1779 27.7329 36.9553 28.0542 36.8086C28.3771 36.6601 28.7394 36.5859 29.1409 36.5859C29.3731 36.5859 29.6026 36.6104 29.8296 36.6593C30.0565 36.7082 30.246 36.7667 30.3978 36.8348L30.4162 36.861C30.376 36.9587 30.3385 37.2006 30.3036 37.5865L30.2852 37.6075H30.1622L30.1412 37.5865L30.115 37.1412C29.9876 37.0399 29.8331 36.9614 29.6515 36.9055C29.4717 36.8479 29.284 36.819 29.0885 36.819C28.7935 36.819 28.529 36.8828 28.2951 37.0103C28.0611 37.136 27.8796 37.3193 27.7504 37.5603C27.6212 37.7995 27.5566 38.0929 27.5566 38.4404C27.5566 38.7896 27.6326 39.0961 27.7844 39.3598C27.9363 39.6234 28.1432 39.826 28.4051 39.9674C28.6687 40.1089 28.9759 40.1796 29.3268 40.1796C29.4822 40.1796 29.6315 40.1648 29.7746 40.1351C29.9178 40.1054 30.0365 40.0687 30.1307 40.0251C30.2267 39.9814 30.3184 39.9282 30.4057 39.8653L30.4502 39.9203Z" fill="white"/>
<path d="M34.2525 39.9203L34.153 40.1639C33.7654 40.3612 33.3516 40.4599 32.9117 40.4599C32.2815 40.4599 31.7691 40.2809 31.3746 39.9229C30.9818 39.5649 30.7854 39.097 30.7854 38.519C30.7854 38.1208 30.8832 37.7733 31.0787 37.4765C31.2759 37.1779 31.5352 36.9553 31.8564 36.8086C32.1794 36.6601 32.5416 36.5859 32.9431 36.5859C33.1753 36.5859 33.4049 36.6104 33.6318 36.6593C33.8588 36.7082 34.0482 36.7667 34.2001 36.8348L34.2184 36.861C34.1783 36.9587 34.1407 37.2006 34.1058 37.5865L34.0875 37.6075H33.9644L33.9435 37.5865L33.9173 37.1412C33.7898 37.0399 33.6353 36.9614 33.4538 36.9055C33.274 36.8479 33.0863 36.819 32.8908 36.819C32.5957 36.819 32.3313 36.8828 32.0973 37.0103C31.8634 37.136 31.6818 37.3193 31.5527 37.5603C31.4235 37.7995 31.3589 38.0929 31.3589 38.4404C31.3589 38.7896 31.4348 39.0961 31.5867 39.3598C31.7386 39.6234 31.9454 39.826 32.2073 39.9674C32.4709 40.1089 32.7782 40.1796 33.1291 40.1796C33.2844 40.1796 33.4337 40.1648 33.5769 40.1351C33.72 40.1054 33.8387 40.0687 33.933 40.0251C34.029 39.9814 34.1207 39.9282 34.2079 39.8653L34.2525 39.9203Z" fill="white"/>
<path d="M34.5274 38.5583C34.5274 38.2963 34.5649 38.0519 34.64 37.8249C34.7151 37.5979 34.8425 37.3883 35.0223 37.1962C35.2039 37.0024 35.4221 36.8531 35.677 36.7483C35.9319 36.6418 36.2199 36.5886 36.5411 36.5886C37.1364 36.5886 37.6104 36.7509 37.9631 37.0757C38.3157 37.3988 38.492 37.8406 38.492 38.4011C38.492 38.7957 38.4056 39.1502 38.2328 39.4645C38.0599 39.7788 37.812 40.0233 37.4891 40.1979C37.1679 40.3726 36.8065 40.4599 36.405 40.4599C36.1204 40.4599 35.8585 40.4127 35.6194 40.3184C35.3802 40.2224 35.176 40.0801 35.0066 39.8915C34.839 39.7029 34.7168 39.4846 34.64 39.2367C34.5649 38.9887 34.5274 38.7626 34.5274 38.5583ZM35.0721 38.3854C35.0721 38.5984 35.1061 38.828 35.1742 39.0743C35.244 39.3187 35.347 39.5291 35.4832 39.7055C35.6211 39.8801 35.7791 40.0102 35.9572 40.0958C36.137 40.1813 36.3412 40.2241 36.5699 40.2241C36.8405 40.2241 37.0814 40.1621 37.2927 40.0382C37.5039 39.9142 37.6645 39.7221 37.7745 39.4619C37.8845 39.2 37.9395 38.9066 37.9395 38.5818C37.9395 38.2291 37.8766 37.9104 37.7509 37.6258C37.6252 37.3412 37.4463 37.1342 37.2141 37.005C36.9819 36.8758 36.7244 36.8112 36.4416 36.8112C36.0174 36.8112 35.6831 36.9439 35.4387 37.2093C35.1943 37.4747 35.0721 37.8668 35.0721 38.3854Z" fill="white"/>
<path d="M41.3044 36.6802L41.3254 36.6619C41.3341 36.6619 41.4484 36.6654 41.6684 36.6724C41.8762 36.6794 42.0141 36.6828 42.0822 36.6828C42.1241 36.6828 42.372 36.6759 42.8258 36.6619L42.8468 36.6802V36.8112L42.8258 36.8295C42.6722 36.8348 42.5649 36.8426 42.5038 36.8531C42.4444 36.8636 42.4051 36.8802 42.3859 36.9029C42.3667 36.9238 42.3536 36.9605 42.3466 37.0129C42.3396 37.0635 42.3344 37.198 42.3309 37.4163C42.3274 37.6345 42.3257 37.8013 42.3257 37.9165V40.1089L42.3676 40.1508C42.626 40.149 42.8162 40.1386 42.9384 40.1194L42.9725 40.1691C42.8695 40.5568 42.7796 40.9689 42.7028 41.4054L42.6609 41.4473H42.598L42.5535 41.4054C42.5622 41.0475 42.5666 40.8432 42.5666 40.7925C42.5666 40.6406 42.5579 40.5428 42.5404 40.4992C42.523 40.4555 42.4959 40.4267 42.4592 40.4127C42.4243 40.4005 42.3763 40.3909 42.3152 40.3839C42.2541 40.3769 42.0533 40.3717 41.7129 40.3682C41.3742 40.3647 41.1264 40.3629 40.9692 40.3629L39.927 40.3682L39.0315 40.376C38.9948 40.376 38.9084 40.3787 38.7722 40.3839L38.7513 40.3629V40.232L38.7722 40.2163C38.945 40.2093 39.0568 40.2006 39.1074 40.1901C39.158 40.1779 39.1921 40.163 39.2095 40.1455C39.227 40.1281 39.2401 40.0984 39.2488 40.0565C39.2575 40.0146 39.2636 39.881 39.2671 39.6557C39.2706 39.4305 39.2724 39.255 39.2724 39.1293V37.9165C39.2724 37.7454 39.2697 37.5551 39.2645 37.3455C39.261 37.136 39.254 37.0129 39.2436 36.9762C39.2348 36.9378 39.2209 36.9107 39.2017 36.895C39.1842 36.8775 39.1484 36.8636 39.0943 36.8531C39.0402 36.8426 38.9328 36.8348 38.7722 36.8295L38.7513 36.8112V36.6802L38.7722 36.6619C38.7809 36.6619 38.8953 36.6654 39.1152 36.6724C39.323 36.6794 39.4609 36.6828 39.529 36.6828C39.5709 36.6828 39.8197 36.6759 40.2753 36.6619L40.2936 36.6802V36.8112L40.2753 36.8295C40.1025 36.8348 39.9899 36.8435 39.9375 36.8557C39.8869 36.8662 39.8528 36.8802 39.8354 36.8976C39.8197 36.9151 39.8074 36.9448 39.7987 36.9867C39.79 37.0286 39.783 37.1604 39.7778 37.3822C39.7743 37.604 39.7725 37.7821 39.7725 37.9165V40.1272L39.8013 40.156H41.7967L41.8255 40.1272V37.9165C41.8255 37.7472 41.8229 37.5577 41.8177 37.3481C41.8142 37.1369 41.8072 37.012 41.7967 36.9736C41.788 36.9352 41.774 36.9081 41.7548 36.8924C41.7374 36.8767 41.7007 36.8636 41.6448 36.8531C41.5907 36.8426 41.4842 36.8348 41.3254 36.8295L41.3044 36.8112V36.6802Z" fill="white"/>
<path d="M43.1139 40.3629V40.232L43.1348 40.2163C43.2885 40.211 43.395 40.2032 43.4543 40.1927C43.5154 40.1822 43.5556 40.1656 43.5748 40.1429C43.594 40.1202 43.6071 40.0836 43.6141 40.0329C43.621 39.9805 43.6263 39.8504 43.6298 39.6426C43.6333 39.4331 43.635 39.262 43.635 39.1293V37.9165C43.635 37.7349 43.6324 37.542 43.6271 37.3377C43.6237 37.1334 43.6167 37.0129 43.6062 36.9762C43.5975 36.9378 43.5835 36.9107 43.5643 36.895C43.5468 36.8775 43.5102 36.8636 43.4543 36.8531C43.4002 36.8426 43.2937 36.8348 43.1348 36.8295L43.1139 36.8112V36.6802L43.1348 36.6619C43.1436 36.6619 43.2579 36.6654 43.4779 36.6724C43.6856 36.6794 43.8235 36.6828 43.8916 36.6828C43.9335 36.6828 44.1814 36.6759 44.6353 36.6619L44.6563 36.6802V36.8112L44.6353 36.8295C44.4817 36.8348 44.3743 36.8426 44.3132 36.8531C44.2539 36.8636 44.2146 36.8802 44.1954 36.9029C44.1762 36.9238 44.1631 36.9596 44.1561 37.0103C44.1491 37.0609 44.1439 37.1936 44.1404 37.4084C44.1369 37.6232 44.1352 37.7926 44.1352 37.9165V39.9281L44.1744 39.9465C44.5428 39.4156 44.96 38.7835 45.4261 38.0501C45.8923 37.3167 46.1777 36.854 46.2824 36.6619C46.4657 36.6759 46.636 36.6828 46.7931 36.6828C46.9711 36.6828 47.1405 36.6759 47.3011 36.6619L47.322 36.6802V36.8112L47.3011 36.8295C47.13 36.8348 47.0183 36.8435 46.9659 36.8557C46.9153 36.8662 46.8812 36.8802 46.8638 36.8976C46.8463 36.9151 46.8332 36.9448 46.8245 36.9867C46.8158 37.0286 46.8096 37.1604 46.8062 37.3822C46.8027 37.604 46.8009 37.7821 46.8009 37.9165V39.1293C46.8009 39.2725 46.8027 39.4462 46.8062 39.6505C46.8096 39.8531 46.8149 39.9805 46.8219 40.0329C46.8289 40.0853 46.8428 40.1228 46.8638 40.1455C46.8847 40.1665 46.9257 40.1822 46.9868 40.1927C47.0497 40.2032 47.1544 40.2102 47.3011 40.2136L47.322 40.232V40.3629L47.3011 40.3839C47.2924 40.3839 47.178 40.3804 46.958 40.3734C46.7555 40.3664 46.6176 40.3629 46.5443 40.3629C46.4972 40.3629 46.2493 40.3699 45.8006 40.3839L45.7797 40.3629V40.232L45.8006 40.2136C45.9542 40.2102 46.0607 40.2032 46.1201 40.1927C46.1812 40.1805 46.2213 40.1639 46.2405 40.1429C46.2597 40.122 46.2728 40.0862 46.2798 40.0355C46.2868 39.9832 46.292 39.8504 46.2955 39.6374C46.299 39.4226 46.3008 39.2532 46.3008 39.1293L46.3034 37.1753L46.251 37.1569C46.0991 37.3787 45.7465 37.9122 45.1931 38.7573L44.1404 40.3839C43.992 40.3699 43.8201 40.3629 43.6245 40.3629C43.4884 40.3629 43.3251 40.3699 43.1348 40.3839L43.1139 40.3629Z" fill="white"/>
<path d="M47.5682 40.3839L47.5446 40.3629V40.2267L47.5682 40.2058C47.6956 40.204 47.7777 40.1979 47.8143 40.1875C47.851 40.1752 47.8833 40.1525 47.9112 40.1194C47.9409 40.0844 47.9994 39.9727 48.0867 39.7841L48.3616 39.1869L49.0739 37.5734C49.2083 37.2573 49.3419 36.9413 49.4745 36.6252H49.6448L50.9122 39.606C50.9558 39.7055 51.0056 39.8138 51.0614 39.9308C51.119 40.0478 51.1583 40.1167 51.1793 40.1377C51.202 40.1586 51.229 40.1752 51.2605 40.1875C51.2936 40.1979 51.3661 40.204 51.4778 40.2058L51.4987 40.2267V40.3629L51.4778 40.3839C51.2927 40.3682 51.126 40.3603 50.9776 40.3603C50.6878 40.3691 50.398 40.3769 50.1083 40.3839L50.0873 40.3629V40.2267L50.1083 40.2058C50.3038 40.2023 50.426 40.1944 50.4749 40.1822C50.5237 40.1683 50.5482 40.1377 50.5482 40.0905C50.5482 40.0521 50.536 40.0015 50.5115 39.9386L50.1894 39.1397H48.6732L48.3878 39.8103C48.3372 39.9308 48.3119 40.019 48.3119 40.0748C48.3119 40.1185 48.3354 40.1508 48.3826 40.1717C48.4297 40.1927 48.5484 40.204 48.7387 40.2058L48.7623 40.2267V40.3629L48.7413 40.3839C48.5161 40.3699 48.3189 40.3629 48.1495 40.3629C47.9575 40.3629 47.7637 40.3699 47.5682 40.3839ZM48.7623 38.9145H50.0873L49.43 37.3351L48.7623 38.9145Z" fill="white"/>
<path d="M54.3138 36.6802L54.3347 36.6619C54.3434 36.6619 54.4578 36.6654 54.6778 36.6724C54.8855 36.6794 55.0234 36.6828 55.0915 36.6828C55.1334 36.6828 55.3813 36.6759 55.8352 36.6619L55.8561 36.6802V36.8112L55.8352 36.8295C55.6816 36.8348 55.5742 36.8426 55.5131 36.8531C55.4537 36.8636 55.4145 36.8802 55.3953 36.9029C55.3761 36.9238 55.363 36.9605 55.356 37.0129C55.349 37.0635 55.3438 37.198 55.3403 37.4163C55.3368 37.6345 55.335 37.8013 55.335 37.9165V40.1089L55.3769 40.1508C55.6353 40.149 55.8256 40.1386 55.9478 40.1194L55.9818 40.1691C55.8788 40.5568 55.7889 40.9689 55.7121 41.4054L55.6702 41.4473H55.6074L55.5629 41.4054C55.5716 41.0475 55.5759 40.8432 55.5759 40.7925C55.5759 40.6406 55.5672 40.5428 55.5498 40.4992C55.5323 40.4555 55.5052 40.4267 55.4686 40.4127C55.4337 40.4005 55.3857 40.3909 55.3246 40.3839C55.2635 40.3769 55.0627 40.3717 54.7223 40.3682C54.3836 40.3647 54.1357 40.3629 53.9786 40.3629L52.9364 40.3682L52.0408 40.376C52.0041 40.376 51.9177 40.3787 51.7816 40.3839L51.7606 40.3629V40.232L51.7816 40.2163C51.9544 40.2093 52.0661 40.2006 52.1167 40.1901C52.1674 40.1779 52.2014 40.163 52.2189 40.1455C52.2363 40.1281 52.2494 40.0984 52.2581 40.0565C52.2669 40.0146 52.273 39.881 52.2765 39.6557C52.28 39.4305 52.2817 39.255 52.2817 39.1293V37.9165C52.2817 37.7454 52.2791 37.5551 52.2739 37.3455C52.2704 37.136 52.2634 37.0129 52.2529 36.9762C52.2442 36.9378 52.2302 36.9107 52.211 36.895C52.1936 36.8775 52.1578 36.8636 52.1036 36.8531C52.0495 36.8426 51.9422 36.8348 51.7816 36.8295L51.7606 36.8112V36.6802L51.7816 36.6619C51.7903 36.6619 51.9046 36.6654 52.1246 36.6724C52.3323 36.6794 52.4703 36.6828 52.5383 36.6828C52.5802 36.6828 52.829 36.6759 53.2846 36.6619L53.303 36.6802V36.8112L53.2846 36.8295C53.1118 36.8348 52.9992 36.8435 52.9468 36.8557C52.8962 36.8662 52.8622 36.8802 52.8447 36.8976C52.829 36.9151 52.8168 36.9448 52.8081 36.9867C52.7993 37.0286 52.7923 37.1604 52.7871 37.3822C52.7836 37.604 52.7819 37.7821 52.7819 37.9165V40.1272L52.8107 40.156H54.8061L54.8349 40.1272V37.9165C54.8349 37.7472 54.8323 37.5577 54.827 37.3481C54.8235 37.1369 54.8165 37.012 54.8061 36.9736C54.7973 36.9352 54.7834 36.9081 54.7642 36.8924C54.7467 36.8767 54.7101 36.8636 54.6542 36.8531C54.6001 36.8426 54.4936 36.8348 54.3347 36.8295L54.3138 36.8112V36.6802Z" fill="white"/>
<path d="M56.1232 40.3629V40.232L56.1442 40.2163C56.2978 40.211 56.4043 40.2032 56.4637 40.1927C56.5248 40.1822 56.5649 40.1656 56.5841 40.1429C56.6033 40.1202 56.6164 40.0836 56.6234 40.0329C56.6304 39.9805 56.6356 39.8504 56.6391 39.6426C56.6426 39.4331 56.6443 39.262 56.6443 39.1293V37.9165C56.6443 37.7349 56.6417 37.542 56.6365 37.3377C56.633 37.1334 56.626 37.0129 56.6155 36.9762C56.6068 36.9378 56.5928 36.9107 56.5736 36.895C56.5562 36.8775 56.5195 36.8636 56.4637 36.8531C56.4095 36.8426 56.3031 36.8348 56.1442 36.8295L56.1232 36.8112V36.6802L56.1442 36.6619C56.1529 36.6619 56.2673 36.6654 56.4872 36.6724C56.695 36.6794 56.8329 36.6828 56.901 36.6828C56.9429 36.6828 57.1908 36.6759 57.6447 36.6619L57.6656 36.6802V36.8112L57.6447 36.8295C57.491 36.8348 57.3837 36.8426 57.3226 36.8531C57.2632 36.8636 57.2239 36.8802 57.2047 36.9029C57.1855 36.9238 57.1724 36.9596 57.1655 37.0103C57.1585 37.0609 57.1532 37.1936 57.1497 37.4084C57.1462 37.6232 57.1445 37.7926 57.1445 37.9165V39.9281L57.1838 39.9465C57.5521 39.4156 57.9694 38.7835 58.4355 38.0501C58.9016 37.3167 59.187 36.854 59.2918 36.6619C59.4751 36.6759 59.6453 36.6828 59.8024 36.6828C59.9805 36.6828 60.1498 36.6759 60.3104 36.6619L60.3314 36.6802V36.8112L60.3104 36.8295C60.1393 36.8348 60.0276 36.8435 59.9752 36.8557C59.9246 36.8662 59.8906 36.8802 59.8731 36.8976C59.8557 36.9151 59.8426 36.9448 59.8338 36.9867C59.8251 37.0286 59.819 37.1604 59.8155 37.3822C59.812 37.604 59.8103 37.7821 59.8103 37.9165V39.1293C59.8103 39.2725 59.812 39.4462 59.8155 39.6505C59.819 39.8531 59.8242 39.9805 59.8312 40.0329C59.8382 40.0853 59.8522 40.1228 59.8731 40.1455C59.8941 40.1665 59.9351 40.1822 59.9962 40.1927C60.059 40.2032 60.1638 40.2102 60.3104 40.2136L60.3314 40.232V40.3629L60.3104 40.3839C60.3017 40.3839 60.1873 40.3804 59.9674 40.3734C59.7649 40.3664 59.627 40.3629 59.5536 40.3629C59.5065 40.3629 59.2586 40.3699 58.81 40.3839L58.789 40.3629V40.232L58.81 40.2136C58.9636 40.2102 59.0701 40.2032 59.1294 40.1927C59.1905 40.1805 59.2307 40.1639 59.2499 40.1429C59.2691 40.122 59.2822 40.0862 59.2892 40.0355C59.2961 39.9832 59.3014 39.8504 59.3049 39.6374C59.3084 39.4226 59.3101 39.2532 59.3101 39.1293L59.3127 37.1753L59.2604 37.1569C59.1085 37.3787 58.7558 37.9122 58.2024 38.7573L57.1497 40.3839C57.0014 40.3699 56.8294 40.3629 56.6339 40.3629C56.4977 40.3629 56.3345 40.3699 56.1442 40.3839L56.1232 40.3629Z" fill="white"/>
<path d="M62.1068 38.4954C61.7245 38.429 61.4504 38.3103 61.2846 38.1392C61.1187 37.968 61.0358 37.7646 61.0358 37.5289C61.0358 37.3822 61.0672 37.2512 61.1301 37.136C61.1929 37.019 61.2819 36.9238 61.3972 36.8505C61.5141 36.7754 61.6459 36.7248 61.7926 36.6986C61.941 36.6724 62.1147 36.6593 62.3137 36.6593C62.4498 36.6593 62.6017 36.6628 62.7693 36.6698C62.9945 36.6785 63.1272 36.6828 63.1674 36.6828C63.3245 36.6828 63.5663 36.6759 63.8927 36.6619L63.911 36.6802V36.8112L63.8927 36.8295C63.7356 36.8348 63.6274 36.8426 63.568 36.8531C63.5086 36.8636 63.4694 36.8802 63.4502 36.9029C63.431 36.9256 63.4179 36.9622 63.4109 37.0129C63.4039 37.0635 63.3987 37.1962 63.3952 37.411C63.3917 37.6258 63.3899 37.7943 63.3899 37.9165V39.1293C63.3899 39.2655 63.3917 39.4366 63.3952 39.6426C63.3987 39.8487 63.4039 39.9788 63.4109 40.0329C63.4179 40.0853 63.4318 40.1228 63.4528 40.1455C63.4737 40.1665 63.5148 40.1822 63.5759 40.1927C63.6387 40.2032 63.7443 40.211 63.8927 40.2163L63.911 40.232V40.3629L63.8927 40.3839C63.8787 40.3839 63.7644 40.3804 63.5497 40.3734C63.3419 40.3664 63.2031 40.3629 63.1333 40.3629C63.0967 40.3629 62.8488 40.3699 62.3896 40.3839L62.3687 40.3629V40.232L62.3896 40.2163C62.5642 40.2093 62.6759 40.2006 62.7248 40.1901C62.7754 40.1779 62.8095 40.163 62.8269 40.1455C62.8444 40.1281 62.8575 40.0984 62.8662 40.0565C62.8749 40.0146 62.881 39.881 62.8845 39.6557C62.888 39.4305 62.8898 39.255 62.8898 39.1293V36.9395L62.8688 36.916C62.7065 36.909 62.5764 36.9055 62.4786 36.9055C61.8676 36.9055 61.5621 37.1299 61.5621 37.5786C61.5621 37.8249 61.6573 38.0265 61.8476 38.1837C62.0378 38.3409 62.3477 38.4212 62.7772 38.4247V38.498C62.5153 38.7792 62.0038 39.406 61.2427 40.3787C61.0681 40.3682 60.9363 40.3629 60.8472 40.3629C60.732 40.3629 60.5959 40.3682 60.4387 40.3787L60.4178 40.3551V40.232L60.4387 40.211C60.5609 40.2093 60.6439 40.1988 60.6875 40.1796C60.7329 40.1604 60.8027 40.0993 60.897 39.9962C60.9913 39.8932 61.1877 39.6575 61.4862 39.289C61.7847 38.9188 61.9916 38.6543 62.1068 38.4954Z" fill="white"/>
<path d="M68.546 36.6619L68.5696 36.6855C68.5539 36.8426 68.546 37.1168 68.546 37.5079L68.5251 37.5289H68.402L68.381 37.5053L68.3522 37.2643C68.3383 37.1351 68.3269 37.0565 68.3182 37.0286C68.3112 36.9989 68.299 36.978 68.2815 36.9657C68.2641 36.9518 68.2073 36.9404 68.1113 36.9317C68.0153 36.9229 67.9079 36.9186 67.7892 36.9186H67.2943C67.2803 37.3132 67.2734 37.5411 67.2734 37.6022V39.1293L67.2786 39.64C67.2803 39.8373 67.2847 39.9657 67.2917 40.0251C67.3004 40.0827 67.3126 40.1211 67.3283 40.1403C67.3458 40.1578 67.3781 40.1735 67.4252 40.1875C67.4724 40.1997 67.5893 40.2093 67.7761 40.2163L67.7945 40.232V40.3629L67.7761 40.3839C67.3292 40.3699 67.0796 40.3629 67.0272 40.3629C66.9713 40.3629 66.7226 40.3699 66.2809 40.3839L66.2599 40.3629V40.232L66.2809 40.2163C66.445 40.2093 66.5532 40.2006 66.6056 40.1901C66.6597 40.1796 66.6955 40.1665 66.713 40.1508C66.7322 40.1333 66.7479 40.0975 66.7601 40.0434C66.7723 39.9893 66.7784 39.8688 66.7784 39.6819L66.7837 39.1293V37.6022C66.7837 37.5743 66.7767 37.3464 66.7627 36.9186H66.3726C66.2119 36.9186 66.0732 36.9221 65.9562 36.9291C65.8392 36.936 65.7711 36.9544 65.7519 36.9841C65.7345 37.012 65.7179 37.1054 65.7022 37.2643L65.676 37.5053L65.6524 37.5289H65.532L65.511 37.5079C65.5075 37.0871 65.4997 36.8129 65.4874 36.6855L65.511 36.6619C65.8148 36.6759 66.3202 36.6828 67.0272 36.6828C67.7482 36.6828 68.2545 36.6759 68.546 36.6619Z" fill="white"/>
<path d="M68.7895 40.3839L68.766 40.3629V40.2267L68.7895 40.2058C68.917 40.204 68.999 40.1979 69.0357 40.1875C69.0724 40.1752 69.1047 40.1525 69.1326 40.1194C69.1623 40.0844 69.2207 39.9727 69.308 39.7841L69.583 39.1869L70.2952 37.5734C70.4297 37.2573 70.5632 36.9413 70.6959 36.6252H70.8661L72.1335 39.606C72.1772 39.7055 72.2269 39.8138 72.2828 39.9308C72.3404 40.0478 72.3797 40.1167 72.4006 40.1377C72.4233 40.1586 72.4504 40.1752 72.4818 40.1875C72.515 40.1979 72.5874 40.204 72.6992 40.2058L72.7201 40.2267V40.3629L72.6992 40.3839C72.5141 40.3682 72.3474 40.3603 72.199 40.3603C71.9092 40.3691 71.6194 40.3769 71.3296 40.3839L71.3087 40.3629V40.2267L71.3296 40.2058C71.5251 40.2023 71.6473 40.1944 71.6962 40.1822C71.7451 40.1683 71.7695 40.1377 71.7695 40.0905C71.7695 40.0521 71.7573 40.0015 71.7329 39.9386L71.4108 39.1397H69.8946L69.6092 39.8103C69.5585 39.9308 69.5332 40.019 69.5332 40.0748C69.5332 40.1185 69.5568 40.1508 69.6039 40.1717C69.6511 40.1927 69.7698 40.204 69.9601 40.2058L69.9836 40.2267V40.3629L69.9627 40.3839C69.7375 40.3699 69.5402 40.3629 69.3709 40.3629C69.1789 40.3629 68.9851 40.3699 68.7895 40.3839ZM69.9836 38.9145H71.3087L70.6514 37.3351L69.9836 38.9145Z" fill="white"/>
<path d="M74.0032 38.2544H74.3148C74.6012 38.2544 74.8456 38.2675 75.0481 38.2937C75.2506 38.3199 75.4234 38.3723 75.5666 38.4509C75.7097 38.5294 75.8197 38.6342 75.8965 38.7652C75.9733 38.8961 76.0117 39.0437 76.0117 39.2078C76.0117 39.3423 75.9838 39.4759 75.9279 39.6086C75.8721 39.7396 75.7909 39.8592 75.6844 39.9674C75.5779 40.074 75.4618 40.1586 75.3361 40.2215C75.2122 40.2826 75.0873 40.3254 74.9617 40.3499C74.836 40.3726 74.6788 40.3839 74.4903 40.3839C74.3925 40.3839 74.2511 40.3804 74.0661 40.3734C73.8915 40.3664 73.7676 40.3629 73.6942 40.3629C73.4917 40.3629 73.2613 40.3699 73.0029 40.3839L72.982 40.3629V40.232L73.0029 40.2163C73.1565 40.211 73.263 40.2032 73.3224 40.1927C73.3835 40.1822 73.4236 40.1656 73.4428 40.1429C73.462 40.1202 73.4751 40.0836 73.4821 40.0329C73.4891 39.9805 73.4943 39.8504 73.4978 39.6426C73.5013 39.4331 73.5031 39.262 73.5031 39.1293V37.9165C73.5031 37.7384 73.5005 37.5472 73.4952 37.3429C73.4917 37.1369 73.4847 37.0146 73.4743 36.9762C73.4655 36.9378 73.4516 36.9107 73.4324 36.895C73.4149 36.8775 73.3791 36.8645 73.325 36.8557C73.2726 36.8452 73.1653 36.8365 73.0029 36.8295L72.982 36.8112V36.6802L73.0029 36.6619C73.2491 36.6759 73.9116 36.6828 74.9905 36.6828C75.055 36.6828 75.2864 36.6759 75.6844 36.6619L75.7263 36.7169C75.6984 36.8828 75.6748 37.1194 75.6556 37.4267L75.6399 37.4477H75.543L75.5194 37.4267L75.4854 37.2277C75.4749 37.1543 75.4574 37.0949 75.433 37.0495C75.4103 37.0024 75.3763 36.9683 75.3309 36.9474C75.2855 36.9247 75.2296 36.9099 75.1633 36.9029C75.0987 36.8941 75.0114 36.8898 74.9014 36.8898H74.0687L74.0268 36.9343C74.0111 37.1421 74.0032 37.3735 74.0032 37.6284V38.2544ZM74.0032 40.1377L74.0451 40.1822C74.1953 40.1857 74.3009 40.1875 74.362 40.1875C74.6081 40.1875 74.8054 40.1517 74.9538 40.0801C75.1039 40.0085 75.2226 39.8958 75.3099 39.7422C75.3972 39.5885 75.4409 39.4174 75.4409 39.2288C75.4409 39.0664 75.4007 38.9188 75.3204 38.7861C75.2418 38.6534 75.1257 38.5609 74.9721 38.5085C74.8202 38.4561 74.5715 38.4299 74.2258 38.4299H74.0032V40.1377Z" fill="white"/>
<path d="M76.2526 40.3839L76.2291 40.3629V40.2267L76.2526 40.2058C76.3801 40.204 76.4621 40.1979 76.4988 40.1875C76.5354 40.1752 76.5677 40.1525 76.5957 40.1194C76.6254 40.0844 76.6838 39.9727 76.7711 39.7841L77.0461 39.1869L77.7583 37.5734C77.8928 37.2573 78.0263 36.9413 78.159 36.6252H78.3292L79.5966 39.606C79.6403 39.7055 79.69 39.8138 79.7459 39.9308C79.8035 40.0478 79.8428 40.1167 79.8637 40.1377C79.8864 40.1586 79.9135 40.1752 79.9449 40.1875C79.9781 40.1979 80.0505 40.204 80.1623 40.2058L80.1832 40.2267V40.3629L80.1623 40.3839C79.9772 40.3682 79.8105 40.3603 79.6621 40.3603C79.3723 40.3691 79.0825 40.3769 78.7927 40.3839L78.7718 40.3629V40.2267L78.7927 40.2058C78.9882 40.2023 79.1104 40.1944 79.1593 40.1822C79.2082 40.1683 79.2326 40.1377 79.2326 40.0905C79.2326 40.0521 79.2204 40.0015 79.196 39.9386L78.8739 39.1397H77.3577L77.0723 39.8103C77.0216 39.9308 76.9963 40.019 76.9963 40.0748C76.9963 40.1185 77.0199 40.1508 77.067 40.1717C77.1142 40.1927 77.2329 40.204 77.4232 40.2058L77.4467 40.2267V40.3629L77.4258 40.3839C77.2006 40.3699 77.0033 40.3629 76.834 40.3629C76.6419 40.3629 76.4482 40.3699 76.2526 40.3839ZM77.4467 38.9145H78.7718L78.1145 37.3351L77.4467 38.9145Z" fill="white"/>
<path d="M84.2499 40.3629L84.229 40.3839L83.4696 40.3629C83.4242 40.3629 83.1763 40.3699 82.7259 40.3839L82.7076 40.3629V40.232L82.7259 40.2136C82.9895 40.2119 83.1388 40.1857 83.1737 40.1351C83.2103 40.0827 83.2287 39.7474 83.2287 39.1293V38.4037C83.0279 38.6464 82.8306 38.8184 82.6369 38.9197C82.4448 39.0193 82.2257 39.069 81.9796 39.069C81.7229 39.069 81.5108 39.0262 81.3432 38.9407C81.1774 38.8534 81.0552 38.7311 80.9766 38.574C80.8998 38.4168 80.8614 38.1933 80.8614 37.9034V37.4739C80.8614 37.2539 80.8588 37.1185 80.8536 37.0679C80.8501 37.0172 80.844 36.9788 80.8352 36.9526C80.8282 36.9264 80.816 36.9064 80.7986 36.8924C80.7811 36.8784 80.7357 36.8653 80.6624 36.8531C80.5908 36.8409 80.4931 36.833 80.3691 36.8295L80.3482 36.8112V36.6802L80.3691 36.6619L81.118 36.6828C81.1425 36.6828 81.2682 36.6794 81.4951 36.6724L81.8617 36.6619L81.8827 36.6802V36.8112L81.8617 36.8295C81.668 36.8295 81.5492 36.8365 81.5056 36.8505C81.4637 36.8645 81.434 36.8837 81.4166 36.9081C81.3991 36.9308 81.3851 36.9867 81.3747 37.0757C81.3659 37.1631 81.3616 37.3254 81.3616 37.5629V37.8484C81.3616 38.1296 81.4358 38.3505 81.5842 38.5111C81.7343 38.6718 81.942 38.7521 82.2074 38.7521C82.3645 38.7521 82.5199 38.7154 82.6735 38.6421C82.8271 38.567 82.9572 38.4718 83.0637 38.3566C83.1702 38.2396 83.2234 38.1453 83.2234 38.0737L83.2287 37.5472C83.2287 37.198 83.2164 36.9937 83.192 36.9343C83.1693 36.8749 83.0139 36.84 82.7259 36.8295L82.7076 36.8112V36.6802L82.7259 36.6619C83.082 36.6759 83.3352 36.6828 83.4853 36.6828C83.5935 36.6828 83.8414 36.6759 84.229 36.6619L84.2499 36.6802V36.8112L84.229 36.8295C83.9654 36.8348 83.817 36.8636 83.7838 36.916C83.7524 36.9683 83.7358 37.1534 83.734 37.4713L83.7288 37.9165V39.1293C83.7288 39.6706 83.7349 39.9736 83.7471 40.0382C83.7611 40.1028 83.7917 40.1464 83.8388 40.1691C83.8877 40.1918 84.0177 40.2067 84.229 40.2136L84.2499 40.232V40.3629Z" fill="white"/>
<path d="M84.5354 36.6619C84.9805 36.6759 85.2302 36.6828 85.2843 36.6828C85.3419 36.6828 85.5924 36.6759 86.0358 36.6619L86.0568 36.6802V36.8112L86.0358 36.8295C85.9154 36.833 85.822 36.8383 85.7556 36.8452C85.691 36.8522 85.6439 36.8653 85.6142 36.8845C85.5845 36.9037 85.5645 36.9491 85.554 37.0207C85.5453 37.0906 85.5409 37.1884 85.5409 37.3141L85.5357 37.9165V38.2832C85.918 38.2937 86.2802 38.2989 86.6224 38.2989C87.0903 38.2989 87.4464 38.2937 87.6908 38.2832V37.9165L87.6856 37.4058C87.6838 37.2067 87.6786 37.0784 87.6699 37.0207C87.6611 36.9631 87.6489 36.9247 87.6332 36.9055C87.6175 36.8863 87.5861 36.8706 87.5389 36.8583C87.4918 36.8461 87.3748 36.8365 87.188 36.8295L87.1697 36.8112V36.6802L87.188 36.6619C87.6349 36.6759 87.8855 36.6828 87.9396 36.6828C87.9989 36.6828 88.2494 36.6759 88.6911 36.6619L88.7121 36.6802V36.8112L88.6911 36.8295C88.5689 36.833 88.4746 36.8383 88.4083 36.8452C88.3437 36.8522 88.2966 36.8653 88.2669 36.8845C88.2372 36.9037 88.218 36.9491 88.2093 37.0207C88.2006 37.0906 88.1953 37.1884 88.1936 37.3141L88.1883 37.9165V39.1293L88.1936 39.64C88.1953 39.8373 88.2006 39.9648 88.2093 40.0224C88.218 40.0801 88.2302 40.1185 88.2459 40.1377C88.2634 40.1569 88.2948 40.1735 88.3402 40.1875C88.3874 40.1997 88.5043 40.2093 88.6911 40.2163L88.7121 40.232V40.3629L88.6911 40.3839C88.2442 40.3699 87.9937 40.3629 87.9396 40.3629C87.8837 40.3629 87.6332 40.3699 87.188 40.3839L87.1697 40.3629V40.232L87.188 40.2163C87.3521 40.2093 87.4612 40.2006 87.5154 40.1901C87.5695 40.1796 87.6053 40.1665 87.6227 40.1508C87.6402 40.1333 87.655 40.0975 87.6672 40.0434C87.6795 39.9893 87.6856 39.8688 87.6856 39.6819L87.6908 39.1293V38.5321C87.1741 38.5216 86.8118 38.5163 86.6041 38.5163C86.3911 38.5163 86.035 38.5216 85.5357 38.5321V39.1293L85.5383 39.64C85.54 39.8373 85.5453 39.9648 85.554 40.0224C85.5627 40.0801 85.575 40.1185 85.5907 40.1377C85.6081 40.1569 85.6404 40.1735 85.6876 40.1875C85.7347 40.1997 85.8508 40.2093 86.0358 40.2163L86.0568 40.232V40.3629L86.0358 40.3839C85.5907 40.3699 85.3401 40.3629 85.2843 40.3629C85.2302 40.3629 84.9805 40.3699 84.5354 40.3839L84.5144 40.3629V40.232L84.5354 40.2163C84.6977 40.2093 84.806 40.2006 84.8601 40.1901C84.9142 40.1796 84.95 40.1665 84.9674 40.1508C84.9866 40.1333 85.0015 40.0975 85.012 40.0434C85.0242 39.9893 85.0311 39.8688 85.0329 39.6819L85.0355 39.1293V37.9165L85.0303 37.4058C85.0285 37.2067 85.0233 37.0784 85.0146 37.0207C85.0076 36.9631 84.9954 36.9247 84.9779 36.9055C84.9622 36.8863 84.9308 36.8706 84.8836 36.8583C84.8365 36.8461 84.7204 36.8365 84.5354 36.8295L84.5144 36.8112V36.6802L84.5354 36.6619Z" fill="white"/>
<path d="M88.9766 40.3629V40.232L88.9975 40.2163C89.1511 40.211 89.2576 40.2032 89.317 40.1927C89.3781 40.1822 89.4182 40.1656 89.4374 40.1429C89.4566 40.1202 89.4697 40.0836 89.4767 40.0329C89.4837 39.9805 89.4889 39.8504 89.4924 39.6426C89.4959 39.4331 89.4977 39.262 89.4977 39.1293V37.9165C89.4977 37.7524 89.495 37.5647 89.4898 37.3534C89.4863 37.1421 89.4793 37.0172 89.4689 36.9788C89.4601 36.9387 89.447 36.9107 89.4296 36.895C89.4121 36.8775 89.3763 36.8645 89.3222 36.8557C89.2698 36.8452 89.1616 36.8365 88.9975 36.8295L88.9766 36.8112V36.6802L88.9975 36.6619C89.0097 36.6619 89.1241 36.6654 89.3405 36.6724C89.5483 36.6794 89.6862 36.6828 89.7543 36.6828C89.7909 36.6828 90.0397 36.6759 90.5006 36.6619L90.5189 36.6802V36.8112L90.5006 36.8295C90.326 36.8365 90.2134 36.8461 90.1628 36.8583C90.1122 36.8688 90.0781 36.8828 90.0607 36.9002C90.0449 36.9177 90.0327 36.9474 90.024 36.9893C90.0153 37.0312 90.0083 37.163 90.0031 37.3848C89.9996 37.6048 89.9978 37.7821 89.9978 37.9165V38.2544H90.3094C90.5835 38.2544 90.8201 38.2675 91.0191 38.2937C91.2198 38.3182 91.3944 38.3697 91.5428 38.4482C91.6912 38.5251 91.8055 38.6272 91.8858 38.7547C91.9661 38.8822 92.0063 39.0236 92.0063 39.179C92.0063 39.3903 91.9417 39.5938 91.8125 39.7893C91.6851 39.9832 91.5219 40.1307 91.3228 40.232C91.1238 40.3333 90.8445 40.3839 90.4849 40.3839C90.3784 40.3839 90.237 40.3804 90.0607 40.3734C89.8948 40.3664 89.7709 40.3629 89.6888 40.3629C89.4863 40.3629 89.2559 40.3699 88.9975 40.3839L88.9766 40.3629ZM89.9978 38.4509V39.7867C89.9978 39.9142 90.0022 40.0006 90.0109 40.046C90.0214 40.0914 90.0353 40.1228 90.0528 40.1403C90.072 40.1578 90.1095 40.1717 90.1654 40.1822C90.223 40.191 90.2998 40.1953 90.3958 40.1953C90.6472 40.1953 90.848 40.1578 90.9981 40.0827C91.15 40.0076 91.2652 39.9002 91.3438 39.7605C91.4223 39.6208 91.4616 39.4584 91.4616 39.2733C91.4616 39.1232 91.4346 38.9948 91.3805 38.8883C91.3281 38.78 91.2495 38.6918 91.1448 38.6237C91.04 38.5539 90.9213 38.5076 90.7886 38.4849C90.656 38.4622 90.4857 38.4509 90.278 38.4509H89.9978ZM91.8701 36.6619L92.1975 36.6724C92.4122 36.6794 92.5527 36.6828 92.6191 36.6828C92.6784 36.6828 92.9289 36.6759 93.3706 36.6619L93.3916 36.6802V36.8112L93.3706 36.8295C93.2501 36.833 93.1568 36.8383 93.0904 36.8452C93.0258 36.8522 92.9787 36.8653 92.949 36.8845C92.9193 36.9037 92.8993 36.9491 92.8888 37.0207C92.8801 37.0906 92.8757 37.1884 92.8757 37.3141L92.8704 37.9165V39.1293L92.8731 39.64C92.8748 39.8373 92.8801 39.9648 92.8888 40.0224C92.8975 40.0801 92.9097 40.1185 92.9254 40.1377C92.9429 40.1569 92.9752 40.1735 93.0223 40.1875C93.0695 40.1997 93.1856 40.2093 93.3706 40.2163L93.3916 40.232V40.3629L93.3706 40.3839C93.3619 40.3839 93.2082 40.3787 92.9097 40.3682C92.7858 40.3647 92.6889 40.3629 92.6191 40.3629C92.5649 40.3629 92.3153 40.3699 91.8701 40.3839L91.8492 40.3629V40.232L91.8701 40.2163C92.0325 40.2093 92.1407 40.2006 92.1948 40.1901C92.249 40.1796 92.2848 40.1665 92.3022 40.1508C92.3214 40.1333 92.3363 40.0975 92.3467 40.0434C92.3589 39.9893 92.3659 39.8688 92.3677 39.6819L92.3703 39.1293V37.9165L92.3651 37.4058C92.3633 37.2067 92.3581 37.0784 92.3493 37.0207C92.3424 36.9631 92.3301 36.9247 92.3127 36.9055C92.297 36.8863 92.2655 36.8706 92.2184 36.8583C92.1713 36.8461 92.0552 36.8365 91.8701 36.8295L91.8492 36.8112V36.6802L91.8701 36.6619Z" fill="white"/>
<path d="M93.6063 40.3499V40.2241L93.6272 40.2032C93.7442 40.2014 93.8228 40.1909 93.8629 40.1717C93.9031 40.1508 93.9546 40.101 94.0174 40.0224C94.0803 39.9421 94.2033 39.7745 94.3866 39.5195L95.1015 38.5268L94.638 37.7384C94.6031 37.6791 94.5263 37.5647 94.4076 37.3953C94.2906 37.2242 94.1981 37.1054 94.13 37.0391C94.0637 36.9727 94.0139 36.9343 93.9808 36.9238C93.9476 36.9133 93.8559 36.9081 93.7058 36.9081L93.6822 36.8845V36.7745L93.7058 36.7509L94.4469 36.6278C94.5115 36.6698 94.5804 36.7396 94.6537 36.8374C94.7288 36.9334 94.837 37.1037 94.9784 37.3481L95.4184 38.113L96.4187 36.6514C96.5671 36.6567 96.657 36.6593 96.6884 36.6593C96.7024 36.6593 96.7836 36.6567 96.9319 36.6514L96.9529 36.675V36.7929L96.9319 36.8138C96.822 36.8191 96.7486 36.8295 96.712 36.8452C96.6771 36.8592 96.6308 36.8959 96.5732 36.9553C96.5173 37.0146 96.4021 37.1622 96.2275 37.3979L95.7405 38.058L95.5441 38.3199L96.4318 39.7553C96.5156 39.8915 96.5828 39.9936 96.6334 40.0617C96.6858 40.1281 96.7277 40.1683 96.7591 40.1822C96.7905 40.1944 96.8621 40.2014 96.9738 40.2032L96.9948 40.2241V40.3525L96.9738 40.3734C96.808 40.3664 96.691 40.3629 96.6229 40.3629C96.5339 40.3629 96.3995 40.3664 96.2197 40.3734C96.1149 40.218 96.018 40.0635 95.929 39.9098L95.2403 38.7338L95.0491 38.9983C94.7978 39.344 94.5019 39.8024 94.1614 40.3734C94.048 40.3664 93.9589 40.3629 93.8943 40.3629C93.828 40.3629 93.7398 40.3664 93.6299 40.3734L93.6063 40.3499Z" fill="white"/>
<path d="M103.369 36.6698L103.392 36.6907V36.819L103.371 36.8374C103.179 36.8426 103.06 36.8522 103.012 36.8662C102.967 36.8802 102.935 36.9037 102.916 36.9369C102.896 36.9684 102.885 37.0312 102.881 37.1255C102.88 37.2198 102.875 37.4861 102.868 37.9244V39.1319C102.868 39.3065 102.871 39.5038 102.876 39.7238C102.881 39.9439 102.892 40.0722 102.908 40.1089C102.925 40.1438 102.956 40.17 102.999 40.1875C103.043 40.2032 103.167 40.2136 103.371 40.2189L103.392 40.2372V40.3656L103.369 40.3865C103.084 40.3708 102.836 40.3629 102.625 40.3629C102.482 40.3629 102.238 40.3708 101.894 40.3865L101.871 40.3656V40.2398L101.892 40.2189C102.084 40.2136 102.202 40.204 102.248 40.1901C102.295 40.1761 102.328 40.1534 102.347 40.122C102.366 40.0888 102.378 40.0242 102.381 39.9281C102.385 39.8321 102.389 39.5667 102.394 39.1319V37.2093L101.491 39.1005C101.264 39.5737 101.066 40.019 100.897 40.4363H100.794C100.697 40.211 100.616 40.0312 100.554 39.8967L99.3018 37.2958V39.1266C99.3018 39.2978 99.3036 39.4951 99.307 39.7186C99.3123 39.9404 99.3236 40.0687 99.3411 40.1036C99.3585 40.1386 99.3891 40.1648 99.4327 40.1822C99.4764 40.1997 99.6003 40.2102 99.8046 40.2136L99.8255 40.2346V40.3603L99.802 40.3839L99.6344 40.376C99.4615 40.3673 99.3131 40.3629 99.1892 40.3629C99.1333 40.3629 98.9247 40.3699 98.5633 40.3839L98.5424 40.3629V40.2372L98.5633 40.2136C98.7554 40.2102 98.8741 40.2014 98.9195 40.1875C98.9649 40.1735 98.9972 40.1499 99.0164 40.1167C99.0373 40.0836 99.0487 40.0216 99.0504 39.9308C99.0539 39.84 99.0583 39.5719 99.0635 39.1266V37.927C99.0635 37.7681 99.0609 37.5751 99.0556 37.3481C99.0522 37.1194 99.0417 36.9876 99.0242 36.9526C99.0085 36.916 98.9788 36.8889 98.9352 36.8714C98.8915 36.854 98.7676 36.8435 98.5633 36.84L98.5424 36.819V36.6933L98.566 36.6698C98.6864 36.6785 98.8488 36.6828 99.053 36.6828C99.2451 36.6828 99.4127 36.6785 99.5558 36.6698C99.7025 37.0085 99.843 37.315 99.9774 37.5891L100.97 39.6269L101.865 37.7594C102.108 37.2547 102.271 36.8915 102.355 36.6698C102.523 36.6785 102.688 36.6828 102.85 36.6828C102.997 36.6828 103.17 36.6785 103.369 36.6698Z" fill="white"/>
<path d="M103.633 40.3839L103.609 40.3629V40.2267L103.633 40.2058C103.76 40.204 103.842 40.1979 103.879 40.1875C103.916 40.1752 103.948 40.1525 103.976 40.1194C104.006 40.0844 104.064 39.9727 104.151 39.7841L104.426 39.1869L105.139 37.5734C105.273 37.2573 105.407 36.9413 105.539 36.6252H105.71L106.977 39.606C107.021 39.7055 107.07 39.8138 107.126 39.9308C107.184 40.0478 107.223 40.1167 107.244 40.1377C107.267 40.1586 107.294 40.1752 107.325 40.1875C107.358 40.1979 107.431 40.204 107.543 40.2058L107.564 40.2267V40.3629L107.543 40.3839C107.358 40.3682 107.191 40.3603 107.042 40.3603C106.753 40.3691 106.463 40.3769 106.173 40.3839L106.152 40.3629V40.2267L106.173 40.2058C106.369 40.2023 106.491 40.1944 106.54 40.1822C106.589 40.1683 106.613 40.1377 106.613 40.0905C106.613 40.0521 106.601 40.0015 106.576 39.9386L106.254 39.1397H104.738L104.453 39.8103C104.402 39.9308 104.377 40.019 104.377 40.0748C104.377 40.1185 104.4 40.1508 104.447 40.1717C104.495 40.1927 104.613 40.204 104.804 40.2058L104.827 40.2267V40.3629L104.806 40.3839C104.581 40.3699 104.384 40.3629 104.214 40.3629C104.022 40.3629 103.829 40.3699 103.633 40.3839ZM104.827 38.9145H106.152L105.495 37.3351L104.827 38.9145Z" fill="white"/>
<path d="M108.821 36.8898V39.1293C108.821 39.2637 108.822 39.4349 108.826 39.6426C108.829 39.8504 108.834 39.9805 108.841 40.0329C108.848 40.0853 108.862 40.1228 108.881 40.1455C108.902 40.1665 108.943 40.1822 109.004 40.1927C109.067 40.2032 109.172 40.211 109.321 40.2163L109.342 40.232V40.3629L109.321 40.3839C109.043 40.3699 108.791 40.3629 108.564 40.3629C108.321 40.3629 108.073 40.3699 107.82 40.3839L107.799 40.3629V40.232L107.82 40.2163C107.974 40.211 108.08 40.2032 108.14 40.1927C108.201 40.1822 108.241 40.1656 108.26 40.1429C108.279 40.1202 108.292 40.0836 108.299 40.0329C108.306 39.9805 108.312 39.8504 108.315 39.6426C108.319 39.4331 108.32 39.262 108.32 39.1293V37.9165C108.32 37.7384 108.318 37.5472 108.312 37.3429C108.309 37.1369 108.302 37.0146 108.292 36.9762C108.283 36.9378 108.269 36.9107 108.25 36.895C108.232 36.8775 108.196 36.8645 108.142 36.8557C108.09 36.8452 107.983 36.8365 107.82 36.8295L107.799 36.8112V36.6802L107.82 36.6619C108.066 36.6759 108.729 36.6828 109.808 36.6828C109.872 36.6828 110.104 36.6759 110.502 36.6619L110.544 36.7169C110.516 36.8828 110.492 37.1194 110.473 37.4267L110.457 37.4477H110.36L110.337 37.4267L110.303 37.2277C110.292 37.1543 110.275 37.0949 110.25 37.0495C110.228 37.0024 110.194 36.9683 110.148 36.9474C110.103 36.9247 110.047 36.9099 109.981 36.9029C109.916 36.8941 109.829 36.8898 109.719 36.8898H108.821Z" fill="white"/>
<path d="M110.661 40.3839L110.638 40.3629V40.2267L110.661 40.2058C110.789 40.204 110.871 40.1979 110.908 40.1875C110.944 40.1752 110.977 40.1525 111.004 40.1194C111.034 40.0844 111.093 39.9727 111.18 39.7841L111.455 39.1869L112.167 37.5734C112.302 37.2573 112.435 36.9413 112.568 36.6252H112.738L114.005 39.606C114.049 39.7055 114.099 39.8138 114.155 39.9308C114.212 40.0478 114.252 40.1167 114.273 40.1377C114.295 40.1586 114.322 40.1752 114.354 40.1875C114.387 40.1979 114.459 40.204 114.571 40.2058L114.592 40.2267V40.3629L114.571 40.3839C114.386 40.3682 114.219 40.3603 114.071 40.3603C113.781 40.3691 113.491 40.3769 113.201 40.3839L113.181 40.3629V40.2267L113.201 40.2058C113.397 40.2023 113.519 40.1944 113.568 40.1822C113.617 40.1683 113.641 40.1377 113.641 40.0905C113.641 40.0521 113.629 40.0015 113.605 39.9386L113.283 39.1397H111.766L111.481 39.8103C111.43 39.9308 111.405 40.019 111.405 40.0748C111.405 40.1185 111.429 40.1508 111.476 40.1717C111.523 40.1927 111.642 40.204 111.832 40.2058L111.856 40.2267V40.3629L111.835 40.3839C111.609 40.3699 111.412 40.3629 111.243 40.3629C111.051 40.3629 110.857 40.3699 110.661 40.3839ZM111.856 38.9145H113.181L112.523 37.3351L111.856 38.9145Z" fill="white"/>
<path d="M115.744 38.3828C115.746 38.3042 115.747 38.2597 115.747 38.2492C115.747 38.2317 115.746 38.2055 115.744 38.1706L115.781 38.1366C115.88 38.147 115.971 38.1523 116.053 38.1523C116.219 38.1523 116.352 38.1278 116.451 38.0789C116.551 38.0283 116.632 37.9462 116.695 37.8327C116.758 37.7192 116.789 37.5882 116.789 37.4398C116.789 37.2408 116.73 37.0819 116.611 36.9631C116.492 36.8444 116.317 36.785 116.085 36.785C115.858 36.785 115.676 36.8461 115.54 36.9684C115.404 37.0906 115.31 37.2818 115.26 37.542L115.231 37.5708H115.189L115.16 37.542C115.151 37.3447 115.138 37.1534 115.118 36.9684C115.291 36.8409 115.464 36.7509 115.637 36.6986C115.811 36.6462 116.006 36.62 116.221 36.62C116.579 36.62 116.851 36.682 117.038 36.806C117.225 36.9282 117.318 37.1072 117.318 37.3429C117.318 37.5629 117.241 37.748 117.088 37.8982C116.934 38.0484 116.726 38.1505 116.464 38.2047V38.2492C116.78 38.2492 117.019 38.2771 117.179 38.333C117.342 38.3889 117.469 38.4893 117.562 38.6342C117.654 38.7792 117.7 38.9529 117.7 39.1555C117.7 39.5169 117.566 39.819 117.297 40.0617C117.028 40.3045 116.648 40.4258 116.155 40.4258C115.928 40.4258 115.723 40.4022 115.54 40.3551C115.358 40.3062 115.199 40.2206 115.061 40.0984C115.075 39.8976 115.082 39.7562 115.082 39.6741C115.082 39.6322 115.079 39.4968 115.074 39.2681L115.179 39.2288L115.207 39.2524C115.288 39.5981 115.4 39.8487 115.545 40.0041C115.692 40.1578 115.893 40.2346 116.15 40.2346C116.335 40.2346 116.499 40.1927 116.642 40.1089C116.785 40.0233 116.896 39.8976 116.975 39.7317C117.053 39.5641 117.093 39.3894 117.093 39.2078C117.093 38.9529 117.019 38.7503 116.87 38.6002C116.724 38.4482 116.494 38.3723 116.181 38.3723C116.052 38.3723 115.919 38.388 115.781 38.4194L115.744 38.3828Z" fill="white"/>
<path d="M118.111 40.3629V40.232L118.132 40.2163C118.286 40.211 118.392 40.2032 118.452 40.1927C118.513 40.1822 118.553 40.1656 118.572 40.1429C118.591 40.1202 118.605 40.0836 118.612 40.0329C118.619 39.9805 118.624 39.8504 118.627 39.6426C118.631 39.4331 118.633 39.262 118.633 39.1293V37.9165C118.633 37.7349 118.63 37.542 118.625 37.3377C118.621 37.1334 118.614 37.0129 118.604 36.9762C118.595 36.9378 118.581 36.9107 118.562 36.895C118.544 36.8775 118.508 36.8636 118.452 36.8531C118.398 36.8426 118.291 36.8348 118.132 36.8295L118.111 36.8112V36.6802L118.132 36.6619C118.141 36.6619 118.255 36.6654 118.475 36.6724C118.683 36.6794 118.821 36.6828 118.889 36.6828C118.931 36.6828 119.179 36.6759 119.633 36.6619L119.654 36.6802V36.8112L119.633 36.8295C119.479 36.8348 119.372 36.8426 119.311 36.8531C119.251 36.8636 119.212 36.8802 119.193 36.9029C119.174 36.9238 119.161 36.9596 119.154 37.0103C119.147 37.0609 119.141 37.1936 119.138 37.4084C119.134 37.6232 119.133 37.7926 119.133 37.9165V39.9281L119.172 39.9465C119.54 39.4156 119.958 38.7835 120.424 38.0501C120.89 37.3167 121.175 36.854 121.28 36.6619C121.463 36.6759 121.633 36.6828 121.791 36.6828C121.969 36.6828 122.138 36.6759 122.299 36.6619L122.32 36.6802V36.8112L122.299 36.8295C122.128 36.8348 122.016 36.8435 121.963 36.8557C121.913 36.8662 121.879 36.8802 121.861 36.8976C121.844 36.9151 121.831 36.9448 121.822 36.9867C121.813 37.0286 121.807 37.1604 121.804 37.3822C121.8 37.604 121.798 37.7821 121.798 37.9165V39.1293C121.798 39.2725 121.8 39.4462 121.804 39.6505C121.807 39.8531 121.812 39.9805 121.819 40.0329C121.826 40.0853 121.84 40.1228 121.861 40.1455C121.882 40.1665 121.923 40.1822 121.984 40.1927C122.047 40.2032 122.152 40.2102 122.299 40.2136L122.32 40.232V40.3629L122.299 40.3839C122.29 40.3839 122.176 40.3804 121.956 40.3734C121.753 40.3664 121.615 40.3629 121.542 40.3629C121.495 40.3629 121.247 40.3699 120.798 40.3839L120.777 40.3629V40.232L120.798 40.2136C120.952 40.2102 121.058 40.2032 121.118 40.1927C121.179 40.1805 121.219 40.1639 121.238 40.1429C121.257 40.122 121.27 40.0862 121.277 40.0355C121.284 39.9832 121.29 39.8504 121.293 39.6374C121.297 39.4226 121.298 39.2532 121.298 39.1293L121.301 37.1753L121.249 37.1569C121.097 37.3787 120.744 37.9122 120.191 38.7573L119.138 40.3839C118.99 40.3699 118.818 40.3629 118.622 40.3629C118.486 40.3629 118.323 40.3699 118.132 40.3839L118.111 40.3629Z" fill="white"/>
<path d="M122.605 36.6619C123.05 36.6759 123.3 36.6828 123.354 36.6828C123.412 36.6828 123.662 36.6759 124.105 36.6619L124.126 36.6802V36.8112L124.105 36.8295C123.985 36.833 123.892 36.8383 123.825 36.8452C123.761 36.8522 123.714 36.8653 123.684 36.8845C123.654 36.9037 123.634 36.9491 123.624 37.0207C123.615 37.0906 123.611 37.1884 123.611 37.3141L123.605 37.9165V38.2832C123.988 38.2937 124.35 38.2989 124.692 38.2989C125.16 38.2989 125.516 38.2937 125.76 38.2832V37.9165L125.755 37.4058C125.753 37.2067 125.748 37.0784 125.739 37.0207C125.731 36.9631 125.719 36.9247 125.703 36.9055C125.687 36.8863 125.656 36.8706 125.609 36.8583C125.561 36.8461 125.444 36.8365 125.258 36.8295L125.239 36.8112V36.6802L125.258 36.6619C125.705 36.6759 125.955 36.6828 126.009 36.6828C126.069 36.6828 126.319 36.6759 126.761 36.6619L126.782 36.6802V36.8112L126.761 36.8295C126.639 36.833 126.544 36.8383 126.478 36.8452C126.413 36.8522 126.366 36.8653 126.337 36.8845C126.307 36.9037 126.288 36.9491 126.279 37.0207C126.27 37.0906 126.265 37.1884 126.263 37.3141L126.258 37.9165V39.1293L126.263 39.64C126.265 39.8373 126.27 39.9648 126.279 40.0224C126.288 40.0801 126.3 40.1185 126.316 40.1377C126.333 40.1569 126.364 40.1735 126.41 40.1875C126.457 40.1997 126.574 40.2093 126.761 40.2163L126.782 40.232V40.3629L126.761 40.3839C126.314 40.3699 126.063 40.3629 126.009 40.3629C125.953 40.3629 125.703 40.3699 125.258 40.3839L125.239 40.3629V40.232L125.258 40.2163C125.422 40.2093 125.531 40.2006 125.585 40.1901C125.639 40.1796 125.675 40.1665 125.692 40.1508C125.71 40.1333 125.725 40.0975 125.737 40.0434C125.749 39.9893 125.755 39.8688 125.755 39.6819L125.76 39.1293V38.5321C125.244 38.5216 124.881 38.5163 124.674 38.5163C124.461 38.5163 124.105 38.5216 123.605 38.5321V39.1293L123.608 39.64C123.61 39.8373 123.615 39.9648 123.624 40.0224C123.632 40.0801 123.645 40.1185 123.66 40.1377C123.678 40.1569 123.71 40.1735 123.757 40.1875C123.804 40.1997 123.92 40.2093 124.105 40.2163L124.126 40.232V40.3629L124.105 40.3839C123.66 40.3699 123.41 40.3629 123.354 40.3629C123.3 40.3629 123.05 40.3699 122.605 40.3839L122.584 40.3629V40.232L122.605 40.2163C122.767 40.2093 122.876 40.2006 122.93 40.1901C122.984 40.1796 123.02 40.1665 123.037 40.1508C123.056 40.1333 123.071 40.0975 123.082 40.0434C123.094 39.9893 123.101 39.8688 123.103 39.6819L123.105 39.1293V37.9165L123.1 37.4058C123.098 37.2067 123.093 37.0784 123.084 37.0207C123.077 36.9631 123.065 36.9247 123.048 36.9055C123.032 36.8863 123 36.8706 122.953 36.8583C122.906 36.8461 122.79 36.8365 122.605 36.8295L122.584 36.8112V36.6802L122.605 36.6619Z" fill="white"/>
<path d="M127.038 38.5583C127.038 38.2963 127.076 38.0519 127.151 37.8249C127.226 37.5979 127.353 37.3883 127.533 37.1962C127.715 37.0024 127.933 36.8531 128.188 36.7483C128.443 36.6418 128.731 36.5886 129.052 36.5886C129.647 36.5886 130.121 36.7509 130.474 37.0757C130.827 37.3988 131.003 37.8406 131.003 38.4011C131.003 38.7957 130.917 39.1502 130.744 39.4645C130.571 39.7788 130.323 40.0233 130 40.1979C129.679 40.3726 129.317 40.4599 128.916 40.4599C128.631 40.4599 128.369 40.4127 128.13 40.3184C127.891 40.2224 127.687 40.0801 127.518 39.8915C127.35 39.7029 127.228 39.4846 127.151 39.2367C127.076 38.9887 127.038 38.7626 127.038 38.5583ZM127.583 38.3854C127.583 38.5984 127.617 38.828 127.685 39.0743C127.755 39.3187 127.858 39.5291 127.994 39.7055C128.132 39.8801 128.29 40.0102 128.468 40.0958C128.648 40.1813 128.852 40.2241 129.081 40.2241C129.351 40.2241 129.592 40.1621 129.804 40.0382C130.015 39.9142 130.175 39.7221 130.285 39.4619C130.395 39.2 130.45 38.9066 130.45 38.5818C130.45 38.2291 130.388 37.9104 130.262 37.6258C130.136 37.3412 129.957 37.1342 129.725 37.005C129.493 36.8758 129.235 36.8112 128.953 36.8112C128.528 36.8112 128.194 36.9439 127.95 37.2093C127.705 37.4747 127.583 37.8668 127.583 38.3854Z" fill="white"/>
<path d="M131.223 36.8295L131.202 36.8112V36.6802L131.223 36.6619C131.521 36.6759 131.752 36.6828 131.914 36.6828C131.975 36.6828 132.217 36.6759 132.64 36.6619C132.776 36.6584 132.874 36.6567 132.935 36.6567C133.171 36.6567 133.358 36.6802 133.496 36.7274C133.634 36.7745 133.745 36.8583 133.828 36.9788C133.912 37.0976 133.954 37.2329 133.954 37.3848C133.954 37.5786 133.884 37.7585 133.745 37.9244C133.605 38.0903 133.378 38.209 133.064 38.2806C133.252 38.2981 133.408 38.3234 133.53 38.3566C133.652 38.3898 133.758 38.4413 133.847 38.5111C133.936 38.5792 134.006 38.6683 134.056 38.7783C134.109 38.8883 134.135 39.0158 134.135 39.1607C134.135 39.2742 134.117 39.3894 134.082 39.5064C134.048 39.6234 133.983 39.7396 133.889 39.8548C133.796 39.9701 133.684 40.0687 133.551 40.1508C133.418 40.2329 133.282 40.2922 133.142 40.3289C133.004 40.3656 132.832 40.3839 132.626 40.3839C132.585 40.3839 132.459 40.3795 132.249 40.3708C132.017 40.3656 131.892 40.3629 131.872 40.3629C131.754 40.3629 131.608 40.3699 131.435 40.3839L131.414 40.3629V40.2765L131.435 40.2503C131.536 40.2049 131.595 40.1735 131.61 40.156C131.626 40.1386 131.638 39.984 131.647 39.6924C131.658 39.4008 131.663 39.1782 131.663 39.0245V38.0632L131.66 37.4686C131.66 37.3394 131.658 37.2346 131.655 37.1543C131.651 37.0723 131.646 37.0138 131.639 36.9788C131.634 36.9439 131.624 36.9195 131.61 36.9055C131.596 36.8915 131.576 36.8802 131.55 36.8714C131.526 36.861 131.483 36.8522 131.422 36.8452L131.223 36.8295ZM132.163 38.2047C132.25 38.2116 132.349 38.2151 132.459 38.2151C132.82 38.2151 133.072 38.1505 133.213 38.0213C133.354 37.8921 133.425 37.7148 133.425 37.4896C133.425 37.3586 133.398 37.2477 133.344 37.1569C133.29 37.0644 133.204 36.9937 133.087 36.9448C132.972 36.8959 132.815 36.8714 132.616 36.8714C132.454 36.8714 132.31 36.8845 132.187 36.9107C132.171 37.0679 132.163 37.342 132.163 37.7332V38.2047ZM132.168 40.1141C132.303 40.1455 132.441 40.1613 132.582 40.1613C132.832 40.1613 133.027 40.1211 133.169 40.0408C133.31 39.9605 133.414 39.8496 133.48 39.7081C133.548 39.5649 133.582 39.4095 133.582 39.2419C133.582 38.9904 133.511 38.7896 133.368 38.6395C133.226 38.4875 132.919 38.4116 132.446 38.4116C132.367 38.4116 132.273 38.4151 132.163 38.4221V39.3152L132.168 40.1141Z" fill="white"/>
<path d="M12.2866 27.1443C12.2866 28.8974 11.4382 30.256 9.7413 31.2199C8.90334 31.6948 7.82446 31.9323 6.50467 31.9323C6.08569 31.9323 5.74003 31.9288 5.4677 31.9219L2.96429 31.8695C2.07046 31.8695 1.37914 31.8904 0.890334 31.9323L0.785589 31.8276V31.5342L0.837961 31.4085C1.3547 31.0802 1.63402 30.8741 1.67592 30.7903C1.73877 30.6646 1.77718 30.2001 1.79114 29.3969L1.82257 27.05V21.738C1.82257 20.0757 1.77718 18.993 1.6864 18.4901C1.65148 18.2876 1.53277 18.1584 1.33026 18.1025C1.22552 18.0745 0.817012 18.0396 0.104745 17.9977L0 17.8929V17.1805L0.104745 17.0862C0.726233 17.1281 1.79463 17.1491 3.30995 17.1491C4.2736 17.1491 5.14299 17.1316 5.9181 17.0967C6.5326 17.0687 7.05284 17.0548 7.4788 17.0548C9.42706 17.0548 10.705 17.4983 11.3125 18.3854C11.6337 18.8533 11.7943 19.3912 11.7943 19.9988C11.7943 20.9907 11.4067 21.8184 10.6316 22.4819C10.2615 22.7962 9.87747 23.0302 9.47943 23.1839C9.01856 23.3585 8.51578 23.5087 7.9711 23.6344C10.8481 23.7601 12.2866 24.9301 12.2866 27.1443ZM8.631 20.5122C8.631 18.9686 7.82795 18.1968 6.22186 18.1968C5.69115 18.1968 5.24075 18.2247 4.87065 18.2806C4.84272 19.014 4.82875 19.6915 4.82875 20.3132V23.2049C4.98936 23.2188 5.31058 23.2258 5.79241 23.2258C7.05633 23.2258 7.88731 22.8207 8.28534 22.0105C8.51578 21.5425 8.631 21.0431 8.631 20.5122ZM9.0814 27.4691C9.0814 25.3736 7.98158 24.3259 5.78193 24.3259C5.50261 24.3259 5.18488 24.3364 4.82875 24.3573V29.2083C4.82875 29.7321 4.84272 30.2455 4.87065 30.7484C5.15695 30.7973 5.55848 30.8217 6.07522 30.8217C7.05284 30.8217 7.807 30.5144 8.33771 29.8998C8.83351 29.313 9.0814 28.5028 9.0814 27.4691Z" fill="white"/>
<path d="M25.7149 28.3701C25.5613 29.3899 25.4845 30.5424 25.4845 31.8276L25.3797 31.9323L17.7648 31.8695C16.4939 31.8695 15.5965 31.8904 15.0728 31.9323L14.9681 31.8276V31.5342L15.0205 31.4085C15.5372 31.0802 15.8165 30.8741 15.8584 30.7903C15.9213 30.6576 15.9597 30.1931 15.9736 29.3969L16.0051 27.05V21.738C16.0051 20.0757 15.9597 18.993 15.8689 18.4901C15.834 18.2876 15.7153 18.1584 15.5128 18.1025C15.408 18.0745 14.9995 18.0396 14.2872 17.9977L14.1825 17.8929V17.1805L14.2872 17.0862C14.9925 17.1281 16.0819 17.1491 17.5553 17.1491C18.8681 17.1491 21.3645 17.1281 25.0446 17.0862L25.1598 17.17L25.0236 18.333C24.9817 18.7032 24.9503 19.0175 24.9293 19.2759L24.856 20.2503L24.7513 20.3655H24.1438L24.039 20.2608C24.032 19.3108 23.9762 18.7695 23.8714 18.6368C23.7946 18.539 23.4175 18.4622 22.7402 18.4063C22.0698 18.3504 21.4797 18.3225 20.97 18.3225C20.3625 18.3225 19.7479 18.3469 19.1265 18.3958C19.0496 19.1292 19.0112 20.1455 19.0112 21.4447V23.6135C19.5629 23.6484 20.0098 23.6658 20.352 23.6658L21.7241 23.6554C22.3666 23.6484 22.7297 23.596 22.8135 23.4982C22.9252 23.3725 22.9985 22.901 23.0335 22.0838L23.1382 21.979H23.7876L23.8924 22.0838C23.8644 22.8661 23.8505 23.582 23.8505 24.2316C23.8505 24.9371 23.8644 25.7089 23.8924 26.5471L23.7876 26.6414H23.0858L22.9811 26.5366C22.9811 25.7333 22.9252 25.2584 22.8135 25.1117C22.7018 24.958 22.3631 24.8568 21.7975 24.8079C21.3715 24.7729 20.9176 24.7555 20.4358 24.7555C19.926 24.7555 19.4512 24.7729 19.0112 24.8079V28.0034C19.0112 28.9184 19.0287 29.8055 19.0636 30.6646H20.4881C22.5272 30.6646 23.7771 30.5843 24.238 30.4236C24.3148 30.3957 24.3707 30.3573 24.4056 30.3084C24.4754 30.2106 24.5418 30.001 24.6046 29.6797L24.856 28.3806L24.9608 28.2653H25.5997L25.7149 28.3701Z" fill="white"/>
<path d="M41.3429 30.036L40.8611 31.1046C39.3877 31.9149 37.7397 32.32 35.9171 32.32C32.272 32.32 29.779 31.0068 28.4383 28.3806C27.8168 27.1652 27.5061 25.8486 27.5061 24.4307C27.5061 22.1397 28.2672 20.3132 29.7895 18.9511C31.3467 17.5472 33.4731 16.8452 36.1685 16.8452C37.8793 16.8452 39.5518 17.156 41.1858 17.7777L41.322 17.9348C41.0845 18.8987 40.9379 20.0268 40.882 21.319L40.7878 21.4237H40.1698L40.065 21.3085C40.0441 20.4633 40.0057 19.8766 39.9498 19.5483C39.0769 18.5635 37.8165 18.071 36.1685 18.071C34.4716 18.071 33.1414 18.6089 32.1777 19.6845C31.214 20.7602 30.7322 22.22 30.7322 24.064C30.7322 26.5575 31.5911 28.4714 33.309 29.8055C34.2237 30.5179 35.4492 30.8741 36.9855 30.8741C38.3821 30.8741 39.7473 30.5144 41.081 29.795L41.3429 30.036Z" fill="white"/>
<path d="M55.1902 27.3643C55.1902 28.9009 54.5722 30.0779 53.3362 30.8951C52.2818 31.6006 50.9411 31.9533 49.314 31.9533C48.9858 31.9533 48.3469 31.9358 47.3972 31.9009C46.8246 31.8799 46.3427 31.8695 45.9517 31.8695C45.6794 31.8695 44.6284 31.8904 42.7989 31.9323L42.6941 31.859V31.1256L42.8093 31.0208C43.4308 30.9859 43.8044 30.951 43.9301 30.916C44.1326 30.8602 44.2513 30.7309 44.2862 30.5284C44.377 30.0255 44.4224 28.9428 44.4224 27.2805V21.738C44.4224 20.0757 44.377 18.993 44.2862 18.4901C44.2513 18.2876 44.1326 18.1584 43.9301 18.1025C43.8114 18.0676 43.4343 18.0326 42.7989 17.9977L42.6941 17.8929V17.1805L42.7989 17.0862C43.3994 17.1281 44.4329 17.1491 45.8993 17.1491C46.6605 17.1491 47.7428 17.1281 49.1464 17.0862L49.2512 17.1805V17.8929L49.1464 17.9977C48.4341 18.0396 48.0256 18.0745 47.9209 18.1025C47.7184 18.1584 47.5997 18.2876 47.5648 18.4901C47.474 18.993 47.4286 20.0757 47.4286 21.738V23.4249C49.335 23.4249 50.7036 23.4982 51.5346 23.6449C53.9717 24.078 55.1902 25.3177 55.1902 27.3643ZM52.0269 27.5634C52.0269 26.5645 51.7336 25.7962 51.1471 25.2584C50.6233 24.7834 49.939 24.5285 49.094 24.4935C48.7449 24.4796 48.1897 24.4726 47.4286 24.4726V30.7484C47.7568 30.7973 48.1548 30.8217 48.6227 30.8217C49.4188 30.8217 49.9983 30.7589 50.3615 30.6332C50.8852 30.4446 51.3042 30.0674 51.6184 29.5016C51.8907 29.0057 52.0269 28.3596 52.0269 27.5634Z" fill="white"/>
<path d="M75.6574 17.1491C75.5736 17.6659 75.5282 18.2003 75.5212 18.7521L75.5003 20.5017L75.3955 20.6065H74.7357L74.6204 20.5122C74.5855 19.6182 74.5471 19.0943 74.5052 18.9406C74.4214 18.6613 74.198 18.4971 73.8348 18.4482C73.6952 18.4273 73.0388 18.4168 71.8656 18.4168H70.4621C70.4481 18.6613 70.4411 19.6321 70.4411 21.3294V27.2805C70.4411 28.9428 70.4865 30.0255 70.5773 30.5284C70.6122 30.7309 70.7309 30.8602 70.9334 30.916C71.0381 30.944 71.4466 30.9789 72.1589 31.0208L72.2637 31.1256V31.8276L72.1589 31.9323C71.4676 31.8904 70.3922 31.8695 68.9328 31.8695C67.4384 31.8695 66.363 31.8904 65.7066 31.9323L65.6124 31.838V31.1256L65.7171 31.0208C66.4294 30.9789 66.8379 30.944 66.9426 30.916C67.1451 30.8602 67.2638 30.7309 67.2987 30.5284C67.3895 30.0255 67.4349 28.9428 67.4349 27.2805V21.3294C67.4349 19.6042 67.4244 18.6333 67.4035 18.4168H65.9056C64.6557 18.4168 63.9259 18.4552 63.7165 18.532C63.6047 18.5739 63.5279 18.6263 63.486 18.6892C63.4232 18.801 63.3708 19.0245 63.3289 19.3597C63.28 19.7299 63.2486 20.1106 63.2346 20.5017L63.1299 20.6065H62.47L62.3548 20.5017L62.3338 18.7102C62.3268 18.2072 62.2849 17.6869 62.2081 17.1491L62.3024 17.0443C62.7144 17.1141 64.2158 17.1491 66.8064 17.1491H71.0486C73.4368 17.1491 74.9382 17.1141 75.5527 17.0443L75.6574 17.1491Z" fill="white"/>
<path d="M92.2595 31.8276L92.1652 31.9323C90.615 31.8904 89.6793 31.8695 89.3581 31.8695C88.0732 31.8695 86.8791 31.8904 85.7758 31.9323L85.6815 31.8276V31.1675L85.7863 31.0522L86.6975 30.9999C87.0816 30.9789 87.2736 30.8427 87.2736 30.5912C87.2736 30.4446 87.1759 30.1163 86.9804 29.6064L86.1319 27.3957C85.1683 27.3817 84.1837 27.3748 83.1781 27.3748C82.6334 27.3748 81.8234 27.3817 80.748 27.3957L80.2871 28.6739C79.938 29.6448 79.7634 30.2525 79.7634 30.497C79.7634 30.7624 79.9275 30.9195 80.2557 30.9684C80.4373 30.9964 80.7934 31.0243 81.3241 31.0522L81.4289 31.157V31.8276L81.3241 31.9323C80.0323 31.8904 79.2013 31.8695 78.8312 31.8695C78.5449 31.8695 77.8361 31.8904 76.7049 31.9323L76.6001 31.838V31.157L76.7153 31.0522C77.4346 31.0103 77.8745 30.8671 78.0351 30.6227C78.2027 30.3782 78.8207 28.9219 79.8891 26.2537L82.623 19.4121C82.8255 18.8813 83.1327 18.0815 83.5447 17.0129H85.0321L90.5836 30.0779C90.8001 30.5738 90.9956 30.8532 91.1702 30.916C91.4006 30.9999 91.7323 31.0418 92.1652 31.0418L92.2595 31.157V31.8276ZM85.6187 26.1908L83.3771 20.7008L81.2298 26.1908C81.8025 26.2118 82.5462 26.2223 83.4609 26.2223C84.3478 26.2223 85.067 26.2118 85.6187 26.1908Z" fill="white"/>
<path d="M106.044 27.3643C106.044 28.9009 105.426 30.0779 104.19 30.8951C103.136 31.6006 101.795 31.9533 100.168 31.9533C99.8396 31.9533 99.2006 31.9358 98.2509 31.9009C97.6783 31.8799 97.1965 31.8695 96.8055 31.8695C96.4633 31.8695 95.3774 31.8904 93.5479 31.9323L93.4536 31.859V31.1256L93.5584 31.0208C94.2706 30.9789 94.6791 30.944 94.7839 30.916C94.9864 30.8602 95.1051 30.7309 95.14 30.5284C95.2308 30.0255 95.2762 28.9428 95.2762 27.2805V21.738C95.2762 20.0757 95.2308 18.993 95.14 18.4901C95.1051 18.2876 94.9864 18.1584 94.7839 18.1025C94.6791 18.0745 94.2706 18.0396 93.5584 17.9977L93.4536 17.8929V17.1805L93.5584 17.0862L99.2251 17.1491L103.551 17.1281C104.047 17.1141 104.466 17.0862 104.808 17.0443L104.923 17.1491C104.839 17.631 104.794 18.1514 104.787 18.7102L104.766 20.5017L104.661 20.6065H103.991L103.886 20.5122C103.865 20.1071 103.844 19.702 103.823 19.2969C103.747 18.759 103.558 18.4377 103.258 18.333C103.041 18.2561 102.329 18.2177 101.121 18.2177H98.3766C98.3138 19.9499 98.2824 21.0186 98.2824 21.4237V23.4249C100.189 23.4249 101.557 23.4982 102.388 23.6449C104.825 24.078 106.044 25.3177 106.044 27.3643ZM102.881 27.5634C102.881 26.5645 102.587 25.7962 102.001 25.2584C101.477 24.7834 100.793 24.5285 99.9478 24.4935C99.5987 24.4796 99.0435 24.4726 98.2824 24.4726V30.7484C98.6106 30.7973 99.0086 30.8217 99.4765 30.8217C100.273 30.8217 100.852 30.7589 101.215 30.6332C101.739 30.4446 102.158 30.0674 102.472 29.5016C102.745 29.0057 102.881 28.3596 102.881 27.5634Z" fill="white"/>
<path d="M123.432 31.8276L123.337 31.9323C121.787 31.8904 120.851 31.8695 120.53 31.8695C119.245 31.8695 118.051 31.8904 116.948 31.9323L116.854 31.8276V31.1675L116.958 31.0522L117.87 30.9999C118.254 30.9789 118.446 30.8427 118.446 30.5912C118.446 30.4446 118.348 30.1163 118.153 29.6064L117.304 27.3957C116.34 27.3817 115.356 27.3748 114.35 27.3748C113.806 27.3748 112.996 27.3817 111.92 27.3957L111.459 28.6739C111.11 29.6448 110.936 30.2525 110.936 30.497C110.936 30.7624 111.1 30.9195 111.428 30.9684C111.609 30.9964 111.966 31.0243 112.496 31.0522L112.601 31.157V31.8276L112.496 31.9323C111.204 31.8904 110.373 31.8695 110.003 31.8695C109.717 31.8695 109.008 31.8904 107.877 31.9323L107.772 31.838V31.157L107.887 31.0522C108.607 31.0103 109.047 30.8671 109.207 30.6227C109.375 30.3782 109.993 28.9219 111.061 26.2537L113.795 19.4121C113.998 18.8813 114.305 18.0815 114.717 17.0129H116.204L121.756 30.0779C121.972 30.5738 122.168 30.8532 122.342 30.916C122.573 30.9999 122.904 31.0418 123.337 31.0418L123.432 31.157V31.8276ZM116.791 26.1908L114.549 20.7008L112.402 26.1908C112.975 26.2118 113.718 26.2223 114.633 26.2223C115.52 26.2223 116.239 26.2118 116.791 26.1908Z" fill="white"/>
<path d="M140.076 31.8171L139.96 31.9428C138.92 31.8939 138.312 31.8695 138.138 31.8695C137.796 31.8695 137.485 31.8764 137.206 31.8904C136.794 31.9114 136.532 31.9219 136.42 31.9219C136.19 31.9219 135.994 31.859 135.833 31.7333C135.442 31.4329 134.943 30.9405 134.336 30.256L129.454 24.7974V27.2805C129.454 28.9428 129.5 30.0255 129.591 30.5284C129.626 30.7309 129.744 30.8602 129.947 30.916C130.052 30.944 130.46 30.9789 131.172 31.0208L131.277 31.1256V31.8276L131.183 31.9323C130.485 31.8904 129.409 31.8695 127.957 31.8695C126.455 31.8695 125.38 31.8904 124.73 31.9323L124.626 31.838V31.1256L124.73 31.0208C125.443 30.9789 125.851 30.944 125.956 30.916C126.159 30.8602 126.277 30.7309 126.312 30.5284C126.403 30.0255 126.448 28.9428 126.448 27.2805V21.738C126.448 20.0757 126.403 18.993 126.312 18.4901C126.277 18.2876 126.159 18.1584 125.956 18.1025C125.851 18.0745 125.443 18.0396 124.73 17.9977L124.626 17.8929V17.1805L124.73 17.0862C125.401 17.1281 126.476 17.1491 127.957 17.1491C129.472 17.1491 130.547 17.1281 131.183 17.0862L131.277 17.1805V17.8929L131.172 17.9977C130.46 18.0396 130.052 18.0745 129.947 18.1025C129.744 18.1584 129.626 18.2876 129.591 18.4901C129.5 18.993 129.454 20.0757 129.454 21.738V24.3364C129.797 23.9802 130.544 23.2153 131.696 22.0419C132.304 21.4202 132.733 20.9697 132.984 20.6903C133.669 19.929 134.126 19.3982 134.357 19.0978C134.734 18.6089 134.922 18.2631 134.922 18.0606C134.922 17.9767 134.891 17.9174 134.828 17.8825L134.713 17.7882V17.191L134.838 17.0862C135.607 17.1281 136.326 17.1491 136.996 17.1491C137.457 17.1491 138.141 17.1281 139.049 17.0862L139.164 17.191V17.8929L139.06 17.9872C138.305 18.0152 137.75 18.1095 137.394 18.2701C137.101 18.4028 136.64 18.7381 136.012 19.2759C135.313 19.8696 134.412 20.6973 133.309 21.759C132.897 22.1641 132.345 22.695 131.654 23.3515L137.646 29.575C138.47 30.4341 139.248 30.93 139.981 31.0627L140.076 31.1675V31.8171Z" fill="white"/>
<path d="M156.646 27.3643C156.646 28.9009 156.028 30.0779 154.792 30.8951C153.738 31.6006 152.397 31.9533 150.77 31.9533C150.442 31.9533 149.803 31.9358 148.853 31.9009C148.281 31.8799 147.799 31.8695 147.408 31.8695C146.737 31.8695 145.655 31.8904 144.161 31.9323L144.056 31.859V31.1256L144.161 31.0208C144.873 30.9789 145.281 30.944 145.386 30.916C145.589 30.8602 145.707 30.7309 145.742 30.5284C145.833 30.0255 145.879 28.9428 145.879 27.2805V18.2177C143.721 18.2177 142.548 18.2596 142.359 18.3434C142.122 18.4482 141.975 18.7905 141.919 19.3702C141.877 19.7823 141.849 20.1595 141.835 20.5017L141.731 20.6065H141.071L140.956 20.5017L140.935 18.7102C140.928 18.2072 140.886 17.6869 140.809 17.1491L140.903 17.0443C141.336 17.1141 142.761 17.1491 145.177 17.1491C147.425 17.1491 149.234 17.1281 150.603 17.0862L150.707 17.1805V17.8929L150.603 17.9977C149.89 18.0396 149.482 18.0745 149.377 18.1025C149.175 18.1584 149.056 18.2876 149.021 18.4901C148.93 18.993 148.885 20.0757 148.885 21.738V23.4249C150.791 23.4249 152.16 23.4982 152.991 23.6449C155.428 24.078 156.646 25.3177 156.646 27.3643ZM153.483 27.5634C153.483 26.5645 153.19 25.7962 152.603 25.2584C152.079 24.7834 151.395 24.5285 150.55 24.4935C150.201 24.4796 149.646 24.4726 148.885 24.4726V30.7484C149.213 30.7973 149.611 30.8217 150.079 30.8217C150.875 30.8217 151.454 30.7589 151.818 30.6332C152.341 30.4446 152.76 30.0674 153.075 29.5016C153.347 29.0057 153.483 28.3596 153.483 27.5634Z" fill="white"/>
<path d="M127.931 54.2234C127.597 55.748 127.261 57.2907 127.301 58.851C127.341 60.4113 127.795 62.0158 128.859 63.1578C130.064 64.452 131.908 64.9949 133.676 64.9997C136.204 65.0066 138.719 63.9901 140.532 62.229C142.344 60.4681 143.539 58.114 143.606 55.5872C143.435 55.4055 143.204 55.23 142.956 55.2534C143.196 54.5344 143.441 53.8042 143.874 53.1822C144.307 52.5602 144.825 52.034 145.578 51.9555C145.078 49.4278 146.335 46.5844 148.233 44.9001C150.131 43.2166 152.835 42.4876 155.322 42.9895C155.349 43.3609 155.672 43.4659 156.043 43.4349C156.476 43.3988 156.868 43.0649 156.972 42.6432C157.076 42.2216 156.885 41.7437 156.518 41.5102C156.152 41.2769 155.638 41.3054 155.3 41.5779C152.949 41.1718 150.38 41.5564 148.249 42.631C146.119 43.7055 144.348 45.4789 143.276 47.6112C143.007 48.1454 142.777 48.7082 142.396 49.1692C142.015 49.6302 141.441 49.983 140.847 49.9158C141.165 51.1959 140.912 52.7534 140.11 53.8004C139.798 53.6741 139.526 53.8638 139.28 54.0934C139.034 54.323 138.881 54.6319 138.72 54.9273C137.978 56.2867 136.959 57.4943 135.745 58.4549C135.473 56.8773 135.333 55.2773 135.326 53.6766C133.615 53.0305 131.873 52.7722 130.066 53.0531C129.292 53.1733 128.099 53.4582 127.931 54.2234Z" fill="white"/>
<path d="M143.124 50.0815C143.617 48.7374 144.542 47.4918 145.287 46.2759C145.299 46.2554 145.328 46.2733 145.318 46.2944C144.724 47.5788 144.206 49.0364 143.368 50.1847C143.286 50.2983 143.067 50.2348 143.124 50.0815Z" fill="black"/>
<path d="M144.33 51.5266C143.805 51.395 143.298 51.1757 142.79 50.9907C142.279 50.8044 141.736 50.6465 141.263 50.3763C141.227 50.356 141.252 50.306 141.289 50.3131C141.819 50.4149 142.329 50.6451 142.833 50.8334C143.346 51.025 143.879 51.1901 144.369 51.4337C144.422 51.4601 144.384 51.5402 144.33 51.5266Z" fill="black"/>
<path d="M141.258 54.4825C141.305 54.0441 141.463 53.6329 141.622 53.2241C141.778 52.8216 141.896 52.4048 142.081 52.014C142.093 51.9887 142.126 52.0083 142.123 52.0314C142.061 52.4556 141.933 52.8662 141.838 53.2838C141.742 53.711 141.65 54.1426 141.446 54.5332C141.401 54.6182 141.248 54.5831 141.258 54.4825Z" fill="black"/>
<path d="M139.744 54.3862C140.319 54.4693 140.887 54.8347 141.407 55.0804C141.989 55.3553 142.613 55.611 143.132 55.9942C143.168 56.0202 143.148 56.0789 143.102 56.0672C142.523 55.9218 141.974 55.6341 141.437 55.3803C140.872 55.1135 140.162 54.8904 139.698 54.4657C139.659 54.43 139.702 54.38 139.744 54.3862Z" fill="black"/>
<path d="M138.525 56.861C139.077 57.3364 139.589 57.7729 140.248 58.0958C140.994 58.4609 141.756 58.5437 142.568 58.633C142.597 58.6362 142.609 58.6814 142.575 58.6882C141.126 58.9798 139.212 58.1931 138.39 56.9658C138.332 56.8796 138.455 56.8003 138.525 56.861Z" fill="black"/>
<path d="M139.511 55.2143C139.724 55.2833 139.916 55.4065 140.112 55.5132C140.327 55.6304 140.592 55.7314 140.752 55.922C140.781 55.956 140.753 55.9985 140.711 55.9924C140.492 55.9606 140.296 55.8174 140.106 55.7097C139.886 55.5852 139.649 55.4752 139.455 55.3118C139.41 55.2738 139.457 55.1968 139.511 55.2143Z" fill="black"/>
<path d="M139.508 55.5508C139.666 55.6481 139.809 55.7601 139.951 55.879C140.038 55.9521 139.912 56.078 139.826 56.0042C139.69 55.8883 139.561 55.77 139.443 55.6356C139.404 55.5911 139.454 55.5172 139.508 55.5508Z" fill="black"/>
<path d="M139.032 55.7179C139.152 55.8023 139.271 55.8879 139.39 55.9733C139.486 56.0419 139.632 56.1213 139.661 56.2406C139.667 56.2657 139.649 56.2915 139.622 56.2913C139.508 56.2903 139.423 56.1885 139.339 56.1206C139.211 56.0187 139.092 55.9061 138.97 55.7976C138.928 55.7595 138.984 55.6845 139.032 55.7179Z" fill="black"/>
<path d="M138.915 56.1C139.05 56.2281 139.182 56.3555 139.329 56.4691C139.468 56.5757 139.682 56.6276 139.793 56.7577C139.839 56.8106 139.807 56.8797 139.74 56.8869C139.562 56.9061 139.363 56.7415 139.229 56.6403C139.063 56.514 138.922 56.351 138.837 56.1602C138.814 56.1103 138.872 56.059 138.915 56.1Z" fill="black"/>
<path d="M138.841 56.5962C138.976 56.7301 139.093 56.8718 139.248 56.9844C139.395 57.0907 139.572 57.1493 139.712 57.2632C139.745 57.2896 139.716 57.3368 139.681 57.3389C139.324 57.3602 138.882 56.9828 138.738 56.676C138.707 56.6105 138.786 56.5407 138.841 56.5962Z" fill="black"/>
<path d="M139.107 59.453C139.105 59.4184 139.103 59.3837 139.1 59.3491H139.218C138.689 60.2663 137.976 61.234 137.15 61.9038C137.107 61.9384 137.057 61.8869 137.091 61.8442C137.763 60.9844 138.469 60.1745 139.1 59.2801C139.138 59.2266 139.227 59.2427 139.228 59.3145C139.229 59.4312 139.239 59.4078 139.15 59.4858C139.127 59.5054 139.091 59.4804 139.107 59.453Z" fill="black"/>
<path d="M134.424 53.7467C134.642 53.9037 134.522 54.1485 134.332 54.2685C134.139 54.3897 133.803 54.3699 133.584 54.3827C133.282 54.4003 132.948 54.4762 132.656 54.3808C132.594 54.3604 132.601 54.2848 132.656 54.262C132.868 54.1738 133.096 54.1935 133.323 54.1887C133.453 54.1859 133.584 54.1868 133.714 54.184C133.801 54.1824 133.888 54.1855 133.974 54.1932C134.183 54.2203 134.315 54.0946 134.37 53.8163C134.337 53.7808 134.382 53.7162 134.424 53.7467Z" fill="black"/>
<path d="M129.614 54.351C129.311 54.4481 128.87 54.506 128.662 54.2009C128.541 54.0241 128.597 53.6975 128.811 53.6233C128.82 53.6198 128.825 53.6337 128.817 53.639C128.625 53.7787 128.747 53.9917 128.888 54.1115C129.067 54.2638 129.379 54.1877 129.589 54.1664C129.699 54.1553 129.711 54.3201 129.614 54.351Z" fill="black"/>
<path d="M134.48 56.586C134.157 56.7633 133.754 56.7464 133.392 56.7746C132.856 56.8165 132.319 56.8272 131.782 56.8242C130.821 56.8191 129.852 56.7574 128.918 56.515C128.876 56.5039 128.885 56.4373 128.929 56.4386C129.881 56.4655 130.829 56.5603 131.782 56.5736C132.26 56.5802 132.737 56.5638 133.214 56.5415C133.621 56.5224 134.075 56.4072 134.471 56.5188C134.501 56.5273 134.508 56.5705 134.48 56.586Z" fill="black"/>
<path d="M132.071 55.1262C131.605 55.2035 131.113 55.1401 130.642 55.1207C130.113 55.099 129.573 55.0965 129.047 55.0315C128.921 55.016 128.913 54.8312 129.047 54.8285C129.577 54.8177 130.114 54.871 130.642 54.9039C131.114 54.9332 131.614 54.919 132.071 55.0449C132.109 55.0553 132.114 55.1191 132.071 55.1262Z" fill="black"/>
<path d="M131.505 55.6031C130.67 55.6273 129.818 55.5381 128.985 55.4734C128.843 55.4624 128.841 55.242 128.985 55.2508C129.827 55.3024 130.69 55.3332 131.523 55.4737C131.599 55.4865 131.577 55.6011 131.505 55.6031Z" fill="black"/>
<path d="M131.454 55.9813C131.067 56.1311 130.615 56.093 130.205 56.0782C129.811 56.064 129.29 56.0616 128.953 55.843C128.92 55.8213 128.919 55.7582 128.965 55.7502C129.368 55.6802 129.798 55.8205 130.205 55.8526C130.619 55.8852 131.048 55.8191 131.454 55.9C131.499 55.909 131.489 55.9677 131.454 55.9813Z" fill="black"/>
<path d="M29.0691 54.2235C29.4033 55.7481 29.7395 57.2908 29.6994 58.8511C29.6595 60.4114 29.205 62.0159 28.1413 63.1579C26.9358 64.4522 25.092 64.9951 23.3235 64.9998C20.7965 65.0067 18.2813 63.9902 16.4685 62.2292C14.6556 60.4682 13.4615 58.1141 13.3944 55.5874C13.5654 55.4056 13.7958 55.2301 14.0442 55.2535C13.8045 54.5345 13.5593 53.8044 13.1263 53.1823C12.6934 52.5603 12.1754 52.0341 11.4217 51.9556C11.9218 49.428 10.6653 46.5845 8.76687 44.9002C6.86927 43.2167 4.16481 42.4877 1.67845 42.9896C1.65142 43.361 1.32758 43.466 0.956555 43.435C0.523889 43.3989 0.132257 43.065 0.0282259 42.6433C-0.075896 42.2217 0.115357 41.7438 0.481501 41.5104C0.847735 41.277 1.36157 41.3055 1.6996 41.578C4.05102 41.172 6.61999 41.5566 8.75061 42.6311C10.8812 43.7056 12.6524 45.479 13.7243 47.6113C13.9929 48.1456 14.2232 48.7083 14.6038 49.1693C14.9845 49.6303 15.5593 49.9832 16.1532 49.9159C15.8351 51.196 16.0879 52.7536 16.8902 53.8005C17.202 53.6742 17.474 53.8639 17.7199 54.0935C17.9659 54.3231 18.1191 54.632 18.2804 54.9274C19.0223 56.2868 20.0408 57.4944 21.2554 58.4551C21.5268 56.8775 21.667 55.2774 21.6741 53.6767C23.3846 53.0307 25.1271 52.7723 26.9338 53.0532C27.7077 53.1734 28.9014 53.4583 29.0691 54.2235Z" fill="white"/>
<path d="M13.8764 50.0813C13.3828 48.7372 12.4575 47.4916 11.7134 46.2757C11.7008 46.2552 11.6719 46.2731 11.6817 46.2942C12.276 47.5786 12.7941 49.0362 13.6316 50.1845C13.7144 50.2981 13.9327 50.2346 13.8764 50.0813Z" fill="black"/>
<path d="M12.6701 51.5266C13.1945 51.395 13.7023 51.1757 14.21 50.9907C14.7207 50.8044 15.2636 50.6465 15.7375 50.3763C15.7732 50.356 15.748 50.306 15.7109 50.3131C15.1812 50.4149 14.6706 50.6451 14.1667 50.8334C13.6544 51.025 13.1211 51.1901 12.6309 51.4337C12.578 51.4601 12.6158 51.5402 12.6701 51.5266Z" fill="black"/>
<path d="M15.7396 54.4825C15.6931 54.0441 15.535 53.6329 15.3765 53.2241C15.2203 52.8216 15.1017 52.4048 14.9167 52.014C14.9047 51.9887 14.8718 52.0083 14.8752 52.0314C14.9372 52.4556 15.0654 52.8662 15.1598 53.2838C15.2563 53.711 15.3481 54.1426 15.5524 54.5332C15.5969 54.6182 15.7503 54.5831 15.7396 54.4825Z" fill="black"/>
<path d="M17.2557 54.3863C16.6814 54.4694 16.1134 54.8348 15.5931 55.0805C15.0113 55.3554 14.3875 55.6111 13.8676 55.9943C13.8324 56.0203 13.8521 56.079 13.8985 56.0673C14.477 55.922 15.0258 55.6342 15.563 55.3804C16.128 55.1136 16.8376 54.8905 17.302 54.4658C17.3409 54.4302 17.2984 54.3802 17.2557 54.3863Z" fill="black"/>
<path d="M18.4747 56.8611C17.9232 57.3365 17.4113 57.7731 16.7517 58.0959C16.0058 58.4611 15.2441 58.5439 14.432 58.6331C14.4029 58.6364 14.3911 58.6816 14.4246 58.6883C15.8738 58.9799 17.7878 58.1933 18.6104 56.9659C18.6681 56.8798 18.5452 56.8004 18.4747 56.8611Z" fill="black"/>
<path d="M17.4886 55.2145C17.2756 55.2836 17.0838 55.4067 16.8879 55.5135C16.6727 55.6307 16.4082 55.7316 16.248 55.9222C16.2195 55.9562 16.2471 55.9987 16.2891 55.9926C16.5084 55.9608 16.7043 55.8176 16.8944 55.7099C17.1143 55.5855 17.3514 55.4754 17.5453 55.3121C17.5903 55.2741 17.5425 55.1971 17.4886 55.2145Z" fill="black"/>
<path d="M17.4918 55.5508C17.334 55.6481 17.1911 55.7601 17.0491 55.879C16.9616 55.9521 17.0877 56.078 17.1743 56.0042C17.3103 55.8883 17.4393 55.77 17.5572 55.6356C17.5964 55.5911 17.5463 55.5172 17.4918 55.5508Z" fill="black"/>
<path d="M17.9682 55.7177C17.8482 55.8021 17.7291 55.8876 17.6099 55.9731C17.5143 56.0417 17.3679 56.121 17.3391 56.2404C17.333 56.2654 17.351 56.2913 17.3776 56.291C17.4919 56.29 17.5769 56.1882 17.6615 56.1203C17.7886 56.0184 17.9083 55.9059 18.0298 55.7974C18.0724 55.7592 18.0156 55.6843 17.9682 55.7177Z" fill="black"/>
<path d="M18.0853 56.1001C17.9502 56.2282 17.8184 56.3556 17.6706 56.4692C17.532 56.5758 17.3178 56.6277 17.2066 56.7578C17.1615 56.8107 17.1934 56.8798 17.2601 56.887C17.4375 56.9062 17.6369 56.7416 17.7706 56.6404C17.9373 56.5141 18.0778 56.3511 18.1633 56.1603C18.1857 56.1104 18.1285 56.0592 18.0853 56.1001Z" fill="black"/>
<path d="M18.1587 56.5965C18.0239 56.7305 17.9071 56.8722 17.7518 56.9847C17.605 57.0911 17.4282 57.1496 17.2876 57.2636C17.255 57.29 17.2843 57.3371 17.3189 57.3392C17.6762 57.3606 18.1175 56.9832 18.2622 56.6764C18.2931 56.6109 18.2144 56.5411 18.1587 56.5965Z" fill="black"/>
<path d="M17.8926 59.4533C17.8949 59.4187 17.8972 59.384 17.8995 59.3493H17.7816C18.3106 60.2665 19.0244 61.2342 19.8498 61.904C19.8925 61.9387 19.9429 61.8871 19.9094 61.8445C19.2368 60.9846 18.531 60.1747 17.8995 59.2803C17.8617 59.2268 17.7727 59.2429 17.7723 59.3148C17.7714 59.4314 17.761 59.408 17.8502 59.486C17.8726 59.5056 17.9089 59.4807 17.8926 59.4533Z" fill="black"/>
<path d="M22.5761 53.7468C22.3576 53.9039 22.4777 54.1487 22.6683 54.2687C22.8611 54.3899 23.1973 54.3701 23.4164 54.3829C23.7178 54.4005 24.0524 54.4764 24.3437 54.381C24.4057 54.3606 24.3985 54.285 24.3437 54.2622C24.132 54.174 23.9035 54.1937 23.6766 54.1888C23.5466 54.186 23.4163 54.1869 23.2862 54.1841C23.1993 54.1826 23.1125 54.1857 23.0259 54.1934C22.8169 54.2205 22.6848 54.0948 22.6298 53.8165C22.6626 53.781 22.6185 53.7164 22.5761 53.7468Z" fill="black"/>
<path d="M27.3838 54.3511C27.6867 54.4482 28.1285 54.5062 28.3362 54.201C28.4566 54.0242 28.4014 53.6977 28.1875 53.6234C28.1776 53.6199 28.1735 53.6338 28.1808 53.6392C28.3735 53.7788 28.2509 53.9918 28.1101 54.1116C27.9311 54.264 27.6195 54.1878 27.4088 54.1665C27.299 54.1554 27.2874 54.3202 27.3838 54.3511Z" fill="black"/>
<path d="M22.5198 56.5863C22.8434 56.7636 23.2461 56.7466 23.6078 56.7749C24.1435 56.8167 24.6806 56.8275 25.2178 56.8245C26.1791 56.8193 27.1484 56.7577 28.0816 56.5152C28.1239 56.5042 28.1154 56.4375 28.0712 56.4388C27.119 56.4658 26.1708 56.5606 25.2178 56.5739C24.7405 56.5805 24.2631 56.564 23.7864 56.5417C23.3786 56.5226 22.9249 56.4074 22.5286 56.5191C22.4987 56.5276 22.4915 56.5707 22.5198 56.5863Z" fill="black"/>
<path d="M24.9286 55.1266C25.395 55.2039 25.8872 55.1405 26.3576 55.1212C26.8871 55.0995 27.4265 55.0969 27.9525 55.0319C28.079 55.0164 28.087 54.8316 27.9525 54.8289C27.4229 54.8181 26.8863 54.8715 26.3576 54.9043C25.8863 54.9337 25.3857 54.9195 24.9286 55.0453C24.8909 55.0557 24.8859 55.1195 24.9286 55.1266Z" fill="black"/>
<path d="M25.4947 55.6033C26.3301 55.6275 27.1822 55.5383 28.0149 55.4736C28.1566 55.4626 28.1588 55.2421 28.0149 55.251C27.1729 55.3025 26.3097 55.3334 25.4771 55.4739C25.4013 55.4867 25.4232 55.6012 25.4947 55.6033Z" fill="black"/>
<path d="M25.5438 55.9813C25.9312 56.1311 26.3832 56.093 26.7926 56.0782C27.1875 56.064 27.7081 56.0616 28.0448 55.843C28.0782 55.8213 28.079 55.7582 28.0327 55.7502C27.6298 55.6802 27.1997 55.8205 26.7926 55.8526C26.3786 55.8852 25.95 55.8191 25.5438 55.9C25.4989 55.909 25.5087 55.9677 25.5438 55.9813Z" fill="black"/>
</svg>
