<svg width="139" height="50" viewBox="0 0 139 50" fill="none" xmlns="http://www.w3.org/2000/svg">
<path d="M20.1314 35.4313L20.1105 35.4127V35.2922L20.1314 35.2736C20.2442 35.2721 20.3169 35.2667 20.3493 35.2574C20.3818 35.2466 20.4104 35.2265 20.4351 35.1971C20.4614 35.1662 20.5132 35.0673 20.5905 34.9004L20.8339 34.3718L21.4645 32.9436C21.5835 32.6639 21.7017 32.3841 21.8192 32.1044H21.9699L23.092 34.7427C23.1307 34.8308 23.1747 34.9267 23.2242 35.0302C23.2752 35.1338 23.3099 35.1948 23.3285 35.2134C23.3486 35.2319 23.3725 35.2466 23.4004 35.2574C23.4297 35.2667 23.4939 35.2721 23.5928 35.2736L23.6113 35.2922V35.4127L23.5928 35.4313C23.429 35.4174 23.2813 35.4104 23.15 35.4104C22.8934 35.4182 22.6368 35.4251 22.3803 35.4313L22.3617 35.4127V35.2922L22.3803 35.2736C22.5534 35.2705 22.6616 35.2636 22.7048 35.2528C22.7481 35.2404 22.7698 35.2134 22.7698 35.1716C22.7698 35.1376 22.7589 35.0928 22.7373 35.0372L22.4521 34.3301H21.1098L20.8571 34.9236C20.8122 35.0302 20.7898 35.1083 20.7898 35.1577C20.7898 35.1964 20.8107 35.225 20.8524 35.2435C20.8942 35.2621 20.9993 35.2721 21.1677 35.2736L21.1886 35.2922V35.4127L21.1701 35.4313C20.9707 35.4189 20.796 35.4127 20.6461 35.4127C20.4761 35.4127 20.3045 35.4189 20.1314 35.4313ZM21.1886 34.1307H22.3617L21.7798 32.7327L21.1886 34.1307Z" fill="#2A2A2A"/>
<path d="M26.9591 35.0209L26.871 35.2365C26.5279 35.4112 26.1616 35.4985 25.7721 35.4985C25.2141 35.4985 24.7605 35.3401 24.4112 35.0233C24.0634 34.7064 23.8895 34.2922 23.8895 33.7806C23.8895 33.4282 23.9761 33.1206 24.1492 32.8579C24.3239 32.5936 24.5534 32.3965 24.8378 32.2667C25.1237 32.1353 25.4444 32.0696 25.7999 32.0696C26.0055 32.0696 26.2087 32.0912 26.4096 32.1345C26.6106 32.1778 26.7783 32.2296 26.9127 32.2899L26.929 32.313C26.8934 32.3996 26.8602 32.6137 26.8293 32.9552L26.813 32.9738H26.7041L26.6855 32.9552L26.6624 32.5611C26.5495 32.4715 26.4127 32.4019 26.252 32.3525C26.0928 32.3014 25.9266 32.2759 25.7535 32.2759C25.4923 32.2759 25.2582 32.3324 25.0511 32.4452C24.844 32.5565 24.6832 32.7188 24.5688 32.9321C24.4545 33.1438 24.3973 33.4035 24.3973 33.711C24.3973 34.0202 24.4645 34.2914 24.599 34.5248C24.7334 34.7582 24.9166 34.9375 25.1484 35.0627C25.3818 35.1879 25.6538 35.2505 25.9645 35.2505C26.1021 35.2505 26.2342 35.2373 26.361 35.211C26.4877 35.1848 26.5928 35.1523 26.6763 35.1137C26.7613 35.075 26.8424 35.0279 26.9197 34.9722L26.9591 35.0209Z" fill="#2A2A2A"/>
<path d="M30.3254 35.0209L30.2373 35.2365C29.8942 35.4112 29.5279 35.4985 29.1384 35.4985C28.5804 35.4985 28.1268 35.3401 27.7775 35.0233C27.4297 34.7064 27.2559 34.2922 27.2559 33.7806C27.2559 33.4282 27.3424 33.1206 27.5155 32.8579C27.6902 32.5936 27.9197 32.3965 28.2041 32.2667C28.49 32.1353 28.8107 32.0696 29.1662 32.0696C29.3718 32.0696 29.575 32.0912 29.776 32.1345C29.9769 32.1778 30.1446 32.2296 30.2791 32.2899L30.2953 32.313C30.2597 32.3996 30.2265 32.6137 30.1956 32.9552L30.1794 32.9738H30.0704L30.0519 32.9552L30.0287 32.5611C29.9158 32.4715 29.7791 32.4019 29.6183 32.3525C29.4591 32.3014 29.293 32.2759 29.1199 32.2759C28.8587 32.2759 28.6245 32.3324 28.4174 32.4452C28.2103 32.5565 28.0495 32.7188 27.9352 32.9321C27.8208 33.1438 27.7636 33.4035 27.7636 33.711C27.7636 34.0202 27.8308 34.2914 27.9653 34.5248C28.0998 34.7582 28.2829 34.9375 28.5148 35.0627C28.7481 35.1879 29.0202 35.2505 29.3308 35.2505C29.4684 35.2505 29.6005 35.2373 29.7273 35.211C29.854 35.1848 29.9591 35.1523 30.0426 35.1137C30.1276 35.075 30.2087 35.0279 30.286 34.9722L30.3254 35.0209Z" fill="#2A2A2A"/>
<path d="M30.5689 33.8154C30.5689 33.5835 30.6021 33.3671 30.6686 33.1662C30.735 32.9653 30.8478 32.7798 31.007 32.6098C31.1678 32.4382 31.361 32.3061 31.5866 32.2133C31.8123 32.1191 32.0673 32.0719 32.3517 32.0719C32.8788 32.0719 33.2984 32.2157 33.6106 32.5032C33.9228 32.7891 34.0789 33.1801 34.0789 33.6763C34.0789 34.0256 34.0024 34.3393 33.8494 34.6175C33.6964 34.8957 33.4769 35.1121 33.191 35.2667C32.9066 35.4212 32.5866 35.4985 32.2312 35.4985C31.9792 35.4985 31.7474 35.4568 31.5356 35.3733C31.3239 35.2883 31.1431 35.1624 30.9931 34.9954C30.8448 34.8285 30.7366 34.6353 30.6686 34.4158C30.6021 34.1964 30.5689 33.9962 30.5689 33.8154ZM31.0511 33.6623C31.0511 33.8509 31.0812 34.0542 31.1415 34.2721C31.2033 34.4885 31.2945 34.6747 31.4151 34.8308C31.5372 34.9854 31.6771 35.1005 31.8347 35.1763C31.9939 35.252 32.1747 35.2899 32.3772 35.2899C32.6168 35.2899 32.8301 35.235 33.0171 35.1253C33.2041 35.0155 33.3463 34.8455 33.4437 34.6152C33.5411 34.3834 33.5897 34.1237 33.5897 33.8362C33.5897 33.524 33.5341 33.2419 33.4228 32.99C33.3115 32.7381 33.1531 32.5549 32.9475 32.4406C32.742 32.3262 32.514 32.269 32.2636 32.269C31.888 32.269 31.5921 32.3865 31.3757 32.6214C31.1593 32.8563 31.0511 33.2033 31.0511 33.6623Z" fill="#2A2A2A"/>
<path d="M36.5689 32.1531L36.5874 32.1368C36.5952 32.1368 36.6964 32.1399 36.8912 32.1461C37.0751 32.1523 37.1972 32.1554 37.2575 32.1554C37.2946 32.1554 37.514 32.1492 37.9159 32.1368L37.9344 32.1531V32.269L37.9159 32.2852C37.7799 32.2899 37.6848 32.2968 37.6307 32.3061C37.5782 32.3154 37.5434 32.33 37.5264 32.3501C37.5094 32.3687 37.4978 32.4011 37.4916 32.4475C37.4854 32.4923 37.4808 32.6113 37.4777 32.8045C37.4746 32.9977 37.4731 33.1453 37.4731 33.2474V35.1879L37.5102 35.225C37.7389 35.2234 37.9074 35.2141 38.0156 35.1971L38.0457 35.2412C37.9545 35.5843 37.8749 35.9491 37.8069 36.3355L37.7698 36.3726H37.7142L37.6748 36.3355C37.6825 36.0186 37.6864 35.8378 37.6864 35.793C37.6864 35.6585 37.6786 35.5719 37.6632 35.5333C37.6477 35.4947 37.6238 35.4692 37.5913 35.4568C37.5604 35.446 37.5179 35.4375 37.4638 35.4313C37.4097 35.4251 37.232 35.4205 36.9306 35.4174C36.6307 35.4143 36.4112 35.4127 36.2721 35.4127L35.3494 35.4174L34.5565 35.4243C34.5241 35.4243 34.4476 35.4267 34.327 35.4313L34.3084 35.4127V35.2968L34.327 35.2829C34.48 35.2767 34.5789 35.269 34.6238 35.2597C34.6686 35.2489 34.6987 35.2358 34.7142 35.2203C34.7296 35.2049 34.7412 35.1786 34.7489 35.1415C34.7567 35.1044 34.7621 34.9862 34.7652 34.7868C34.7683 34.5874 34.7698 34.4321 34.7698 34.3208V33.2474C34.7698 33.0959 34.7675 32.9274 34.7629 32.7419C34.7598 32.5565 34.7536 32.4475 34.7443 32.4151C34.7366 32.381 34.7242 32.3571 34.7072 32.3432C34.6918 32.3277 34.6601 32.3154 34.6122 32.3061C34.5642 32.2968 34.4692 32.2899 34.327 32.2852L34.3084 32.269V32.1531L34.327 32.1368C34.3347 32.1368 34.436 32.1399 34.6307 32.1461C34.8146 32.1523 34.9367 32.1554 34.997 32.1554C35.0341 32.1554 35.2544 32.1492 35.6578 32.1368L35.674 32.1531V32.269L35.6578 32.2852C35.5047 32.2899 35.4051 32.2976 35.3587 32.3084C35.3139 32.3177 35.2837 32.33 35.2683 32.3455C35.2544 32.361 35.2435 32.3872 35.2358 32.4243C35.2281 32.4614 35.2219 32.5781 35.2173 32.7744C35.2142 32.9707 35.2126 33.1283 35.2126 33.2474V35.2041L35.2381 35.2296H37.0048L37.0303 35.2041V33.2474C37.0303 33.0974 37.0279 32.9297 37.0233 32.7443C37.0202 32.5572 37.014 32.4467 37.0048 32.4127C36.997 32.3787 36.9847 32.3548 36.9677 32.3409C36.9522 32.327 36.9197 32.3154 36.8703 32.3061C36.8224 32.2968 36.7281 32.2899 36.5874 32.2852L36.5689 32.269V32.1531Z" fill="#2A2A2A"/>
<path d="M38.1709 35.4127V35.2968L38.1895 35.2829C38.3255 35.2783 38.4198 35.2713 38.4723 35.2621C38.5264 35.2528 38.5619 35.2381 38.5789 35.218C38.596 35.1979 38.6075 35.1655 38.6137 35.1206C38.6199 35.0743 38.6245 34.9591 38.6276 34.7752C38.6307 34.5897 38.6323 34.4382 38.6323 34.3208V33.2474C38.6323 33.0866 38.63 32.9158 38.6253 32.735C38.6222 32.5542 38.616 32.4475 38.6068 32.4151C38.599 32.381 38.5867 32.3571 38.5697 32.3432C38.5542 32.3277 38.5218 32.3154 38.4723 32.3061C38.4244 32.2968 38.3301 32.2899 38.1895 32.2852L38.1709 32.269V32.1531L38.1895 32.1368C38.1972 32.1368 38.2984 32.1399 38.4932 32.1461C38.6771 32.1523 38.7992 32.1554 38.8595 32.1554C38.8966 32.1554 39.116 32.1492 39.5179 32.1368L39.5365 32.1531V32.269L39.5179 32.2852C39.3819 32.2899 39.2868 32.2968 39.2327 32.3061C39.1802 32.3154 39.1454 32.33 39.1284 32.3501C39.1114 32.3687 39.0998 32.4004 39.0936 32.4452C39.0875 32.49 39.0828 32.6075 39.0797 32.7976C39.0766 32.9877 39.0751 33.1376 39.0751 33.2474V35.0279L39.1099 35.0441C39.436 34.5743 39.8054 34.0147 40.2181 33.3656C40.6307 32.7164 40.8834 32.3069 40.9762 32.1368C41.1385 32.1492 41.2892 32.1554 41.4283 32.1554C41.5859 32.1554 41.7358 32.1492 41.878 32.1368L41.8966 32.1531V32.269L41.878 32.2852C41.7266 32.2899 41.6277 32.2976 41.5813 32.3084C41.5365 32.3177 41.5063 32.33 41.4909 32.3455C41.4754 32.361 41.4638 32.3872 41.4561 32.4243C41.4484 32.4614 41.443 32.5781 41.4399 32.7744C41.4368 32.9707 41.4352 33.1283 41.4352 33.2474V34.3208C41.4352 34.4475 41.4368 34.6013 41.4399 34.7821C41.443 34.9614 41.4476 35.0743 41.4538 35.1206C41.46 35.167 41.4723 35.2002 41.4909 35.2203C41.5094 35.2389 41.5457 35.2528 41.5998 35.2621C41.6555 35.2713 41.7482 35.2775 41.878 35.2806L41.8966 35.2968V35.4127L41.878 35.4313C41.8703 35.4313 41.7691 35.4282 41.5743 35.422C41.395 35.4158 41.2729 35.4127 41.208 35.4127C41.1663 35.4127 40.9468 35.4189 40.5496 35.4313L40.531 35.4127V35.2968L40.5496 35.2806C40.6856 35.2775 40.7799 35.2713 40.8324 35.2621C40.8865 35.2512 40.9221 35.2365 40.9391 35.218C40.9561 35.1995 40.9677 35.1678 40.9739 35.1229C40.98 35.0766 40.9847 34.9591 40.9878 34.7705C40.9909 34.5804 40.9924 34.4305 40.9924 34.3208L40.9947 32.5912L40.9484 32.575C40.8139 32.7713 40.5017 33.2435 40.0117 33.9916L39.0797 35.4313C38.9483 35.4189 38.7961 35.4127 38.623 35.4127C38.5024 35.4127 38.3579 35.4189 38.1895 35.4313L38.1709 35.4127Z" fill="#2A2A2A"/>
<path d="M42.1145 35.4313L42.0937 35.4127V35.2922L42.1145 35.2736C42.2273 35.2721 42.3 35.2667 42.3324 35.2574C42.3649 35.2466 42.3935 35.2265 42.4182 35.1971C42.4445 35.1662 42.4963 35.0673 42.5736 34.9004L42.817 34.3718L43.4476 32.9436C43.5666 32.6639 43.6848 32.3841 43.8023 32.1044H43.953L45.0751 34.7427C45.1138 34.8308 45.1578 34.9267 45.2073 35.0302C45.2583 35.1338 45.293 35.1948 45.3116 35.2134C45.3317 35.2319 45.3556 35.2466 45.3835 35.2574C45.4128 35.2667 45.477 35.2721 45.5759 35.2736L45.5944 35.2922V35.4127L45.5759 35.4313C45.4121 35.4174 45.2645 35.4104 45.1331 35.4104C44.8765 35.4182 44.6199 35.4251 44.3634 35.4313L44.3448 35.4127V35.2922L44.3634 35.2736C44.5365 35.2705 44.6447 35.2636 44.6879 35.2528C44.7312 35.2404 44.7529 35.2134 44.7529 35.1716C44.7529 35.1376 44.742 35.0928 44.7204 35.0372L44.4352 34.3301H43.0929L42.8402 34.9236C42.7954 35.0302 42.7729 35.1083 42.7729 35.1577C42.7729 35.1964 42.7938 35.225 42.8355 35.2435C42.8773 35.2621 42.9824 35.2721 43.1508 35.2736L43.1717 35.2922V35.4127L43.1532 35.4313C42.9538 35.4189 42.7791 35.4127 42.6292 35.4127C42.4592 35.4127 42.2876 35.4189 42.1145 35.4313ZM43.1717 34.1307H44.3448L43.7629 32.7327L43.1717 34.1307Z" fill="#2A2A2A"/>
<path d="M48.0867 32.1531L48.1053 32.1368C48.113 32.1368 48.2142 32.1399 48.409 32.1461C48.5929 32.1523 48.715 32.1554 48.7753 32.1554C48.8124 32.1554 49.0319 32.1492 49.4337 32.1368L49.4523 32.1531V32.269L49.4337 32.2852C49.2977 32.2899 49.2027 32.2968 49.1486 32.3061C49.096 32.3154 49.0612 32.33 49.0442 32.3501C49.0272 32.3687 49.0156 32.4011 49.0094 32.4475C49.0033 32.4923 48.9986 32.6113 48.9955 32.8045C48.9924 32.9977 48.9909 33.1453 48.9909 33.2474V35.1879L49.028 35.225C49.2567 35.2234 49.4252 35.2141 49.5334 35.1971L49.5635 35.2412C49.4724 35.5843 49.3928 35.9491 49.3248 36.3355L49.2877 36.3726H49.232L49.1926 36.3355C49.2003 36.0186 49.2042 35.8378 49.2042 35.793C49.2042 35.6585 49.1965 35.5719 49.181 35.5333C49.1656 35.4947 49.1416 35.4692 49.1091 35.4568C49.0782 35.446 49.0357 35.4375 48.9816 35.4313C48.9275 35.4251 48.7498 35.4205 48.4484 35.4174C48.1485 35.4143 47.9291 35.4127 47.79 35.4127L46.8672 35.4174L46.0743 35.4243C46.0419 35.4243 45.9654 35.4267 45.8448 35.4313L45.8263 35.4127V35.2968L45.8448 35.2829C45.9978 35.2767 46.0968 35.269 46.1416 35.2597C46.1864 35.2489 46.2165 35.2358 46.232 35.2203C46.2475 35.2049 46.2591 35.1786 46.2668 35.1415C46.2745 35.1044 46.2799 34.9862 46.283 34.7868C46.2861 34.5874 46.2876 34.4321 46.2876 34.3208V33.2474C46.2876 33.0959 46.2853 32.9274 46.2807 32.7419C46.2776 32.5565 46.2714 32.4475 46.2621 32.4151C46.2544 32.381 46.2421 32.3571 46.225 32.3432C46.2096 32.3277 46.1779 32.3154 46.13 32.3061C46.0821 32.2968 45.987 32.2899 45.8448 32.2852L45.8263 32.269V32.1531L45.8448 32.1368C45.8526 32.1368 45.9538 32.1399 46.1485 32.1461C46.3325 32.1523 46.4546 32.1554 46.5148 32.1554C46.5519 32.1554 46.7722 32.1492 47.1756 32.1368L47.1918 32.1531V32.269L47.1756 32.2852C47.0226 32.2899 46.9229 32.2976 46.8765 32.3084C46.8317 32.3177 46.8016 32.33 46.7861 32.3455C46.7722 32.361 46.7614 32.3872 46.7536 32.4243C46.7459 32.4614 46.7397 32.5781 46.7351 32.7744C46.732 32.9707 46.7305 33.1283 46.7305 33.2474V35.2041L46.756 35.2296H48.5226L48.5481 35.2041V33.2474C48.5481 33.0974 48.5458 32.9297 48.5411 32.7443C48.538 32.5572 48.5319 32.4467 48.5226 32.4127C48.5149 32.3787 48.5025 32.3548 48.4855 32.3409C48.47 32.327 48.4376 32.3154 48.3881 32.3061C48.3402 32.2968 48.2459 32.2899 48.1053 32.2852L48.0867 32.269V32.1531Z" fill="#2A2A2A"/>
<path d="M49.6887 35.4127V35.2968L49.7073 35.2829C49.8433 35.2783 49.9376 35.2713 49.9901 35.2621C50.0442 35.2528 50.0798 35.2381 50.0968 35.218C50.1138 35.1979 50.1254 35.1655 50.1316 35.1206C50.1377 35.0743 50.1424 34.9591 50.1455 34.7752C50.1486 34.5897 50.1501 34.4382 50.1501 34.3208V33.2474C50.1501 33.0866 50.1478 32.9158 50.1432 32.735C50.1401 32.5542 50.1339 32.4475 50.1246 32.4151C50.1169 32.381 50.1045 32.3571 50.0875 32.3432C50.0721 32.3277 50.0396 32.3154 49.9901 32.3061C49.9422 32.2968 49.8479 32.2899 49.7073 32.2852L49.6887 32.269V32.1531L49.7073 32.1368C49.715 32.1368 49.8163 32.1399 50.011 32.1461C50.1949 32.1523 50.317 32.1554 50.3773 32.1554C50.4144 32.1554 50.6339 32.1492 51.0357 32.1368L51.0543 32.1531V32.269L51.0357 32.2852C50.8997 32.2899 50.8047 32.2968 50.7506 32.3061C50.698 32.3154 50.6632 32.33 50.6462 32.3501C50.6292 32.3687 50.6176 32.4004 50.6115 32.4452C50.6053 32.49 50.6006 32.6075 50.5976 32.7976C50.5945 32.9877 50.5929 33.1376 50.5929 33.2474V35.0279L50.6277 35.0441C50.9538 34.5743 51.3232 34.0147 51.7359 33.3656C52.1486 32.7164 52.4013 32.3069 52.494 32.1368C52.6563 32.1492 52.807 32.1554 52.9461 32.1554C53.1038 32.1554 53.2537 32.1492 53.3959 32.1368L53.4144 32.1531V32.269L53.3959 32.2852C53.2444 32.2899 53.1455 32.2976 53.0991 32.3084C53.0543 32.3177 53.0242 32.33 53.0087 32.3455C52.9932 32.361 52.9817 32.3872 52.9739 32.4243C52.9662 32.4614 52.9608 32.5781 52.9577 32.7744C52.9546 32.9707 52.9531 33.1283 52.9531 33.2474V34.3208C52.9531 34.4475 52.9546 34.6013 52.9577 34.7821C52.9608 34.9614 52.9654 35.0743 52.9716 35.1206C52.9778 35.167 52.9902 35.2002 53.0087 35.2203C53.0272 35.2389 53.0636 35.2528 53.1177 35.2621C53.1733 35.2713 53.266 35.2775 53.3959 35.2806L53.4144 35.2968V35.4127L53.3959 35.4313C53.3881 35.4313 53.2869 35.4282 53.0922 35.422C52.9129 35.4158 52.7908 35.4127 52.7258 35.4127C52.6841 35.4127 52.4646 35.4189 52.0674 35.4313L52.0489 35.4127V35.2968L52.0674 35.2806C52.2034 35.2775 52.2977 35.2713 52.3503 35.2621C52.4044 35.2512 52.4399 35.2365 52.4569 35.218C52.4739 35.1995 52.4855 35.1678 52.4917 35.1229C52.4979 35.0766 52.5025 34.9591 52.5056 34.7705C52.5087 34.5804 52.5102 34.4305 52.5102 34.3208L52.5126 32.5912L52.4662 32.575C52.3317 32.7713 52.0195 33.2435 51.5296 33.9916L50.5976 35.4313C50.4662 35.4189 50.3139 35.4127 50.1408 35.4127C50.0203 35.4127 49.8758 35.4189 49.7073 35.4313L49.6887 35.4127Z" fill="#2A2A2A"/>
<path d="M54.9863 33.7597C54.6478 33.701 54.4051 33.5959 54.2583 33.4444C54.1115 33.293 54.0381 33.1129 54.0381 32.9042C54.0381 32.7744 54.0659 32.6585 54.1215 32.5565C54.1772 32.4529 54.256 32.3687 54.358 32.3038C54.4616 32.2373 54.5783 32.1925 54.7081 32.1693C54.8395 32.1461 54.9932 32.1345 55.1694 32.1345C55.29 32.1345 55.4245 32.1376 55.5729 32.1438C55.7722 32.1515 55.8897 32.1554 55.9253 32.1554C56.0644 32.1554 56.2784 32.1492 56.5674 32.1368L56.5837 32.1531V32.269L56.5674 32.2852C56.4283 32.2899 56.3325 32.2968 56.28 32.3061C56.2274 32.3154 56.1926 32.33 56.1756 32.3501C56.1586 32.3702 56.147 32.4027 56.1409 32.4475C56.1347 32.4923 56.13 32.6098 56.127 32.7999C56.1239 32.99 56.1223 33.1392 56.1223 33.2474V34.3208C56.1223 34.4413 56.1239 34.5928 56.127 34.7752C56.13 34.9576 56.1347 35.0727 56.1409 35.1206C56.147 35.167 56.1594 35.2002 56.178 35.2203C56.1965 35.2389 56.2328 35.2528 56.2869 35.2621C56.3426 35.2713 56.4361 35.2783 56.5674 35.2829L56.5837 35.2968V35.4127L56.5674 35.4313C56.5551 35.4313 56.4538 35.4282 56.2637 35.422C56.0798 35.4158 55.9569 35.4127 55.8951 35.4127C55.8627 35.4127 55.6432 35.4189 55.2367 35.4313L55.2181 35.4127V35.2968L55.2367 35.2829C55.3912 35.2767 55.4902 35.269 55.5334 35.2597C55.5783 35.2489 55.6084 35.2358 55.6239 35.2203C55.6393 35.2049 55.6509 35.1786 55.6586 35.1415C55.6664 35.1044 55.6718 34.9862 55.6749 34.7868C55.678 34.5874 55.6795 34.4321 55.6795 34.3208V32.3826L55.6609 32.3617C55.5172 32.3555 55.4021 32.3525 55.3155 32.3525C54.7745 32.3525 54.5041 32.5511 54.5041 32.9483C54.5041 33.1662 54.5883 33.3447 54.7568 33.4838C54.9252 33.6229 55.1996 33.694 55.5798 33.6971V33.762C55.348 34.0109 54.8951 34.5658 54.2212 35.4267C54.0667 35.4174 53.95 35.4127 53.8711 35.4127C53.7691 35.4127 53.6486 35.4174 53.5095 35.4267L53.4909 35.4058V35.2968L53.5095 35.2783C53.6177 35.2767 53.6911 35.2675 53.7297 35.2505C53.7699 35.2335 53.8317 35.1794 53.9152 35.0882C53.9987 34.997 54.1725 34.7883 54.4368 34.4622C54.7011 34.1345 54.8843 33.9004 54.9863 33.7597Z" fill="#2A2A2A"/>
<path d="M60.6873 32.1368L60.7081 32.1577C60.6942 32.2968 60.6873 32.5395 60.6873 32.8857L60.6687 32.9042H60.5597L60.5412 32.8834L60.5157 32.6701C60.5033 32.5557 60.4933 32.4861 60.4855 32.4614C60.4794 32.4351 60.4686 32.4166 60.4531 32.4058C60.4376 32.3934 60.3874 32.3834 60.3024 32.3756C60.2174 32.3679 60.1223 32.364 60.0172 32.364H59.5791C59.5667 32.7134 59.5605 32.9151 59.5605 32.9691V34.3208L59.5651 34.7729C59.5667 34.9475 59.5706 35.0611 59.5767 35.1137C59.5845 35.1647 59.5953 35.1987 59.6092 35.2157C59.6246 35.2311 59.6532 35.245 59.695 35.2574C59.7367 35.2682 59.8403 35.2767 60.0056 35.2829L60.0219 35.2968V35.4127L60.0056 35.4313C59.61 35.4189 59.3889 35.4127 59.3426 35.4127C59.2931 35.4127 59.0729 35.4189 58.6818 35.4313L58.6633 35.4127V35.2968L58.6818 35.2829C58.8271 35.2767 58.9229 35.269 58.9693 35.2597C59.0172 35.2505 59.0489 35.2389 59.0644 35.225C59.0814 35.2095 59.0953 35.1778 59.1061 35.1299C59.1169 35.082 59.1223 34.9753 59.1223 34.81L59.127 34.3208V32.9691C59.127 32.9444 59.1208 32.7427 59.1084 32.364H58.763C58.6208 32.364 58.4979 32.3671 58.3943 32.3733C58.2908 32.3795 58.2305 32.3957 58.2135 32.422C58.1981 32.4467 58.1834 32.5294 58.1695 32.6701L58.1463 32.8834L58.1254 32.9042H58.0188L58.0002 32.8857C57.9971 32.5132 57.9902 32.2705 57.9794 32.1577L58.0002 32.1368C58.2692 32.1492 58.7166 32.1554 59.3426 32.1554C59.9809 32.1554 60.4291 32.1492 60.6873 32.1368Z" fill="#2A2A2A"/>
<path d="M60.9029 35.4313L60.882 35.4127V35.2922L60.9029 35.2736C61.0157 35.2721 61.0883 35.2667 61.1208 35.2574C61.1533 35.2466 61.1818 35.2265 61.2066 35.1971C61.2328 35.1662 61.2846 35.0673 61.3619 34.9004L61.6053 34.3718L62.2359 32.9436C62.355 32.6639 62.4732 32.3841 62.5907 32.1044H62.7414L63.8635 34.7427C63.9021 34.8308 63.9462 34.9267 63.9956 35.0302C64.0466 35.1338 64.0814 35.1948 64.0999 35.2134C64.12 35.2319 64.144 35.2466 64.1718 35.2574C64.2012 35.2667 64.2653 35.2721 64.3642 35.2736L64.3828 35.2922V35.4127L64.3642 35.4313C64.2004 35.4174 64.0528 35.4104 63.9214 35.4104C63.6649 35.4182 63.4083 35.4251 63.1517 35.4313L63.1332 35.4127V35.2922L63.1517 35.2736C63.3248 35.2705 63.433 35.2636 63.4763 35.2528C63.5196 35.2404 63.5412 35.2134 63.5412 35.1716C63.5412 35.1376 63.5304 35.0928 63.5088 35.0372L63.2236 34.3301H61.8812L61.6285 34.9236C61.5837 35.0302 61.5613 35.1083 61.5613 35.1577C61.5613 35.1964 61.5822 35.225 61.6239 35.2435C61.6656 35.2621 61.7707 35.2721 61.9392 35.2736L61.9601 35.2922V35.4127L61.9415 35.4313C61.7421 35.4189 61.5675 35.4127 61.4175 35.4127C61.2475 35.4127 61.076 35.4189 60.9029 35.4313ZM61.9601 34.1307H63.1332L62.5512 32.7327L61.9601 34.1307Z" fill="#2A2A2A"/>
<path d="M65.5188 33.5464H65.7947C66.0482 33.5464 66.2646 33.558 66.4438 33.5812C66.6231 33.6044 66.7762 33.6508 66.9029 33.7203C67.0296 33.7899 67.127 33.8826 67.195 33.9985C67.263 34.1144 67.297 34.245 67.297 34.3903C67.297 34.5093 67.2723 34.6276 67.2228 34.745C67.1734 34.861 67.1015 34.9668 67.0072 35.0627C66.9129 35.1569 66.8102 35.2319 66.6989 35.2876C66.5891 35.3416 66.4786 35.3795 66.3673 35.4012C66.2561 35.4212 66.117 35.4313 65.95 35.4313C65.8635 35.4313 65.7383 35.4282 65.5744 35.422C65.4199 35.4158 65.3102 35.4127 65.2452 35.4127C65.0659 35.4127 64.8619 35.4189 64.6332 35.4313L64.6146 35.4127V35.2968L64.6332 35.2829C64.7692 35.2783 64.8635 35.2713 64.916 35.2621C64.9701 35.2528 65.0057 35.2381 65.0227 35.218C65.0397 35.1979 65.0513 35.1655 65.0574 35.1206C65.0636 35.0743 65.0683 34.9591 65.0714 34.7752C65.0744 34.5897 65.076 34.4382 65.076 34.3208V33.2474C65.076 33.0897 65.0737 32.9205 65.069 32.7396C65.0659 32.5572 65.0598 32.4491 65.0505 32.4151C65.0428 32.381 65.0304 32.3571 65.0134 32.3432C64.9979 32.3277 64.9662 32.3161 64.9183 32.3084C64.872 32.2991 64.7769 32.2914 64.6332 32.2852L64.6146 32.269V32.1531L64.6332 32.1368C64.8511 32.1492 65.4377 32.1554 66.3928 32.1554C66.45 32.1554 66.6548 32.1492 67.0072 32.1368L67.0443 32.1855C67.0196 32.3324 66.9987 32.5418 66.9817 32.8138L66.9678 32.8324H66.882L66.8612 32.8138L66.831 32.6376C66.8217 32.5727 66.8063 32.5201 66.7847 32.48C66.7646 32.4382 66.7344 32.4081 66.6942 32.3895C66.6541 32.3695 66.6046 32.3563 66.5459 32.3501C66.4887 32.3424 66.4114 32.3385 66.314 32.3385H65.5768L65.5397 32.378C65.5258 32.5619 65.5188 32.7667 65.5188 32.9923V33.5464ZM65.5188 35.2134L65.5559 35.2528C65.6888 35.2559 65.7823 35.2574 65.8364 35.2574C66.0544 35.2574 66.229 35.2257 66.3604 35.1624C66.4933 35.099 66.5984 34.9993 66.6757 34.8633C66.753 34.7273 66.7916 34.5758 66.7916 34.4089C66.7916 34.2651 66.7561 34.1345 66.685 34.0171C66.6154 33.8996 66.5126 33.8177 66.3766 33.7713C66.2421 33.7249 66.0219 33.7018 65.7159 33.7018H65.5188V35.2134Z" fill="#2A2A2A"/>
<path d="M67.5103 35.4313L67.4894 35.4127V35.2922L67.5103 35.2736C67.6231 35.2721 67.6958 35.2667 67.7282 35.2574C67.7607 35.2466 67.7893 35.2265 67.814 35.1971C67.8403 35.1662 67.8921 35.0673 67.9694 34.9004L68.2128 34.3718L68.8434 32.9436C68.9624 32.6639 69.0807 32.3841 69.1981 32.1044H69.3488L70.4709 34.7427C70.5096 34.8308 70.5536 34.9267 70.6031 35.0302C70.6541 35.1338 70.6889 35.1948 70.7074 35.2134C70.7275 35.2319 70.7514 35.2466 70.7793 35.2574C70.8086 35.2667 70.8728 35.2721 70.9717 35.2736L70.9902 35.2922V35.4127L70.9717 35.4313C70.8079 35.4174 70.6602 35.4104 70.5289 35.4104C70.2723 35.4182 70.0157 35.4251 69.7592 35.4313L69.7406 35.4127V35.2922L69.7592 35.2736C69.9323 35.2705 70.0405 35.2636 70.0837 35.2528C70.127 35.2404 70.1487 35.2134 70.1487 35.1716C70.1487 35.1376 70.1378 35.0928 70.1162 35.0372L69.831 34.3301H68.4887L68.236 34.9236C68.1912 35.0302 68.1687 35.1083 68.1687 35.1577C68.1687 35.1964 68.1896 35.225 68.2313 35.2435C68.2731 35.2621 68.3782 35.2721 68.5466 35.2736L68.5675 35.2922V35.4127L68.549 35.4313C68.3496 35.4189 68.1749 35.4127 68.025 35.4127C67.855 35.4127 67.6834 35.4189 67.5103 35.4313ZM68.5675 34.1307H69.7406L69.1587 32.7327L68.5675 34.1307Z" fill="#2A2A2A"/>
<path d="M74.5907 35.4127L74.5722 35.4313L73.8998 35.4127C73.8596 35.4127 73.6402 35.4189 73.2414 35.4313L73.2252 35.4127V35.2968L73.2414 35.2806C73.4748 35.2791 73.6069 35.2559 73.6379 35.211C73.6703 35.1647 73.6865 34.8679 73.6865 34.3208V33.6786C73.5088 33.8934 73.3341 34.0457 73.1626 34.1353C72.9926 34.2234 72.7986 34.2675 72.5807 34.2675C72.3535 34.2675 72.1657 34.2296 72.0173 34.1539C71.8705 34.0766 71.7623 33.9684 71.6927 33.8293C71.6247 33.6902 71.5907 33.4923 71.5907 33.2358V32.8555C71.5907 32.6608 71.5884 32.541 71.5837 32.4962C71.5807 32.4514 71.5752 32.4174 71.5675 32.3942C71.5613 32.371 71.5505 32.3532 71.5351 32.3409C71.5196 32.3285 71.4794 32.3169 71.4145 32.3061C71.3511 32.2953 71.2646 32.2883 71.1548 32.2852L71.1363 32.269V32.1531L71.1548 32.1368L71.8179 32.1554C71.8395 32.1554 71.9508 32.1523 72.1518 32.1461L72.4763 32.1368L72.4949 32.1531V32.269L72.4763 32.2852C72.3048 32.2852 72.1997 32.2914 72.161 32.3038C72.1239 32.3161 72.0977 32.3331 72.0822 32.3548C72.0667 32.3749 72.0544 32.4243 72.0451 32.5032C72.0374 32.5804 72.0335 32.7242 72.0335 32.9344V33.1871C72.0335 33.4359 72.0992 33.6314 72.2306 33.7736C72.3635 33.9158 72.5474 33.9869 72.7824 33.9869C72.9215 33.9869 73.059 33.9545 73.195 33.8896C73.3311 33.8231 73.4462 33.7389 73.5405 33.6368C73.6348 33.5333 73.6819 33.4498 73.6819 33.3865L73.6865 32.9205C73.6865 32.6113 73.6757 32.4305 73.6541 32.378C73.634 32.3254 73.4964 32.2945 73.2414 32.2852L73.2252 32.269V32.1531L73.2414 32.1368C73.5567 32.1492 73.7808 32.1554 73.9137 32.1554C74.0096 32.1554 74.229 32.1492 74.5722 32.1368L74.5907 32.1531V32.269L74.5722 32.2852C74.3388 32.2899 74.2074 32.3154 74.178 32.3617C74.1502 32.4081 74.1355 32.5719 74.134 32.8532L74.1294 33.2474V34.3208C74.1294 34.7999 74.1348 35.0681 74.1456 35.1253C74.158 35.1825 74.185 35.2211 74.2267 35.2412C74.27 35.2613 74.3852 35.2744 74.5722 35.2806L74.5907 35.2968V35.4127Z" fill="#2A2A2A"/>
<path d="M74.8434 32.1368C75.2375 32.1492 75.4586 32.1554 75.5065 32.1554C75.5575 32.1554 75.7793 32.1492 76.1719 32.1368L76.1904 32.1531V32.269L76.1719 32.2852C76.0652 32.2883 75.9825 32.2929 75.9238 32.2991C75.8666 32.3053 75.8249 32.3169 75.7986 32.3339C75.7723 32.3509 75.7546 32.3911 75.7453 32.4545C75.7376 32.5163 75.7337 32.6028 75.7337 32.7141L75.7291 33.2474V33.5719C76.0675 33.5812 76.3883 33.5858 76.6912 33.5858C77.1054 33.5858 77.4207 33.5812 77.6371 33.5719V33.2474L77.6325 32.7953C77.6309 32.6191 77.6263 32.5055 77.6186 32.4545C77.6108 32.4035 77.6 32.3695 77.5861 32.3525C77.5722 32.3355 77.5444 32.3215 77.5026 32.3107C77.4609 32.2999 77.3573 32.2914 77.192 32.2852L77.1757 32.269V32.1531L77.192 32.1368C77.5876 32.1492 77.8094 32.1554 77.8574 32.1554C77.9099 32.1554 78.1317 32.1492 78.5227 32.1368L78.5413 32.1531V32.269L78.5227 32.2852C78.4145 32.2883 78.3311 32.2929 78.2723 32.2991C78.2152 32.3053 78.1734 32.3169 78.1471 32.3339C78.1209 32.3509 78.1039 32.3911 78.0961 32.4545C78.0884 32.5163 78.0838 32.6028 78.0822 32.7141L78.0776 33.2474V34.3208L78.0822 34.7729C78.0838 34.9475 78.0884 35.0603 78.0961 35.1114C78.1039 35.1624 78.1147 35.1964 78.1286 35.2134C78.1441 35.2304 78.1719 35.245 78.2121 35.2574C78.2538 35.2682 78.3574 35.2767 78.5227 35.2829L78.5413 35.2968V35.4127L78.5227 35.4313C78.1271 35.4189 77.9053 35.4127 77.8574 35.4127C77.8079 35.4127 77.5861 35.4189 77.192 35.4313L77.1757 35.4127V35.2968L77.192 35.2829C77.3373 35.2767 77.4339 35.269 77.4818 35.2597C77.5297 35.2505 77.5614 35.2389 77.5768 35.225C77.5923 35.2095 77.6054 35.1778 77.6162 35.1299C77.6271 35.082 77.6325 34.9753 77.6325 34.81L77.6371 34.3208V33.7922C77.1796 33.7829 76.8589 33.7783 76.675 33.7783C76.4864 33.7783 76.1711 33.7829 75.7291 33.7922V34.3208L75.7314 34.7729C75.7329 34.9475 75.7376 35.0603 75.7453 35.1114C75.753 35.1624 75.7638 35.1964 75.7777 35.2134C75.7932 35.2304 75.8218 35.245 75.8635 35.2574C75.9053 35.2682 76.008 35.2767 76.1719 35.2829L76.1904 35.2968V35.4127L76.1719 35.4313C75.7777 35.4189 75.5559 35.4127 75.5065 35.4127C75.4586 35.4127 75.2375 35.4189 74.8434 35.4313L74.8249 35.4127V35.2968L74.8434 35.2829C74.9872 35.2767 75.083 35.269 75.1309 35.2597C75.1788 35.2505 75.2105 35.2389 75.226 35.225C75.243 35.2095 75.2561 35.1778 75.2654 35.1299C75.2762 35.082 75.2824 34.9753 75.2839 34.81L75.2862 34.3208V33.2474L75.2816 32.7953C75.2801 32.6191 75.2754 32.5055 75.2677 32.4545C75.2615 32.4035 75.2507 32.3695 75.2352 32.3525C75.2213 32.3355 75.1935 32.3215 75.1518 32.3107C75.11 32.2999 75.0073 32.2914 74.8434 32.2852L74.8249 32.269V32.1531L74.8434 32.1368Z" fill="#2A2A2A"/>
<path d="M78.7754 35.4127V35.2968L78.794 35.2829C78.93 35.2783 79.0243 35.2713 79.0768 35.2621C79.1309 35.2528 79.1665 35.2381 79.1835 35.218C79.2005 35.1979 79.2121 35.1655 79.2183 35.1206C79.2244 35.0743 79.2291 34.9591 79.2322 34.7752C79.2353 34.5897 79.2368 34.4382 79.2368 34.3208V33.2474C79.2368 33.1021 79.2345 32.9359 79.2298 32.7489C79.2268 32.5619 79.2206 32.4514 79.2113 32.4174C79.2036 32.3818 79.192 32.3571 79.1765 32.3432C79.1611 32.3277 79.1294 32.3161 79.0815 32.3084C79.0351 32.2991 78.9393 32.2914 78.794 32.2852L78.7754 32.269V32.1531L78.794 32.1368C78.8048 32.1368 78.906 32.1399 79.0977 32.1461C79.2816 32.1523 79.4037 32.1554 79.464 32.1554C79.4965 32.1554 79.7167 32.1492 80.1247 32.1368L80.141 32.1531V32.269L80.1247 32.2852C79.9702 32.2914 79.8705 32.2999 79.8257 32.3107C79.7809 32.32 79.7507 32.3324 79.7353 32.3478C79.7213 32.3633 79.7105 32.3895 79.7028 32.4266C79.6951 32.4637 79.6889 32.5804 79.6843 32.7767C79.6812 32.9715 79.6796 33.1283 79.6796 33.2474V33.5464H79.9555C80.1982 33.5464 80.4076 33.558 80.5838 33.5812C80.7615 33.6028 80.9161 33.6484 81.0475 33.718C81.1788 33.786 81.2801 33.8764 81.3512 33.9892C81.4223 34.1021 81.4578 34.2273 81.4578 34.3648C81.4578 34.5518 81.4007 34.7319 81.2863 34.905C81.1734 35.0766 81.0289 35.2072 80.8527 35.2968C80.6765 35.3865 80.4292 35.4313 80.1108 35.4313C80.0166 35.4313 79.8914 35.4282 79.7353 35.422C79.5884 35.4158 79.4787 35.4127 79.406 35.4127C79.2268 35.4127 79.0227 35.4189 78.794 35.4313L78.7754 35.4127ZM79.6796 33.7203V34.9027C79.6796 35.0155 79.6835 35.092 79.6912 35.1322C79.7005 35.1724 79.7128 35.2002 79.7283 35.2157C79.7453 35.2311 79.7785 35.2435 79.828 35.2528C79.879 35.2605 79.947 35.2644 80.032 35.2644C80.2546 35.2644 80.4323 35.2311 80.5652 35.1647C80.6997 35.0982 80.8017 35.0032 80.8713 34.8795C80.9408 34.7559 80.9756 34.6121 80.9756 34.4483C80.9756 34.3154 80.9517 34.2018 80.9037 34.1075C80.8574 34.0117 80.7878 33.9336 80.6951 33.8733C80.6023 33.8115 80.4972 33.7705 80.3798 33.7505C80.2623 33.7304 80.1116 33.7203 79.9277 33.7203H79.6796ZM81.3373 32.1368L81.6271 32.1461C81.8172 32.1523 81.9416 32.1554 82.0003 32.1554C82.0529 32.1554 82.2747 32.1492 82.6657 32.1368L82.6843 32.1531V32.269L82.6657 32.2852C82.5591 32.2883 82.4764 32.2929 82.4176 32.2991C82.3605 32.3053 82.3187 32.3169 82.2925 32.3339C82.2662 32.3509 82.2484 32.3911 82.2391 32.4545C82.2314 32.5163 82.2275 32.6028 82.2275 32.7141L82.2229 33.2474V34.3208L82.2252 34.7729C82.2268 34.9475 82.2314 35.0603 82.2391 35.1114C82.2469 35.1624 82.2577 35.1964 82.2716 35.2134C82.287 35.2304 82.3156 35.245 82.3574 35.2574C82.3991 35.2682 82.5019 35.2767 82.6657 35.2829L82.6843 35.2968V35.4127L82.6657 35.4313C82.658 35.4313 82.522 35.4267 82.2577 35.4174C82.1479 35.4143 82.0622 35.4127 82.0003 35.4127C81.9524 35.4127 81.7314 35.4189 81.3373 35.4313L81.3187 35.4127V35.2968L81.3373 35.2829C81.481 35.2767 81.5768 35.269 81.6248 35.2597C81.6727 35.2505 81.7044 35.2389 81.7198 35.225C81.7368 35.2095 81.7499 35.1778 81.7592 35.1299C81.77 35.082 81.7762 34.9753 81.7778 34.81L81.7801 34.3208V33.2474L81.7755 32.7953C81.7739 32.6191 81.7693 32.5055 81.7615 32.4545C81.7554 32.4035 81.7445 32.3695 81.7291 32.3525C81.7152 32.3355 81.6873 32.3215 81.6456 32.3107C81.6039 32.2999 81.5011 32.2914 81.3373 32.2852L81.3187 32.269V32.1531L81.3373 32.1368Z" fill="#2A2A2A"/>
<path d="M82.8744 35.4012V35.2899L82.8929 35.2713C82.9965 35.2698 83.066 35.2605 83.1016 35.2435C83.1371 35.225 83.1827 35.1809 83.2384 35.1114C83.294 35.0403 83.403 34.8919 83.5653 34.6662L84.1982 33.7875L83.7878 33.0897C83.7569 33.0372 83.6889 32.9359 83.5838 32.786C83.4802 32.6345 83.3983 32.5294 83.3381 32.4707C83.2793 32.412 83.2353 32.378 83.2059 32.3687C83.1765 32.3594 83.0954 32.3548 82.9625 32.3548L82.9416 32.3339V32.2365L82.9625 32.2157L83.6186 32.1067C83.6758 32.1438 83.7368 32.2056 83.8017 32.2922C83.8682 32.3772 83.964 32.5279 84.0892 32.7443L84.4787 33.4212L85.3643 32.1276C85.4957 32.1322 85.5753 32.1345 85.6031 32.1345C85.6155 32.1345 85.6874 32.1322 85.8188 32.1276L85.8373 32.1484V32.2528L85.8188 32.2713C85.7214 32.2759 85.6565 32.2852 85.624 32.2991C85.5931 32.3115 85.5521 32.344 85.5011 32.3965C85.4517 32.4491 85.3497 32.5797 85.1951 32.7883L84.7639 33.3726L84.59 33.6044L85.3759 34.8749C85.4501 34.9954 85.5096 35.0858 85.5545 35.1461C85.6008 35.2049 85.6379 35.2404 85.6657 35.2528C85.6936 35.2636 85.7569 35.2698 85.8558 35.2713L85.8744 35.2899V35.4035L85.8558 35.422C85.709 35.4158 85.6055 35.4127 85.5452 35.4127C85.4664 35.4127 85.3473 35.4158 85.1881 35.422C85.0954 35.2845 85.0096 35.1477 84.9308 35.0117L84.3211 33.9707L84.1518 34.2049C83.9292 34.5109 83.6673 34.9166 83.3659 35.422C83.2654 35.4158 83.1866 35.4127 83.1294 35.4127C83.0707 35.4127 82.9926 35.4158 82.8952 35.422L82.8744 35.4012Z" fill="#2A2A2A"/>
<path d="M91.5174 32.1438L91.5383 32.1623V32.2759L91.5197 32.2922C91.3497 32.2968 91.2438 32.3053 91.2021 32.3177C91.1619 32.33 91.1333 32.3509 91.1163 32.3803C91.0993 32.4081 91.0893 32.4637 91.0862 32.5472C91.0846 32.6307 91.0807 32.8664 91.0746 33.2543V34.3231C91.0746 34.4777 91.0769 34.6523 91.0815 34.8471C91.0862 35.0418 91.0954 35.1554 91.1093 35.1879C91.1248 35.2188 91.1519 35.242 91.1905 35.2574C91.2291 35.2713 91.3389 35.2806 91.5197 35.2852L91.5383 35.3015V35.4151L91.5174 35.4336C91.2654 35.4197 91.046 35.4127 90.859 35.4127C90.7322 35.4127 90.5166 35.4197 90.2121 35.4336L90.1913 35.4151V35.3038L90.2098 35.2852C90.3798 35.2806 90.4849 35.2721 90.5251 35.2597C90.5668 35.2474 90.5962 35.2273 90.6132 35.1995C90.6302 35.1701 90.6403 35.1129 90.6434 35.0279C90.6464 34.9429 90.6503 34.708 90.6549 34.3231V32.6214L89.8551 34.2953C89.6542 34.7141 89.4787 35.1083 89.3288 35.4777H89.2384C89.1518 35.2783 89.0807 35.1191 89.0251 35.0001L87.9169 32.6979V34.3185C87.9169 34.4699 87.9185 34.6446 87.9215 34.8424C87.9262 35.0387 87.9362 35.1523 87.9517 35.1832C87.9671 35.2141 87.9942 35.2373 88.0328 35.2528C88.0715 35.2682 88.1812 35.2775 88.362 35.2806L88.3806 35.2991V35.4104L88.3597 35.4313L88.2113 35.4243C88.0583 35.4166 87.927 35.4127 87.8172 35.4127C87.7678 35.4127 87.5831 35.4189 87.2631 35.4313L87.2446 35.4127V35.3015L87.2631 35.2806C87.4331 35.2775 87.5382 35.2698 87.5784 35.2574C87.6186 35.245 87.6472 35.2242 87.6642 35.1948C87.6827 35.1655 87.6928 35.1106 87.6943 35.0302C87.6974 34.9498 87.7013 34.7126 87.7059 34.3185V33.2566C87.7059 33.116 87.7036 32.9452 87.699 32.7443C87.6959 32.5418 87.6866 32.4251 87.6712 32.3942C87.6572 32.3617 87.631 32.3378 87.5923 32.3223C87.5537 32.3069 87.444 32.2976 87.2631 32.2945L87.2446 32.2759V32.1647L87.2654 32.1438C87.3721 32.1515 87.5158 32.1554 87.6967 32.1554C87.8667 32.1554 88.0151 32.1515 88.1418 32.1438C88.2716 32.4436 88.396 32.7149 88.5151 32.9576L89.3937 34.7613L90.1866 33.1083C90.4015 32.6616 90.546 32.3401 90.6202 32.1438C90.7685 32.1515 90.9146 32.1554 91.0583 32.1554C91.1882 32.1554 91.3412 32.1515 91.5174 32.1438Z" fill="#2A2A2A"/>
<path d="M91.7515 35.4313L91.7307 35.4127V35.2922L91.7515 35.2736C91.8644 35.2721 91.937 35.2667 91.9695 35.2574C92.0019 35.2466 92.0305 35.2265 92.0553 35.1971C92.0815 35.1662 92.1333 35.0673 92.2106 34.9004L92.454 34.3718L93.0846 32.9436C93.2036 32.6639 93.3219 32.3841 93.4393 32.1044H93.59L94.7122 34.7427C94.7508 34.8308 94.7948 34.9267 94.8443 35.0302C94.8953 35.1338 94.9301 35.1948 94.9486 35.2134C94.9687 35.2319 94.9927 35.2466 95.0205 35.2574C95.0499 35.2667 95.114 35.2721 95.2129 35.2736L95.2315 35.2922V35.4127L95.2129 35.4313C95.0491 35.4174 94.9015 35.4104 94.7701 35.4104C94.5135 35.4182 94.257 35.4251 94.0004 35.4313L93.9818 35.4127V35.2922L94.0004 35.2736C94.1735 35.2705 94.2817 35.2636 94.325 35.2528C94.3683 35.2404 94.3899 35.2134 94.3899 35.1716C94.3899 35.1376 94.3791 35.0928 94.3574 35.0372L94.0723 34.3301H92.7299L92.4772 34.9236C92.4324 35.0302 92.41 35.1083 92.41 35.1577C92.41 35.1964 92.4308 35.225 92.4726 35.2435C92.5143 35.2621 92.6194 35.2721 92.7879 35.2736L92.8087 35.2922V35.4127L92.7902 35.4313C92.5908 35.4189 92.4162 35.4127 92.2662 35.4127C92.0962 35.4127 91.9247 35.4189 91.7515 35.4313ZM92.8087 34.1307H93.9818L93.3999 32.7327L92.8087 34.1307Z" fill="#2A2A2A"/>
<path d="M96.3443 32.3385V34.3208C96.3443 34.4398 96.3458 34.5913 96.3489 34.7752C96.352 34.9591 96.3567 35.0743 96.3628 35.1206C96.369 35.167 96.3806 35.2002 96.3976 35.2203C96.4162 35.2389 96.4525 35.2528 96.5066 35.2621C96.5622 35.2713 96.6557 35.2783 96.7871 35.2829L96.8057 35.2968V35.4127L96.7871 35.4313C96.5414 35.4189 96.318 35.4127 96.1171 35.4127C95.9023 35.4127 95.6828 35.4189 95.4587 35.4313L95.4401 35.4127V35.2968L95.4587 35.2829C95.5947 35.2783 95.689 35.2713 95.7415 35.2621C95.7956 35.2528 95.8312 35.2381 95.8482 35.218C95.8652 35.1979 95.8768 35.1655 95.8829 35.1206C95.8891 35.0743 95.8938 34.9591 95.8969 34.7752C95.8999 34.5897 95.9015 34.4382 95.9015 34.3208V33.2474C95.9015 33.0897 95.8992 32.9205 95.8945 32.7396C95.8914 32.5572 95.8853 32.4491 95.876 32.4151C95.8683 32.381 95.8559 32.3571 95.8389 32.3432C95.8234 32.3277 95.7918 32.3161 95.7438 32.3084C95.6975 32.2991 95.6024 32.2914 95.4587 32.2852L95.4401 32.269V32.1531L95.4587 32.1368C95.6766 32.1492 96.2632 32.1554 97.2183 32.1554C97.2755 32.1554 97.4803 32.1492 97.8327 32.1368L97.8698 32.1855C97.8451 32.3324 97.8242 32.5418 97.8072 32.8138L97.7933 32.8324H97.7075L97.6867 32.8138L97.6565 32.6376C97.6472 32.5727 97.6318 32.5201 97.6102 32.48C97.5901 32.4382 97.5599 32.4081 97.5197 32.3895C97.4795 32.3695 97.4301 32.3563 97.3714 32.3501C97.3142 32.3424 97.2369 32.3385 97.1395 32.3385H96.3443Z" fill="#2A2A2A"/>
<path d="M97.9741 35.4313L97.9533 35.4127V35.2922L97.9741 35.2736C98.087 35.2721 98.1596 35.2667 98.1921 35.2574C98.2245 35.2466 98.2531 35.2265 98.2779 35.1971C98.3041 35.1662 98.3559 35.0673 98.4332 34.9004L98.6766 34.3718L99.3072 32.9436C99.4262 32.6639 99.5445 32.3841 99.6619 32.1044H99.8126L100.935 34.7427C100.973 34.8308 101.017 34.9267 101.067 35.0302C101.118 35.1338 101.153 35.1948 101.171 35.2134C101.191 35.2319 101.215 35.2466 101.243 35.2574C101.272 35.2667 101.337 35.2721 101.436 35.2736L101.454 35.2922V35.4127L101.436 35.4313C101.272 35.4174 101.124 35.4104 100.993 35.4104C100.736 35.4182 100.48 35.4251 100.223 35.4313L100.204 35.4127V35.2922L100.223 35.2736C100.396 35.2705 100.504 35.2636 100.548 35.2528C100.591 35.2404 100.612 35.2134 100.612 35.1716C100.612 35.1376 100.602 35.0928 100.58 35.0372L100.295 34.3301H98.9525L98.6998 34.9236C98.655 35.0302 98.6326 35.1083 98.6326 35.1577C98.6326 35.1964 98.6534 35.225 98.6952 35.2435C98.7369 35.2621 98.842 35.2721 99.0105 35.2736L99.0313 35.2922V35.4127L99.0128 35.4313C98.8134 35.4189 98.6387 35.4127 98.4888 35.4127C98.3188 35.4127 98.1472 35.4189 97.9741 35.4313ZM99.0313 34.1307H100.204L99.6225 32.7327L99.0313 34.1307Z" fill="#2A2A2A"/>
<path d="M102.474 33.66C102.476 33.5905 102.476 33.5511 102.476 33.5418C102.476 33.5263 102.476 33.5032 102.474 33.4722L102.507 33.4421C102.595 33.4514 102.675 33.456 102.748 33.456C102.895 33.456 103.012 33.4344 103.1 33.3911C103.188 33.3463 103.26 33.2736 103.316 33.1732C103.371 33.0727 103.399 32.9568 103.399 32.8254C103.399 32.6492 103.347 32.5086 103.242 32.4035C103.136 32.2984 102.981 32.2458 102.776 32.2458C102.575 32.2458 102.414 32.2999 102.293 32.4081C102.173 32.5163 102.09 32.6855 102.045 32.9158L102.02 32.9413H101.983L101.957 32.9158C101.949 32.7412 101.937 32.5719 101.92 32.4081C102.073 32.2953 102.226 32.2157 102.379 32.1693C102.534 32.1229 102.706 32.0997 102.896 32.0997C103.213 32.0997 103.454 32.1546 103.619 32.2644C103.785 32.3725 103.868 32.531 103.868 32.7396C103.868 32.9344 103.8 33.0982 103.664 33.2311C103.527 33.364 103.344 33.4545 103.112 33.5024V33.5418C103.391 33.5418 103.602 33.5665 103.745 33.616C103.888 33.6654 104.001 33.7543 104.083 33.8826C104.165 34.0109 104.206 34.1647 104.206 34.344C104.206 34.6639 104.087 34.9313 103.849 35.1461C103.611 35.361 103.274 35.4684 102.838 35.4684C102.637 35.4684 102.456 35.4475 102.293 35.4058C102.133 35.3625 101.991 35.2868 101.869 35.1786C101.881 35.0008 101.888 34.8756 101.888 34.803C101.888 34.7659 101.885 34.6461 101.881 34.4437L101.973 34.4089L101.999 34.4297C102.07 34.7358 102.17 34.9576 102.298 35.0951C102.428 35.2311 102.606 35.2991 102.834 35.2991C102.997 35.2991 103.143 35.2621 103.269 35.1879C103.396 35.1121 103.494 35.0008 103.564 34.854C103.633 34.7056 103.668 34.5511 103.668 34.3903C103.668 34.1647 103.602 33.9854 103.471 33.8525C103.341 33.718 103.138 33.6508 102.861 33.6508C102.747 33.6508 102.629 33.6647 102.507 33.6925L102.474 33.66Z" fill="#2A2A2A"/>
<path d="M104.57 35.4127V35.2968L104.589 35.2829C104.725 35.2783 104.819 35.2713 104.871 35.2621C104.925 35.2528 104.961 35.2381 104.978 35.218C104.995 35.1979 105.007 35.1655 105.013 35.1206C105.019 35.0743 105.024 34.9591 105.027 34.7752C105.03 34.5897 105.031 34.4382 105.031 34.3208V33.2474C105.031 33.0866 105.029 32.9158 105.024 32.735C105.021 32.5542 105.015 32.4475 105.006 32.4151C104.998 32.381 104.986 32.3571 104.969 32.3432C104.953 32.3277 104.921 32.3154 104.871 32.3061C104.823 32.2968 104.729 32.2899 104.589 32.2852L104.57 32.269V32.1531L104.589 32.1368C104.596 32.1368 104.698 32.1399 104.892 32.1461C105.076 32.1523 105.198 32.1554 105.259 32.1554C105.296 32.1554 105.515 32.1492 105.917 32.1368L105.936 32.1531V32.269L105.917 32.2852C105.781 32.2899 105.686 32.2968 105.632 32.3061C105.579 32.3154 105.545 32.33 105.528 32.3501C105.51 32.3687 105.499 32.4004 105.493 32.4452C105.487 32.49 105.482 32.6075 105.479 32.7976C105.476 32.9877 105.474 33.1376 105.474 33.2474V35.0279L105.509 35.0441C105.835 34.5743 106.204 34.0147 106.617 33.3656C107.03 32.7164 107.283 32.3069 107.375 32.1368C107.538 32.1492 107.688 32.1554 107.827 32.1554C107.985 32.1554 108.135 32.1492 108.277 32.1368L108.296 32.1531V32.269L108.277 32.2852C108.126 32.2899 108.027 32.2976 107.98 32.3084C107.936 32.3177 107.905 32.33 107.89 32.3455C107.875 32.361 107.863 32.3872 107.855 32.4243C107.847 32.4614 107.842 32.5781 107.839 32.7744C107.836 32.9707 107.834 33.1283 107.834 33.2474V34.3208C107.834 34.4475 107.836 34.6013 107.839 34.7821C107.842 34.9614 107.847 35.0743 107.853 35.1206C107.859 35.167 107.871 35.2002 107.89 35.2203C107.909 35.2389 107.945 35.2528 107.999 35.2621C108.055 35.2713 108.147 35.2775 108.277 35.2806L108.296 35.2968V35.4127L108.277 35.4313C108.269 35.4313 108.168 35.4282 107.973 35.422C107.794 35.4158 107.672 35.4127 107.607 35.4127C107.565 35.4127 107.346 35.4189 106.949 35.4313L106.93 35.4127V35.2968L106.949 35.2806C107.085 35.2775 107.179 35.2713 107.232 35.2621C107.286 35.2512 107.321 35.2365 107.338 35.218C107.355 35.1995 107.367 35.1678 107.373 35.1229C107.379 35.0766 107.384 34.9591 107.387 34.7705C107.39 34.5804 107.392 34.4305 107.392 34.3208L107.394 32.5912L107.347 32.575C107.213 32.7713 106.901 33.2435 106.411 33.9916L105.479 35.4313C105.347 35.4189 105.195 35.4127 105.022 35.4127C104.902 35.4127 104.757 35.4189 104.589 35.4313L104.57 35.4127Z" fill="#2A2A2A"/>
<path d="M108.548 32.1368C108.943 32.1492 109.164 32.1554 109.211 32.1554C109.262 32.1554 109.484 32.1492 109.877 32.1368L109.895 32.1531V32.269L109.877 32.2852C109.77 32.2883 109.687 32.2929 109.629 32.2991C109.572 32.3053 109.53 32.3169 109.504 32.3339C109.477 32.3509 109.46 32.3911 109.45 32.4545C109.443 32.5163 109.439 32.6028 109.439 32.7141L109.434 33.2474V33.5719C109.772 33.5812 110.093 33.5858 110.396 33.5858C110.81 33.5858 111.126 33.5812 111.342 33.5719V33.2474L111.337 32.7953C111.336 32.6191 111.331 32.5055 111.324 32.4545C111.316 32.4035 111.305 32.3695 111.291 32.3525C111.277 32.3355 111.249 32.3215 111.208 32.3107C111.166 32.2999 111.062 32.2914 110.897 32.2852L110.881 32.269V32.1531L110.897 32.1368C111.293 32.1492 111.514 32.1554 111.562 32.1554C111.615 32.1554 111.837 32.1492 112.228 32.1368L112.246 32.1531V32.269L112.228 32.2852C112.119 32.2883 112.036 32.2929 111.977 32.2991C111.92 32.3053 111.878 32.3169 111.852 32.3339C111.826 32.3509 111.809 32.3911 111.801 32.4545C111.793 32.5163 111.789 32.6028 111.787 32.7141L111.783 33.2474V34.3208L111.787 34.7729C111.789 34.9475 111.793 35.0603 111.801 35.1114C111.809 35.1624 111.82 35.1964 111.834 35.2134C111.849 35.2304 111.877 35.245 111.917 35.2574C111.959 35.2682 112.062 35.2767 112.228 35.2829L112.246 35.2968V35.4127L112.228 35.4313C111.832 35.4189 111.61 35.4127 111.562 35.4127C111.513 35.4127 111.291 35.4189 110.897 35.4313L110.881 35.4127V35.2968L110.897 35.2829C111.042 35.2767 111.139 35.269 111.187 35.2597C111.235 35.2505 111.266 35.2389 111.282 35.225C111.297 35.2095 111.31 35.1778 111.321 35.1299C111.332 35.082 111.337 34.9753 111.337 34.81L111.342 34.3208V33.7922C110.885 33.7829 110.564 33.7783 110.38 33.7783C110.191 33.7783 109.876 33.7829 109.434 33.7922V34.3208L109.436 34.7729C109.438 34.9475 109.443 35.0603 109.45 35.1114C109.458 35.1624 109.469 35.1964 109.483 35.2134C109.498 35.2304 109.527 35.245 109.568 35.2574C109.61 35.2682 109.713 35.2767 109.877 35.2829L109.895 35.2968V35.4127L109.877 35.4313C109.483 35.4189 109.261 35.4127 109.211 35.4127C109.164 35.4127 108.943 35.4189 108.548 35.4313L108.53 35.4127V35.2968L108.548 35.2829C108.692 35.2767 108.788 35.269 108.836 35.2597C108.884 35.2505 108.915 35.2389 108.931 35.225C108.948 35.2095 108.961 35.1778 108.97 35.1299C108.981 35.082 108.987 34.9753 108.989 34.81L108.991 34.3208V33.2474L108.987 32.7953C108.985 32.6191 108.98 32.5055 108.973 32.4545C108.966 32.4035 108.956 32.3695 108.94 32.3525C108.926 32.3355 108.898 32.3215 108.857 32.3107C108.815 32.2999 108.712 32.2914 108.548 32.2852L108.53 32.269V32.1531L108.548 32.1368Z" fill="#2A2A2A"/>
<path d="M112.473 33.8154C112.473 33.5835 112.507 33.3671 112.573 33.1662C112.64 32.9653 112.752 32.7798 112.912 32.6098C113.072 32.4382 113.266 32.3061 113.491 32.2133C113.717 32.1191 113.972 32.0719 114.256 32.0719C114.783 32.0719 115.203 32.2157 115.515 32.5032C115.827 32.7891 115.984 33.1801 115.984 33.6763C115.984 34.0256 115.907 34.3393 115.754 34.6175C115.601 34.8957 115.381 35.1121 115.096 35.2667C114.811 35.4212 114.491 35.4985 114.136 35.4985C113.884 35.4985 113.652 35.4568 113.44 35.3733C113.228 35.2883 113.048 35.1624 112.898 34.9954C112.749 34.8285 112.641 34.6353 112.573 34.4158C112.507 34.1964 112.473 33.9962 112.473 33.8154ZM112.956 33.6623C112.956 33.8509 112.986 34.0542 113.046 34.2721C113.108 34.4885 113.199 34.6747 113.32 34.8308C113.442 34.9854 113.582 35.1005 113.739 35.1763C113.898 35.252 114.079 35.2899 114.282 35.2899C114.521 35.2899 114.735 35.235 114.922 35.1253C115.109 35.0155 115.251 34.8455 115.348 34.6152C115.446 34.3834 115.494 34.1237 115.494 33.8362C115.494 33.524 115.439 33.2419 115.327 32.99C115.216 32.7381 115.058 32.5549 114.852 32.4406C114.647 32.3262 114.419 32.269 114.168 32.269C113.793 32.269 113.497 32.3865 113.28 32.6214C113.064 32.8563 112.956 33.2033 112.956 33.6623Z" fill="#2A2A2A"/>
<path d="M116.178 32.2852L116.16 32.269V32.1531L116.178 32.1368C116.443 32.1492 116.647 32.1554 116.79 32.1554C116.844 32.1554 117.058 32.1492 117.433 32.1368C117.553 32.1338 117.64 32.1322 117.694 32.1322C117.903 32.1322 118.069 32.1531 118.191 32.1948C118.313 32.2365 118.411 32.3107 118.485 32.4174C118.559 32.5225 118.596 32.6423 118.596 32.7767C118.596 32.9483 118.535 33.1075 118.411 33.2543C118.287 33.4011 118.086 33.5062 117.808 33.5696C117.975 33.5851 118.113 33.6075 118.221 33.6368C118.329 33.6662 118.422 33.7118 118.501 33.7736C118.58 33.8339 118.642 33.9127 118.687 34.0101C118.733 34.1075 118.756 34.2203 118.756 34.3486C118.756 34.4491 118.741 34.5511 118.71 34.6546C118.679 34.7582 118.622 34.861 118.538 34.963C118.456 35.065 118.357 35.1523 118.239 35.225C118.122 35.2976 118.001 35.3502 117.878 35.3826C117.756 35.4151 117.603 35.4313 117.421 35.4313C117.384 35.4313 117.273 35.4274 117.087 35.4197C116.882 35.4151 116.77 35.4127 116.753 35.4127C116.648 35.4127 116.519 35.4189 116.366 35.4313L116.347 35.4127V35.3362L116.366 35.3131C116.456 35.2729 116.507 35.245 116.521 35.2296C116.535 35.2141 116.546 35.0774 116.554 34.8192C116.563 34.5611 116.568 34.3641 116.568 34.228V33.3772L116.565 32.8509C116.565 32.7365 116.564 32.6438 116.561 32.5727C116.558 32.5001 116.553 32.4483 116.547 32.4174C116.542 32.3865 116.534 32.3648 116.521 32.3525C116.509 32.3401 116.491 32.33 116.468 32.3223C116.446 32.313 116.409 32.3053 116.354 32.2991L116.178 32.2852ZM117.011 33.5024C117.088 33.5086 117.175 33.5117 117.273 33.5117C117.592 33.5117 117.815 33.4545 117.94 33.3401C118.065 33.2257 118.128 33.0688 118.128 32.8695C118.128 32.7535 118.104 32.6554 118.056 32.575C118.008 32.4931 117.933 32.4305 117.829 32.3872C117.727 32.344 117.588 32.3223 117.412 32.3223C117.268 32.3223 117.141 32.3339 117.031 32.3571C117.018 32.4962 117.011 32.7389 117.011 33.0851V33.5024ZM117.015 35.1925C117.134 35.2203 117.256 35.2342 117.382 35.2342C117.603 35.2342 117.776 35.1987 117.901 35.1276C118.026 35.0565 118.118 34.9583 118.177 34.8331C118.237 34.7064 118.267 34.5688 118.267 34.4205C118.267 34.1979 118.204 34.0202 118.077 33.8872C117.952 33.7528 117.68 33.6855 117.261 33.6855C117.191 33.6855 117.108 33.6886 117.011 33.6948V34.4854L117.015 35.1925Z" fill="#2A2A2A"/>
<path d="M10.878 23.7125C10.878 25.2643 10.1268 26.4668 8.62446 27.32C7.88257 27.7404 6.92739 27.9506 5.75892 27.9506C5.38797 27.9506 5.08194 27.9475 4.84083 27.9413L2.62443 27.8949C1.83308 27.8949 1.22103 27.9135 0.788257 27.9506L0.695521 27.8578V27.5982L0.741889 27.4869C1.19939 27.1963 1.44668 27.0139 1.48378 26.9398C1.53942 26.8285 1.57342 26.4173 1.58579 25.7064L1.61361 23.6291V18.9273C1.61361 17.4559 1.57342 16.4977 1.49305 16.0525C1.46214 15.8732 1.35704 15.7589 1.17775 15.7094C1.08501 15.6847 0.723342 15.6538 0.0927362 15.6167L0 15.5239V14.8933L0.0927362 14.8099C0.642971 14.847 1.58888 14.8655 2.93046 14.8655C3.78364 14.8655 4.55335 14.85 5.23959 14.8191C5.78365 14.7944 6.24423 14.782 6.62136 14.782C8.34625 14.782 9.47764 15.1746 10.0155 15.9598C10.2999 16.374 10.4421 16.8501 10.4421 17.3879C10.4421 18.2658 10.099 18.9984 9.41272 19.5858C9.08505 19.864 8.74502 20.0711 8.39262 20.2071C7.98458 20.3617 7.53945 20.4946 7.05722 20.6059C9.60437 20.7172 10.878 21.7527 10.878 23.7125ZM7.64146 17.8423C7.64146 16.476 6.93048 15.7929 5.50853 15.7929C5.03866 15.7929 4.6399 15.8176 4.31223 15.8671C4.2875 16.5162 4.27514 17.1159 4.27514 17.6661V20.2257C4.41733 20.238 4.70172 20.2442 5.12831 20.2442C6.24733 20.2442 6.98303 19.8856 7.33543 19.1685C7.53945 18.7542 7.64146 18.3122 7.64146 17.8423ZM8.04023 24C8.04023 22.1453 7.0665 21.2179 5.11904 21.2179C4.87174 21.2179 4.59044 21.2272 4.27514 21.2458V25.5394C4.27514 26.0031 4.2875 26.4575 4.31223 26.9027C4.56571 26.9459 4.9212 26.9676 5.3787 26.9676C6.24424 26.9676 6.91194 26.6955 7.3818 26.1515C7.82075 25.6322 8.04023 24.915 8.04023 24Z" fill="#2A2A2A"/>
<path d="M22.7667 24.7975C22.6307 25.7002 22.5627 26.7203 22.5627 27.8578L22.47 27.9506L15.7281 27.8949C14.6029 27.8949 13.8084 27.9135 13.3447 27.9506L13.252 27.8578V27.5982L13.2984 27.4869C13.7559 27.1963 14.0032 27.0139 14.0403 26.9398C14.0959 26.8223 14.1299 26.4112 14.1423 25.7064L14.1701 23.6291V18.9273C14.1701 17.4559 14.1299 16.4977 14.0495 16.0525C14.0186 15.8732 13.9135 15.7589 13.7342 15.7094C13.6415 15.6847 13.2798 15.6538 12.6492 15.6167L12.5565 15.5239V14.8933L12.6492 14.8099C13.2736 14.847 14.2381 14.8655 15.5426 14.8655C16.7049 14.8655 18.9151 14.847 22.1732 14.8099L22.2752 14.8841L22.1547 15.9134C22.1176 16.2411 22.0898 16.5193 22.0712 16.748L22.0063 17.6105L21.9136 17.7125H21.3757L21.2829 17.6198C21.2768 16.779 21.2273 16.2998 21.1346 16.1824C21.0666 16.0958 20.7327 16.0278 20.133 15.9783C19.5395 15.9289 19.0171 15.9041 18.5658 15.9041C18.0279 15.9041 17.4839 15.9258 16.9336 15.9691C16.8656 16.6182 16.8316 17.5178 16.8316 18.6677V20.5873C17.32 20.6182 17.7157 20.6337 18.0186 20.6337L19.2335 20.6244C19.8023 20.6182 20.1237 20.5719 20.1979 20.4853C20.2969 20.374 20.3618 19.9567 20.3927 19.2334L20.4854 19.1406H21.0604L21.1531 19.2334C21.1284 19.9258 21.116 20.5595 21.116 21.1345C21.116 21.7589 21.1284 22.442 21.1531 23.1839L21.0604 23.2674H20.439L20.3463 23.1747C20.3463 22.4637 20.2969 22.0433 20.1979 21.9135C20.099 21.7774 19.7992 21.6878 19.2984 21.6445C18.9213 21.6136 18.5194 21.5982 18.0928 21.5982C17.6415 21.5982 17.2211 21.6136 16.8316 21.6445V24.473C16.8316 25.2829 16.8471 26.068 16.878 26.8285H18.1392C19.9445 26.8285 21.0511 26.7574 21.4591 26.6152C21.5272 26.5904 21.5766 26.5564 21.6075 26.5132C21.6693 26.4266 21.7281 26.2411 21.7837 25.9567L22.0063 24.8068L22.099 24.7048H22.6647L22.7667 24.7975Z" fill="#2A2A2A"/>
<path d="M36.603 26.2721L36.1764 27.218C34.8719 27.9351 33.4128 28.2937 31.7992 28.2937C28.572 28.2937 26.3649 27.1314 25.1779 24.8068C24.6276 23.7311 24.3525 22.5657 24.3525 21.3107C24.3525 19.2828 25.0264 17.6661 26.3742 16.4606C27.7528 15.2179 29.6354 14.5966 32.0218 14.5966C33.5365 14.5966 35.0172 14.8717 36.4639 15.4219L36.5844 15.561C36.3742 16.4142 36.2444 17.4127 36.1949 18.5564L36.1115 18.6491H35.5643L35.4716 18.5471C35.453 17.7991 35.419 17.2797 35.3696 16.9892C34.5968 16.1174 33.4808 15.6816 32.0218 15.6816C30.5195 15.6816 29.3417 16.1576 28.4886 17.1097C27.6354 18.0618 27.2088 19.3539 27.2088 20.9861C27.2088 23.1932 27.9692 24.8872 29.4901 26.068C30.3 26.6986 31.385 27.0139 32.7451 27.0139C33.9816 27.0139 35.1903 26.6955 36.3711 26.0588L36.603 26.2721Z" fill="#2A2A2A"/>
<path d="M48.8627 23.9073C48.8627 25.2674 48.3155 26.3091 47.2213 27.0325C46.2877 27.6569 45.1007 27.9691 43.6602 27.9691C43.3696 27.9691 42.8039 27.9537 41.9631 27.9228C41.4562 27.9042 41.0296 27.8949 40.6834 27.8949C40.4422 27.8949 39.5118 27.9135 37.892 27.9506L37.7993 27.8857V27.2365L37.9013 27.1438C38.4515 27.1129 38.7823 27.0819 38.8935 27.051C39.0728 27.0016 39.1779 26.8872 39.2089 26.7079C39.2892 26.2628 39.3294 25.3045 39.3294 23.8331V18.9273C39.3294 17.4559 39.2892 16.4977 39.2089 16.0525C39.1779 15.8732 39.0728 15.7589 38.8935 15.7094C38.7884 15.6785 38.4546 15.6476 37.892 15.6167L37.7993 15.5239V14.8933L37.892 14.8099C38.4237 14.847 39.3387 14.8655 40.637 14.8655C41.3109 14.8655 42.2691 14.847 43.5118 14.8099L43.6045 14.8933V15.5239L43.5118 15.6167C42.8812 15.6538 42.5195 15.6847 42.4268 15.7094C42.2475 15.7589 42.1424 15.8732 42.1115 16.0525C42.0311 16.4977 41.9909 17.4559 41.9909 18.9273V20.4204C43.6787 20.4204 44.8905 20.4853 45.6262 20.6151C47.7839 20.9985 48.8627 22.0958 48.8627 23.9073ZM46.0621 24.0835C46.0621 23.1994 45.8024 22.5193 45.2831 22.0433C44.8194 21.6229 44.2135 21.3972 43.4654 21.3663C43.1563 21.3539 42.6648 21.3478 41.9909 21.3478V26.9027C42.2815 26.9459 42.6339 26.9676 43.0481 26.9676C43.7529 26.9676 44.2661 26.9119 44.5875 26.8006C45.0512 26.6337 45.4222 26.2999 45.7004 25.7991C45.9415 25.3601 46.0621 24.7883 46.0621 24.0835Z" fill="#2A2A2A"/>
<path d="M66.9833 14.8655C66.9091 15.323 66.8689 15.796 66.8628 16.2844L66.8442 17.8331L66.7515 17.9258H66.1673L66.0652 17.8423C66.0343 17.051 66.0003 16.5873 65.9632 16.4513C65.889 16.204 65.6912 16.0587 65.3697 16.0154C65.2461 15.9969 64.6649 15.9876 63.6263 15.9876H62.3836C62.3713 16.204 62.3651 17.0634 62.3651 18.5657V23.8331C62.3651 25.3045 62.4053 26.2628 62.4856 26.7079C62.5165 26.8872 62.6216 27.0016 62.8009 27.051C62.8937 27.0758 63.2553 27.1067 63.8859 27.1438L63.9787 27.2365V27.8578L63.8859 27.9506C63.2739 27.9135 62.3218 27.8949 61.0297 27.8949C59.7066 27.8949 58.7545 27.9135 58.1734 27.9506L58.0899 27.8671V27.2365L58.1827 27.1438C58.8133 27.1067 59.1749 27.0758 59.2677 27.051C59.447 27.0016 59.5521 26.8872 59.583 26.7079C59.6634 26.2628 59.7035 25.3045 59.7035 23.8331V18.5657C59.7035 17.0386 59.6943 16.1793 59.6757 15.9876H58.3496C57.2429 15.9876 56.5969 16.0216 56.4114 16.0896C56.3125 16.1267 56.2445 16.1731 56.2074 16.2287C56.1517 16.3276 56.1054 16.5255 56.0683 16.8222C56.025 17.1499 55.9972 17.4868 55.9848 17.8331L55.8921 17.9258H55.3078L55.2058 17.8331L55.1873 16.2473C55.1811 15.8021 55.144 15.3415 55.076 14.8655L55.1595 14.7728C55.5242 14.8346 56.8535 14.8655 59.1471 14.8655H62.9029C65.0173 14.8655 66.3465 14.8346 66.8906 14.7728L66.9833 14.8655Z" fill="#2A2A2A"/>
<path d="M81.682 27.8578L81.5985 27.9506C80.2261 27.9135 79.3976 27.8949 79.1132 27.8949C77.9757 27.8949 76.9185 27.9135 75.9416 27.9506L75.8582 27.8578V27.2736L75.9509 27.1716L76.7577 27.1252C77.0978 27.1067 77.2678 26.9861 77.2678 26.7636C77.2678 26.6337 77.1812 26.3431 77.0081 25.8918L76.2569 23.9351C75.4038 23.9227 74.5321 23.9166 73.6418 23.9166C73.1596 23.9166 72.4424 23.9227 71.4903 23.9351L71.0823 25.0665C70.7731 25.9258 70.6186 26.4637 70.6186 26.6801C70.6186 26.915 70.7639 27.0541 71.0544 27.0974C71.2152 27.1221 71.5305 27.1469 72.0004 27.1716L72.0931 27.2643V27.8578L72.0004 27.9506C70.8566 27.9135 70.1209 27.8949 69.7932 27.8949C69.5398 27.8949 68.9122 27.9135 67.9107 27.9506L67.818 27.8671V27.2643L67.92 27.1716C68.5568 27.1345 68.9462 27.0078 69.0884 26.7914C69.2368 26.575 69.784 25.286 70.7299 22.9243L73.1503 16.8686C73.3296 16.3987 73.6016 15.6909 73.9664 14.7449H75.2832L80.1982 26.3091C80.3899 26.7481 80.563 26.9954 80.7176 27.051C80.9216 27.1252 81.2152 27.1623 81.5985 27.1623L81.682 27.2643V27.8578ZM75.8025 22.8686L73.818 18.0093L71.9169 22.8686C72.4239 22.8872 73.0823 22.8965 73.8922 22.8965C74.6773 22.8965 75.3141 22.8872 75.8025 22.8686Z" fill="#2A2A2A"/>
<path d="M93.8861 23.9073C93.8861 25.2674 93.3389 26.3091 92.2447 27.0325C91.3111 27.6569 90.1241 27.9691 88.6836 27.9691C88.393 27.9691 87.8273 27.9537 86.9865 27.9228C86.4796 27.9042 86.053 27.8949 85.7068 27.8949C85.4038 27.8949 84.4425 27.9135 82.8227 27.9506L82.7392 27.8857V27.2365L82.8319 27.1438C83.4625 27.1067 83.8242 27.0758 83.9169 27.051C84.0962 27.0016 84.2013 26.8872 84.2323 26.7079C84.3126 26.2628 84.3528 25.3045 84.3528 23.8331V18.9273C84.3528 17.4559 84.3126 16.4977 84.2323 16.0525C84.2013 15.8732 84.0962 15.7589 83.9169 15.7094C83.8242 15.6847 83.4625 15.6538 82.8319 15.6167L82.7392 15.5239V14.8933L82.8319 14.8099L87.849 14.8655L91.679 14.847C92.1179 14.8346 92.4889 14.8099 92.7918 14.7728L92.8938 14.8655C92.8196 15.2921 92.7794 15.7527 92.7733 16.2473L92.7547 17.8331L92.662 17.9258H92.0685L91.9757 17.8423C91.9572 17.4838 91.9386 17.1252 91.9201 16.7666C91.8521 16.2905 91.6852 16.0062 91.4193 15.9134C91.2276 15.8454 90.597 15.8114 89.5275 15.8114H87.0978C87.0422 17.3447 87.0143 18.2906 87.0143 18.6491V20.4204C88.7021 20.4204 89.9139 20.4853 90.6496 20.6151C92.8073 20.9985 93.8861 22.0958 93.8861 23.9073ZM91.0855 24.0835C91.0855 23.1994 90.8258 22.5193 90.3065 22.0433C89.8428 21.6229 89.2369 21.3972 88.4888 21.3663C88.1797 21.3539 87.6882 21.3478 87.0143 21.3478V26.9027C87.3049 26.9459 87.6573 26.9676 88.0715 26.9676C88.7763 26.9676 89.2895 26.9119 89.611 26.8006C90.0746 26.6337 90.4456 26.2999 90.7238 25.7991C90.9649 25.3601 91.0855 24.7883 91.0855 24.0835Z" fill="#2A2A2A"/>
<path d="M109.28 27.8578L109.197 27.9506C107.824 27.9135 106.996 27.8949 106.712 27.8949C105.574 27.8949 104.517 27.9135 103.54 27.9506L103.456 27.8578V27.2736L103.549 27.1716L104.356 27.1252C104.696 27.1067 104.866 26.9861 104.866 26.7636C104.866 26.6337 104.779 26.3431 104.606 25.8918L103.855 23.9351C103.002 23.9227 102.13 23.9166 101.24 23.9166C100.758 23.9166 100.041 23.9227 99.0886 23.9351L98.6805 25.0665C98.3714 25.9258 98.2169 26.4637 98.2169 26.6801C98.2169 26.915 98.3622 27.0541 98.6527 27.0974C98.8135 27.1221 99.1288 27.1469 99.5986 27.1716L99.6914 27.2643V27.8578L99.5986 27.9506C98.4549 27.9135 97.7192 27.8949 97.3915 27.8949C97.138 27.8949 96.5105 27.9135 95.509 27.9506L95.4162 27.8671V27.2643L95.5182 27.1716C96.155 27.1345 96.5445 27.0078 96.6867 26.7914C96.8351 26.575 97.3822 25.286 98.3281 22.9243L100.749 16.8686C100.928 16.3987 101.2 15.6909 101.565 14.7449H102.881L107.797 26.3091C107.988 26.7481 108.161 26.9954 108.316 27.051C108.52 27.1252 108.814 27.1623 109.197 27.1623L109.28 27.2643V27.8578ZM103.401 22.8686L101.416 18.0093L99.5152 22.8686C100.022 22.8872 100.681 22.8965 101.49 22.8965C102.276 22.8965 102.912 22.8872 103.401 22.8686Z" fill="#2A2A2A"/>
<path d="M124.016 27.8486L123.914 27.9599C122.993 27.9166 122.455 27.8949 122.3 27.8949C121.998 27.8949 121.722 27.9011 121.475 27.9135C121.11 27.932 120.879 27.9413 120.78 27.9413C120.576 27.9413 120.402 27.8857 120.26 27.7744C119.914 27.5085 119.472 27.0727 118.934 26.4668L114.613 21.6352V23.8331C114.613 25.3045 114.653 26.2628 114.733 26.7079C114.764 26.8872 114.869 27.0016 115.048 27.051C115.141 27.0758 115.503 27.1067 116.133 27.1438L116.226 27.2365V27.8578L116.143 27.9506C115.525 27.9135 114.572 27.8949 113.286 27.8949C111.957 27.8949 111.005 27.9135 110.43 27.9506L110.337 27.8671V27.2365L110.43 27.1438C111.061 27.1067 111.422 27.0758 111.515 27.051C111.695 27.0016 111.8 26.8872 111.831 26.7079C111.911 26.2628 111.951 25.3045 111.951 23.8331V18.9273C111.951 17.4559 111.911 16.4977 111.831 16.0525C111.8 15.8732 111.695 15.7589 111.515 15.7094C111.422 15.6847 111.061 15.6538 110.43 15.6167L110.337 15.5239V14.8933L110.43 14.8099C111.024 14.847 111.976 14.8655 113.286 14.8655C114.628 14.8655 115.58 14.847 116.143 14.8099L116.226 14.8933V15.5239L116.133 15.6167C115.503 15.6538 115.141 15.6847 115.048 15.7094C114.869 15.7589 114.764 15.8732 114.733 16.0525C114.653 16.4977 114.613 17.4559 114.613 18.9273V21.2272C114.916 20.9119 115.577 20.2349 116.597 19.1963C117.135 18.646 117.515 18.2473 117.738 18C118.344 17.3261 118.749 16.8562 118.953 16.5904C119.287 16.1576 119.453 15.8516 119.453 15.6723C119.453 15.5981 119.426 15.5456 119.37 15.5147L119.268 15.4312V14.9026L119.379 14.8099C120.059 14.847 120.696 14.8655 121.29 14.8655C121.698 14.8655 122.304 14.847 123.107 14.8099L123.209 14.9026V15.5239L123.117 15.6074C122.449 15.6321 121.957 15.7156 121.642 15.8578C121.382 15.9752 120.974 16.272 120.418 16.748C119.8 17.2736 119.002 18.0062 118.025 18.9459C117.661 19.3045 117.172 19.7743 116.56 20.3555L121.865 25.864C122.594 26.6244 123.283 27.0634 123.933 27.1809L124.016 27.2736V27.8486Z" fill="#2A2A2A"/>
<path d="M138.687 23.9073C138.687 25.2674 138.14 26.3091 137.046 27.0325C136.112 27.6569 134.925 27.9691 133.484 27.9691C133.194 27.9691 132.628 27.9537 131.787 27.9228C131.28 27.9042 130.854 27.8949 130.508 27.8949C129.914 27.8949 128.956 27.9135 127.633 27.9506L127.54 27.8857V27.2365L127.633 27.1438C128.263 27.1067 128.625 27.0758 128.718 27.051C128.897 27.0016 129.002 26.8872 129.033 26.7079C129.113 26.2628 129.154 25.3045 129.154 23.8331V15.8114C127.243 15.8114 126.205 15.8485 126.038 15.9227C125.828 16.0154 125.698 16.3184 125.648 16.8315C125.611 17.1963 125.586 17.5301 125.574 17.8331L125.481 17.9258H124.897L124.795 17.8331L124.777 16.2473C124.77 15.8021 124.733 15.3415 124.665 14.8655L124.749 14.7728C125.132 14.8346 126.393 14.8655 128.532 14.8655C130.523 14.8655 132.124 14.847 133.336 14.8099L133.429 14.8933V15.5239L133.336 15.6167C132.705 15.6538 132.344 15.6847 132.251 15.7094C132.072 15.7589 131.967 15.8732 131.936 16.0525C131.855 16.4977 131.815 17.4559 131.815 18.9273V20.4204C133.503 20.4204 134.715 20.4853 135.45 20.6151C137.608 20.9985 138.687 22.0958 138.687 23.9073ZM135.886 24.0835C135.886 23.1994 135.627 22.5193 135.107 22.0433C134.644 21.6229 134.038 21.3972 133.29 21.3663C132.981 21.3539 132.489 21.3478 131.815 21.3478V26.9027C132.106 26.9459 132.458 26.9676 132.872 26.9676C133.577 26.9676 134.09 26.9119 134.412 26.8006C134.875 26.6337 135.246 26.2999 135.525 25.7991C135.766 25.3601 135.886 24.7883 135.886 24.0835Z" fill="#2A2A2A"/>
<path d="M31.448 41.6014H52.4494H53.9205H54.9094H56.1094H59.1845H59.384H59.8253H60.6493H60.983H62.1597H63.3969H64.0561H64.3578H66.5881H68.1183H69.0181H69.4618H69.9068H70.8065H72.3365H74.5673H74.8688H75.9065H76.647H77.9419H78.2756V40.776H77.9416H76.647H75.9065H74.8688H74.5673H72.3365H70.8065H69.9068H69.4618H69.0181H68.1183H66.5881H64.3576H64.0561H63.3969H62.1597H60.983H60.6493H59.8253H59.384H59.1845H56.1094H54.9094H53.9205H52.4494H31.448H26.3602L26.7727 41.6014H31.448Z" fill="#2A2A2A"/>
<path d="M51.0015 43.479H52.4494H53.9205H54.9094H56.1094H59.1845H59.384H59.8253H60.6493H60.983H62.1597H63.3969H64.0561H64.3578H66.4776C65.8706 43.6595 65.427 44.1055 65.375 44.7043C65.2924 45.5181 65.9316 46.0077 66.5881 46.0565C67.0157 46.0892 67.4496 45.9354 67.6971 45.5626C67.9466 45.1857 67.8129 44.6397 67.3618 44.5745H67.3594L67.3499 44.5735L67.298 44.5698C67.0745 44.5698 66.8928 44.7513 66.8928 44.9749C66.8928 45.1986 67.0745 45.3804 67.298 45.3804C67.5217 45.3804 67.7029 45.1986 67.7029 44.9749L67.7005 44.9317C67.8316 45.3018 67.4301 45.7075 66.8952 45.7257C66.7928 45.7288 66.6881 45.7193 66.5881 45.6972C66.1626 45.602 65.8065 45.2733 65.9004 44.7175C65.9822 44.2928 66.2505 44.0422 66.5881 43.9264C67.0484 43.7689 67.6375 43.861 68.0582 44.1047L68.1183 44.1427C68.5298 44.4078 68.7311 44.8256 68.6464 45.3292C68.5836 45.7009 68.394 45.9905 68.1183 46.2018C67.7361 46.4964 67.1885 46.6415 66.5881 46.6531C66.3199 46.6587 66.0413 46.637 65.7622 46.5901C65.256 46.5054 64.7258 46.3445 64.3578 46.0805C64.2376 45.995 64.1349 45.8984 64.0561 45.79L64.0265 45.7489L64.0561 45.7473C64.1647 45.741 64.2655 45.7238 64.3578 45.6972C64.8532 45.5542 65.1025 45.1435 65.1096 44.7882C65.1178 44.3751 64.7717 44.1248 64.3795 44.1485L64.3578 44.1509C64.2478 44.1617 64.1458 44.1992 64.0561 44.2585C63.7047 44.492 63.5428 45.0628 63.8569 45.6824C63.7409 45.6932 63.652 45.6829 63.5412 45.6645L63.3969 45.627L63.3906 45.6249L63.3969 45.6041C63.4164 45.5321 63.4275 45.4569 63.4275 45.3783C63.4275 45.3002 63.4164 45.224 63.3969 45.1525C63.298 44.7953 62.9711 44.5326 62.5815 44.5326C62.428 44.5326 62.284 44.574 62.1597 44.6463C61.9065 44.7919 61.7364 45.0654 61.7364 45.3783C61.7364 45.6914 61.9065 45.9647 62.1597 46.1108C62.284 46.1828 62.428 46.2237 62.5815 46.2237C62.9326 46.2237 63.2344 46.0092 63.3618 45.7046L63.3969 45.718L63.5277 45.7513C63.6525 45.7729 63.7796 45.7795 63.9031 45.7689C63.9485 45.847 63.9988 45.9201 64.0561 45.9908C64.1444 46.1018 64.2449 46.2036 64.3578 46.2975C64.9252 46.7721 65.7654 47.0277 66.5881 47.038C67.1352 47.0451 67.6739 46.9433 68.1183 46.727C68.5119 46.5352 68.8308 46.2543 69.0181 45.8776C69.0938 45.7251 69.1481 45.5566 69.1764 45.3725C69.2328 45.0037 69.1669 44.6766 69.0181 44.4012C68.8279 44.0488 68.5011 43.7792 68.1183 43.6078C68.0025 43.5555 67.8815 43.512 67.7577 43.479H68.1183H69.0181H69.4618H69.9068H70.8065H71.1669C71.0434 43.512 70.9226 43.5555 70.8065 43.6078C70.4241 43.7792 70.0978 44.0488 69.9068 44.4012C69.758 44.6766 69.6921 45.0032 69.7485 45.3725C69.7762 45.5574 69.8311 45.7251 69.9068 45.8781C70.0941 46.2543 70.4127 46.536 70.8065 46.727C71.251 46.9433 71.7897 47.0451 72.3365 47.038C73.159 47.0277 73.9996 46.7729 74.5673 46.2975C74.6791 46.2036 74.7804 46.1018 74.8688 45.9908C74.9258 45.9206 74.9767 45.847 75.0218 45.7689C75.145 45.7795 75.2724 45.7729 75.3972 45.7513L75.5628 45.7046C75.6325 45.871 75.7535 46.01 75.9065 46.1024C76.0339 46.1794 76.1832 46.2237 76.3423 46.2237C76.4502 46.2237 76.5528 46.2036 76.647 46.1667C76.964 46.0451 77.1882 45.7378 77.1882 45.3783C77.1882 45.0187 76.964 44.7117 76.647 44.589C76.5528 44.5529 76.4502 44.5326 76.3423 44.5326C76.1832 44.5326 76.0339 44.5772 75.9065 44.6537C75.6612 44.8016 75.4974 45.0712 75.4974 45.3783C75.4974 45.4645 75.5101 45.5466 75.5343 45.6249L75.384 45.6645C75.2729 45.6829 75.1832 45.6932 75.068 45.6824C75.3821 45.0628 75.2202 44.492 74.8688 44.2585C74.7791 44.1984 74.677 44.1617 74.5673 44.1509L74.5449 44.1485C74.1532 44.1248 73.8071 44.3751 73.8152 44.7882C73.8224 45.1435 74.0716 45.5542 74.5673 45.6972C74.6594 45.7238 74.7596 45.741 74.8688 45.7473L74.8983 45.7489L74.8688 45.79C74.7899 45.8984 74.6873 45.995 74.5673 46.0805C74.1993 46.3445 73.6689 46.5054 73.1627 46.5901C72.8828 46.637 72.6042 46.6587 72.3365 46.6531C71.7361 46.6415 71.1885 46.4964 70.8065 46.2018C70.5309 45.9905 70.3407 45.7014 70.2785 45.3292C70.1935 44.8256 70.395 44.4078 70.8065 44.1427L70.8667 44.1047C71.2874 43.861 71.8767 43.7689 72.3365 43.9264C72.6744 44.0422 72.9426 44.2928 73.0252 44.7175C73.1181 45.2733 72.7617 45.602 72.3365 45.6972C72.236 45.7193 72.132 45.7288 72.0294 45.7257C71.4948 45.7075 71.0925 45.3018 71.2238 44.9317L71.222 44.9749C71.222 45.1986 71.4027 45.3804 71.6266 45.3804C71.8506 45.3804 72.0321 45.1986 72.0321 44.9749C72.0321 44.7513 71.8506 44.5698 71.6266 44.5698L71.575 44.5735L71.5654 44.5745H71.5628C71.1123 44.6397 70.9783 45.1857 71.2275 45.5626C71.4744 45.9348 71.9092 46.0892 72.3365 46.0565C72.9933 46.0077 73.6322 45.5181 73.5496 44.7043C73.4979 44.1055 73.0542 43.6595 72.447 43.479H74.5673H74.8688H75.9065H76.647H77.9419H78.2756V42.6537H77.9416H76.647H75.9065H74.8688L74.5673 42.6534H72.3365L70.8065 42.6537H69.9068H69.4618H69.0181L68.1183 42.6534H66.5881L64.3578 42.6537H64.0561H63.3969H62.1597H60.983H60.6493H59.8253H59.384H59.1845H56.1094H54.9094L53.9205 42.6534H52.4494H50.5894L51.0015 43.479Z" fill="#2A2A2A"/>
<path d="M59.4204 45.3783C59.4204 45.602 59.6016 45.7832 59.8253 45.7832C60.0487 45.7832 60.2304 45.602 60.2304 45.3783C60.2304 45.1546 60.0487 44.9728 59.8253 44.9728C59.6016 44.9728 59.4204 45.1546 59.4204 45.3783Z" fill="#2A2A2A"/>
<path d="M60.3668 45.3783C60.3668 45.5959 60.4789 45.7863 60.6493 45.8963C60.7453 45.9586 60.8603 45.995 60.983 45.995C61.3233 45.995 61.5997 45.7188 61.5997 45.3783C61.5997 45.0372 61.3233 44.7621 60.983 44.7621C60.8603 44.7621 60.7453 44.7977 60.6493 44.8605C60.4789 44.9697 60.3668 45.1612 60.3668 45.3783Z" fill="#2A2A2A"/>
<path d="M67.8596 48.2094C67.9495 48.21 68.0358 48.1899 68.1183 48.1527C68.4979 47.9813 68.8018 47.4595 69.0181 47.0132C69.1094 46.8235 69.1856 46.6476 69.2449 46.5189C69.2449 46.5189 69.1993 46.6101 69.0181 46.7515L68.9421 46.8077C68.7118 46.9707 68.423 47.0973 68.1183 47.1883C67.7422 47.302 67.3418 47.3614 66.9925 47.3675C67.0682 47.7792 67.4824 48.2071 67.8596 48.2094Z" fill="#2A2A2A"/>
<path d="M69.0181 47.6186C68.8936 47.9618 68.7915 48.2931 68.7915 48.459C68.7915 48.6938 68.8757 48.8718 69.0181 49.0615C69.1326 49.2145 69.2856 49.3751 69.4618 49.5785H69.4626C69.639 49.3751 69.7923 49.2145 69.9068 49.0615C70.0492 48.8718 70.1339 48.6938 70.1339 48.459C70.1339 48.2931 70.0316 47.9618 69.9068 47.6186C69.7166 47.0947 69.4742 46.5447 69.4626 46.5194V46.5189L69.4618 46.5194C69.4504 46.5447 69.2083 47.0947 69.0181 47.6186Z" fill="#2A2A2A"/>
<path d="M69.6802 46.5189C69.7387 46.6479 69.8152 46.8235 69.9068 47.0132C70.1223 47.4595 70.427 47.9821 70.8065 48.1527C70.8891 48.1899 70.9751 48.21 71.0653 48.2094C71.4425 48.2071 71.8567 47.7792 71.9324 47.3675C71.5831 47.3614 71.1824 47.302 70.8065 47.1883C70.5019 47.0973 70.213 46.9707 69.9827 46.8077L69.9068 46.7515C69.7253 46.6101 69.6802 46.5189 69.6802 46.5189Z" fill="#2A2A2A"/>
<path d="M77.3254 45.3783C77.3254 45.7188 77.6011 45.995 77.9419 45.995C78.0645 45.995 78.1795 45.9586 78.2756 45.8963L78.3813 45.8098C78.4903 45.699 78.5581 45.5466 78.5581 45.3783C78.5581 45.2102 78.4903 45.0578 78.3813 44.9459L78.2756 44.8605C78.1795 44.7977 78.0645 44.7621 77.9419 44.7621C77.6011 44.7621 77.3254 45.0372 77.3254 45.3783Z" fill="#2A2A2A"/>
<path d="M78.2756 43.479H78.3813H79.0999H79.5356H79.8651H82.8155H84.0149H85.0044H87.9231L88.3354 42.6534L85.0044 42.6537H84.0149H82.8155H79.8651H79.5356H79.0996H78.3813H78.2756V43.479Z" fill="#2A2A2A"/>
<path d="M78.2756 41.6014H78.3813H79.0999H79.5356H79.8651H82.8155H84.0149H85.0044H105.886H112.152L112.565 40.776H105.886H85.0044H84.0149H82.8155H79.8651H79.5356H79.0996H78.3813H78.2756V41.6014Z" fill="#2A2A2A"/>
<path d="M78.6944 45.3783C78.6944 45.602 78.8751 45.7832 79.0999 45.7832C79.3233 45.7832 79.5045 45.602 79.5045 45.3783C79.5045 45.1546 79.3233 44.9728 79.0999 44.9728C78.8751 44.9728 78.6944 45.1546 78.6944 45.3783Z" fill="#2A2A2A"/>
<path d="M122.86 7.97705L83.6581 7.97706L82.187 7.97706H81.1981H79.9981H76.923H76.7235H76.2822H75.4582H75.1245L73.9478 7.97706H72.7106H72.0514H71.7496H69.5194H67.9892H67.0894H66.6457H66.2007L65.3009 7.97706H63.771H61.5402H61.2387H60.201H59.4605H58.1656H57.8319V8.80244H58.1659L59.4605 8.80243H60.201H61.2387H61.5402H63.771H65.3009H66.2007H66.6457H67.0894H67.9892H69.5194H71.7499H72.0514H72.7106H73.9478H75.1245H75.4582H76.2822L76.7235 8.80243H76.923H79.9981H81.1981H82.187H83.6581L122.86 8.80243H127.948L127.536 7.97705L122.86 7.97705Z" fill="#2A2A2A"/>
<path d="M87.9236 6.09945H86.4757L85.0046 6.09945H84.0156H82.8157H79.7405H79.5411H79.0998H78.2757H77.9421L76.7653 6.09945H75.5282H74.869H74.5672L72.4475 6.09945C73.0544 5.91902 73.4981 5.47297 73.5501 4.87418C73.6326 4.06041 72.9935 3.57083 72.3369 3.52203C71.9093 3.48932 71.4754 3.64311 71.228 4.01583C70.9784 4.39278 71.1122 4.93881 71.5633 5.00396H71.5656L71.5751 5.00502L71.6271 5.00871C71.8505 5.00871 72.0323 4.82723 72.0323 4.60354C72.0323 4.37985 71.8505 4.1981 71.6271 4.1981C71.4034 4.1981 71.2222 4.37985 71.2222 4.60354L71.2246 4.6468C71.0935 4.27671 71.4949 3.87101 72.0299 3.85281C72.1322 3.84965 72.237 3.85914 72.3369 3.8813C72.7624 3.97653 73.1185 4.3052 73.0246 4.86099C72.9428 5.28568 72.6746 5.53628 72.3369 5.65208C71.8766 5.80955 71.2876 5.71749 70.8669 5.47376L70.8067 5.43577C70.3952 5.17067 70.194 4.75284 70.2786 4.24928C70.3414 3.87761 70.5311 3.58797 70.8067 3.37668C71.1889 3.08204 71.7366 2.93696 72.3369 2.92535C72.6052 2.91981 72.8838 2.94144 73.1628 2.9884C73.669 3.07307 74.1992 3.23398 74.5672 3.49802C74.6875 3.58349 74.7901 3.68003 74.869 3.78845L74.8985 3.8296L74.869 3.83118C74.7603 3.83751 74.6595 3.85466 74.5672 3.8813C74.0718 4.02427 73.8226 4.43498 73.8154 4.7903C73.8073 5.20338 74.1533 5.45371 74.5456 5.42997L74.5672 5.4276C74.6772 5.41678 74.7793 5.37932 74.869 5.31997C75.2204 5.08652 75.3823 4.5157 75.0681 3.89607C75.1842 3.88526 75.2731 3.89555 75.3839 3.91401L75.5282 3.95147L75.5345 3.95358L75.5282 3.97442C75.5087 4.04643 75.4976 4.12161 75.4976 4.20021C75.4976 4.27829 75.5087 4.35453 75.5282 4.42601C75.6271 4.78317 75.9539 5.0459 76.3435 5.0459C76.4971 5.0459 76.6411 5.00449 76.7653 4.93221C77.0186 4.7866 77.1887 4.51306 77.1887 4.20021C77.1887 3.8871 77.0186 3.61382 76.7653 3.46769C76.6411 3.39568 76.4971 3.35479 76.3435 3.35479C75.9924 3.35479 75.6907 3.56925 75.5633 3.87391L75.5282 3.86046L75.3973 3.82722C75.2726 3.80559 75.1454 3.799 75.022 3.80955C74.9766 3.73147 74.9262 3.6584 74.869 3.58771C74.7806 3.47666 74.6801 3.37484 74.5672 3.28093C73.9998 2.80639 73.1597 2.55078 72.3369 2.54049C71.7898 2.53337 71.2512 2.63519 70.8067 2.85149C70.4132 3.04326 70.0943 3.32419 69.907 3.70087C69.8313 3.85334 69.7769 4.0219 69.7487 4.20602C69.6922 4.57479 69.7582 4.90188 69.907 5.17727C70.0972 5.52968 70.424 5.79927 70.8067 5.97073C70.9225 6.02295 71.0436 6.06648 71.1673 6.09945H70.8067H69.907H69.4633H69.0183H68.1185H67.7582C67.8816 6.06648 68.0025 6.02296 68.1185 5.97073C68.501 5.79927 68.8273 5.52968 69.0183 5.17727C69.1671 4.90188 69.233 4.57531 69.1766 4.20602C69.1489 4.02111 69.094 3.85334 69.0183 3.70035C68.831 3.32419 68.5123 3.04247 68.1185 2.85149C67.674 2.63519 67.1354 2.53337 66.5886 2.54049C65.7661 2.55078 64.9254 2.80559 64.3578 3.28093C64.2459 3.37484 64.1446 3.47666 64.0563 3.58771C63.9993 3.65788 63.9484 3.73147 63.9033 3.80955C63.7801 3.799 63.6527 3.8056 63.5279 3.82723L63.3623 3.87392C63.2926 3.70747 63.1715 3.56846 63.0185 3.47613C62.8911 3.39911 62.7418 3.35479 62.5828 3.35479C62.4749 3.35479 62.3723 3.37484 62.2781 3.41177C61.961 3.53337 61.7368 3.84068 61.7368 4.20022C61.7368 4.55975 61.961 4.86679 62.2781 4.98945C62.3723 5.02559 62.4749 5.0459 62.5828 5.0459C62.7418 5.0459 62.8911 5.00132 63.0185 4.92483C63.2639 4.77684 63.4277 4.50726 63.4277 4.20022C63.4277 4.11396 63.415 4.03192 63.3907 3.95358L63.5411 3.91401C63.6521 3.89555 63.7418 3.88526 63.8571 3.89607C63.5429 4.5157 63.7049 5.08652 64.0563 5.31997C64.146 5.38012 64.248 5.41678 64.3578 5.4276L64.3802 5.42997C64.7719 5.45371 65.118 5.20338 65.1098 4.7903C65.1027 4.43498 64.8534 4.02427 64.3578 3.8813C64.2657 3.85466 64.1655 3.83751 64.0563 3.83118L64.0267 3.8296L64.0563 3.78845C64.1351 3.68004 64.2377 3.58349 64.3578 3.49803C64.7257 3.23398 65.2562 3.07307 65.7624 2.9884C66.0423 2.94144 66.3208 2.91981 66.5886 2.92535C67.1889 2.93696 67.7366 3.08204 68.1185 3.37669C68.3942 3.58798 68.5844 3.87708 68.6466 4.24928C68.7315 4.75284 68.53 5.17067 68.1185 5.43577L68.0584 5.47376C67.6376 5.71749 67.0483 5.80956 66.5886 5.65208C66.2507 5.53628 65.9824 5.28568 65.8998 4.86099C65.807 4.3052 66.1634 3.97653 66.5886 3.8813C66.6891 3.85914 66.793 3.84965 66.8956 3.85281C67.4303 3.87101 67.8326 4.27671 67.7012 4.6468L67.7031 4.60354C67.7031 4.37985 67.5224 4.1981 67.2984 4.1981C67.0745 4.1981 66.893 4.37985 66.893 4.60354C66.893 4.82723 67.0745 5.00871 67.2984 5.00871L67.3501 5.00502L67.3596 5.00396H67.3623C67.8128 4.93881 67.9468 4.39278 67.6975 4.01583C67.4506 3.64363 67.0159 3.48932 66.5886 3.52203C65.9318 3.57083 65.2929 4.06041 65.3754 4.87418C65.4271 5.47297 65.8708 5.91902 66.4781 6.09945L64.3578 6.09945H64.0563H63.0185H62.2781H60.9832H60.6495V6.92483H60.9835H62.2781H63.0185H64.0563L64.3578 6.92509H66.5886L68.1185 6.92483H69.0183H69.4633H69.907L70.8067 6.92509L72.3369 6.92509L74.5672 6.92483L74.869 6.92483H75.5282H76.7653H77.9421H78.2757H79.0998H79.5411H79.7405H82.8157L84.0156 6.92483L85.0046 6.92509H86.4757H88.3356L87.9236 6.09945Z" fill="#2A2A2A"/>
<path d="M79.5047 4.20021C79.5047 3.97653 79.3235 3.79531 79.0998 3.79531C78.8764 3.79531 78.6946 3.97653 78.6946 4.20021C78.6946 4.4239 78.8764 4.60565 79.0998 4.60565C79.3235 4.60565 79.5047 4.4239 79.5047 4.20021Z" fill="#2A2A2A"/>
<path d="M78.5583 4.20021C78.5583 3.98259 78.4461 3.79214 78.2757 3.68214C78.1797 3.61989 78.0647 3.58349 77.9421 3.58349C77.6018 3.58349 77.3253 3.85967 77.3253 4.20021C77.3253 4.54129 77.6018 4.81641 77.9421 4.81641C78.0647 4.81641 78.1797 4.7808 78.2757 4.71802C78.4461 4.60881 78.5583 4.41731 78.5583 4.20021Z" fill="#2A2A2A"/>
<path d="M71.0655 1.36903C70.9755 1.36851 70.8893 1.38855 70.8067 1.42575C70.4271 1.5972 70.1233 2.11897 69.907 2.56529C69.8157 2.75495 69.7395 2.93089 69.6801 3.05962C69.6801 3.05962 69.7258 2.96835 69.907 2.82696L69.9829 2.77078C70.2132 2.60776 70.5021 2.48114 70.8067 2.39014C71.1829 2.27645 71.5833 2.21709 71.9326 2.21103C71.8568 1.79926 71.4427 1.37141 71.0655 1.36903Z" fill="#2A2A2A"/>
<path d="M69.907 1.95991C70.0315 1.61673 70.1336 1.28541 70.1336 1.11949C70.1336 0.884728 70.0494 0.706674 69.907 0.517014C69.7925 0.36402 69.6395 0.203377 69.4633 0L69.4625 0C69.286 0.203377 69.1328 0.36402 69.0183 0.517014C68.8758 0.706674 68.7912 0.884728 68.7912 1.11949C68.7912 1.28541 68.8935 1.61673 69.0183 1.95991C69.2085 2.48378 69.4509 3.03377 69.4625 3.05909V3.05962L69.4633 3.05909C69.4746 3.03377 69.7168 2.48378 69.907 1.95991Z" fill="#2A2A2A"/>
<path d="M69.2449 3.05962C69.1863 2.93063 69.1098 2.75495 69.0183 2.56529C68.8028 2.11897 68.4981 1.59641 68.1185 1.42575C68.036 1.38855 67.95 1.36851 67.8597 1.36903C67.4825 1.37141 67.0684 1.79926 66.9927 2.21103C67.3419 2.2171 67.7426 2.27645 68.1185 2.39014C68.4232 2.48114 68.712 2.60776 68.9423 2.77078L69.0183 2.82696C69.1998 2.96835 69.2449 3.05962 69.2449 3.05962Z" fill="#2A2A2A"/>
<path d="M61.5997 4.20022C61.5997 3.85967 61.324 3.58349 60.9832 3.58349C60.8605 3.58349 60.7455 3.61989 60.6495 3.68215L60.5437 3.76867C60.4348 3.87946 60.367 4.03192 60.367 4.20022C60.367 4.36824 60.4348 4.52071 60.5437 4.63256L60.6495 4.71802C60.7455 4.7808 60.8605 4.81641 60.9832 4.81641C61.324 4.81641 61.5997 4.54129 61.5997 4.20022Z" fill="#2A2A2A"/>
<path d="M60.6495 6.09945H60.5437L59.8252 6.09945H59.3894H59.06H56.1095H54.9101H53.9207L51.0019 6.09945L50.5896 6.92509L53.9207 6.92483H54.9101H56.1095L59.06 6.92483H59.3894H59.8254H60.5437H60.6495V6.09945Z" fill="#2A2A2A"/>
<path d="M57.8319 7.97706H57.7262H57.0076L56.5718 7.97706H56.2424H53.292H52.0926H51.1031L17.9559 7.97706L11.69 7.97706L11.2766 8.80244L17.9559 8.80244L51.1031 8.80244H52.0926H53.292H56.2424H56.5718H57.0079H57.7262H57.8319V7.97706Z" fill="#2A2A2A"/>
<path d="M60.2306 4.20022C60.2306 3.97653 60.0499 3.79531 59.8252 3.79531C59.6018 3.79531 59.4205 3.97653 59.4205 4.20022C59.4205 4.4239 59.6018 4.60565 59.8252 4.60565C60.0499 4.60565 60.2306 4.4239 60.2306 4.20022Z" fill="#2A2A2A"/>
</svg>
