<svg width="400" height="34" viewBox="0 0 400 34" fill="none" xmlns="http://www.w3.org/2000/svg">
<path d="M380.505 30.8119L254.32 30.8119L248.683 30.8119H244.893H240.296H228.512H227.748H226.057H222.9H221.621L217.112 30.8119H212.372H209.846H208.69H200.144H194.28H190.833H189.133H187.428L183.98 30.8119H178.118H169.57H168.415H164.438H161.601H156.639H155.361V34H156.64L161.601 34H164.438H168.415H169.57H178.118H183.98H187.428H189.133H190.833H194.28H200.144H208.691H209.846H212.372H217.112H221.621H222.9H226.057L227.748 34H228.512H240.296H244.893H248.683H254.32L380.505 34H400L398.419 30.8119L380.505 30.8119Z" fill="#F6A65F"/>
<path d="M270.664 23.5595H265.116L259.479 23.5595H255.69H251.092H239.308H238.544H236.853H233.696H232.417L227.908 23.5595H223.168H220.642H219.486L211.363 23.5595C213.689 22.8626 215.389 21.1397 215.588 18.8268C215.905 15.6836 213.456 13.7926 210.94 13.6041C209.302 13.4777 207.639 14.0717 206.691 15.5114C205.735 16.9674 206.247 19.0765 207.975 19.3281H207.984L208.021 19.3322L208.22 19.3465C209.076 19.3465 209.773 18.6455 209.773 17.7815C209.773 16.9175 209.076 16.2155 208.22 16.2155C207.363 16.2155 206.669 16.9175 206.669 17.7815L206.678 17.9486C206.175 16.5191 207.714 14.952 209.763 14.8817C210.156 14.8695 210.557 14.9062 210.94 14.9918C212.57 15.3596 213.935 16.6291 213.575 18.7759C213.262 20.4163 212.234 21.3842 210.94 21.8315C209.176 22.4398 206.919 22.0842 205.307 21.1427L205.077 20.996C203.5 19.9721 202.729 18.3582 203.053 16.4131C203.294 14.9775 204.02 13.8588 205.077 13.0427C206.541 11.9046 208.639 11.3442 210.94 11.2994C211.968 11.278 213.035 11.3615 214.105 11.5429C216.044 11.8699 218.076 12.4915 219.486 13.5113C219.947 13.8415 220.34 14.2144 220.642 14.6331L220.755 14.7921L220.642 14.7982C220.226 14.8226 219.84 14.8889 219.486 14.9918C217.588 15.544 216.632 17.1304 216.605 18.5028C216.574 20.0984 217.9 21.0653 219.403 20.9736L219.486 20.9644C219.907 20.9227 220.298 20.778 220.642 20.5487C221.988 19.647 222.609 17.4422 221.405 15.0488C221.85 15.0071 222.191 15.0468 222.615 15.1181L223.168 15.2628L223.192 15.271L223.168 15.3514C223.093 15.6296 223.051 15.92 223.051 16.2236C223.051 16.5252 223.093 16.8196 223.168 17.0958C223.547 18.4753 224.799 19.4901 226.292 19.4901C226.88 19.4901 227.432 19.3302 227.908 19.051C228.879 18.4886 229.531 17.432 229.531 16.2236C229.531 15.0142 228.879 13.9586 227.908 13.3942C227.432 13.116 226.88 12.9581 226.292 12.9581C224.947 12.9581 223.79 13.7864 223.302 14.9633L223.168 14.9113L222.667 14.7829C222.188 14.6994 221.701 14.6739 221.228 14.7146C221.054 14.4131 220.861 14.1308 220.642 13.8578C220.303 13.4288 219.918 13.0355 219.486 12.6728C217.312 10.8398 214.092 9.85256 210.94 9.81282C208.844 9.78531 206.78 10.1786 205.077 11.0141C203.569 11.7548 202.347 12.8399 201.629 14.2949C201.339 14.8838 201.131 15.5348 201.023 16.246C200.806 17.6704 201.059 18.9338 201.629 19.9975C202.358 21.3588 203.61 22.4 205.077 23.0623C205.52 23.2641 205.984 23.4322 206.458 23.5595H205.077H201.629H199.929H198.224H194.776H193.395C193.868 23.4322 194.331 23.2641 194.776 23.0623C196.242 22.4001 197.492 21.3588 198.224 19.9975C198.794 18.9338 199.047 17.6725 198.83 16.246C198.724 15.5318 198.514 14.8838 198.224 14.2928C197.506 12.8399 196.285 11.7517 194.776 11.0141C193.073 10.1786 191.009 9.78531 188.914 9.81282C185.762 9.85256 182.541 10.8368 180.366 12.6728C179.937 13.0355 179.549 13.4288 179.211 13.8578C178.992 14.1288 178.797 14.4131 178.624 14.7146C178.152 14.6739 177.664 14.6994 177.186 14.7829L176.551 14.9633C176.285 14.3203 175.821 13.7834 175.234 13.4268C174.746 13.1293 174.174 12.9581 173.565 12.9581C173.151 12.9581 172.758 13.0355 172.397 13.1782C171.182 13.6479 170.323 14.8349 170.323 16.2236C170.323 17.6123 171.182 18.7983 172.397 19.2721C172.758 19.4117 173.151 19.4901 173.565 19.4901C174.174 19.4901 174.746 19.3179 175.234 19.0225C176.174 18.4509 176.802 17.4096 176.802 16.2236C176.802 15.8904 176.754 15.5736 176.661 15.271L177.237 15.1181C177.662 15.0468 178.006 15.0071 178.448 15.0488C177.244 17.4422 177.864 19.647 179.211 20.5487C179.554 20.781 179.945 20.9227 180.366 20.9644L180.452 20.9736C181.953 21.0653 183.279 20.0984 183.248 18.5028C183.22 17.1304 182.265 15.544 180.366 14.9918C180.013 14.8889 179.629 14.8227 179.211 14.7982L179.097 14.7921L179.211 14.6331C179.513 14.2144 179.906 13.8415 180.366 13.5114C181.776 12.4915 183.809 11.8699 185.748 11.5429C186.821 11.3615 187.888 11.278 188.914 11.2994C191.214 11.3442 193.313 11.9046 194.776 13.0427C195.832 13.8588 196.561 14.9755 196.8 16.4131C197.125 18.3582 196.353 19.9721 194.776 20.996L194.546 21.1427C192.934 22.0842 190.676 22.4398 188.914 21.8315C187.619 21.3842 186.591 20.4163 186.275 18.7759C185.919 16.6291 187.284 15.3596 188.914 14.9918C189.299 14.9062 189.697 14.8695 190.09 14.8817C192.139 14.952 193.68 16.5191 193.177 17.9486L193.184 17.7815C193.184 16.9175 192.492 16.2155 191.634 16.2155C190.776 16.2155 190.08 16.9175 190.08 17.7815C190.08 18.6455 190.776 19.3465 191.634 19.3465L191.832 19.3322L191.868 19.3281H191.878C193.605 19.0765 194.118 16.9674 193.163 15.5114C192.217 14.0738 190.551 13.4777 188.914 13.6041C186.397 13.7926 183.949 15.6836 184.265 18.8268C184.463 21.1397 186.164 22.8626 188.49 23.5595L180.366 23.5595H179.211H175.234H172.397H167.435H166.157V26.7476H167.437H172.397H175.234H179.211L180.366 26.7486H188.914L194.776 26.7476H198.224H199.929H201.629L205.077 26.7486L210.94 26.7486L219.486 26.7476L220.642 26.7476H223.168H227.908H232.417H233.696H236.853H238.544H239.308H251.092L255.69 26.7476L259.479 26.7486H265.116H272.243L270.664 23.5595Z" fill="#F6A65F"/>
<path d="M238.405 16.2236C238.405 15.3596 237.711 14.6596 236.853 14.6596C235.997 14.6596 235.301 15.3596 235.301 16.2236C235.301 17.0876 235.997 17.7896 236.853 17.7896C237.711 17.7896 238.405 17.0876 238.405 16.2236Z" fill="#F6A65F"/>
<path d="M234.778 16.2236C234.778 15.383 234.349 14.6474 233.696 14.2225C233.328 13.9821 232.887 13.8415 232.417 13.8415C231.113 13.8415 230.054 14.9082 230.054 16.2236C230.054 17.541 231.113 18.6037 232.417 18.6037C232.887 18.6037 233.328 18.4662 233.696 18.2237C234.349 17.8018 234.778 17.0621 234.778 16.2236Z" fill="#F6A65F"/>
<path d="M206.068 5.28798C205.723 5.28594 205.393 5.36338 205.077 5.50704C203.622 6.16931 202.458 8.18465 201.629 9.9086C201.279 10.6412 200.987 11.3208 200.76 11.818C200.76 11.818 200.935 11.4654 201.629 10.9193L201.92 10.7023C202.802 10.0726 203.909 9.58357 205.077 9.23206C206.518 8.79292 208.052 8.56367 209.39 8.54024C209.1 6.94977 207.513 5.29715 206.068 5.28798Z" fill="#F6A65F"/>
<path d="M201.629 7.57027C202.106 6.24471 202.497 4.96499 202.497 4.32412C202.497 3.41732 202.175 2.72957 201.629 1.997C201.19 1.40605 200.604 0.785555 199.929 0L199.926 2.66879e-10C199.25 0.785556 198.662 1.40605 198.224 1.997C197.678 2.72957 197.354 3.41732 197.354 4.32412C197.354 4.965 197.746 6.24471 198.224 7.57027C198.953 9.59376 199.881 11.7181 199.926 11.8159V11.818L199.929 11.8159C199.972 11.7181 200.9 9.59376 201.629 7.57027Z" fill="#F6A65F"/>
<path d="M199.092 11.818C198.868 11.3197 198.574 10.6412 198.224 9.9086C197.398 8.18465 196.231 6.16625 194.776 5.50704C194.46 5.36338 194.13 5.28595 193.785 5.28798C192.339 5.29715 190.752 6.94977 190.462 8.54024C191.801 8.56368 193.336 8.79292 194.776 9.23206C195.944 9.58357 197.05 10.0726 197.933 10.7023L198.224 10.9193C198.919 11.4654 199.092 11.818 199.092 11.818Z" fill="#F6A65F"/>
<path d="M169.798 16.2236C169.798 14.9082 168.741 13.8415 167.435 13.8415C166.966 13.8415 166.525 13.9821 166.157 14.2225L165.752 14.5567C165.334 14.9846 165.074 15.5736 165.074 16.2236C165.074 16.8726 165.334 17.4615 165.752 17.8935L166.157 18.2237C166.525 18.4662 166.966 18.6037 167.435 18.6037C168.741 18.6037 169.798 17.541 169.798 16.2236Z" fill="#F6A65F"/>
<path d="M166.157 23.5595H165.752L162.998 23.5595H161.329H160.066H148.761H144.165H140.374L129.19 23.5595L127.61 26.7486L140.374 26.7476H144.165H148.761L160.066 26.7476H161.329H162.999H165.752H166.157V23.5595Z" fill="#F6A65F"/>
<path d="M155.361 30.8119H154.955H152.202L150.532 30.8119H149.27H137.965H133.369H129.578L25.593 30.8119L1.58385 30.8119L0 34L25.593 34L129.578 34H133.369H137.965H149.27H150.532H152.203H154.955H155.361V30.8119Z" fill="#F6A65F"/>
<path d="M164.552 16.2236C164.552 15.3596 163.859 14.6596 162.998 14.6596C162.142 14.6596 161.448 15.3596 161.448 16.2236C161.448 17.0876 162.142 17.7896 162.998 17.7896C163.859 17.7896 164.552 17.0876 164.552 16.2236Z" fill="#F6A65F"/>
</svg>
